<?xml version="1.0" standalone="no"?>
<!DOCTYPE svg PUBLIC "-//W3C//DTD SVG 1.1//EN" "http://www.w3.org/Graphics/SVG/1.1/DTD/svg11.dtd" >
<svg xmlns="http://www.w3.org/2000/svg">
<metadata></metadata>
<defs>
<font id="titilliummaps26l500_wt" horiz-adv-x="530" >
<font-face units-per-em="1000" ascent="750" descent="-250" />
<missing-glyph horiz-adv-x="235" />
<glyph unicode=" "  horiz-adv-x="235" />
<glyph unicode="&#x09;" horiz-adv-x="235" />
<glyph unicode="&#xa0;" horiz-adv-x="235" />
<glyph unicode="!" horiz-adv-x="396" d="M155 0v123h92v-123h-92zM158 236l-3 463h92l-3 -463h-86z" />
<glyph unicode="&#x22;" horiz-adv-x="317" d="M284 455h-79l-1 240h83zM121 455h-79l-1 240h83z" />
<glyph unicode="#" d="M521 177h-108v-177h-76v177h-146v-177h-76v177h-108v72h108v166h-108v72h108v178h76v-178h146v178h76v-178h108v-72h-108v-166h108v-72zM337 249v166h-146v-166h146z" />
<glyph unicode="$" d="M171 -113l19 108l-127 15l7 77q68 -9 133 -14l41 232q-104 25 -146.5 61.5t-42.5 128.5q0 93 57 134.5t166 41.5q19 0 30 -1l21 120h45l-22 -123l122 -12l-3 -79q-71 8 -132 12l-37 -212q111 -28 151 -63t40 -123q0 -105 -53.5 -152.5t-159.5 -47.5q-13 0 -45 2l-19 -112 zM404 189q0 48 -24.5 68.5t-91.5 37.5l-39 -225h30q64 0 94.5 28t30.5 91zM144 495q0 -49 24 -70t90 -38l36 204h-16q-67 0 -100.5 -20.5t-33.5 -75.5z" />
<glyph unicode="%" d="M130 645q-24 0 -34.5 -19.5t-10.5 -63.5q0 -86 45 -86q25 0 35 21t10 65t-10 63.5t-35 19.5zM142 6l195 704l59 -17l-195 -705zM19 562q0 139 111 139q112 0 112 -139q0 -71 -29.5 -106.5t-82.5 -35.5q-111 0 -111 142zM300 142q0 139 112 139q111 0 111 -139 q0 -71 -29.5 -106.5t-81.5 -35.5q-53 0 -82.5 35.5t-29.5 106.5zM367 142q0 -44 10 -65t35 -21t35 21t10 65t-10 63.5t-35 19.5t-35 -19.5t-10 -63.5z" />
<glyph unicode="&#x26;" horiz-adv-x="700" d="M323 702q86 0 132 -41t46 -117q0 -69 -33.5 -110.5t-115.5 -83.5l134 -134q18 56 29 132l82 -2q-16 -103 -46 -184l120 -115l-52 -58l-111 104q-46 -56 -98.5 -80t-130.5 -24q-117 0 -175.5 56.5t-58.5 162.5q0 139 152 196q-29 36 -40.5 68t-11.5 78q0 70 49.5 111 t128.5 41zM282 67q100 0 163 79l-196 200q-118 -37 -118 -137q0 -68 38 -105t113 -37zM230 540q0 -67 44 -111l26 -26q65 30 90.5 58t25.5 76q0 88 -93 88q-44 0 -68.5 -23t-24.5 -62z" />
<glyph unicode="'" horiz-adv-x="100" d="M7 465l-2 230h83l-3 -230h-78z" />
<glyph unicode="(" horiz-adv-x="260" d="M127 750h91q-11 -29 -26.5 -77.5t-42 -168t-26.5 -203.5q0 -83 23.5 -189.5t47.5 -171.5l24 -65h-91q-11 25 -27 68t-43 156t-27 202t24 201t48 180z" />
<glyph unicode=")" horiz-adv-x="260" d="M117 -120h-91q11 29 26.5 77.5t42 168t26.5 203.5q0 83 -23.5 189.5t-47.5 171.5l-24 65h91q11 -25 27 -68t43 -156t27 -202t-24 -201t-48 -180z" />
<glyph unicode="*" d="M442 499h-131l41 -125l-61 -19l-42 126l-107 -80l-38 50l109 80l-107 78l38 52l105 -76l43 124l62 -21l-42 -124h130v-65z" />
<glyph unicode="+" d="M45 246v84h177v179h88v-179h177v-84h-177v-179h-88v179h-177z" />
<glyph unicode="," horiz-adv-x="170" d="M20 -123l47 235h92l-56 -235h-83z" />
<glyph unicode="-" horiz-adv-x="440" d="M70 230v80h300v-80h-300z" />
<glyph unicode="." horiz-adv-x="248" d="M71 0v123h92v-123h-92z" />
<glyph unicode="/" d="M82 16l280 695l81 -29l-280 -695z" />
<glyph unicode="0" d="M264 671q58 0 100 -17t74.5 -56t49 -108.5t16.5 -169.5q0 -183 -61.5 -257t-177.5 -74q-56 0 -98 16t-75 52.5t-50 102.5t-17 161q0 194 61 272t178 78zM265 590q-77 0 -112 -59t-35 -211q0 -142 36 -196t111 -54q76 0 111 54t35 197q0 152 -34.5 210.5t-111.5 58.5z" />
<glyph unicode="1" d="M63 520l206 140h82v-660h-87v561l-161 -110z" />
<glyph unicode="2" d="M475 0h-424v78l188 189q69 70 99.5 116t30.5 99q0 106 -134 106q-31 0 -74 -5t-71 -11l-28 -5l-6 78q109 26 197 26q206 0 206 -179q0 -73 -30.5 -126.5t-100.5 -123.5l-163 -160h310v-82z" />
<glyph unicode="3" d="M61 646q108 25 193 25q111 0 161 -42.5t50 -131.5q0 -18 -3.5 -34t-7.5 -28t-12.5 -23.5t-14 -18.5t-16 -15.5t-15 -11.5t-14.5 -10l-11 -6q56 -21 82.5 -54.5t26.5 -105.5q0 -201 -212 -201q-44 0 -97.5 6t-85.5 11l-32 6l9 76q13 -2 34 -5t73 -7.5t89 -4.5 q132 0 132 116q0 110 -125 113h-129v77h129q40 0 75 32t35 78q0 54 -31 78t-94 24q-38 0 -83 -4.5t-71 -8.5l-26 -5z" />
<glyph unicode="4" d="M333 -5v124h-304v70l192 471h94l-186 -460h204v206h87v-206h77v-81h-77v-124h-87z" />
<glyph unicode="5" d="M81 660h379v-82h-300l-17 -197q76 34 133 34q210 0 210 -198q0 -112 -59 -169.5t-159 -57.5q-43 0 -97.5 7t-87.5 15l-33 7l10 76q120 -24 205 -24q59 0 95 36.5t36 105.5q0 123 -128 123q-32 0 -66.5 -9t-53.5 -17l-18 -9l-70 13z" />
<glyph unicode="6" d="M472 651l-8 -77q-94 16 -172 16q-166 0 -167 -216q89 39 155 39q219 0 219 -203q0 -106 -61 -163.5t-168 -57.5q-116 0 -175.5 88.5t-59.5 254.5q0 339 257 339q33 0 78 -5t74 -10zM274 336q-31 0 -68.5 -8t-59.5 -16l-22 -9q2 -105 37.5 -169.5t108.5 -64.5 q65 0 102 36.5t37 104.5q0 63 -36 94.5t-99 31.5z" />
<glyph unicode="7" d="M56 578v82h401v-116l-248 -558l-81 25l239 537v30h-311z" />
<glyph unicode="8" d="M268 671q107 0 171.5 -44.5t64.5 -128.5q0 -61 -23.5 -93.5t-81.5 -60.5q56 -24 85.5 -61t29.5 -99q0 -102 -67.5 -149t-178.5 -47q-110 0 -177 44t-67 141q0 66 28.5 104t81.5 67q-52 28 -75.5 62.5t-23.5 92.5q0 83 63 127.5t170 44.5zM268 68q153 0 153 121 q0 48 -27 73t-79 40h-98q-50 -14 -74.5 -41.5t-24.5 -76.5q0 -116 150 -116zM269 592q-141 0 -141 -105q0 -41 21.5 -66.5t67.5 -43.5h98q49 17 72.5 43t23.5 67q0 105 -142 105z" />
<glyph unicode="9" d="M59 11l9 75q94 -17 172 -17q168 0 169 212l-26 -8q-26 -8 -66 -17t-68 -9q-100 0 -157 52.5t-57 154.5t63 159.5t163 57.5q117 0 177 -87t60 -255q0 -183 -67 -261.5t-191 -78.5q-33 0 -78 5.5t-74 11.5zM256 325q28 0 66.5 7.5t63.5 14.5l24 7q-1 112 -37.5 174.5 t-110.5 62.5q-62 0 -99.5 -36.5t-37.5 -100.5q0 -129 131 -129z" />
<glyph unicode=":" horiz-adv-x="185" d="M56 316v123h92v-123h-92zM56 0v123h92v-123h-92z" />
<glyph unicode=";" horiz-adv-x="205" d="M20 -118l52 240h93l-67 -240h-78zM65 316v123h92v-123h-92z" />
<glyph unicode="&#x3c;" d="M424 449l-255 -153l255 -160v-90l-337 204v88l337 201v-90z" />
<glyph unicode="=" d="M57 329v83h415v-83h-415zM57 139v83h415v-83h-415z" />
<glyph unicode="&#x3e;" d="M357 296l-255 153v90l337 -201v-88l-337 -204v90z" />
<glyph unicode="?" horiz-adv-x="386" d="M383 533q0 -38 -18 -74.5t-43.5 -64.5t-50.5 -54t-43 -52.5t-18 -49.5v-38h-85q-4 41 -4 51q0 30 17.5 61.5t42.5 58t50.5 51.5t43 51.5t17.5 50.5q0 55 -26 77.5t-93 22.5q-22 0 -59.5 -5t-63.5 -11l-27 -5l-10 77q109 31 168 31q105 0 153.5 -40.5t48.5 -137.5zM120 0 v118h92v-118h-92z" />
<glyph unicode="@" horiz-adv-x="985" d="M935 305v-17q0 -93 -11.5 -153.5t-36.5 -91.5t-55 -42t-75 -11q-48 0 -75 10.5t-44 42.5q-99 -52 -171 -52q-30 0 -54 5.5t-48 21.5t-40 43t-26 73t-10 108q0 134 44 200.5t157 66.5q19 0 47 -6.5t47 -12.5l18 -6v16h85v-200q0 -110 6.5 -157.5t19 -60t44.5 -12.5 q33 0 50.5 12t29.5 61t12 145v18q0 180 -80 258t-265 78q-188 0 -278 -91t-90 -290q0 -212 85 -298t283 -86l143 10l4 -82q-99 -9 -147 -9q-116 0 -197 22t-140.5 74.5t-88 143.5t-28.5 225q0 463 454 463q223 0 327 -103.5t104 -315.5zM473 73q57 0 138 37q-9 57 -9 160 v141q-58 18 -97 18q-77 0 -103.5 -42t-26.5 -146q0 -98 26.5 -133t71.5 -35z" />
<glyph unicode="A" horiz-adv-x="604" d="M32 0l184 695h174l182 -695h-87l-49 167h-270l-47 -167h-87zM283 618l-98 -371h233l-96 371h-39z" />
<glyph unicode="B" horiz-adv-x="616" d="M91 695h243q96 0 151.5 -44t55.5 -129q0 -123 -86 -165q106 -38 106 -162q0 -100 -58 -147.5t-158 -47.5h-254v695zM338 314h-161v-236h165q59 0 94 30.5t35 92.5q0 43 -24.5 70t-52 35t-56.5 8zM330 616h-153v-227h159q56 0 86 32.5t30 88.5q0 51 -32 78.5t-90 27.5z " />
<glyph unicode="C" horiz-adv-x="533" d="M487 88l3 -79q-113 -20 -187 -20q-75 0 -124.5 23t-76.5 71.5t-37.5 110.5t-10.5 152q0 186 54 272.5t195 86.5q38 0 84.5 -5.5t74.5 -10.5l28 -5l-3 -78q-111 16 -174 16q-101 0 -135 -64t-34 -212q0 -147 34 -210.5t137 -63.5q25 0 68 4t73 8z" />
<glyph unicode="D" horiz-adv-x="639" d="M327 0h-236v695h236q74 0 125.5 -24t80 -70.5t41 -105t12.5 -136.5q0 -63 -7 -114.5t-25 -98t-47 -78t-74.5 -50t-105.5 -18.5zM496 359q0 57 -7.5 100t-25.5 79.5t-52 56t-84 19.5h-150v-534h150q169 0 169 279z" />
<glyph unicode="E" horiz-adv-x="562" d="M91 0v695h414v-81h-328v-225h268v-79h-268v-230h328v-80h-414z" />
<glyph unicode="F" horiz-adv-x="550" d="M91 0v695h414v-81h-328v-262h268v-79h-268v-273h-86z" />
<glyph unicode="G" horiz-adv-x="606" d="M351 285v76h190v-350q-142 -22 -221 -22q-147 0 -206 90t-59 268q0 181 58.5 269.5t203.5 88.5q44 0 100 -6t90 -12l34 -6l-4 -77q-123 19 -209 19q-106 0 -144.5 -65t-38.5 -211t37.5 -211t143.5 -65q14 0 32.5 1t34.5 3t30 4t22.5 3t9.5 1v202h-104z" />
<glyph unicode="H" horiz-adv-x="679" d="M502 0v311h-325v-311h-86v695h86v-304h325v304h86v-695h-86z" />
<glyph unicode="I" horiz-adv-x="252" d="M82 0v695h87v-695h-87z" />
<glyph unicode="J" horiz-adv-x="309" d="M224 695l1 -585q0 -110 -38.5 -145.5t-149.5 -35.5v77q61 1 81.5 22t20.5 88v579h85z" />
<glyph unicode="K" horiz-adv-x="594" d="M451 0l-172 302l-102 -5v-297h-86v695h86v-319l100 5l166 314h101l-190 -348l200 -347h-103z" />
<glyph unicode="L" horiz-adv-x="507" d="M462 0h-371v695h86v-614h285v-81z" />
<glyph unicode="M" horiz-adv-x="849" d="M91 0v695h149l185 -576l186 576h147v-695h-86v596h-15l-186 -571h-94l-185 571h-15v-596h-86z" />
<glyph unicode="N" horiz-adv-x="694" d="M91 0v695h156l249 -606h19v606h87v-695h-152l-253 606h-19v-606h-87z" />
<glyph unicode="O" horiz-adv-x="650" d="M325 70q101 0 140.5 62.5t39.5 210.5q0 146 -41 214t-139 68q-99 0 -139.5 -67.5t-40.5 -214.5q0 -146 39.5 -209.5t140.5 -63.5zM325 -11q-146 0 -208 85.5t-62 268.5t62.5 272.5t207.5 89.5t207.5 -89.5t62.5 -272.5q0 -185 -61.5 -269.5t-208.5 -84.5z" />
<glyph unicode="P" horiz-adv-x="603" d="M334 227h-156v-227h-87v695h243q110 0 167 -58t57 -168q0 -113 -58 -177.5t-166 -64.5zM178 307h155q68 0 102 44t34 118q0 146 -136 146h-155v-308z" />
<glyph unicode="Q" horiz-adv-x="650" d="M483 -147l-81 144q-37 -8 -77 -8q-151 0 -210.5 87t-59.5 267t60.5 271t209.5 91t209.5 -90.5t60.5 -271.5q0 -123 -25 -201t-85 -115l76 -136zM325 70q105 0 142.5 63.5t37.5 209.5q0 144 -38.5 213t-141.5 69q-104 0 -142 -68.5t-38 -213.5q0 -143 38 -208t142 -65z " />
<glyph unicode="R" horiz-adv-x="621" d="M354 259l-23 -1h-154v-258h-86v695h247q224 0 224 -215q0 -159 -122 -201l127 -279h-96zM472 479q0 65 -35 100t-99 35h-161v-277h162q68 0 100.5 39t32.5 103z" />
<glyph unicode="S" horiz-adv-x="533" d="M477 686l-4 -76q-136 16 -194 16q-138 0 -138 -106q0 -57 33.5 -82t125.5 -50q109 -29 151.5 -67t42.5 -121q0 -109 -54 -159.5t-168 -50.5q-38 0 -90.5 5t-85.5 10l-34 5l5 76q132 -15 198 -15q142 0 142 126q0 48 -32.5 72t-117.5 46q-113 31 -158 72.5t-45 130.5 q0 93 57 140.5t164 47.5q39 0 89.5 -5t81.5 -10z" />
<glyph unicode="T" horiz-adv-x="490" d="M8 611v84h473v-84h-192v-611h-86v611h-195z" />
<glyph unicode="U" horiz-adv-x="644" d="M167 213q0 -73 38 -106.5t114 -33.5q79 0 118.5 33.5t39.5 106.5v482h86v-482q0 -115 -59.5 -168.5t-184.5 -53.5q-121 0 -180 53.5t-59 168.5v482h87v-482z" />
<glyph unicode="V" horiz-adv-x="596" d="M473 695h90l-174 -695h-181l-176 695h91l152 -616h47z" />
<glyph unicode="W" horiz-adv-x="906" d="M39 695h90l121 -616h27l127 606h98l130 -606h26l119 616h90l-142 -695h-155l-117 570l-114 -570h-156z" />
<glyph unicode="X" horiz-adv-x="581" d="M130 695l161 -288l159 288h98l-200 -351l200 -344h-98l-159 282l-161 -282h-98l204 344l-204 351h98z" />
<glyph unicode="Y" horiz-adv-x="555" d="M322 298v-298h-86v298l-214 397h97l159 -305l157 305h98z" />
<glyph unicode="Z" horiz-adv-x="570" d="M65 613v82h440v-100l-336 -496v-18h336v-82h-440v99l335 496v19h-335z" />
<glyph unicode="[" horiz-adv-x="300" d="M256 749v-82h-131v-708h131v-82h-218v872h218z" />
<glyph unicode="\" horiz-adv-x="529" d="M456 7l-87 -7l-304 694l87 7z" />
<glyph unicode="]" horiz-adv-x="300" d="M36 667v82h218v-872h-218v82h131v708h-131z" />
<glyph unicode="^" d="M396 323l-133 253l-131 -253h-90l176 337h88l181 -337h-91z" />
<glyph unicode="_" d="M27 -85h476v-78h-476v78z" />
<glyph unicode="`" horiz-adv-x="545" d="M149 753l225 -94l-28 -70l-227 85z" />
<glyph unicode="a" horiz-adv-x="523" d="M434 346v-236q6 -24 19 -34t38 -14l-5 -72q-81 0 -122 38q-78 -39 -164 -39q-64 0 -104.5 43t-40.5 112q0 137 156 150l139 13v40q0 85 -78 85q-37 0 -84.5 -3t-75.5 -7l-29 -3l-3 71q119 20 196 20q79 0 118.5 -39.5t39.5 -124.5zM350 242l-130 -10q-79 -6 -79 -86 q0 -37 19 -61t50 -24t66 7t54 14l20 7v153z" />
<glyph unicode="b" horiz-adv-x="542" d="M308 510q184 0 184 -252q0 -137 -54 -203t-182 -66q-26 0 -67 2.5t-69 5.5l-29 3v715h85v-235q66 30 132 30zM255 64q46 0 76.5 14.5t46 42.5t21.5 59.5t6 76.5q0 177 -106 177q-29 0 -60 -6t-47 -12l-16 -6v-342q54 -4 79 -4z" />
<glyph unicode="c" horiz-adv-x="436" d="M260 510q26 0 59 -3.5t53 -6.5l21 -4l-3 -72q-72 8 -110 8q-77 0 -108 -40.5t-31 -133.5q0 -102 29.5 -146.5t109.5 -44.5l111 7l3 -72q-78 -13 -135 -13q-112 0 -158 63.5t-46 205.5q0 129 49 190.5t156 61.5z" />
<glyph unicode="d" horiz-adv-x="542" d="M455 715v-715h-84v28q-71 -38 -137 -38q-179 0 -179 259q0 261 206 261q25 0 110 -13v218h84zM246 66q25 0 56 8t50 16l19 8v327q-65 10 -105 10q-126 0 -126 -188q0 -181 106 -181z" />
<glyph unicode="e" horiz-adv-x="507" d="M260 64q32 0 76.5 2t73.5 4l28 3l2 -65q-99 -19 -186 -19q-108 0 -155 65.5t-47 191.5q0 130 54 197t153 67q199 0 199 -232l-5 -63h-315q0 -151 122 -151zM137 281h236q0 81 -27.5 119t-86.5 38q-121 0 -122 -157z" />
<glyph unicode="f" horiz-adv-x="335" d="M172 425v-425h-85v425h-59v74h59v42q0 99 32.5 141t104.5 42l95 -8l-1 -70q-46 3 -76 3q-39 0 -54.5 -25t-15.5 -84v-41h139v-74h-139z" />
<glyph unicode="g" horiz-adv-x="521" d="M264 -240q-106 0 -160.5 36t-54.5 118q0 38 19.5 66.5t58.5 58.5q-29 20 -29 69q0 9 9 29t17 36l9 16q-77 46 -77 149q0 82 52.5 127t133.5 45q20 0 43 -3t36 -7l13 -3l153 3v-70h-88q31 -37 31 -92q0 -170 -191 -170q-23 0 -43 4q-17 -42 -17 -55q0 -28 17.5 -35.5 t93.5 -7.5q106 0 151 -30.5t45 -112.5q0 -85 -60.5 -128t-161.5 -43zM283 1l-99 5q-27 -23 -39 -41t-12 -43q0 -87 132 -87q135 0 135 92q0 45 -26 59.5t-91 14.5zM239 237q107 0 107 101t-105 101q-49 0 -74.5 -26.5t-25.5 -74.5q0 -101 98 -101z" />
<glyph unicode="h" horiz-adv-x="564" d="M171 0h-85v715h85v-237q80 32 141 32q96 0 132 -59t36 -190v-261h-85v260q0 92 -19 132.5t-78 40.5q-25 0 -56.5 -6.5t-51.5 -13.5l-19 -7v-406z" />
<glyph unicode="i" horiz-adv-x="241" d="M78 0v499h85v-499h-85zM78 600v95h85v-95h-85z" />
<glyph unicode="j" horiz-adv-x="252" d="M89 6v493h84v-494q0 -95 -31 -140.5t-132 -97.5l-37 71q74 42 95 72t21 96zM89 600v95h84v-95h-84z" />
<glyph unicode="k" horiz-adv-x="500" d="M176 0h-85v715h85v-415l64 4l139 195h95l-158 -231l162 -268h-96l-140 223l-66 -5v-218z" />
<glyph unicode="l" horiz-adv-x="246" d="M81 0v715h84v-715h-84z" />
<glyph unicode="m" horiz-adv-x="861" d="M181 0h-85v499h84v-32q76 43 134 43q80 0 125 -47q108 47 175 47q95 0 131.5 -58t36.5 -192v-260h-85v257q0 97 -18.5 136.5t-78.5 39.5q-26 0 -58.5 -9t-51.5 -18l-20 -9q14 -38 14 -138v-259h-84v257q0 94 -21.5 135t-78.5 41q-25 0 -54.5 -8.5t-47.5 -17.5l-17 -9 v-398z" />
<glyph unicode="n" horiz-adv-x="567" d="M176 0h-85v499h85v-31q75 42 142 42q96 0 131.5 -59t35.5 -191v-260h-84v259q0 93 -19 133.5t-78 40.5q-27 0 -59 -8.5t-51 -16.5l-18 -9v-399z" />
<glyph unicode="o" horiz-adv-x="528" d="M265 510q111 0 160.5 -66t49.5 -190q0 -130 -47 -197.5t-163 -67.5q-119 0 -166 66t-47 200q0 127 48.5 191t164.5 64zM265 63q73 0 98.5 47.5t25.5 143.5q0 91 -28.5 136.5t-95.5 45.5q-70 0 -98 -43.5t-28 -137.5q0 -100 25.5 -146t100.5 -46z" />
<glyph unicode="p" horiz-adv-x="543" d="M91 -220v719h85v-31q65 42 135 42q182 0 182 -255q0 -141 -52 -203.5t-165 -62.5q-45 0 -100 10v-219h-85zM298 434q-27 0 -57.5 -9t-47.5 -19l-17 -9v-324q50 -9 95 -9q74 0 104.5 46.5t30.5 146.5q0 84 -27.5 130.5t-80.5 46.5z" />
<glyph unicode="q" horiz-adv-x="541" d="M249 -11q-105 0 -149.5 64t-44.5 190q0 134 52 200.5t171 66.5l176 -11v-720h-84v235q-60 -25 -121 -25zM279 435q-76 0 -107.5 -47t-31.5 -144q0 -179 114 -179q27 0 56 6t44 12l16 6v341q-61 5 -91 5z" />
<glyph unicode="r" horiz-adv-x="357" d="M84 0v499h84v-62q72 55 161 73v-89q-40 -8 -80.5 -23.5t-60.5 -27.5l-20 -11v-359h-84z" />
<glyph unicode="s" horiz-adv-x="490" d="M414 490l-2 -70q-113 15 -171 15q-97 0 -97 -71q0 -30 23 -45t90 -26q98 -16 135.5 -46t37.5 -100q0 -158 -191 -158q-29 0 -72.5 5t-72.5 10l-30 5l4 71q113 -16 164 -16q59 0 86 18t27 62q0 34 -21.5 47.5t-91.5 25.5q-93 17 -133.5 46.5t-40.5 97.5q0 77 51.5 113 t126.5 36q33 0 77.5 -5t72.5 -10z" />
<glyph unicode="t" horiz-adv-x="361" d="M323 424h-145v-229q0 -73 14 -101.5t53 -28.5l80 5l4 -70q-59 -11 -94 -11q-76 0 -108.5 42t-32.5 142v251h-67v75h67v152h84v-152h145v-75z" />
<glyph unicode="u" horiz-adv-x="559" d="M388 499h84v-499h-84v30q-76 -41 -137 -41q-96 0 -131.5 56.5t-35.5 193.5v260h84v-259q0 -98 19.5 -137t77.5 -39q25 0 55.5 9t49.5 17l18 9v400z" />
<glyph unicode="v" horiz-adv-x="482" d="M26 499h88l112 -429h30l113 429h87l-137 -499h-158z" />
<glyph unicode="w" horiz-adv-x="755" d="M27 499h84l92 -423h24l106 414h89l106 -414h23l93 423h84l-113 -499h-146l-92 377l-93 -377h-145z" />
<glyph unicode="x" horiz-adv-x="461" d="M28 499h92l110 -189l111 189h92l-151 -250l150 -249h-92l-110 188l-109 -188h-92l150 249z" />
<glyph unicode="y" horiz-adv-x="482" d="M26 499h84l116 -418h29l117 418h84l-200 -719h-84l62 220h-72z" />
<glyph unicode="z" horiz-adv-x="479" d="M59 424v76h360l1 -76l-262 -349h262v-75h-360l-1 75l262 349h-262z" />
<glyph unicode="{" horiz-adv-x="312" d="M201 170q0 -17 -3.5 -57.5t-3.5 -58.5q0 -51 22 -74t85 -27l-1 -82q-104 4 -150 44.5t-46 129.5q0 21 3.5 66t3.5 56q0 43 -22 68t-77 40v72q56 14 77.5 38t21.5 67q0 13 -3.5 60.5t-3.5 67.5q0 92 45.5 132t150.5 44l1 -82q-63 -4 -85 -26t-22 -73q0 -17 3.5 -63.5 t3.5 -60.5q0 -62 -22 -91.5t-78 -47.5q55 -18 77.5 -49.5t22.5 -92.5z" />
<glyph unicode="|" d="M216 -250v1000h87v-1000h-87z" />
<glyph unicode="}" horiz-adv-x="312" d="M105 453q0 17 3.5 57.5t3.5 58.5q0 51 -22 74t-85 27l1 82q104 -4 150 -44.5t46 -129.5q0 -21 -3.5 -66t-3.5 -56q0 -43 22 -68t77 -40v-72q-56 -14 -77.5 -38t-21.5 -67q0 -13 3.5 -60.5t3.5 -67.5q0 -92 -45.5 -132t-150.5 -44l-1 82q63 4 85 26t22 73q0 17 -3.5 63.5 t-3.5 60.5q0 62 22 91.5t78 47.5q-55 18 -77.5 49.5t-22.5 92.5z" />
<glyph unicode="~" d="M459 379l8 -81q-6 -6 -16 -15t-38.5 -23.5t-53.5 -14.5q-30 0 -98 24.5t-88 24.5q-19 0 -44.5 -11.5t-41.5 -22.5l-16 -12l-8 80q6 6 17 15t41 24t56 15q30 0 96 -24.5t88 -24.5q17 0 41.5 11.5t40.5 23.5z" />
<glyph unicode="&#xa1;" horiz-adv-x="396" d="M248 499v-123h-92v123h92zM245 263l3 -463h-92l3 463h86z" />
<glyph unicode="&#xa2;" horiz-adv-x="437" d="M214 -80v115q-93 5 -136 52.5t-43 160.5q0 207 178 217v116h74v-119l96 -10l-3 -75q-89 7 -127 7q-73 0 -101.5 -30t-28.5 -106q0 -77 28.5 -104.5t106.5 -27.5l123 6l3 -75q-55 -7 -97 -10v-117h-73z" />
<glyph unicode="&#xa3;" d="M453 662l-4 -73q-103 9 -132 9q-47 0 -64.5 -25t-17.5 -99v-48h208v-77h-208v-270h149l76 16l14 -77l-81 -17q-51 0 -169 -0.5t-170 -0.5v79h98v270h-80v77h80v49q0 115 35.5 160t111.5 45q21 0 59.5 -4.5t66.5 -9.5z" />
<glyph unicode="&#xa4;" horiz-adv-x="529" d="M432 25l-71 71q-44 -28 -96.5 -28t-96.5 28l-71 -71l-59 59l71 71q-28 44 -28 96.5t28 96.5l-71 71l59 59l71 -71q44 28 96.5 28t96.5 -28l71 71l59 -59l-71 -71q28 -44 28 -96.5t-28 -96.5l71 -71zM191 178q30 -30 73.5 -30t74.5 30q30 30 30 73.5t-30 74.5 q-31 30 -74.5 30t-73.5 -30q-30 -31 -30 -74.5t30 -73.5z" />
<glyph unicode="&#xa5;" horiz-adv-x="540" d="M47 306v73h134l-171 281h97l164 -275l162 275h97l-169 -281h131v-73h-169l-8 -14v-64h177v-73h-177v-155h-87v155h-180v73h180v64l-8 14h-173z" />
<glyph unicode="&#xa6;" d="M217 750h87v-412h-87v412zM217 174h87v-424h-87v424z" />
<glyph unicode="&#xa7;" d="M442 630l-4 -70q-110 15 -158 15q-63 0 -90.5 -20.5t-27.5 -67.5q0 -43 30 -60t112 -34q88 -18 123.5 -46.5t35.5 -98.5q0 -36 -14.5 -74t-29.5 -59q37 -32 37 -101q0 -87 -48 -129t-147 -42q-29 0 -73 4.5t-74 8.5l-30 5l8 70q109 -14 164 -14q118 0 118 91q0 42 -28 57 t-115 33q-90 18 -128 49t-38 101q0 38 21 75.5t38 51.5q-44 32 -44 111q0 163 196 163q30 0 71.5 -4.5t68.5 -9.5zM268 324q-62 11 -88 21q-30 -45 -30 -84q0 -41 23 -59t81 -28q73 -16 100 -28q6 8 15 36.5t9 54.5q0 41 -24.5 58t-85.5 29z" />
<glyph unicode="&#xa8;" horiz-adv-x="687" d="M89 622v97h82v-97h-82zM292 622v97h82v-97h-82z" />
<glyph unicode="&#xa9;" d="M10 434q0 111 73 188.5t182 77.5t182.5 -77.5t73.5 -188.5t-73.5 -188t-182.5 -77t-182 77t-73 188zM42 434q0 -98 63.5 -165.5t159.5 -67.5t160 67.5t64 165.5t-64 166t-160 68t-159.5 -68t-63.5 -166zM338 321l1 -32q-43 -8 -74 -8q-62 0 -85.5 38.5t-23.5 113.5 q0 76 23 115t86 39q17 0 35.5 -1.5t28.5 -3.5l10 -2l-1 -32q-41 7 -73 7q-49 0 -63 -28t-14 -94q0 -62 16 -91t61 -29z" />
<glyph unicode="&#xaa;" d="M358 568v-119q3 -22 29 -26l-3 -51q-48 2 -68 21q-58 -21 -107 -21q-40 0 -63 24t-23 68q0 82 90 86l87 5v14q0 41 -39 41l-118 -6l-2 52q90 10 127 10q43 0 66.5 -25.5t23.5 -72.5zM300 508l-80 -4q-37 -1 -37 -41q0 -38 34 -38q15 0 35.5 3t33.5 6l14 3v71z" />
<glyph unicode="&#xab;" horiz-adv-x="543" d="M250 339l-122 -90l122 -102v-88l-195 155v66l195 146v-87zM483 339l-122 -90l122 -102v-88l-195 155v66l195 146v-87z" />
<glyph unicode="&#xac;" d="M58 350h414v-240h-83v158h-331v82z" />
<glyph unicode="&#xae;" d="M10 434q0 111 73 188.5t182 77.5t182.5 -77.5t73.5 -188.5t-73.5 -188t-182.5 -77t-182 77t-73 188zM42 434q0 -98 63.5 -165.5t159.5 -67.5t160 67.5t64 165.5t-64 166t-160 68t-159.5 -68t-63.5 -166zM340 276l-66 131h-79v-131h-32v315h91q64 0 89.5 -20t25.5 -70 q0 -76 -59 -91l65 -134h-35zM275 439q34 0 48 13.5t14 48.5q0 33 -19 45.5t-61 12.5h-62v-120h80z" />
<glyph unicode="&#xaf;" horiz-adv-x="466" d="M81 632v74h297v-74h-297z" />
<glyph unicode="&#xb0;" d="M101 564q0 64 39.5 103.5t103.5 39.5t103.5 -39.5t39.5 -103.5t-39.5 -103t-103.5 -39t-103.5 39t-39.5 103zM155 564q0 -41 24.5 -65.5t64.5 -24.5t65 25t25 65t-25 65t-65 25t-64.5 -25t-24.5 -65z" />
<glyph unicode="&#xb1;" d="M43 285v84h178v134h88v-134h178v-84h-178v-123h-88v123h-178zM43 123h444v-84h-444v84z" />
<glyph unicode="&#xb2;" horiz-adv-x="265" d="M234 478h-213v62l85 81q50 45 50 78t-47 33l-83 -9l-3 66q62 11 106 11q53 0 77 -22.5t24 -70.5q0 -33 -14.5 -57.5t-45.5 -52.5l-57 -55h121v-64z" />
<glyph unicode="&#xb3;" horiz-adv-x="265" d="M28 790q61 10 103 10q109 0 109 -85q0 -51 -39 -74q24 -8 35 -24t11 -52q0 -97 -109 -97q-22 0 -50.5 2t-45.5 4l-18 3l5 63q57 -8 99 -8q46 0 46 37q0 38 -43 38h-66v59h65q13 0 24 11t11 28q0 30 -42 30l-90 -7z" />
<glyph unicode="&#xb4;" horiz-adv-x="576" d="M119 660l225 94l30 -79l-227 -85z" />
<glyph unicode="&#xb6;" d="M375 0v632h-100v-632h-74v328h-7q-81 0 -133.5 51.5t-52.5 133.5t52.5 134.5t133.5 52.5h330v-68h-74v-632h-75z" />
<glyph unicode="&#xb7;" horiz-adv-x="248" d="M71 238v123h92v-123h-92z" />
<glyph unicode="&#xb8;" horiz-adv-x="833" d="M563 -127q0 -44 -25.5 -66.5t-70.5 -22.5q-20 0 -41.5 2t-33.5 4l-12 1l3 53q37 -2 63 -2q43 0 43 36q0 32 -43 32h-39v91h43v-48q61 -1 87 -17.5t26 -62.5z" />
<glyph unicode="&#xb9;" horiz-adv-x="265" d="M27 719l103 71h66v-312h-71v234l-65 -44z" />
<glyph unicode="&#xba;" d="M254 665q128 0 128 -144q0 -149 -128 -149q-127 0 -127 149q0 76 32 110t95 34zM254 428q36 0 51.5 21t15.5 72q0 48 -16 68t-51 20q-36 0 -51 -19.5t-15 -68.5q0 -51 15 -72t51 -21z" />
<glyph unicode="&#xbb;" horiz-adv-x="543" d="M415 254l-122 90v87l195 -146v-66l-195 -155v88zM182 254l-122 90v87l195 -146v-66l-195 -155v88z" />
<glyph unicode="&#xbf;" horiz-adv-x="386" d="M13 -34q0 38 18 74.5t43 64.5t50.5 54t43.5 52.5t18 49.5v38h85q4 -41 4 -51q0 -30 -17.5 -61.5t-43 -58t-50.5 -51.5t-42.5 -51.5t-17.5 -50.5q0 -55 26 -77.5t93 -22.5q22 0 59.5 5.5t63.5 10.5l27 5l10 -77q-109 -31 -168 -31q-105 0 -153.5 40.5t-48.5 137.5z M276 499v-118h-92v118h92z" />
<glyph unicode="&#xc0;" horiz-adv-x="604" d="M32 0l184 695h174l182 -695h-87l-49 167h-270l-47 -167h-87zM283 618l-98 -371h233l-96 371h-39zM192 938l225 -94l-28 -70l-227 85z" />
<glyph unicode="&#xc1;" horiz-adv-x="604" d="M32 0l184 695h174l182 -695h-87l-49 167h-270l-47 -167h-87zM283 618l-98 -371h233l-96 371h-39zM172 850l225 94l30 -79l-227 -85z" />
<glyph unicode="&#xc2;" horiz-adv-x="604" d="M32 0l184 695h174l182 -695h-87l-49 167h-270l-47 -167h-87zM283 618l-98 -371h233l-96 371h-39zM129 794l132 137h77l132 -137h-97l-73 69l-72 -69h-99z" />
<glyph unicode="&#xc3;" horiz-adv-x="604" d="M32 0l184 695h174l182 -695h-87l-49 167h-270l-47 -167h-87zM283 618l-98 -371h233l-96 371h-39zM463 922l20 -65q-6 -7 -15.5 -16.5t-35 -26t-44.5 -16.5q-25 0 -87 27t-77 27q-11 0 -31 -12t-35 -24l-14 -12l-19 65q6 7 16.5 17t36.5 27t45 17q29 0 90 -26.5t73 -26.5 q10 0 29 11.5t33 22.5z" />
<glyph unicode="&#xc4;" horiz-adv-x="604" d="M32 0l184 695h174l182 -695h-87l-49 167h-270l-47 -167h-87zM283 618l-98 -371h233l-96 371h-39zM158 816v97h82v-97h-82zM367 816v97h82v-97h-82z" />
<glyph unicode="&#xc5;" horiz-adv-x="604" d="M426 740q0 -45 -29 -74l175 -666h-87l-49 167h-270l-47 -167h-87l176 665q-29 31 -29 75q0 51 35 80t89 29t88.5 -29t34.5 -80zM283 618l-98 -371h233l-96 371h-39zM247 740q0 -37 36 -45h39q36 8 36 45q0 22 -14.5 35t-40.5 13t-41 -13t-15 -35z" />
<glyph unicode="&#xc6;" horiz-adv-x="828" d="M357 0v167h-204l-46 -167h-87l184 695h567v-81h-328v-226h268v-77h-268v-230h328v-81h-414zM270 614l-98 -367h185v367h-87z" />
<glyph unicode="&#xc7;" horiz-adv-x="537" d="M431 -127q0 -44 -25.5 -66.5t-70.5 -22.5q-20 0 -41.5 2t-33.5 4l-12 1l3 53q37 -2 63 -2q43 0 43 36q0 32 -43 32h-39v80q-128 9 -174.5 95t-46.5 261q0 186 54 272.5t195 86.5q38 0 84.5 -5.5t74.5 -10.5l28 -5l-3 -78q-111 16 -174 16q-101 0 -135 -64t-34 -212 q0 -147 34 -210.5t137 -63.5q25 0 68 4t73 8l31 4l3 -79q-99 -17 -172 -20v-36q61 -1 87 -17.5t26 -62.5z" />
<glyph unicode="&#xc8;" horiz-adv-x="562" d="M91 0v695h414v-81h-328v-225h268v-79h-268v-230h328v-80h-414zM199 938l225 -94l-28 -70l-227 85z" />
<glyph unicode="&#xc9;" horiz-adv-x="562" d="M91 0v695h414v-81h-328v-225h268v-79h-268v-230h328v-80h-414zM187 850l225 94l30 -79l-227 -85z" />
<glyph unicode="&#xca;" horiz-adv-x="562" d="M91 0v695h414v-81h-328v-225h268v-79h-268v-230h328v-80h-414zM131 796l132 137h77l132 -137h-97l-73 69l-72 -69h-99z" />
<glyph unicode="&#xcb;" horiz-adv-x="562" d="M91 0v695h414v-81h-328v-225h268v-79h-268v-230h328v-80h-414zM164 816v97h82v-97h-82zM373 816v97h82v-97h-82z" />
<glyph unicode="&#xcc;" horiz-adv-x="252" d="M82 0v695h87v-695h-87zM8 938l225 -94l-28 -70l-227 85z" />
<glyph unicode="&#xcd;" horiz-adv-x="252" d="M82 0v695h87v-695h-87zM13 850l225 94l30 -79l-227 -85z" />
<glyph unicode="&#xce;" horiz-adv-x="252" d="M82 0v695h87v-695h-87zM-46 796l132 137h77l132 -137h-97l-73 69l-72 -69h-99z" />
<glyph unicode="&#xcf;" horiz-adv-x="252" d="M82 0v695h87v-695h-87zM-15 822v97h82v-97h-82zM194 822v97h82v-97h-82z" />
<glyph unicode="&#xd0;" horiz-adv-x="639" d="M21 305v83h70v307h236q74 0 125.5 -24t80 -70.5t41 -105t12.5 -136.5q0 -63 -7 -114.5t-25 -98t-47 -78t-74.5 -50t-105.5 -18.5h-236v305h-70zM496 359q0 57 -7.5 100t-25.5 79.5t-52 56t-84 19.5h-150v-226h149v-83h-149v-225h150q169 0 169 279z" />
<glyph unicode="&#xd1;" horiz-adv-x="694" d="M91 0v695h156l249 -606h19v606h87v-695h-152l-253 606h-19v-606h-87zM509 921l20 -65q-6 -7 -15.5 -16.5t-35 -26t-44.5 -16.5q-25 0 -87 27t-77 27q-11 0 -31 -12t-35 -24l-14 -12l-19 65q6 7 16.5 17t36.5 27t45 17q29 0 90 -26.5t73 -26.5q10 0 29 11t33 23z" />
<glyph unicode="&#xd2;" horiz-adv-x="650" d="M325 70q101 0 140.5 62.5t39.5 210.5q0 146 -41 214t-139 68q-99 0 -139.5 -67.5t-40.5 -214.5q0 -146 39.5 -209.5t140.5 -63.5zM325 -11q-146 0 -208 85.5t-62 268.5t62.5 272.5t207.5 89.5t207.5 -89.5t62.5 -272.5q0 -185 -61.5 -269.5t-208.5 -84.5zM225 938 l225 -94l-28 -70l-227 85z" />
<glyph unicode="&#xd3;" horiz-adv-x="650" d="M325 70q101 0 140.5 62.5t39.5 210.5q0 146 -41 214t-139 68q-99 0 -139.5 -67.5t-40.5 -214.5q0 -146 39.5 -209.5t140.5 -63.5zM325 -11q-146 0 -208 85.5t-62 268.5t62.5 272.5t207.5 89.5t207.5 -89.5t62.5 -272.5q0 -185 -61.5 -269.5t-208.5 -84.5zM190 850l225 94 l30 -79l-227 -85z" />
<glyph unicode="&#xd4;" horiz-adv-x="650" d="M325 70q101 0 140.5 62.5t39.5 210.5q0 146 -41 214t-139 68q-99 0 -139.5 -67.5t-40.5 -214.5q0 -146 39.5 -209.5t140.5 -63.5zM325 -11q-146 0 -208 85.5t-62 268.5t62.5 272.5t207.5 89.5t207.5 -89.5t62.5 -272.5q0 -185 -61.5 -269.5t-208.5 -84.5zM157 797 l132 137h77l132 -137h-97l-73 69l-72 -69h-99z" />
<glyph unicode="&#xd5;" horiz-adv-x="650" d="M325 70q101 0 140.5 62.5t39.5 210.5q0 146 -41 214t-139 68q-99 0 -139.5 -67.5t-40.5 -214.5q0 -146 39.5 -209.5t140.5 -63.5zM325 -11q-146 0 -208 85.5t-62 268.5t62.5 272.5t207.5 89.5t207.5 -89.5t62.5 -272.5q0 -185 -61.5 -269.5t-208.5 -84.5zM487 921l20 -65 q-6 -7 -15.5 -16.5t-35 -26t-44.5 -16.5q-25 0 -87 27t-77 27q-11 0 -31 -12t-35 -24l-14 -12l-19 65q6 7 16.5 17t36.5 27t45 17q29 0 90 -26.5t73 -26.5q10 0 29 11t33 23z" />
<glyph unicode="&#xd6;" horiz-adv-x="650" d="M325 70q101 0 140.5 62.5t39.5 210.5q0 146 -41 214t-139 68q-99 0 -139.5 -67.5t-40.5 -214.5q0 -146 39.5 -209.5t140.5 -63.5zM325 -11q-146 0 -208 85.5t-62 268.5t62.5 272.5t207.5 89.5t207.5 -89.5t62.5 -272.5q0 -185 -61.5 -269.5t-208.5 -84.5zM184 816v97h82 v-97h-82zM393 816v97h82v-97h-82z" />
<glyph unicode="&#xd7;" d="M127 477l139 -140l144 142l60 -59l-143 -145l141 -139l-60 -61l-141 141l-143 -143l-59 60l143 143l-141 141z" />
<glyph unicode="&#xd8;" horiz-adv-x="656" d="M325 -11q-67 0 -121 19l-58 -125l-56 27l60 129q-95 78 -95 304q0 183 62.5 272.5t207.5 89.5q73 0 125 -23l55 117l58 -23l-60 -128q92 -84 92 -305q0 -185 -61.5 -269.5t-208.5 -84.5zM145 343q0 -158 45 -218l224 480q-37 20 -89 20q-99 0 -139.5 -67.5t-40.5 -214.5z M325 70q101 0 140.5 62.5t39.5 210.5q0 150 -43 217l-222 -475q34 -15 85 -15z" />
<glyph unicode="&#xd9;" horiz-adv-x="644" d="M167 213q0 -73 38 -106.5t114 -33.5q79 0 118.5 33.5t39.5 106.5v482h86v-482q0 -115 -59.5 -168.5t-184.5 -53.5q-121 0 -180 53.5t-59 168.5v482h87v-482zM218 938l225 -94l-28 -70l-227 85z" />
<glyph unicode="&#xda;" horiz-adv-x="644" d="M167 213q0 -73 38 -106.5t114 -33.5q79 0 118.5 33.5t39.5 106.5v482h86v-482q0 -115 -59.5 -168.5t-184.5 -53.5q-121 0 -180 53.5t-59 168.5v482h87v-482zM188 850l225 94l30 -79l-227 -85z" />
<glyph unicode="&#xdb;" horiz-adv-x="644" d="M167 213q0 -73 38 -106.5t114 -33.5q79 0 118.5 33.5t39.5 106.5v482h86v-482q0 -115 -59.5 -168.5t-184.5 -53.5q-121 0 -180 53.5t-59 168.5v482h87v-482zM151 794l132 137h77l132 -137h-97l-73 69l-72 -69h-99z" />
<glyph unicode="&#xdc;" horiz-adv-x="644" d="M167 213q0 -73 38 -106.5t114 -33.5q79 0 118.5 33.5t39.5 106.5v482h86v-482q0 -115 -59.5 -168.5t-184.5 -53.5q-121 0 -180 53.5t-59 168.5v482h87v-482zM181 822v97h82v-97h-82zM390 822v97h82v-97h-82z" />
<glyph unicode="&#xdd;" horiz-adv-x="555" d="M322 298v-298h-86v298l-214 397h97l159 -305l157 305h98zM165 850l225 94l30 -79l-227 -85z" />
<glyph unicode="&#xde;" horiz-adv-x="603" d="M333 201q69 0 102.5 42t33.5 114q0 145 -136 145h-155v-301h155zM334 117h-156v-117h-87v695h87v-110h156q224 0 224 -228q0 -114 -56.5 -177t-167.5 -63z" />
<glyph unicode="&#xdf;" horiz-adv-x="608" d="M169 0h-85v541q0 100 48 141.5t154 41.5q108 0 154 -33.5t46 -111.5q0 -52 -18.5 -77.5t-62.5 -47.5q-37 -18 -49.5 -30t-12.5 -30q0 -15 15.5 -28.5t73.5 -40.5q72 -35 98 -63.5t26 -84.5q0 -105 -45 -145.5t-153 -40.5l-123 12l4 71q97 -4 114 -4q66 0 90.5 22t24.5 80 q0 29 -20.5 47.5t-80.5 45.5q-67 28 -89.5 54t-22.5 72q0 41 17.5 62t61.5 43q37 18 50.5 34.5t13.5 43.5q0 41 -25.5 57t-86.5 16t-89 -24t-28 -90v-533z" />
<glyph unicode="&#xe0;" horiz-adv-x="532" d="M434 346v-236q6 -24 19 -34t38 -14l-5 -72q-81 0 -122 38q-78 -39 -164 -39q-64 0 -104.5 43t-40.5 112q0 137 156 150l139 13v40q0 85 -78 85q-37 0 -84.5 -3t-75.5 -7l-29 -3l-3 71q119 20 196 20q79 0 118.5 -39.5t39.5 -124.5zM350 242l-130 -10q-79 -6 -79 -86 q0 -37 19 -61t50 -24t66 7t54 14l20 7v153zM155 753l225 -94l-28 -70l-227 85z" />
<glyph unicode="&#xe1;" horiz-adv-x="532" d="M434 346v-236q6 -24 19 -34t38 -14l-5 -72q-81 0 -122 38q-78 -39 -164 -39q-64 0 -104.5 43t-40.5 112q0 137 156 150l139 13v40q0 85 -78 85q-37 0 -84.5 -3t-75.5 -7l-29 -3l-3 71q119 20 196 20q79 0 118.5 -39.5t39.5 -124.5zM350 242l-130 -10q-79 -6 -79 -86 q0 -37 19 -61t50 -24t66 7t54 14l20 7v153zM157 660l225 94l30 -79l-227 -85z" />
<glyph unicode="&#xe2;" horiz-adv-x="532" d="M434 346v-236q6 -24 19 -34t38 -14l-5 -72q-81 0 -122 38q-78 -39 -164 -39q-64 0 -104.5 43t-40.5 112q0 137 156 150l139 13v40q0 85 -78 85q-37 0 -84.5 -3t-75.5 -7l-29 -3l-3 71q119 20 196 20q79 0 118.5 -39.5t39.5 -124.5zM350 242l-130 -10q-79 -6 -79 -86 q0 -37 19 -61t50 -24t66 7t54 14l20 7v153zM89 590l126 152h68l127 -152h-93l-67 80l-68 -80h-93z" />
<glyph unicode="&#xe3;" horiz-adv-x="532" d="M434 346v-236q6 -24 19 -34t38 -14l-5 -72q-81 0 -122 38q-78 -39 -164 -39q-64 0 -104.5 43t-40.5 112q0 137 156 150l139 13v40q0 85 -78 85q-37 0 -84.5 -3t-75.5 -7l-29 -3l-3 71q119 20 196 20q79 0 118.5 -39.5t39.5 -124.5zM350 242l-130 -10q-79 -6 -79 -86 q0 -37 19 -61t50 -24t66 7t54 14l20 7v153zM396 726l19 -66q-47 -53 -90 -53q-25 0 -79 24.5t-69 24.5q-11 0 -29.5 -10.5t-31.5 -21.5l-14 -10l-19 64q51 56 94 56q28 0 81.5 -24t65.5 -24q10 0 28 10t31 20z" />
<glyph unicode="&#xe4;" horiz-adv-x="532" d="M434 346v-236q6 -24 19 -34t38 -14l-5 -72q-81 0 -122 38q-78 -39 -164 -39q-64 0 -104.5 43t-40.5 112q0 137 156 150l139 13v40q0 85 -78 85q-37 0 -84.5 -3t-75.5 -7l-29 -3l-3 71q119 20 196 20q79 0 118.5 -39.5t39.5 -124.5zM350 242l-130 -10q-79 -6 -79 -86 q0 -37 19 -61t50 -24t66 7t54 14l20 7v153zM127 622v97h82v-97h-82zM330 622v97h82v-97h-82z" />
<glyph unicode="&#xe5;" horiz-adv-x="532" d="M434 346v-236q6 -24 19 -34t38 -14l-5 -72q-81 0 -122 38q-78 -39 -164 -39q-64 0 -104.5 43t-40.5 112q0 137 156 150l139 13v40q0 85 -78 85q-37 0 -84.5 -3t-75.5 -7l-29 -3l-3 71q119 20 196 20q79 0 118.5 -39.5t39.5 -124.5zM350 242l-130 -10q-79 -6 -79 -86 q0 -37 19 -61t50 -24t66 7t54 14l20 7v153zM152 664q0 44 30.5 75t75.5 31q44 0 75 -31t31 -75q0 -45 -30.5 -75.5t-75.5 -30.5t-75.5 30t-30.5 76zM212 664q0 -20 13.5 -34t33.5 -14q19 0 32 14t13 34q0 19 -13 32.5t-32 13.5q-20 0 -33.5 -13.5t-13.5 -32.5z" />
<glyph unicode="&#xe6;" horiz-adv-x="828" d="M567 64q32 0 77 2t74 4l30 3l2 -65q-101 -19 -189 -19q-101 0 -151 53l-30 -13q-85 -40 -179 -40q-65 0 -104 41t-39 114q0 78 41.5 110t133.5 42l125 11v40q0 85 -78 85q-33 0 -80.5 -3t-79.5 -6l-31 -3l-3 74q119 16 196 16q101 0 135 -68q48 68 151 68q200 0 200 -232 l-5 -63h-320q1 -75 29.5 -113t94.5 -38zM212 61q72 0 160 33q-15 49 -15 147l-135 -11q-78 -6 -78 -84q0 -40 19 -62.5t49 -22.5zM443 281h240q0 82 -27.5 119.5t-89.5 37.5q-123 0 -123 -157z" />
<glyph unicode="&#xe7;" horiz-adv-x="436" d="M380 -127q0 -44 -25.5 -66.5t-70.5 -22.5q-20 0 -41.5 2t-33.5 4l-12 1l3 53q37 -2 63 -2q43 0 43 36q0 32 -43 32h-39v81q-92 9 -130.5 73t-38.5 194q0 129 49 190.5t156 61.5q26 0 59 -3.5t53 -6.5l21 -4l-3 -72q-72 8 -110 8q-77 0 -108 -40.5t-31 -133.5 q0 -102 29.5 -146.5t109.5 -44.5l111 7l3 -72q-71 -12 -127 -13v-36q61 -1 87 -17.5t26 -62.5z" />
<glyph unicode="&#xe8;" horiz-adv-x="507" d="M260 64q32 0 76.5 2t73.5 4l28 3l2 -65q-99 -19 -186 -19q-108 0 -155 65.5t-47 191.5q0 130 54 197t153 67q199 0 199 -232l-5 -63h-315q0 -151 122 -151zM137 281h236q0 81 -27.5 119t-86.5 38q-121 0 -122 -157zM142 753l225 -94l-28 -70l-227 85z" />
<glyph unicode="&#xe9;" horiz-adv-x="507" d="M260 64q32 0 76.5 2t73.5 4l28 3l2 -65q-99 -19 -186 -19q-108 0 -155 65.5t-47 191.5q0 130 54 197t153 67q199 0 199 -232l-5 -63h-315q0 -151 122 -151zM137 281h236q0 81 -27.5 119t-86.5 38q-121 0 -122 -157zM133 660l225 94l30 -79l-227 -85z" />
<glyph unicode="&#xea;" horiz-adv-x="507" d="M260 64q32 0 76.5 2t73.5 4l28 3l2 -65q-99 -19 -186 -19q-108 0 -155 65.5t-47 191.5q0 130 54 197t153 67q199 0 199 -232l-5 -63h-315q0 -151 122 -151zM137 281h236q0 81 -27.5 119t-86.5 38q-121 0 -122 -157zM100 590l126 152h68l127 -152h-93l-67 80l-68 -80h-93z " />
<glyph unicode="&#xeb;" horiz-adv-x="507" d="M260 64q32 0 76.5 2t73.5 4l28 3l2 -65q-99 -19 -186 -19q-108 0 -155 65.5t-47 191.5q0 130 54 197t153 67q199 0 199 -232l-5 -63h-315q0 -151 122 -151zM137 281h236q0 81 -27.5 119t-86.5 38q-121 0 -122 -157zM133 622v97h82v-97h-82zM336 622v97h82v-97h-82z" />
<glyph unicode="&#xec;" horiz-adv-x="264" d="M90 0v499h84v-499h-84zM-6 753l225 -94l-28 -70l-227 85z" />
<glyph unicode="&#xed;" horiz-adv-x="261" d="M26 660l225 94l30 -79l-227 -85zM90 0v499h84v-499h-84z" />
<glyph unicode="&#xee;" horiz-adv-x="264" d="M90 0v499h84v-499h-84zM-31 590l126 152h68l127 -152h-93l-67 80l-68 -80h-93z" />
<glyph unicode="&#xef;" horiz-adv-x="264" d="M5 622v97h82v-97h-82zM208 622v97h82v-97h-82zM90 0v499h84v-499h-84z" />
<glyph unicode="&#xf0;" d="M155 511l-37 52l76 56q-41 13 -105 28l15 72q95 -17 166 -45l99 72l37 -52l-70 -51q161 -94 161 -292q0 -192 -55 -276t-180 -84q-108 0 -166.5 60t-58.5 173q0 94 57.5 150.5t153.5 56.5q32 0 71.5 -8.5t62.5 -16.5l24 -8q-8 128 -142 192zM253 356q-58 0 -92 -37.5 t-34 -94.5q0 -73 34 -113.5t101 -40.5q77 0 110.5 57t34.5 195q-82 34 -154 34z" />
<glyph unicode="&#xf1;" horiz-adv-x="574" d="M181 0h-85v499h85v-31q75 42 142 42q96 0 131.5 -59t35.5 -191v-260h-84v259q0 93 -19 133.5t-78 40.5q-27 0 -59 -8.5t-50 -16.5l-19 -9v-399zM440 726l19 -66q-47 -53 -90 -53q-25 0 -79 24.5t-69 24.5q-11 0 -29.5 -10.5t-31.5 -21.5l-14 -10l-19 64q51 56 94 56 q28 0 81.5 -24t65.5 -24q10 0 28 10t31 20z" />
<glyph unicode="&#xf2;" horiz-adv-x="533" d="M265 510q111 0 160.5 -66t49.5 -190q0 -130 -47 -197.5t-163 -67.5q-119 0 -166 66t-47 200q0 127 48.5 191t164.5 64zM265 63q73 0 98.5 47.5t25.5 143.5q0 91 -28.5 136.5t-95.5 45.5q-70 0 -98 -43.5t-28 -137.5q0 -100 25.5 -146t100.5 -46zM127 753l225 -94l-28 -70 l-227 85z" />
<glyph unicode="&#xf3;" horiz-adv-x="533" d="M265 510q111 0 160.5 -66t49.5 -190q0 -130 -47 -197.5t-163 -67.5q-119 0 -166 66t-47 200q0 127 48.5 191t164.5 64zM265 63q73 0 98.5 47.5t25.5 143.5q0 91 -28.5 136.5t-95.5 45.5q-70 0 -98 -43.5t-28 -137.5q0 -100 25.5 -146t100.5 -46zM137 660l225 94l30 -79 l-227 -85z" />
<glyph unicode="&#xf4;" horiz-adv-x="533" d="M265 510q111 0 160.5 -66t49.5 -190q0 -130 -47 -197.5t-163 -67.5q-119 0 -166 66t-47 200q0 127 48.5 191t164.5 64zM265 63q73 0 98.5 47.5t25.5 143.5q0 91 -28.5 136.5t-95.5 45.5q-70 0 -98 -43.5t-28 -137.5q0 -100 25.5 -146t100.5 -46zM91 590l126 152h68 l127 -152h-93l-67 80l-68 -80h-93z" />
<glyph unicode="&#xf5;" horiz-adv-x="533" d="M265 510q111 0 160.5 -66t49.5 -190q0 -130 -47 -197.5t-163 -67.5q-119 0 -166 66t-47 200q0 127 48.5 191t164.5 64zM265 63q73 0 98.5 47.5t25.5 143.5q0 91 -28.5 136.5t-95.5 45.5q-70 0 -98 -43.5t-28 -137.5q0 -100 25.5 -146t100.5 -46zM394 726l19 -66 q-47 -53 -90 -53q-25 0 -79 24.5t-69 24.5q-11 0 -29.5 -10.5t-31.5 -21.5l-14 -10l-19 64q51 56 94 56q28 0 81.5 -24t65.5 -24q10 0 28 10t31 20z" />
<glyph unicode="&#xf6;" horiz-adv-x="533" d="M265 510q111 0 160.5 -66t49.5 -190q0 -130 -47 -197.5t-163 -67.5q-119 0 -166 66t-47 200q0 127 48.5 191t164.5 64zM265 63q73 0 98.5 47.5t25.5 143.5q0 91 -28.5 136.5t-95.5 45.5q-70 0 -98 -43.5t-28 -137.5q0 -100 25.5 -146t100.5 -46zM127 622v97h82v-97h-82z M330 622v97h82v-97h-82z" />
<glyph unicode="&#xf7;" d="M221 413v106h86v-106h-86zM53 246v85h421v-85h-421zM221 58v106h86v-106h-86z" />
<glyph unicode="&#xf8;" horiz-adv-x="528" d="M265 510q39 0 70 -9l-4 -9l-5 -13l-20 -49q-18 6 -41 6q-70 0 -98 -43.5t-28 -137.5q0 -117 34 -157l-22 -55l-9 -13l-4 -10q-86 54 -86 235q0 127 48.5 191t164.5 64zM265 63q73 0 98.5 47.5t25.5 143.5q0 102 -36 145l25 60l7 13l3 7q87 -58 87 -225q0 -130 -47 -197.5 t-163 -67.5q-42 0 -75 9l7 15l4 13l17 43q21 -6 47 -6zM173 98l133 332q29 -9 47 -31l-135 -330q-28 7 -45 29zM147 -111l-55 20l46 111q25 -17 52 -22zM335 501l42 105l55 -21l-44 -106q-23 15 -53 22z" />
<glyph unicode="&#xf9;" horiz-adv-x="559" d="M388 499h84v-499h-84v30q-76 -41 -137 -41q-96 0 -131.5 56.5t-35.5 193.5v260h84v-259q0 -98 19.5 -137t77.5 -39q25 0 55.5 9t49.5 17l18 9v400zM140 753l225 -94l-28 -70l-227 85z" />
<glyph unicode="&#xfa;" horiz-adv-x="559" d="M388 499h84v-499h-84v30q-76 -41 -137 -41q-96 0 -131.5 56.5t-35.5 193.5v260h84v-259q0 -98 19.5 -137t77.5 -39q25 0 55.5 9t49.5 17l18 9v400zM150 660l225 94l30 -79l-227 -85z" />
<glyph unicode="&#xfb;" horiz-adv-x="559" d="M388 499h84v-499h-84v30q-76 -41 -137 -41q-96 0 -131.5 56.5t-35.5 193.5v260h84v-259q0 -98 19.5 -137t77.5 -39q25 0 55.5 9t49.5 17l18 9v400zM104 590l126 152h68l127 -152h-93l-67 80l-68 -80h-93z" />
<glyph unicode="&#xfc;" horiz-adv-x="559" d="M388 499h84v-499h-84v30q-76 -41 -137 -41q-96 0 -131.5 56.5t-35.5 193.5v260h84v-259q0 -98 19.5 -137t77.5 -39q25 0 55.5 9t49.5 17l18 9v400zM140 622v97h82v-97h-82zM343 622v97h82v-97h-82z" />
<glyph unicode="&#xfd;" horiz-adv-x="480" d="M19 499h84l116 -418h29l117 418h84l-200 -719h-84l62 220h-72zM131 660l225 94l30 -79l-227 -85z" />
<glyph unicode="&#xfe;" horiz-adv-x="547" d="M274 63q72 0 102 47.5t30 147.5q0 83 -27.5 129.5t-80.5 46.5q-27 0 -57.5 -7.5t-47.5 -14.5l-17 -8v-332q48 -9 98 -9zM307 510q186 0 186 -253q0 -142 -51.5 -205t-166.5 -63l-99 7v-216h-85v935h85v-241q64 36 131 36z" />
<glyph unicode="&#xff;" horiz-adv-x="482" d="M26 499h84l116 -418h29l117 418h84l-200 -719h-84l62 220h-72zM100 622v97h82v-97h-82zM303 622v97h82v-97h-82z" />
<glyph unicode="&#x100;" horiz-adv-x="604" d="M32 0l184 695h174l182 -695h-87l-49 167h-270l-47 -167h-87zM283 618l-98 -371h233l-96 371h-39zM143 822v74h317v-74h-317z" />
<glyph unicode="&#x101;" horiz-adv-x="523" d="M434 346v-236q6 -24 19 -34t38 -14l-5 -72q-81 0 -122 38q-78 -39 -164 -39q-64 0 -104.5 43t-40.5 112q0 137 156 150l139 13v40q0 85 -78 85q-37 0 -84.5 -3t-75.5 -7l-29 -3l-3 71q119 20 196 20q79 0 118.5 -39.5t39.5 -124.5zM350 242l-130 -10q-79 -6 -79 -86 q0 -37 19 -61t50 -24t66 7t54 14l20 7v153zM112 632v74h297v-74h-297z" />
<glyph unicode="&#x102;" horiz-adv-x="604" d="M32 0l184 695h174l182 -695h-87l-49 167h-270l-47 -167h-87zM283 618l-98 -371h233l-96 371h-39zM140 926h87q1 -29 22.5 -46t52.5 -17q32 0 53 17t22 46h87q-4 -61 -47 -98t-115 -37t-115 37t-47 98z" />
<glyph unicode="&#x103;" horiz-adv-x="523" d="M434 346v-236q6 -24 19 -34t38 -14l-5 -72q-81 0 -122 38q-78 -39 -164 -39q-64 0 -104.5 43t-40.5 112q0 137 156 150l139 13v40q0 85 -78 85q-37 0 -84.5 -3t-75.5 -7l-29 -3l-3 71q119 20 196 20q79 0 118.5 -39.5t39.5 -124.5zM350 242l-130 -10q-79 -6 -79 -86 q0 -37 19 -61t50 -24t66 7t54 14l20 7v153zM95 735h87q2 -32 22.5 -51t56.5 -19t56.5 19t22.5 51h87q-4 -65 -47.5 -105t-118.5 -40q-76 0 -119 40t-47 105z" />
<glyph unicode="&#x104;" horiz-adv-x="604" d="M586 -129l9 -70q-48 -9 -83 -9q-42 0 -68.5 24t-26.5 65q0 54 72 119h-4l-49 167h-270l-47 -167h-87l184 695h174l181 -694h1l-1 -1h1h-1q-3 -2 -18 -18t-31 -39.5t-16 -38.5q0 -16 9 -27t24 -11zM283 618l-98 -371h233l-96 371h-39z" />
<glyph unicode="&#x105;" horiz-adv-x="523" d="M482 -129l9 -70q-48 -9 -83 -9q-42 0 -68.5 24t-26.5 65q0 26 19.5 57t34.5 45.5t26 23.5q-15 7 -29 21q-78 -39 -164 -39q-64 0 -104.5 43t-40.5 112q0 137 156 150l139 13v40q0 85 -78 85q-37 0 -84.5 -3t-75.5 -7l-29 -3l-3 71q119 20 196 20q79 0 118.5 -39.5 t39.5 -124.5v-236q6 -24 19 -34t38 -14l-5 -72q-5 0 -14.5 0.5t-13.5 0.5q-56 -56 -56 -87q0 -16 9 -27t24 -11zM350 242l-130 -10q-79 -6 -79 -86q0 -37 19 -61t50 -24t66 7t54 14l20 7v153z" />
<glyph unicode="&#x106;" horiz-adv-x="533" d="M487 88l3 -79q-113 -20 -187 -20q-75 0 -124.5 23t-76.5 71.5t-37.5 110.5t-10.5 152q0 186 54 272.5t195 86.5q38 0 84.5 -5.5t74.5 -10.5l28 -5l-3 -78q-111 16 -174 16q-101 0 -135 -64t-34 -212q0 -147 34 -210.5t137 -63.5q25 0 68 4t73 8zM163 850l225 94l30 -79 l-227 -85z" />
<glyph unicode="&#x107;" horiz-adv-x="436" d="M260 510q26 0 59 -3.5t53 -6.5l21 -4l-3 -72q-72 8 -110 8q-77 0 -108 -40.5t-31 -133.5q0 -102 29.5 -146.5t109.5 -44.5l111 7l3 -72q-78 -13 -135 -13q-112 0 -158 63.5t-46 205.5q0 129 49 190.5t156 61.5zM101 660l225 94l30 -79l-227 -85z" />
<glyph unicode="&#x108;" horiz-adv-x="533" d="M487 88l3 -79q-113 -20 -187 -20q-75 0 -124.5 23t-76.5 71.5t-37.5 110.5t-10.5 152q0 186 54 272.5t195 86.5q38 0 84.5 -5.5t74.5 -10.5l28 -5l-3 -78q-111 16 -174 16q-101 0 -135 -64t-34 -212q0 -147 34 -210.5t137 -63.5q25 0 68 4t73 8zM130 794l132 137h77 l132 -137h-97l-73 69l-72 -69h-99z" />
<glyph unicode="&#x109;" horiz-adv-x="436" d="M260 510q26 0 59 -3.5t53 -6.5l21 -4l-3 -72q-72 8 -110 8q-77 0 -108 -40.5t-31 -133.5q0 -102 29.5 -146.5t109.5 -44.5l111 7l3 -72q-78 -13 -135 -13q-112 0 -158 63.5t-46 205.5q0 129 49 190.5t156 61.5zM68 590l126 152h68l127 -152h-93l-67 80l-68 -80h-93z" />
<glyph unicode="&#x10a;" horiz-adv-x="533" d="M487 88l3 -79q-113 -20 -187 -20q-75 0 -124.5 23t-76.5 71.5t-37.5 110.5t-10.5 152q0 186 54 272.5t195 86.5q38 0 84.5 -5.5t74.5 -10.5l28 -5l-3 -78q-111 16 -174 16q-101 0 -135 -64t-34 -212q0 -147 34 -210.5t137 -63.5q25 0 68 4t73 8zM248 811v95h85v-95h-85z " />
<glyph unicode="&#x10b;" horiz-adv-x="436" d="M260 510q26 0 59 -3.5t53 -6.5l21 -4l-3 -72q-72 8 -110 8q-77 0 -108 -40.5t-31 -133.5q0 -102 29.5 -146.5t109.5 -44.5l111 7l3 -72q-78 -13 -135 -13q-112 0 -158 63.5t-46 205.5q0 129 49 190.5t156 61.5zM195 600v95h85v-95h-85z" />
<glyph unicode="&#x10c;" horiz-adv-x="533" d="M487 88l3 -79q-113 -20 -187 -20q-75 0 -124.5 23t-76.5 71.5t-37.5 110.5t-10.5 152q0 186 54 272.5t195 86.5q38 0 84.5 -5.5t74.5 -10.5l28 -5l-3 -78q-111 16 -174 16q-101 0 -135 -64t-34 -212q0 -147 34 -210.5t137 -63.5q25 0 68 4t73 8zM467 932l-132 -137h-76 l-133 137h99l72 -71l72 71h98z" />
<glyph unicode="&#x10d;" horiz-adv-x="436" d="M260 510q26 0 59 -3.5t53 -6.5l21 -4l-3 -72q-72 8 -110 8q-77 0 -108 -40.5t-31 -133.5q0 -102 29.5 -146.5t109.5 -44.5l111 7l3 -72q-78 -13 -135 -13q-112 0 -158 63.5t-46 205.5q0 129 49 190.5t156 61.5zM193 590l-125 152h93l68 -80l67 80h93l-126 -152h-70z" />
<glyph unicode="&#x10e;" horiz-adv-x="639" d="M327 0h-236v695h236q74 0 125.5 -24t80 -70.5t41 -105t12.5 -136.5q0 -63 -7 -114.5t-25 -98t-47 -78t-74.5 -50t-105.5 -18.5zM496 359q0 57 -7.5 100t-25.5 79.5t-52 56t-84 19.5h-150v-534h150q169 0 169 279zM470 932l-132 -137h-76l-133 137h99l72 -71l72 71h98z " />
<glyph unicode="&#x10f;" horiz-adv-x="739" d="M455 715v-715h-84v28q-71 -38 -137 -38q-179 0 -179 259q0 261 206 261q25 0 110 -13v218h84zM246 66q25 0 56 8t50 16l19 8v327q-65 10 -105 10q-126 0 -126 -188q0 -181 106 -181zM657 695v-239h-82v239h82z" />
<glyph unicode="&#x110;" horiz-adv-x="639" d="M21 305v83h70v307h236q74 0 125.5 -24t80 -70.5t41 -105t12.5 -136.5q0 -63 -7 -114.5t-25 -98t-47 -78t-74.5 -50t-105.5 -18.5h-236v305h-70zM496 359q0 57 -7.5 100t-25.5 79.5t-52 56t-84 19.5h-150v-226h149v-83h-149v-225h150q169 0 169 279z" />
<glyph unicode="&#x111;" horiz-adv-x="542" d="M177 622v74h194v19h84v-19h19v-74h-19v-622h-84v28q-71 -38 -137 -38q-179 0 -179 259q0 261 206 261q25 0 110 -13v125h-194zM246 66q25 0 56 8t50 16l19 8v327q-65 10 -105 10q-126 0 -126 -188q0 -181 106 -181z" />
<glyph unicode="&#x112;" horiz-adv-x="562" d="M91 0v695h414v-81h-328v-225h268v-79h-268v-230h328v-80h-414zM127 817v74h317v-74h-317z" />
<glyph unicode="&#x113;" horiz-adv-x="507" d="M260 64q32 0 76.5 2t73.5 4l28 3l2 -65q-99 -19 -186 -19q-108 0 -155 65.5t-47 191.5q0 130 54 197t153 67q199 0 199 -232l-5 -63h-315q0 -151 122 -151zM137 281h236q0 81 -27.5 119t-86.5 38q-121 0 -122 -157zM109 632v74h297v-74h-297z" />
<glyph unicode="&#x114;" horiz-adv-x="562" d="M91 0v695h414v-81h-328v-225h268v-79h-268v-230h328v-80h-414zM144 927h87q1 -29 22.5 -46t52.5 -17q32 0 53 17t22 46h87q-4 -61 -47 -98t-115 -37t-115 37t-47 98z" />
<glyph unicode="&#x115;" horiz-adv-x="507" d="M260 64q32 0 76.5 2t73.5 4l28 3l2 -65q-99 -19 -186 -19q-108 0 -155 65.5t-47 191.5q0 130 54 197t153 67q199 0 199 -232l-5 -63h-315q0 -151 122 -151zM137 281h236q0 81 -27.5 119t-86.5 38q-121 0 -122 -157zM91 735h87q2 -32 22.5 -51t56.5 -19t56.5 19t22.5 51 h87q-4 -65 -47.5 -105t-118.5 -40q-76 0 -119 40t-47 105z" />
<glyph unicode="&#x116;" horiz-adv-x="562" d="M91 0v695h414v-81h-328v-225h268v-79h-268v-230h328v-80h-414zM258 811v95h85v-95h-85z" />
<glyph unicode="&#x117;" horiz-adv-x="507" d="M260 64q32 0 76.5 2t73.5 4l28 3l2 -65q-99 -19 -186 -19q-108 0 -155 65.5t-47 191.5q0 130 54 197t153 67q199 0 199 -232l-5 -63h-315q0 -151 122 -151zM137 281h236q0 81 -27.5 119t-86.5 38q-121 0 -122 -157zM210 600v95h85v-95h-85z" />
<glyph unicode="&#x118;" horiz-adv-x="562" d="M91 0v695h414v-81h-328v-225h268v-79h-268v-230h328v-80h-20q-3 -2 -18 -18t-31 -39.5t-16 -38.5q0 -16 9 -27t24 -11l47 5l9 -70q-48 -9 -83 -9q-42 0 -68.5 24t-26.5 65q0 54 72 119h-312z" />
<glyph unicode="&#x119;" horiz-adv-x="507" d="M431 -127l9 -70q-48 -9 -83 -9q-42 0 -68.5 24t-26.5 65q0 48 62 110q-46 -4 -70 -4q-108 0 -155 65.5t-47 191.5q0 130 54 197t153 67q199 0 199 -232l-5 -63h-315q0 -151 122 -151q32 0 76.5 2t73.5 4l28 3l2 -65q-12 -2 -27 -5h4q-66 -64 -66 -97q0 -16 9 -27t24 -11z M137 281h236q0 81 -27.5 119t-86.5 38q-121 0 -122 -157z" />
<glyph unicode="&#x11a;" horiz-adv-x="562" d="M91 0v695h414v-81h-328v-225h268v-79h-268v-230h328v-80h-414zM485 941l-132 -137h-76l-133 137h99l72 -71l72 71h98z" />
<glyph unicode="&#x11b;" horiz-adv-x="507" d="M260 64q32 0 76.5 2t73.5 4l28 3l2 -65q-99 -19 -186 -19q-108 0 -155 65.5t-47 191.5q0 130 54 197t153 67q199 0 199 -232l-5 -63h-315q0 -151 122 -151zM137 281h236q0 81 -27.5 119t-86.5 38q-121 0 -122 -157zM218 590l-125 152h93l68 -80l67 80h93l-126 -152h-70z " />
<glyph unicode="&#x11c;" horiz-adv-x="606" d="M351 285v76h190v-350q-142 -22 -221 -22q-147 0 -206 90t-59 268q0 181 58.5 269.5t203.5 88.5q44 0 100 -6t90 -12l34 -6l-4 -77q-123 19 -209 19q-106 0 -144.5 -65t-38.5 -211t37.5 -211t143.5 -65q14 0 32.5 1t34.5 3t30 4t22.5 3t9.5 1v202h-104zM147 794l132 137 h77l132 -137h-97l-73 69l-72 -69h-99z" />
<glyph unicode="&#x11d;" horiz-adv-x="521" d="M264 -240q-106 0 -160.5 36t-54.5 118q0 38 19.5 66.5t58.5 58.5q-29 20 -29 69q0 9 9 29t17 36l9 16q-77 46 -77 149q0 82 52.5 127t133.5 45q20 0 43 -3t36 -7l13 -3l153 3v-70h-88q31 -37 31 -92q0 -170 -191 -170q-23 0 -43 4q-17 -42 -17 -55q0 -28 17.5 -35.5 t93.5 -7.5q106 0 151 -30.5t45 -112.5q0 -85 -60.5 -128t-161.5 -43zM283 1l-99 5q-27 -23 -39 -41t-12 -43q0 -87 132 -87q135 0 135 92q0 45 -26 59.5t-91 14.5zM239 237q107 0 107 101t-105 101q-49 0 -74.5 -26.5t-25.5 -74.5q0 -101 98 -101zM100 590l126 152h68 l127 -152h-93l-67 80l-68 -80h-93z" />
<glyph unicode="&#x11e;" horiz-adv-x="606" d="M351 285v76h190v-350q-142 -22 -221 -22q-147 0 -206 90t-59 268q0 181 58.5 269.5t203.5 88.5q44 0 100 -6t90 -12l34 -6l-4 -77q-123 19 -209 19q-106 0 -144.5 -65t-38.5 -211t37.5 -211t143.5 -65q14 0 32.5 1t34.5 3t30 4t22.5 3t9.5 1v202h-104zM160 926h87 q1 -29 22.5 -46t52.5 -17q32 0 53 17t22 46h87q-4 -61 -47 -98t-115 -37t-115 37t-47 98z" />
<glyph unicode="&#x11f;" horiz-adv-x="521" d="M264 -240q-106 0 -160.5 36t-54.5 118q0 38 19.5 66.5t58.5 58.5q-29 20 -29 69q0 9 9 29t17 36l9 16q-77 46 -77 149q0 82 52.5 127t133.5 45q20 0 43 -3t36 -7l13 -3l153 3v-70h-88q31 -37 31 -92q0 -170 -191 -170q-23 0 -43 4q-17 -42 -17 -55q0 -28 17.5 -35.5 t93.5 -7.5q106 0 151 -30.5t45 -112.5q0 -85 -60.5 -128t-161.5 -43zM283 1l-99 5q-27 -23 -39 -41t-12 -43q0 -87 132 -87q135 0 135 92q0 45 -26 59.5t-91 14.5zM239 237q107 0 107 101t-105 101q-49 0 -74.5 -26.5t-25.5 -74.5q0 -101 98 -101zM94 735h87q2 -32 22.5 -51 t56.5 -19t56.5 19t22.5 51h87q-4 -65 -47.5 -105t-118.5 -40q-76 0 -119 40t-47 105z" />
<glyph unicode="&#x120;" horiz-adv-x="606" d="M351 285v76h190v-350q-142 -22 -221 -22q-147 0 -206 90t-59 268q0 181 58.5 269.5t203.5 88.5q44 0 100 -6t90 -12l34 -6l-4 -77q-123 19 -209 19q-106 0 -144.5 -65t-38.5 -211t37.5 -211t143.5 -65q14 0 32.5 1t34.5 3t30 4t22.5 3t9.5 1v202h-104zM265 816v95h85v-95 h-85z" />
<glyph unicode="&#x121;" horiz-adv-x="521" d="M264 -240q-106 0 -160.5 36t-54.5 118q0 38 19.5 66.5t58.5 58.5q-29 20 -29 69q0 9 9 29t17 36l9 16q-77 46 -77 149q0 82 52.5 127t133.5 45q20 0 43 -3t36 -7l13 -3l153 3v-70h-88q31 -37 31 -92q0 -170 -191 -170q-23 0 -43 4q-17 -42 -17 -55q0 -28 17.5 -35.5 t93.5 -7.5q106 0 151 -30.5t45 -112.5q0 -85 -60.5 -128t-161.5 -43zM283 1l-99 5q-27 -23 -39 -41t-12 -43q0 -87 132 -87q135 0 135 92q0 45 -26 59.5t-91 14.5zM239 237q107 0 107 101t-105 101q-49 0 -74.5 -26.5t-25.5 -74.5q0 -101 98 -101zM217 600v95h85v-95h-85z " />
<glyph unicode="&#x122;" horiz-adv-x="606" d="M351 285v76h190v-350q-142 -22 -221 -22q-147 0 -206 90t-59 268q0 181 58.5 269.5t203.5 88.5q44 0 100 -6t90 -12l34 -6l-4 -77q-123 19 -209 19q-106 0 -144.5 -65t-38.5 -211t37.5 -211t143.5 -65q14 0 32.5 1t34.5 3t30 4t22.5 3t9.5 1v202h-104zM239 -289l42 211 h83l-50 -211h-75z" />
<glyph unicode="&#x123;" horiz-adv-x="521" d="M264 -240q-106 0 -160.5 36t-54.5 118q0 38 19.5 66.5t58.5 58.5q-29 20 -29 69q0 9 9 29t17 36l9 16q-77 46 -77 149q0 82 52.5 127t133.5 45q20 0 43 -3t36 -7l13 -3l153 3v-70h-88q31 -37 31 -92q0 -170 -191 -170q-23 0 -43 4q-17 -42 -17 -55q0 -28 17.5 -35.5 t93.5 -7.5q106 0 151 -30.5t45 -112.5q0 -85 -60.5 -128t-161.5 -43zM283 1l-99 5q-27 -23 -39 -41t-12 -43q0 -87 132 -87q135 0 135 92q0 45 -26 59.5t-91 14.5zM239 237q107 0 107 101t-105 101q-49 0 -74.5 -26.5t-25.5 -74.5q0 -101 98 -101zM310 799l-42 -211h-83 l51 211h74z" />
<glyph unicode="&#x124;" horiz-adv-x="679" d="M502 0v311h-325v-311h-86v695h86v-304h325v304h86v-695h-86zM169 791l132 137h77l132 -137h-97l-73 69l-72 -69h-99z" />
<glyph unicode="&#x125;" horiz-adv-x="564" d="M171 0h-85v715h60l101 122h68l127 -152h-93l-67 80l-68 -80h-43v-207q80 32 141 32q96 0 132 -59t36 -190v-261h-85v260q0 92 -19 132.5t-78 40.5q-25 0 -56.5 -6.5t-51.5 -13.5l-19 -7v-406z" />
<glyph unicode="&#x126;" horiz-adv-x="679" d="M11 504v74h80v117h86v-117h325v117h86v-117h91v-74h-91v-504h-86v311h-325v-311h-86v504h-80zM177 391h325v113h-325v-113z" />
<glyph unicode="&#x127;" horiz-adv-x="564" d="M23 572v74h63v69h85v-69h149v-74h-149v-94q80 32 141 32q96 0 132 -59t36 -190v-261h-85v260q0 92 -19 132.5t-78 40.5q-25 0 -56.5 -6.5t-51.5 -13.5l-19 -7v-406h-85v572h-63z" />
<glyph unicode="&#x128;" horiz-adv-x="252" d="M82 0v695h87v-695h-87zM288 916l20 -65q-6 -7 -15.5 -16.5t-35 -26t-44.5 -16.5q-25 0 -87 27t-77 27q-11 0 -31 -12t-34 -24l-15 -12l-19 65q6 7 16.5 17t36.5 27t45 17q29 0 90 -26.5t73 -26.5q10 0 29 11.5t34 22.5z" />
<glyph unicode="&#x129;" horiz-adv-x="264" d="M90 0v499h84v-499h-84zM275 726l19 -66q-47 -53 -90 -53q-25 0 -79 24.5t-69 24.5q-11 0 -29.5 -10.5t-32.5 -21.5l-13 -10l-19 64q51 56 94 56q28 0 81.5 -24t65.5 -24q10 0 28 10t31 20z" />
<glyph unicode="&#x12a;" horiz-adv-x="252" d="M82 0v695h87v-695h-87zM-33 827v74h317v-74h-317z" />
<glyph unicode="&#x12b;" horiz-adv-x="264" d="M90 0v499h84v-499h-84zM-17 632v74h297v-74h-297z" />
<glyph unicode="&#x12c;" horiz-adv-x="252" d="M82 0v695h87v-695h-87zM-36 926h87q1 -29 22.5 -46t52.5 -17q32 0 53 17t22 46h87q-4 -61 -47 -98t-115 -37t-115 37t-47 98z" />
<glyph unicode="&#x12d;" horiz-adv-x="264" d="M90 0v499h84v-499h-84zM-34 735h87q2 -32 22.5 -51t56.5 -19t56.5 19t22.5 51h87q-4 -65 -47.5 -105t-118.5 -40q-76 0 -119 40t-47 105z" />
<glyph unicode="&#x12e;" horiz-adv-x="252" d="M82 0v695h87v-695h-1q-3 -2 -18 -18t-31 -39.5t-16 -38.5q0 -16 9 -27t24 -11l47 5l9 -70q-48 -9 -83 -9q-42 0 -68.5 24t-26.5 65q0 54 72 119h-4z" />
<glyph unicode="&#x12f;" horiz-adv-x="241" d="M78 0v499h85v-499h-2q-3 -2 -18 -18t-31 -39.5t-16 -38.5q0 -16 9 -27t24 -11l47 5l9 -70q-48 -9 -83 -9q-42 0 -68.5 24t-26.5 65q0 54 72 119h-1zM78 600v95h85v-95h-85z" />
<glyph unicode="&#x130;" horiz-adv-x="252" d="M82 0v695h87v-695h-87zM83 811v95h85v-95h-85z" />
<glyph unicode="&#x131;" horiz-adv-x="264" d="M90 0v499h84v-499h-84z" />
<glyph unicode="&#x134;" horiz-adv-x="309" d="M224 695l1 -585q0 -110 -38.5 -145.5t-149.5 -35.5v77q61 1 81.5 22t20.5 88v579h85zM-16 791l132 137h77l132 -137h-97l-73 69l-72 -69h-99z" />
<glyph unicode="&#x135;" horiz-adv-x="252" d="M89 6v493h84v-494q0 -95 -31 -140.5t-132 -97.5l-37 71q74 42 95 72t21 96zM-35 590l126 152h68l127 -152h-93l-67 80l-68 -80h-93z" />
<glyph unicode="&#x136;" horiz-adv-x="594" d="M451 0l-172 302l-102 -5v-297h-86v695h86v-319l100 5l166 314h101l-190 -348l200 -347h-103zM233 -289l42 211h83l-50 -211h-75z" />
<glyph unicode="&#x137;" horiz-adv-x="500" d="M176 0h-85v715h85v-415l64 4l139 195h95l-158 -231l162 -268h-96l-140 223l-66 -5v-218zM187 -289l42 211h83l-50 -211h-75z" />
<glyph unicode="&#x139;" horiz-adv-x="507" d="M462 0h-371v695h86v-614h285v-81zM128 850l225 94l30 -79l-227 -85z" />
<glyph unicode="&#x13a;" horiz-adv-x="246" d="M-4 760l225 94l30 -79l-161 -60h75v-715h-84v711l-57 -21z" />
<glyph unicode="&#x13b;" horiz-adv-x="507" d="M462 0h-371v695h86v-614h285v-81zM190 -289l42 211h83l-50 -211h-75z" />
<glyph unicode="&#x13c;" horiz-adv-x="246" d="M81 0v715h84v-715h-84zM60 -289l42 211h83l-50 -211h-75z" />
<glyph unicode="&#x13d;" horiz-adv-x="507" d="M462 0h-371v695h86v-614h285v-81zM446 695v-239h-82v239h82z" />
<glyph unicode="&#x13e;" horiz-adv-x="410" d="M81 0v715h84v-715h-84zM361 695v-239h-82v239h82z" />
<glyph unicode="&#x141;" d="M31 227l-43 64l105 73v331h87v-270l162 114l43 -63l-205 -144v-249h300v-83h-387v271z" />
<glyph unicode="&#x142;" horiz-adv-x="246" d="M81 0v268l-57 -39l-42 58l99 69v359h84v-301l62 44l42 -59l-104 -72v-327h-84z" />
<glyph unicode="&#x143;" horiz-adv-x="694" d="M91 0v695h156l249 -606h19v606h87v-695h-152l-253 606h-19v-606h-87zM219 850l225 94l30 -79l-227 -85z" />
<glyph unicode="&#x144;" horiz-adv-x="567" d="M176 0h-85v499h85v-31q75 42 142 42q96 0 131.5 -59t35.5 -191v-260h-84v259q0 93 -19 133.5t-78 40.5q-27 0 -59 -8.5t-51 -16.5l-18 -9v-399zM155 660l225 94l30 -79l-227 -85z" />
<glyph unicode="&#x145;" horiz-adv-x="694" d="M91 0v695h156l249 -606h19v606h87v-695h-152l-253 606h-19v-606h-87zM283 -289l42 211h83l-50 -211h-75z" />
<glyph unicode="&#x146;" horiz-adv-x="567" d="M176 0h-85v499h85v-31q75 42 142 42q96 0 131.5 -59t35.5 -191v-260h-84v259q0 93 -19 133.5t-78 40.5q-27 0 -59 -8.5t-51 -16.5l-18 -9v-399zM220 -289l42 211h83l-50 -211h-75z" />
<glyph unicode="&#x147;" horiz-adv-x="694" d="M91 0v695h156l249 -606h19v606h87v-695h-152l-253 606h-19v-606h-87zM517 929l-132 -137h-76l-133 137h99l72 -71l72 71h98z" />
<glyph unicode="&#x148;" horiz-adv-x="567" d="M176 0h-85v499h85v-31q75 42 142 42q96 0 131.5 -59t35.5 -191v-260h-84v259q0 93 -19 133.5t-78 40.5q-27 0 -59 -8.5t-51 -16.5l-18 -9v-399zM248 590l-125 152h93l68 -80l67 80h93l-126 -152h-70z" />
<glyph unicode="&#x14a;" horiz-adv-x="694" d="M91 0v695h156l249 -606h19v606h87v-695h-1v-11q0 -110 -38.5 -145.5t-149.5 -35.5v77q61 1 81.5 22t20.5 88v5h-65l-253 606h-19v-606h-87z" />
<glyph unicode="&#x14b;" horiz-adv-x="567" d="M183 0h-85v499h85v-31q75 42 142 42q96 0 131.5 -59t35.5 -191v-261q0 -95 -31 -140.5t-132 -97.5l-37 71q74 42 95 72t21 93v262q0 93 -19 133.5t-78 40.5q-27 0 -59 -8.5t-50 -16.5l-19 -9v-399z" />
<glyph unicode="&#x14c;" horiz-adv-x="650" d="M325 70q101 0 140.5 62.5t39.5 210.5q0 146 -41 214t-139 68q-99 0 -139.5 -67.5t-40.5 -214.5q0 -146 39.5 -209.5t140.5 -63.5zM325 -11q-146 0 -208 85.5t-62 268.5t62.5 272.5t207.5 89.5t207.5 -89.5t62.5 -272.5q0 -185 -61.5 -269.5t-208.5 -84.5zM165 822v74h317 v-74h-317z" />
<glyph unicode="&#x14d;" horiz-adv-x="528" d="M265 510q111 0 160.5 -66t49.5 -190q0 -130 -47 -197.5t-163 -67.5q-119 0 -166 66t-47 200q0 127 48.5 191t164.5 64zM265 63q73 0 98.5 47.5t25.5 143.5q0 91 -28.5 136.5t-95.5 45.5q-70 0 -98 -43.5t-28 -137.5q0 -100 25.5 -146t100.5 -46zM114 632v74h297v-74h-297 z" />
<glyph unicode="&#x14e;" horiz-adv-x="650" d="M325 70q101 0 140.5 62.5t39.5 210.5q0 146 -41 214t-139 68q-99 0 -139.5 -67.5t-40.5 -214.5q0 -146 39.5 -209.5t140.5 -63.5zM325 -11q-146 0 -208 85.5t-62 268.5t62.5 272.5t207.5 89.5t207.5 -89.5t62.5 -272.5q0 -185 -61.5 -269.5t-208.5 -84.5zM163 926h87 q1 -29 22.5 -46t52.5 -17q32 0 53 17t22 46h87q-4 -61 -47 -98t-115 -37t-115 37t-47 98z" />
<glyph unicode="&#x14f;" horiz-adv-x="528" d="M265 510q111 0 160.5 -66t49.5 -190q0 -130 -47 -197.5t-163 -67.5q-119 0 -166 66t-47 200q0 127 48.5 191t164.5 64zM265 63q73 0 98.5 47.5t25.5 143.5q0 91 -28.5 136.5t-95.5 45.5q-70 0 -98 -43.5t-28 -137.5q0 -100 25.5 -146t100.5 -46zM98 735h87 q2 -32 22.5 -51t56.5 -19t56.5 19t22.5 51h87q-4 -65 -47.5 -105t-118.5 -40q-76 0 -119 40t-47 105z" />
<glyph unicode="&#x150;" horiz-adv-x="650" d="M325 70q101 0 140.5 62.5t39.5 210.5q0 146 -41 214t-139 68q-99 0 -139.5 -67.5t-40.5 -214.5q0 -146 39.5 -209.5t140.5 -63.5zM325 -11q-146 0 -208 85.5t-62 268.5t62.5 272.5t207.5 89.5t207.5 -89.5t62.5 -272.5q0 -185 -61.5 -269.5t-208.5 -84.5zM343 801 l129 142l70 -37l-135 -140zM138 801l130 143l70 -38l-135 -139z" />
<glyph unicode="&#x151;" horiz-adv-x="528" d="M265 510q111 0 160.5 -66t49.5 -190q0 -130 -47 -197.5t-163 -67.5q-119 0 -166 66t-47 200q0 127 48.5 191t164.5 64zM265 63q73 0 98.5 47.5t25.5 143.5q0 91 -28.5 136.5t-95.5 45.5q-70 0 -98 -43.5t-28 -137.5q0 -100 25.5 -146t100.5 -46zM279 625l140 147l63 -47 l-144 -146zM84 625l140 146l64 -46l-144 -146z" />
<glyph unicode="&#x152;" horiz-adv-x="914" d="M857 -1h-410q-90 -10 -138 -10q-143 0 -202.5 88t-59.5 268q0 184 61.5 272t200.5 88q67 0 137 -10h411v-81h-325v-226h265v-77h-265v-230h325v-82zM319 71q34 0 127 7v537q-120 9 -129 9q-100 0 -140 -65.5t-40 -212.5t38.5 -211t143.5 -64z" />
<glyph unicode="&#x153;" horiz-adv-x="876" d="M615 64q32 0 77 2t74 4l30 3l2 -65q-101 -19 -189 -19q-115 0 -162 78q-45 -78 -168 -78q-122 0 -168.5 64.5t-46.5 201.5q0 129 49 192t166 63q124 0 171 -87q49 87 164 87q202 0 202 -232l-5 -63h-320q1 -75 29.5 -113t94.5 -38zM279 63q77 0 101.5 45.5t24.5 145.5 q0 96 -29 139t-97 43q-73 0 -101 -42t-28 -139q0 -104 25.5 -148t103.5 -44zM491 281h240q0 84 -26 118.5t-88 34.5q-126 0 -126 -153z" />
<glyph unicode="&#x154;" horiz-adv-x="621" d="M354 259l-23 -1h-154v-258h-86v695h247q224 0 224 -215q0 -159 -122 -201l127 -279h-96zM472 479q0 65 -35 100t-99 35h-161v-277h162q68 0 100.5 39t32.5 103zM182 850l225 94l30 -79l-227 -85z" />
<glyph unicode="&#x155;" horiz-adv-x="357" d="M84 0v499h84v-62q72 55 161 73v-89q-40 -8 -80.5 -23.5t-60.5 -27.5l-20 -11v-359h-84zM61 660l225 94l30 -79l-227 -85z" />
<glyph unicode="&#x156;" horiz-adv-x="621" d="M354 259l-23 -1h-154v-258h-86v695h247q224 0 224 -215q0 -159 -122 -201l127 -279h-96zM472 479q0 65 -35 100t-99 35h-161v-277h162q68 0 100.5 39t32.5 103zM247 -289l42 211h83l-50 -211h-75z" />
<glyph unicode="&#x157;" horiz-adv-x="357" d="M84 0v499h84v-62q72 55 161 73v-89q-40 -8 -80.5 -23.5t-60.5 -27.5l-20 -11v-359h-84zM115 -289l42 211h83l-50 -211h-75z" />
<glyph unicode="&#x158;" horiz-adv-x="621" d="M354 259l-23 -1h-154v-258h-86v695h247q224 0 224 -215q0 -159 -122 -201l127 -279h-96zM472 479q0 65 -35 100t-99 35h-161v-277h162q68 0 100.5 39t32.5 103zM481 929l-132 -137h-76l-133 137h99l72 -71l72 71h98z" />
<glyph unicode="&#x159;" horiz-adv-x="357" d="M84 0v499h84v-62q72 55 161 73v-89q-40 -8 -80.5 -23.5t-60.5 -27.5l-20 -11v-359h-84zM153 590l-125 152h93l68 -80l67 80h93l-126 -152h-70z" />
<glyph unicode="&#x15a;" horiz-adv-x="533" d="M477 686l-4 -76q-136 16 -194 16q-138 0 -138 -106q0 -57 33.5 -82t125.5 -50q109 -29 151.5 -67t42.5 -121q0 -109 -54 -159.5t-168 -50.5q-38 0 -90.5 5t-85.5 10l-34 5l5 76q132 -15 198 -15q142 0 142 126q0 48 -32.5 72t-117.5 46q-113 31 -158 72.5t-45 130.5 q0 93 57 140.5t164 47.5q39 0 89.5 -5t81.5 -10zM138 850l225 94l30 -79l-227 -85z" />
<glyph unicode="&#x15b;" horiz-adv-x="490" d="M414 490l-2 -70q-113 15 -171 15q-97 0 -97 -71q0 -30 23 -45t90 -26q98 -16 135.5 -46t37.5 -100q0 -158 -191 -158q-29 0 -72.5 5t-72.5 10l-30 5l4 71q113 -16 164 -16q59 0 86 18t27 62q0 34 -21.5 47.5t-91.5 25.5q-93 17 -133.5 46.5t-40.5 97.5q0 77 51.5 113 t126.5 36q33 0 77.5 -5t72.5 -10zM117 660l225 94l30 -79l-227 -85z" />
<glyph unicode="&#x15c;" horiz-adv-x="533" d="M477 686l-4 -76q-136 16 -194 16q-138 0 -138 -106q0 -57 33.5 -82t125.5 -50q109 -29 151.5 -67t42.5 -121q0 -109 -54 -159.5t-168 -50.5q-38 0 -90.5 5t-85.5 10l-34 5l5 76q132 -15 198 -15q142 0 142 126q0 48 -32.5 72t-117.5 46q-113 31 -158 72.5t-45 130.5 q0 93 57 140.5t164 47.5q39 0 89.5 -5t81.5 -10zM101 794l132 137h77l132 -137h-97l-73 69l-72 -69h-99z" />
<glyph unicode="&#x15d;" horiz-adv-x="490" d="M414 490l-2 -70q-113 15 -171 15q-97 0 -97 -71q0 -30 23 -45t90 -26q98 -16 135.5 -46t37.5 -100q0 -158 -191 -158q-29 0 -72.5 5t-72.5 10l-30 5l4 71q113 -16 164 -16q59 0 86 18t27 62q0 34 -21.5 47.5t-91.5 25.5q-93 17 -133.5 46.5t-40.5 97.5q0 77 51.5 113 t126.5 36q33 0 77.5 -5t72.5 -10zM84 590l126 152h68l127 -152h-93l-67 80l-68 -80h-93z" />
<glyph unicode="&#x15e;" horiz-adv-x="533" d="M408 -127q0 -44 -25.5 -66.5t-70.5 -22.5q-20 0 -41.5 2t-33.5 4l-12 1l3 53q37 -2 63 -2q43 0 43 36q0 32 -43 32h-39v80q-37 1 -84.5 6t-76.5 10l-29 4l5 76q132 -15 198 -15q142 0 142 126q0 48 -32.5 72t-117.5 46q-113 31 -158 72.5t-45 130.5q0 93 57 140.5 t164 47.5q39 0 89.5 -5t81.5 -10l31 -5l-4 -76q-136 16 -194 16q-138 0 -138 -106q0 -57 33.5 -82t125.5 -50q109 -29 151.5 -67t42.5 -121q0 -103 -48.5 -153.5t-150.5 -55.5v-38q61 -1 87 -17.5t26 -62.5z" />
<glyph unicode="&#x15f;" horiz-adv-x="490" d="M370 -127q0 -44 -25.5 -66.5t-70.5 -22.5q-20 0 -41.5 2t-33.5 4l-12 1l3 53q37 -2 63 -2q43 0 43 36q0 32 -43 32h-39v80q-29 1 -66.5 6t-60.5 9l-23 4l4 71q113 -16 164 -16q59 0 86 18t27 62q0 34 -21.5 47.5t-91.5 25.5q-93 17 -133.5 46.5t-40.5 97.5q0 77 51.5 113 t126.5 36q33 0 77.5 -5t72.5 -10l28 -5l-2 -70q-113 15 -171 15q-97 0 -97 -71q0 -30 23 -45t90 -26q98 -16 135.5 -46t37.5 -100q0 -150 -173 -157v-37q61 -1 87 -17.5t26 -62.5z" />
<glyph unicode="&#x160;" horiz-adv-x="533" d="M477 686l-4 -76q-136 16 -194 16q-138 0 -138 -106q0 -57 33.5 -82t125.5 -50q109 -29 151.5 -67t42.5 -121q0 -109 -54 -159.5t-168 -50.5q-38 0 -90.5 5t-85.5 10l-34 5l5 76q132 -15 198 -15q142 0 142 126q0 48 -32.5 72t-117.5 46q-113 31 -158 72.5t-45 130.5 q0 93 57 140.5t164 47.5q39 0 89.5 -5t81.5 -10zM450 932l-132 -137h-76l-133 137h99l72 -71l72 71h98z" />
<glyph unicode="&#x161;" horiz-adv-x="490" d="M414 490l-2 -70q-113 15 -171 15q-97 0 -97 -71q0 -30 23 -45t90 -26q98 -16 135.5 -46t37.5 -100q0 -158 -191 -158q-29 0 -72.5 5t-72.5 10l-30 5l4 71q113 -16 164 -16q59 0 86 18t27 62q0 34 -21.5 47.5t-91.5 25.5q-93 17 -133.5 46.5t-40.5 97.5q0 77 51.5 113 t126.5 36q33 0 77.5 -5t72.5 -10zM210 590l-125 152h93l68 -80l67 80h93l-126 -152h-70z" />
<glyph unicode="&#x162;" horiz-adv-x="490" d="M8 611v84h473v-84h-192v-611h-86v611h-195zM182 -289l42 211h83l-50 -211h-75z" />
<glyph unicode="&#x163;" horiz-adv-x="361" d="M323 424h-145v-229q0 -73 14 -101.5t53 -28.5l80 5l4 -70q-59 -11 -94 -11q-76 0 -108.5 42t-32.5 142v251h-67v75h67v152h84v-152h145v-75zM117 -289l42 211h83l-50 -211h-75z" />
<glyph unicode="&#x164;" horiz-adv-x="490" d="M8 611v84h473v-84h-192v-611h-86v611h-195zM415 929l-132 -137h-76l-133 137h99l72 -71l72 71h98z" />
<glyph unicode="&#x165;" horiz-adv-x="524" d="M323 424h-145v-229q0 -73 14 -101.5t53 -28.5l80 5l4 -70q-59 -11 -94 -11q-76 0 -108.5 42t-32.5 142v251h-67v75h67v152h84v-152h145v-75zM476 695v-239h-82v239h82z" />
<glyph unicode="&#x166;" horiz-adv-x="490" d="M46 292v74h157v245h-195v84h473v-84h-192v-245h166v-74h-166v-292h-86v292h-157z" />
<glyph unicode="&#x167;" horiz-adv-x="361" d="M38 247v74h56v103h-67v75h67v152h84v-152h145v-75h-145v-103h142v-74h-142v-52q0 -73 14 -101.5t53 -28.5l80 5l4 -70q-59 -11 -94 -11q-76 0 -108.5 42t-32.5 142v74h-56z" />
<glyph unicode="&#x168;" horiz-adv-x="644" d="M167 213q0 -73 38 -106.5t114 -33.5q79 0 118.5 33.5t39.5 106.5v482h86v-482q0 -115 -59.5 -168.5t-184.5 -53.5q-121 0 -180 53.5t-59 168.5v482h87v-482zM478 921l20 -65q-6 -7 -15.5 -16.5t-35 -26t-44.5 -16.5q-25 0 -87 27t-77 27q-11 0 -31 -12t-34 -24l-15 -12 l-19 65q6 7 16.5 17t36.5 27t45 17q29 0 90 -26.5t73 -26.5q10 0 29 11t34 23z" />
<glyph unicode="&#x169;" horiz-adv-x="559" d="M388 499h84v-499h-84v30q-76 -41 -137 -41q-96 0 -131.5 56.5t-35.5 193.5v260h84v-259q0 -98 19.5 -137t77.5 -39q25 0 55.5 9t49.5 17l18 9v400zM422 726l19 -66q-47 -53 -90 -53q-25 0 -79 24.5t-69 24.5q-11 0 -29.5 -10.5t-31.5 -21.5l-14 -10l-19 64q51 56 94 56 q28 0 81.5 -24t65.5 -24q10 0 28 10t31 20z" />
<glyph unicode="&#x16a;" horiz-adv-x="644" d="M167 213q0 -73 38 -106.5t114 -33.5q79 0 118.5 33.5t39.5 106.5v482h86v-482q0 -115 -59.5 -168.5t-184.5 -53.5q-121 0 -180 53.5t-59 168.5v482h87v-482zM162 822v74h317v-74h-317z" />
<glyph unicode="&#x16b;" horiz-adv-x="559" d="M388 499h84v-499h-84v30q-76 -41 -137 -41q-96 0 -131.5 56.5t-35.5 193.5v260h84v-259q0 -98 19.5 -137t77.5 -39q25 0 55.5 9t49.5 17l18 9v400zM130 632v74h297v-74h-297z" />
<glyph unicode="&#x16c;" horiz-adv-x="644" d="M167 213q0 -73 38 -106.5t114 -33.5q79 0 118.5 33.5t39.5 106.5v482h86v-482q0 -115 -59.5 -168.5t-184.5 -53.5q-121 0 -180 53.5t-59 168.5v482h87v-482zM160 926h87q1 -29 22.5 -46t52.5 -17q32 0 53 17t22 46h87q-4 -61 -47 -98t-115 -37t-115 37t-47 98z" />
<glyph unicode="&#x16d;" horiz-adv-x="559" d="M388 499h84v-499h-84v30q-76 -41 -137 -41q-96 0 -131.5 56.5t-35.5 193.5v260h84v-259q0 -98 19.5 -137t77.5 -39q25 0 55.5 9t49.5 17l18 9v400zM113 735h87q2 -32 22.5 -51t56.5 -19t56.5 19t22.5 51h87q-4 -65 -47.5 -105t-118.5 -40q-76 0 -119 40t-47 105z" />
<glyph unicode="&#x16e;" horiz-adv-x="644" d="M167 213q0 -73 38 -106.5t114 -33.5q79 0 118.5 33.5t39.5 106.5v482h86v-482q0 -115 -59.5 -168.5t-184.5 -53.5q-121 0 -180 53.5t-59 168.5v482h87v-482zM445 844q0 -50 -35 -79.5t-88 -29.5q-54 0 -89 29.5t-35 79.5q0 51 35 80t89 29t88.5 -29t34.5 -80zM266 844 q0 -47 56 -47q26 0 40.5 12.5t14.5 34.5t-14.5 35t-40.5 13t-41 -13t-15 -35z" />
<glyph unicode="&#x16f;" horiz-adv-x="559" d="M388 499h84v-499h-84v30q-76 -41 -137 -41q-96 0 -131.5 56.5t-35.5 193.5v260h84v-259q0 -98 19.5 -137t77.5 -39q25 0 55.5 9t49.5 17l18 9v400zM177 644q0 44 30.5 75t75.5 31q44 0 75 -31t31 -75q0 -45 -30.5 -75.5t-75.5 -30.5t-75.5 30t-30.5 76zM237 644 q0 -20 13.5 -34t33.5 -14q19 0 32 14t13 34q0 19 -13 32.5t-32 13.5q-20 0 -33.5 -13.5t-13.5 -32.5z" />
<glyph unicode="&#x170;" horiz-adv-x="644" d="M167 213q0 -73 38 -106.5t114 -33.5q79 0 118.5 33.5t39.5 106.5v482h86v-482q0 -115 -59.5 -168.5t-184.5 -53.5q-121 0 -180 53.5t-59 168.5v482h87v-482zM350 788l129 142l70 -37l-135 -140zM145 788l130 143l70 -38l-135 -139z" />
<glyph unicode="&#x171;" horiz-adv-x="559" d="M388 499h84v-499h-84v30q-76 -41 -137 -41q-96 0 -131.5 56.5t-35.5 193.5v260h84v-259q0 -98 19.5 -137t77.5 -39q25 0 55.5 9t49.5 17l18 9v400zM312 625l140 147l63 -47l-144 -146zM117 625l140 146l64 -46l-144 -146z" />
<glyph unicode="&#x172;" horiz-adv-x="644" d="M428 -129l9 -70q-48 -9 -83 -9q-42 0 -68.5 24t-26.5 65q0 50 63 110h-3q-121 0 -180 53.5t-59 168.5v482h87v-482q0 -73 38 -106.5t114 -33.5q79 0 118.5 33.5t39.5 106.5v482h86v-482q0 -91 -37 -143t-113 -70q-1 0 -17 -16.5t-32 -40.5t-16 -39q0 -16 9 -27t24 -11z " />
<glyph unicode="&#x173;" horiz-adv-x="559" d="M477 -129l9 -70q-48 -9 -83 -9q-42 0 -68.5 24t-26.5 65q0 26 19 56t34.5 45.5t26.5 23.5v24q-76 -41 -137 -41q-96 0 -131.5 56.5t-35.5 193.5v260h84v-259q0 -98 19.5 -137t77.5 -39q25 0 55.5 9t49.5 17l18 9v400h84v-499h-10q-3 -2 -18 -18t-31 -39.5t-16 -38.5 q0 -16 9 -27t24 -11z" />
<glyph unicode="&#x174;" horiz-adv-x="906" d="M39 695h90l121 -616h27l127 606h98l130 -606h26l119 616h90l-142 -695h-155l-117 570l-114 -570h-156zM282 794l132 137h77l132 -137h-97l-73 69l-72 -69h-99z" />
<glyph unicode="&#x175;" horiz-adv-x="755" d="M27 499h84l92 -423h24l106 414h89l106 -414h23l93 423h84l-113 -499h-146l-92 377l-93 -377h-145zM217 590l126 152h68l127 -152h-93l-67 80l-68 -80h-93z" />
<glyph unicode="&#x176;" horiz-adv-x="555" d="M322 298v-298h-86v298l-214 397h97l159 -305l157 305h98zM107 794l132 137h77l132 -137h-97l-73 69l-72 -69h-99z" />
<glyph unicode="&#x177;" horiz-adv-x="482" d="M26 499h84l116 -418h29l117 418h84l-200 -719h-84l62 220h-72zM81 590l126 152h68l127 -152h-93l-67 80l-68 -80h-93z" />
<glyph unicode="&#x178;" horiz-adv-x="555" d="M322 298v-298h-86v298l-214 397h97l159 -305l157 305h98zM139 815v97h82v-97h-82zM348 815v97h82v-97h-82z" />
<glyph unicode="&#x179;" horiz-adv-x="570" d="M65 613v82h440v-100l-336 -496v-18h336v-82h-440v99l335 496v19h-335zM157 850l225 94l30 -79l-227 -85z" />
<glyph unicode="&#x17a;" horiz-adv-x="479" d="M59 424v76h360l1 -76l-262 -349h262v-75h-360l-1 75l262 349h-262zM117 660l225 94l30 -79l-227 -85z" />
<glyph unicode="&#x17b;" horiz-adv-x="570" d="M65 613v82h440v-100l-336 -496v-18h336v-82h-440v99l335 496v19h-335zM242 811v95h85v-95h-85z" />
<glyph unicode="&#x17c;" horiz-adv-x="479" d="M59 424v76h360l1 -76l-262 -349h262v-75h-360l-1 75l262 349h-262zM196 600v95h85v-95h-85z" />
<glyph unicode="&#x17d;" horiz-adv-x="570" d="M65 613v82h440v-100l-336 -496v-18h336v-82h-440v99l335 496v19h-335zM459 929l-132 -137h-76l-133 137h99l72 -71l72 71h98z" />
<glyph unicode="&#x17e;" horiz-adv-x="479" d="M59 424v76h360l1 -76l-262 -349h262v-75h-360l-1 75l262 349h-262zM197 590l-125 152h93l68 -80l67 80h93l-126 -152h-70z" />
<glyph unicode="&#x192;" d="M298 -66q0 -98 -39.5 -138.5t-116.5 -40.5q-16 0 -34 2.5t-28 4.5l-10 2l1 67q43 -3 71 -3q71 0 71 106v431h-106v76h106v49q0 114 30.5 157.5t106.5 43.5q82 0 122 -9l-1 -70q-72 3 -103 3q-70 0 -70 -108v-66h161v-76h-161v-431z" />
<glyph unicode="&#x1fa;" horiz-adv-x="604" d="M425 740q0 -43 -28 -73l175 -667h-87l-49 167h-270l-47 -167h-87l176 665q-30 28 -30 75q0 51 35 80t89 29t88.5 -29t34.5 -80zM283 618l-98 -371h233l-96 371h-39zM169 945l225 94l30 -79l-227 -85zM246 740q0 -37 36 -45h39q36 8 36 45q0 22 -14.5 35t-40.5 13t-41 -13 t-15 -35z" />
<glyph unicode="&#x1fb;" horiz-adv-x="523" d="M434 346v-236q6 -24 19 -34t38 -14l-5 -72q-81 0 -122 38q-78 -39 -164 -39q-64 0 -104.5 43t-40.5 112q0 137 156 150l139 13v40q0 85 -78 85q-37 0 -84.5 -3t-75.5 -7l-29 -3l-3 71q119 20 196 20q79 0 118.5 -39.5t39.5 -124.5zM133 745l225 94l30 -79l-70 -27 q49 -30 49 -89q0 -45 -30.5 -75.5t-75.5 -30.5t-75.5 30t-30.5 76q0 19 5 33zM350 242l-130 -10q-79 -6 -79 -86q0 -37 19 -61t50 -24t66 7t54 14l20 7v153zM215 644q0 -20 13.5 -34t33.5 -14q19 0 32 14t13 34q0 19 -13 32.5t-32 13.5q-20 0 -33.5 -13.5t-13.5 -32.5z" />
<glyph unicode="&#x1fc;" horiz-adv-x="828" d="M357 0v167h-204l-46 -167h-87l184 695h567v-81h-328v-226h268v-77h-268v-230h328v-81h-414zM270 614l-98 -367h185v367h-87zM286 850l225 94l30 -79l-227 -85z" />
<glyph unicode="&#x1fd;" horiz-adv-x="828" d="M567 64q32 0 77 2t74 4l30 3l2 -65q-101 -19 -189 -19q-101 0 -151 53l-30 -13q-85 -40 -179 -40q-65 0 -104 41t-39 114q0 78 41.5 110t133.5 42l125 11v40q0 85 -78 85q-33 0 -80.5 -3t-79.5 -6l-31 -3l-3 74q119 16 196 16q101 0 135 -68q48 68 151 68q200 0 200 -232 l-5 -63h-320q1 -75 29.5 -113t94.5 -38zM212 61q72 0 160 33q-15 49 -15 147l-135 -11q-78 -6 -78 -84q0 -40 19 -62.5t49 -22.5zM443 281h240q0 82 -27.5 119.5t-89.5 37.5q-123 0 -123 -157zM296 660l225 94l30 -79l-227 -85z" />
<glyph unicode="&#x1fe;" horiz-adv-x="656" d="M189 850l225 94l30 -79l-227 -85zM325 70q101 0 140.5 62.5t39.5 210.5q0 146 -41 214t-139 68q-99 0 -139.5 -67.5t-40.5 -214.5q0 -146 39.5 -209.5t140.5 -63.5zM325 -11q-146 0 -208 85.5t-62 268.5t62.5 272.5t207.5 89.5t207.5 -89.5t62.5 -272.5 q0 -185 -61.5 -269.5t-208.5 -84.5z" />
<glyph unicode="&#x1ff;" horiz-adv-x="528" d="M265 510q39 0 70 -9l-4 -9l-5 -13l-20 -49q-18 6 -41 6q-70 0 -98 -43.5t-28 -137.5q0 -117 34 -157l-22 -55l-9 -13l-4 -10q-86 54 -86 235q0 127 48.5 191t164.5 64zM265 63q73 0 98.5 47.5t25.5 143.5q0 102 -36 145l25 60l7 13l3 7q87 -58 87 -225q0 -130 -47 -197.5 t-163 -67.5q-42 0 -75 9l7 15l4 13l17 43q21 -6 47 -6zM173 98q17 -22 45 -29l135 330q-18 22 -47 31zM136 660l225 94l30 -79l-227 -85zM92 -91l55 -20l43 109q-27 5 -52 22zM377 606l-42 -105q30 -7 53 -22l44 106z" />
<glyph unicode="&#x218;" horiz-adv-x="533" d="M477 686l-4 -76q-136 16 -194 16q-138 0 -138 -106q0 -57 33.5 -82t125.5 -50q109 -29 151.5 -67t42.5 -121q0 -109 -54 -159.5t-168 -50.5q-38 0 -90.5 5t-85.5 10l-34 5l5 76q132 -15 198 -15q142 0 142 126q0 48 -32.5 72t-117.5 46q-113 31 -158 72.5t-45 130.5 q0 93 57 140.5t164 47.5q39 0 89.5 -5t81.5 -10zM203 -289l42 211h83l-50 -211h-75z" />
<glyph unicode="&#x219;" horiz-adv-x="490" d="M414 490l-2 -70q-113 15 -171 15q-97 0 -97 -71q0 -30 23 -45t90 -26q98 -16 135.5 -46t37.5 -100q0 -158 -191 -158q-29 0 -72.5 5t-72.5 10l-30 5l4 71q113 -16 164 -16q59 0 86 18t27 62q0 34 -21.5 47.5t-91.5 25.5q-93 17 -133.5 46.5t-40.5 97.5q0 77 51.5 113 t126.5 36q33 0 77.5 -5t72.5 -10zM181 -289l42 211h83l-50 -211h-75z" />
<glyph unicode="&#x237;" horiz-adv-x="252" d="M89 6v493h84v-494q0 -95 -31 -140.5t-132 -97.5l-37 71q74 42 95 72t21 96z" />
<glyph unicode="&#x2c6;" horiz-adv-x="833" d="M249 590l126 152h68l127 -152h-93l-67 80l-68 -80h-93z" />
<glyph unicode="&#x2c7;" horiz-adv-x="833" d="M374 590l-125 152h93l68 -80l67 80h93l-126 -152h-70z" />
<glyph unicode="&#x2d8;" horiz-adv-x="466" d="M56 735h87q2 -32 22.5 -51t56.5 -19t56.5 19t22.5 51h87q-4 -65 -47.5 -105t-118.5 -40q-76 0 -119 40t-47 105z" />
<glyph unicode="&#x2d9;" horiz-adv-x="241" d="M78 600v95h85v-95h-85z" />
<glyph unicode="&#x2da;" horiz-adv-x="833" d="M162 644q0 44 30.5 75t75.5 31q44 0 75 -31t31 -75q0 -45 -30.5 -75.5t-75.5 -30.5t-75.5 30t-30.5 76zM222 644q0 -20 13.5 -34t33.5 -14q19 0 32 14t13 34q0 19 -13 32.5t-32 13.5q-20 0 -33.5 -13.5t-13.5 -32.5z" />
<glyph unicode="&#x2db;" horiz-adv-x="454" d="M362 -129l9 -70q-48 -9 -83 -9q-42 0 -68.5 24t-26.5 65q0 28 20.5 59.5t40.5 49.5l21 18l73 -7q-66 -64 -66 -97q0 -16 9 -27t24 -11z" />
<glyph unicode="&#x2dc;" horiz-adv-x="452" d="M373 726l19 -66q-47 -53 -90 -53q-25 0 -79 24.5t-69 24.5q-11 0 -29.5 -10.5t-32.5 -21.5l-13 -10l-19 64q51 56 94 56q28 0 81.5 -24t65.5 -24q10 0 28 10t31 20z" />
<glyph unicode="&#x2dd;" horiz-adv-x="705" d="M334 625l140 147l63 -47l-144 -146zM139 625l140 146l64 -46l-144 -146z" />
<glyph unicode="&#x300;" horiz-adv-x="545" d="M149 753l225 -94l-28 -70l-227 85z" />
<glyph unicode="&#x301;" horiz-adv-x="833" d="M119 660l225 94l30 -79l-227 -85z" />
<glyph unicode="&#x302;" horiz-adv-x="833" d="M249 590l126 152h68l127 -152h-93l-67 80l-68 -80h-93z" />
<glyph unicode="&#x303;" horiz-adv-x="653" d="M373 726l19 -66q-47 -53 -90 -53q-25 0 -79 24.5t-69 24.5q-11 0 -29.5 -10.5t-32.5 -21.5l-13 -10l-19 64q51 56 94 56q28 0 81.5 -24t65.5 -24q10 0 28 10t31 20z" />
<glyph unicode="&#x304;" horiz-adv-x="466" d="M81 632v74h297v-74h-297z" />
<glyph unicode="&#x306;" horiz-adv-x="466" d="M56 735h87q2 -32 22.5 -51t56.5 -19t56.5 19t22.5 51h87q-4 -65 -47.5 -105t-118.5 -40q-76 0 -119 40t-47 105z" />
<glyph unicode="&#x307;" horiz-adv-x="241" d="M78 600v95h85v-95h-85z" />
<glyph unicode="&#x308;" horiz-adv-x="833" d="M89 622v97h82v-97h-82zM292 622v97h82v-97h-82z" />
<glyph unicode="&#x30a;" horiz-adv-x="833" d="M162 644q0 44 30.5 75t75.5 31q44 0 75 -31t31 -75q0 -45 -30.5 -75.5t-75.5 -30.5t-75.5 30t-30.5 76zM222 644q0 -20 13.5 -34t33.5 -14q19 0 32 14t13 34q0 19 -13 32.5t-32 13.5q-20 0 -33.5 -13.5t-13.5 -32.5z" />
<glyph unicode="&#x30b;" horiz-adv-x="705" d="M334 625l140 147l63 -47l-144 -146zM139 625l140 146l64 -46l-144 -146z" />
<glyph unicode="&#x30c;" horiz-adv-x="833" d="M374 590l-125 152h93l68 -80l67 80h93l-126 -152h-70z" />
<glyph unicode="&#x312;" horiz-adv-x="170" d="M143 799l-42 -211h-83l51 211h74z" />
<glyph unicode="&#x315;" horiz-adv-x="155" d="M115 695v-239h-82v239h82z" />
<glyph unicode="&#x326;" horiz-adv-x="170" d="M18 -289l42 211h83l-50 -211h-75z" />
<glyph unicode="&#x327;" horiz-adv-x="613" d="M450 -127q0 -44 -25.5 -66.5t-70.5 -22.5q-20 0 -41.5 2t-33.5 4l-12 1l3 53q37 -2 63 -2q43 0 43 36q0 32 -43 32h-39v91h43v-48q61 -1 87 -17.5t26 -62.5z" />
<glyph unicode="&#x328;" horiz-adv-x="454" d="M362 -129l9 -70q-48 -9 -83 -9q-42 0 -68.5 24t-26.5 65q0 28 20.5 59.5t40.5 49.5l21 18l73 -7q-66 -64 -66 -97q0 -16 9 -27t24 -11z" />
<glyph unicode="&#x394;" d="M38 70l153 605h151l152 -606l1 -69h-457v70zM277 596h-21l-129 -517h278z" />
<glyph unicode="&#x3a9;" d="M31 65h111q-4 6 -11 17t-24 45.5t-30 69t-24 82.5t-11 91q0 159 48.5 229.5t174.5 70.5t174 -70.5t48 -229.5q0 -68 -25 -144.5t-50 -118.5l-25 -42h111v-74h-198v64q4 7 11 19t24 47.5t30 70t24 80t11 83.5q0 125 -26.5 179t-108.5 54q-85 0 -110 -53t-25 -180 q0 -60 25 -135t50 -120l25 -45v-64h-199v74z" />
<glyph unicode="&#x3bc;" d="M78 -225v724h84v-267q0 -93 19.5 -130.5t79.5 -37.5q25 0 55 8.5t48 17.5l18 8v401h84v-499h-84v30q-74 -41 -130 -41q-32 0 -54 10.5t-28.5 18.5t-7.5 13v-256h-84z" />
<glyph unicode="&#x3c0;" d="M375 154v311h-204l-29 -465h-35l29 465q-42 -1 -75 -4t-45 -6l-12 -3v35q25 5 62.5 8t62.5 4l25 1h216q95 0 144 16v-35q-34 -12 -104 -15v-312q0 -75 20 -97.5t79 -22.5v-34q-77 0 -105.5 31.5t-28.5 122.5z" />
<glyph unicode="&#x1e80;" horiz-adv-x="906" d="M39 695h90l121 -616h27l127 606h98l130 -606h26l119 616h90l-142 -695h-155l-117 570l-114 -570h-156zM350 938l225 -94l-28 -70l-227 85z" />
<glyph unicode="&#x1e81;" horiz-adv-x="755" d="M27 499h84l92 -423h24l106 414h89l106 -414h23l93 423h84l-113 -499h-146l-92 377l-93 -377h-145zM279 753l225 -94l-28 -70l-227 85z" />
<glyph unicode="&#x1e82;" horiz-adv-x="906" d="M39 695h90l121 -616h27l127 606h98l130 -606h26l119 616h90l-142 -695h-155l-117 570l-114 -570h-156zM330 850l225 94l30 -79l-227 -85z" />
<glyph unicode="&#x1e83;" horiz-adv-x="755" d="M27 499h84l92 -423h24l106 414h89l106 -414h23l93 423h84l-113 -499h-146l-92 377l-93 -377h-145zM249 660l225 94l30 -79l-227 -85z" />
<glyph unicode="&#x1e84;" horiz-adv-x="906" d="M39 695h90l121 -616h27l127 606h98l130 -606h26l119 616h90l-142 -695h-155l-117 570l-114 -570h-156zM307 816v97h82v-97h-82zM516 816v97h82v-97h-82z" />
<glyph unicode="&#x1e85;" horiz-adv-x="755" d="M27 499h84l92 -423h24l106 414h89l106 -414h23l93 423h84l-113 -499h-146l-92 377l-93 -377h-145zM235 622v97h82v-97h-82zM438 622v97h82v-97h-82z" />
<glyph unicode="&#x1eab;" horiz-adv-x="532" d="M434 346v-236q6 -24 19 -34t38 -14l-5 -72q-81 0 -122 38q-78 -39 -164 -39q-64 0 -104.5 43t-40.5 112q0 137 156 150l139 13v40q0 85 -78 85q-37 0 -84.5 -3t-75.5 -7l-29 -3l-3 71q119 20 196 20q79 0 118.5 -39.5t39.5 -124.5zM350 242l-130 -10q-79 -6 -79 -86 q0 -37 19 -61t50 -24t66 7t54 14l20 7v153zM101 560l126 152h68l127 -152h-93l-67 80l-68 -80h-93zM408 856l19 -66q-47 -53 -90 -53q-25 0 -79 24.5t-69 24.5q-11 0 -29.5 -10.5t-31.5 -21.5l-14 -10l-19 64q51 56 94 56q28 0 81.5 -24t65.5 -24q10 0 28 10t31 20z" />
<glyph unicode="&#x1eb0;" horiz-adv-x="604" d="M32 0l184 695h174l182 -695h-87l-49 167h-270l-47 -167h-87zM283 618l-98 -371h233l-96 371h-39zM140 892h87q1 -29 22.5 -46t52.5 -17q32 0 53 17t22 46h87q-4 -61 -47 -98t-115 -37t-115 37t-47 98zM204 1098l225 -94l-28 -70l-227 85z" />
<glyph unicode="&#x1ec5;" horiz-adv-x="507" d="M260 64q32 0 76.5 2t73.5 4l28 3l2 -65q-99 -19 -186 -19q-108 0 -155 65.5t-47 191.5q0 130 54 197t153 67q199 0 199 -232l-5 -63h-315q0 -151 122 -151zM137 281h236q0 81 -27.5 119t-86.5 38q-121 0 -122 -157zM95 560l126 152h68l127 -152h-93l-67 80l-68 -80h-93z M397 856l19 -66q-47 -53 -90 -53q-25 0 -79 24.5t-69 24.5q-11 0 -29.5 -10.5t-32.5 -21.5l-13 -10l-19 64q51 56 94 56q28 0 81.5 -24t65.5 -24q10 0 28 10t31 20z" />
<glyph unicode="&#x1ed7;" horiz-adv-x="533" d="M265 510q111 0 160.5 -66t49.5 -190q0 -130 -47 -197.5t-163 -67.5q-119 0 -166 66t-47 200q0 127 48.5 191t164.5 64zM265 63q73 0 98.5 47.5t25.5 143.5q0 91 -28.5 136.5t-95.5 45.5q-70 0 -98 -43.5t-28 -137.5q0 -100 25.5 -146t100.5 -46zM101 560l126 152h68 l127 -152h-93l-67 80l-68 -80h-93zM408 856l19 -66q-47 -53 -90 -53q-25 0 -79 24.5t-69 24.5q-11 0 -29.5 -10.5t-31.5 -21.5l-14 -10l-19 64q51 56 94 56q28 0 81.5 -24t65.5 -24q10 0 28 10t31 20z" />
<glyph unicode="&#x1ef2;" horiz-adv-x="555" d="M322 298v-298h-86v298l-214 397h97l159 -305l157 305h98zM180 938l225 -94l-28 -70l-227 85z" />
<glyph unicode="&#x1ef3;" horiz-adv-x="482" d="M26 499h84l116 -418h29l117 418h84l-200 -719h-84l62 220h-72zM143 753l225 -94l-28 -70l-227 85z" />
<glyph unicode="&#x1ef8;" horiz-adv-x="555" d="M322 298v-298h-86v298l-214 397h97l159 -305l157 305h98zM424 921l19 -66q-47 -53 -90 -53q-25 0 -79 24.5t-69 24.5q-11 0 -29.5 -10.5t-31.5 -20.5l-14 -11l-19 64q51 56 94 56q28 0 81.5 -24t65.5 -24q10 0 28 10t31 20z" />
<glyph unicode="&#x1ef9;" horiz-adv-x="482" d="M26 499h84l116 -418h29l117 418h84l-200 -719h-84l62 220h-72zM388 726l19 -66q-47 -53 -90 -53q-25 0 -79 24.5t-69 24.5q-11 0 -29.5 -10.5t-31.5 -21.5l-14 -10l-19 64q51 56 94 56q28 0 81.5 -24t65.5 -24q10 0 28 10t31 20z" />
<glyph unicode="&#x2013;" horiz-adv-x="500" d="M0 310h500v-78h-500v78z" />
<glyph unicode="&#x2014;" horiz-adv-x="1000" d="M0 310h1000v-78h-1000v78z" />
<glyph unicode="&#x2018;" horiz-adv-x="197" d="M160 738l-45 -223h-87l53 223h79z" />
<glyph unicode="&#x2019;" horiz-adv-x="197" d="M36 515l45 223h87l-53 -223h-79z" />
<glyph unicode="&#x201a;" horiz-adv-x="197" d="M36 -86l45 223h87l-53 -223h-79z" />
<glyph unicode="&#x201c;" horiz-adv-x="405" d="M181 669l-45 -223h-87l53 223h79zM353 669l-45 -223h-87l53 223h79z" />
<glyph unicode="&#x201d;" horiz-adv-x="382" d="M48 514l45 223h87l-53 -223h-79zM220 514l45 223h87l-53 -223h-79z" />
<glyph unicode="&#x201e;" horiz-adv-x="382" d="M48 -86l45 223h87l-53 -223h-79zM220 -86l45 223h87l-53 -223h-79z" />
<glyph unicode="&#x2020;" d="M58 414v83h165v187h83v-187h165v-83h-165v-489h-83v489h-165z" />
<glyph unicode="&#x2021;" d="M223 -75v187h-165v82h165v220h-165v83h165v187h83v-187h164v-83h-164v-220h165v-82h-165v-187h-83z" />
<glyph unicode="&#x2022;" d="M142 105v285h245v-285h-245z" />
<glyph unicode="&#x2026;" horiz-adv-x="744" d="M80 0v123h92v-123h-92zM335 0v123h92v-123h-92zM589 0v123h92v-123h-92z" />
<glyph unicode="&#x2030;" horiz-adv-x="833" d="M128 645q-45 0 -45 -83q0 -87 45 -87q25 0 35 21t10 65t-10 64t-35 20zM149 3l188 707l60 -15l-189 -707zM17 562q0 139 111 139q112 0 112 -140q0 -70 -29.5 -106t-82.5 -36t-82 36t-29 107zM302 142q0 139 112 139q111 0 111 -139q0 -71 -29.5 -106.5t-81.5 -35.5 q-53 0 -82.5 35.5t-29.5 106.5zM369 142q0 -44 10 -65t35 -21t35 21t10 65t-10 63.5t-35 19.5t-35 -19.5t-10 -63.5zM560 142q0 139 111 139q112 0 112 -139q0 -71 -29.5 -106.5t-82.5 -35.5q-111 0 -111 142zM626 142q0 -86 45 -86q25 0 35 21t10 65t-10 63.5t-35 19.5 q-24 0 -34.5 -19.5t-10.5 -63.5z" />
<glyph unicode="&#x2039;" horiz-adv-x="440" d="M250 339l-122 -90l122 -102v-88l-195 155v66l195 146v-87z" />
<glyph unicode="&#x203a;" horiz-adv-x="440" d="M182 254l-122 90v87l195 -146v-66l-195 -155v88z" />
<glyph unicode="&#x2070;" horiz-adv-x="265" d="M134 800q61 0 91 -38t30 -129q0 -90 -30.5 -127.5t-90.5 -37.5t-90.5 37.5t-30.5 128.5q0 90 30.5 128t90.5 38zM134 735q-25 0 -36 -22.5t-11 -79.5q0 -58 11.5 -79.5t35.5 -21.5q25 0 36 21.5t11 80.5q0 57 -11 79t-36 22z" />
<glyph unicode="&#x2074;" horiz-adv-x="265" d="M153 478v46h-139v60l64 206h78l-70 -202h67l7 89h63v-89h24v-64h-24v-46h-70z" />
<glyph unicode="&#x2075;" horiz-adv-x="265" d="M43 790h191v-63h-132l-5 -63q25 14 54 14q95 0 95 -99q0 -54 -29 -81.5t-81 -27.5q-21 0 -48 3t-44 7l-16 3l5 60q55 -11 95 -11q43 0 43 44q0 40 -35 40q-11 0 -23 -3t-19 -7l-6 -3l-55 6z" />
<glyph unicode="&#x2076;" horiz-adv-x="265" d="M237 789l-4 -59q-53 6 -86 6q-55 0 -56 -65l9 3l22 5.5t25 3.5q103 0 103 -103q0 -52 -31 -82t-81 -30q-120 0 -120 160q0 89 30 130.5t97 41.5q16 0 39 -3t38 -5zM137 623q-11 0 -22.5 -3.5t-17.5 -7t-6 -4.5q0 -77 44 -77q42 0 42 48q0 24 -9.5 34t-30.5 10z" />
<glyph unicode="&#x2077;" horiz-adv-x="265" d="M25 720v70h211v-81l-104 -240l-78 13l100 219v19h-129z" />
<glyph unicode="&#x2078;" horiz-adv-x="265" d="M132 800q116 0 116 -86q0 -62 -41 -73q46 -14 46 -74q0 -54 -31 -76.5t-90 -22.5q-58 0 -89 22t-31 74q0 58 46 77q-41 15 -41 73q0 86 115 86zM132 527q47 0 47 41q0 31 -34 43h-25q-35 -13 -35 -45q0 -39 47 -39zM132 740q-44 0 -44 -33q0 -28 32 -41h25q31 11 31 40 q0 34 -44 34z" />
<glyph unicode="&#x2079;" horiz-adv-x="265" d="M28 480l5 59q45 -7 83 -7q58 0 58 63l-8 -2q-8 -2 -22.5 -5t-26.5 -3q-49 0 -75 27t-26 77q0 52 31 81.5t82 29.5q62 0 91 -41t29 -126q0 -88 -30 -126.5t-96 -38.5q-19 0 -42.5 3t-38.5 6zM128 643q9 0 21.5 3.5t20.5 6.5l7 3q-2 80 -46 80q-43 0 -43 -46 q0 -21 10.5 -34t29.5 -13z" />
<glyph unicode="&#x2080;" horiz-adv-x="265" d="M134 422q61 0 91 -38t30 -129q0 -90 -30.5 -127.5t-90.5 -37.5t-90.5 37.5t-30.5 128.5q0 90 30.5 128t90.5 38zM134 357q-25 0 -36 -22.5t-11 -79.5q0 -58 11.5 -79.5t35.5 -21.5q25 0 36 21.5t11 80.5q0 57 -11 79t-36 22z" />
<glyph unicode="&#x2081;" horiz-adv-x="265" d="M27 341l103 71h66v-312h-71v234l-65 -44z" />
<glyph unicode="&#x2082;" horiz-adv-x="265" d="M234 100h-213v62l85 81q50 45 50 78t-47 33l-83 -9l-3 66q62 11 106 11q53 0 77 -22.5t24 -70.5q0 -33 -14.5 -57.5t-45.5 -52.5l-57 -55h121v-64z" />
<glyph unicode="&#x2083;" horiz-adv-x="265" d="M28 412q61 10 103 10q109 0 109 -85q0 -51 -39 -74q24 -8 35 -24t11 -52q0 -97 -109 -97q-22 0 -50.5 2t-45.5 4l-18 3l5 63q57 -8 99 -8q46 0 46 37q0 38 -43 38h-66v59h65q13 0 24 11t11 28q0 30 -42 30l-90 -7z" />
<glyph unicode="&#x2084;" horiz-adv-x="265" d="M153 100v46h-139v60l64 206h78l-70 -202h67l7 89h63v-89h24v-64h-24v-46h-70z" />
<glyph unicode="&#x2085;" horiz-adv-x="265" d="M43 412h191v-63h-132l-5 -63q25 14 54 14q95 0 95 -99q0 -54 -29 -81.5t-81 -27.5q-21 0 -48 3t-44 7l-16 3l5 60q55 -11 95 -11q43 0 43 44q0 40 -35 40q-11 0 -23 -3t-19 -7l-6 -3l-55 6z" />
<glyph unicode="&#x2086;" horiz-adv-x="265" d="M237 411l-4 -59q-53 6 -86 6q-55 0 -56 -65l9 3l22 5.5t25 3.5q103 0 103 -103q0 -52 -31 -82t-81 -30q-120 0 -120 160q0 89 30 130.5t97 41.5q16 0 39 -3t38 -5zM137 245q-11 0 -22.5 -3.5t-17.5 -7t-6 -4.5q0 -77 44 -77q42 0 42 48q0 24 -9.5 34t-30.5 10z" />
<glyph unicode="&#x2087;" horiz-adv-x="265" d="M25 342v70h211v-81l-104 -240l-78 13l100 219v19h-129z" />
<glyph unicode="&#x2088;" horiz-adv-x="265" d="M132 422q116 0 116 -86q0 -62 -41 -73q46 -14 46 -74q0 -54 -31 -76.5t-90 -22.5q-58 0 -89 22t-31 74q0 58 46 77q-41 15 -41 73q0 86 115 86zM132 149q47 0 47 41q0 31 -34 43h-25q-35 -13 -35 -45q0 -39 47 -39zM132 362q-44 0 -44 -33q0 -28 32 -41h25q31 11 31 40 q0 34 -44 34z" />
<glyph unicode="&#x2089;" horiz-adv-x="265" d="M28 102l5 59q45 -7 83 -7q58 0 58 63l-8 -2q-8 -2 -22.5 -5t-26.5 -3q-49 0 -75 27t-26 77q0 52 31 81.5t82 29.5q62 0 91 -41t29 -126q0 -88 -30 -126.5t-96 -38.5q-19 0 -42.5 3t-38.5 6zM128 265q9 0 21.5 3.5t20.5 6.5l7 3q-2 80 -46 80q-43 0 -43 -46 q0 -21 10.5 -34t29.5 -13z" />
<glyph unicode="&#x20ac;" horiz-adv-x="561" d="M36 443h62q13 121 68 176t177 55q40 0 84.5 -5t68.5 -9l24 -5l-6 -74q-94 14 -161 14q-86 0 -121.5 -36.5t-42.5 -116.5h260v-68h-265q-2 -20 -2 -45q0 -27 2 -43h265v-69h-260q7 -77 43.5 -113t122.5 -36q27 0 67 3t67 7l27 3l3 -73q-97 -19 -176 -19 q-122 0 -177.5 54.5t-67.5 173.5h-62v69h58q-2 16 -2 43q0 25 2 45h-58v69z" />
<glyph unicode="&#x2122;" d="M7 590v31h200v-31h-83v-258h-33v258h-84zM242 331v290h50l84 -242l87 242h50v-290h-32v258l-88 -247h-35l-84 247v-258h-32z" />
<glyph unicode="&#x2202;" d="M121 578l-9 76q74 17 153 17q117 0 174.5 -76.5t57.5 -252.5q0 -171 -67.5 -261t-187.5 -90q-101 0 -155 55.5t-54 151.5q0 100 60.5 156.5t158.5 56.5q41 0 80.5 -14.5t57.5 -28.5l19 -14q0 126 -34 181t-110 55q-32 0 -68 -3t-56 -6zM258 336q-63 0 -100 -37t-37 -101 q0 -128 125 -128q72 0 110.5 56t46.5 152q-7 6 -20 16t-51 26t-74 16z" />
<glyph unicode="&#x220f;" d="M26 660h478v-85h-59v-668h-86v668h-188v-668h-87v668h-58v85z" />
<glyph unicode="&#x2211;" d="M472 -93h-411v112l177 264l-177 263v112h411v-85h-311v-23l184 -267l-184 -268v-23h311v-85z" />
<glyph unicode="&#x2212;" d="M44 247v85h440v-85h-440z" />
<glyph unicode="&#x221a;" d="M11 331l148 45l104 -387h21l150 821h91l-174 -900h-149l-105 371l-65 -21z" />
<glyph unicode="&#x221e;" horiz-adv-x="532" d="M148 463q43 0 69.5 -21t47.5 -67q22 46 48.5 67t69.5 21q62 0 94 -44t32 -127q0 -171 -128 -171q-42 0 -68 20t-47 65q-21 -49 -46 -67t-70 -18q-127 0 -127 170q0 172 125 172zM298 292q3 -6 10 -22.5t10 -23t10 -17.5t13 -15.5t15.5 -8.5t20.5 -4q52 0 52 90 q0 92 -52 92q-11 0 -20.5 -4t-15.5 -8.5t-13 -15.5t-10 -17.5t-10 -23t-10 -22.5zM233 292q-3 7 -10 23t-10 22.5t-10 17.5t-13 15.5t-15.5 8.5t-20.5 4q-51 0 -51 -92q0 -90 51 -90q11 0 20.5 4t15.5 8.5t13 15.5t10 17.5t10 22.5t10 23z" />
<glyph unicode="&#x222b;" d="M443 781q-56 5 -76 5q-45 0 -60.5 -22t-15.5 -75l30 -749q0 -96 -30 -135.5t-118 -39.5l-90 8l1 75q56 -4 77 -4q43 0 59.5 22.5t16.5 73.5l-30 749q0 100 29.5 138t118.5 38l89 -8z" />
<glyph unicode="&#x2248;" d="M459 446l8 -81q-6 -6 -16 -15t-38.5 -23.5t-53.5 -14.5q-30 0 -98 24.5t-88 24.5q-19 0 -44.5 -11.5t-41.5 -23.5l-16 -11l-8 80q6 6 17 15t41 24t56 15q30 0 96 -24.5t88 -24.5q17 0 41.5 11.5t40.5 22.5zM458 251l8 -81q-6 -6 -16 -15t-38.5 -23.5t-53.5 -14.5 q-30 0 -98 24.5t-88 24.5q-19 0 -44.5 -11.5t-41.5 -22.5l-16 -12l-8 80q6 6 17 15t41 24t56 15q30 0 96 -24.5t88 -24.5q17 0 41.5 11.5t40.5 23.5z" />
<glyph unicode="&#x2260;" d="M57 330v83h232l68 153l67 -28l-55 -125h106v-83h-142l-48 -107h190v-83h-226l-69 -156l-67 28l57 128h-113v83h148l48 107h-196z" />
<glyph unicode="&#x2264;" d="M439 456l-280 -98l280 -105v-91l-362 140v108l362 135v-89zM77 33v84h362v-84h-362z" />
<glyph unicode="&#x2265;" d="M376 358l-285 98v89l367 -135v-108l-367 -140v91zM91 33v84h367v-84h-367z" />
<glyph unicode="&#x25ca;" d="M483 332l-172 -332h-88l-177 332l176 328h88zM393 332l-126 247l-131 -247l131 -250z" />
<glyph unicode="&#x25fc;" horiz-adv-x="500" d="M0 500h500v-500h-500v500z" />
<glyph horiz-adv-x="235" />
<glyph d="M452 651l-4 -33q-72 18 -156 18q-102 0 -155 -66t-53 -218q0 2 28 15.5t76 28t87 14.5q209 0 209 -202q0 -217 -214 -217q-115 0 -169.5 87t-54.5 259q0 180 63.5 256.5t182.5 76.5q37 0 77 -5t61 -9zM273 376q-41 -1 -88.5 -16t-74.5 -29l-27 -14q2 -146 46 -219 t141 -73q95 0 135.5 45t40.5 138q0 81 -39 124.5t-134 43.5z" />
<glyph d="M74 12l6 32q82 -19 166 -19q101 0 151 67.5t50 221.5q0 -2 -28 -15.5t-76 -28t-87 -14.5q-106 0 -157.5 53t-51.5 144q0 103 55 160t163 57q113 0 166 -86.5t53 -259.5q0 -181 -60 -257t-178 -76q-37 0 -80 5t-68 10zM258 290q41 1 88.5 16t74.5 29l27 14 q-5 287 -183 287q-180 0 -180 -183q0 -74 42 -118.5t131 -44.5z" />
<glyph horiz-adv-x="0" />
<glyph horiz-adv-x="944" d="M328 -9q-80 0 -133 22t-82.5 69.5t-41 110t-11.5 154.5q0 184 58 273t210 89q108 0 147 -9h409v-36h-373v-286h313v-36h-313v-306h373v-36h-407v-1q-35 -8 -149 -8zM328 25q106 0 147 9v629q-39 12 -147 12q-70 0 -116 -21t-70.5 -65.5t-34 -101t-9.5 -140.5 q0 -85 9 -140t33.5 -98.5t70.5 -63.5t117 -20zM476 663h-1l1 -332v332z" />
<glyph horiz-adv-x="700" d="M303 694q78 0 115.5 -39t37.5 -106q0 -72 -38 -112.5t-127 -69.5l187 -185q20 58 31 146h35q-14 -109 -39 -172l140 -137l-24 -26l-131 130q-66 -132 -222 -132q-126 0 -178 55t-52 162q0 89 38 132.5t125 68.5q-32 35 -41.5 65t-9.5 76q0 65 39 104.5t114 39.5zM270 24 q137 0 194 124l-237 235q-86 -23 -120 -60t-34 -114q0 -93 46 -139t151 -46zM185 550q0 -78 45 -123l36 -36q87 30 121 63t34 96q0 112 -118 112t-118 -112z" />
<glyph horiz-adv-x="570" d="M463 668v-32q-87 12 -120 12q-54 0 -78 -30.5t-24 -116.5v-95h182v-32h-182v-340h174l82 16l7 -32l-81 -17l-309 -1v34h92v340h-69v32h69v95q0 104 32.5 141.5t104.5 37.5q17 0 47 -3t52 -6z" />
<glyph horiz-adv-x="593" d="M68 427h64q10 128 64 189t182 61q42 0 86 -4.5t66 -9.5l23 -5l-3 -35q-91 20 -172 20q-111 0 -155.5 -52t-52.5 -164l311 -1v-33h-313q-1 -20 -1 -62q0 -36 1 -52l313 -1v-33h-312q8 -115 52.5 -167.5t156.5 -52.5q32 0 75 5t70 10l27 5l3 -34q-96 -20 -175 -20 q-128 0 -182.5 61t-63.5 193h-64v34h62q-1 16 -1 52q0 42 1 62h-62v34z" />
<glyph horiz-adv-x="833" d="M582 14l-35 -14l-301 687l35 14z" />
<glyph horiz-adv-x="520" d="M27 -34h428v-34h-428v34z" />
<glyph horiz-adv-x="615" d="M358 257h-219v-257h-36v700h255q106 0 156.5 -50t50.5 -161q0 -112 -47 -172t-160 -60zM139 291h219q169 0 169 198q0 92 -41.5 134.5t-127.5 42.5h-219v-375z" />
<glyph d="M3 334v36h336v-36h-336zM151 483v80h40v-80h-40zM151 139v80h40v-80h-40z" />
<glyph horiz-adv-x="410" d="M-49 234v34h232v232h36v-232h234v-34h-234v-234h-36v234h-232z" />
<glyph horiz-adv-x="440" d="M60 264v34h320v-34h-320z" />
<glyph d="M410 520l-315 -206l315 -217v-41q-313 213 -347 238v36l347 229v-39z" />
<glyph d="M1 343v34h505v-34h-505zM2 174v34h505v-34h-505z" />
<glyph d="M378 314l-315 206v39l347 -229v-36l-347 -238v41z" />
<glyph d="M46 12l277 690l33 -14l-277 -689z" />
<glyph horiz-adv-x="876" d="M618 23q31 0 76.5 2t75.5 5l30 2l2 -32q-112 -9 -185 -9q-131 1 -169 107q-18 -56 -61 -81.5t-122 -25.5q-122 0 -163.5 58t-41.5 212q0 138 46.5 193t158.5 55q146 0 184 -120q44 120 182 120q95 0 142.5 -57t47.5 -183v-33h-355q0 -108 34 -160.5t118 -52.5zM265 23 q54 0 87.5 13.5t50 46t21.5 71.5t5 105q0 118 -39.5 168t-124.5 50q-97 0 -132.5 -45.5t-35.5 -170.5q0 -70 5.5 -110.5t23.5 -72t51 -43.5t88 -12zM466 268h318q0 113 -36.5 161t-116.5 48q-165 0 -165 -209z" />
<glyph horiz-adv-x="898" d="M429 0v215h-276l-78 -215h-40l251 700h552v-34h-373v-288h313v-34h-313v-310h373v-34h-409zM314 666l-149 -417h264v417h-115z" />
<glyph horiz-adv-x="656" d="M89 -98l60 129q-57 38 -80 115t-23 201q0 184 58 273t210 89q82 0 140 -28l52 111l33 -14l-55 -116q54 -42 76 -119t22 -196q0 -191 -56.5 -273.5t-211.5 -82.5q-79 0 -134 23l-58 -125zM84 347q0 -112 17.5 -180t63.5 -103l273 584q-48 27 -124 27q-70 0 -116 -21 t-70.5 -65.5t-34 -101t-9.5 -140.5zM314 25q72 0 117.5 18.5t70 61t33.5 98.5t9 144q0 210 -76 280l-273 -581q47 -21 119 -21z" />
<glyph horiz-adv-x="833" d="M249 0h-36v532q0 104 31.5 141t121.5 37q103 0 146.5 -32t43.5 -103q0 -43 -15 -65t-49 -35q-8 -3 -17 -6.5t-14 -5.5t-11.5 -4.5t-9.5 -4t-6.5 -4t-5 -4t-3 -4.5t-2 -5.5t-0.5 -6.5q0 -10 11 -18.5t73 -45.5q14 -8 33 -19.5t28.5 -17.5t22.5 -14t19 -13t13.5 -12 t10.5 -12.5t5 -12t2 -14.5q0 -71 -9 -116t-34.5 -79.5t-72.5 -49.5t-122 -15l-78 4l4 34q57 -4 74 -4q67 0 108 13t61 45t25.5 68t5.5 100q0 12 -26.5 31t-94.5 58q-67 38 -82 52t-15 38q0 15 3 24.5t12 16.5t15.5 10.5t25.5 10.5t31 12q32 14 39 25t7 46q0 56 -34.5 78.5 t-117.5 22.5q-72 0 -94.5 -29.5t-22.5 -127.5v-519z" />
<glyph horiz-adv-x="828" d="M570 23q31 0 76.5 2t75.5 5l30 2l2 -32q-112 -9 -185 -9q-99 1 -143 58l-38 -16q-93 -42 -206 -42q-127 0 -127 146q0 70 31 101t107 43l190 20v52q0 122 -111 122q-33 0 -80 -2.5t-78 -4.5l-30 -2l-2 33q110 10 190 10q115 0 139 -96q49 96 172 96q95 0 142.5 -57 t47.5 -183v-33h-355q0 -108 34 -160.5t118 -52.5zM183 23q42 0 97 12t84.5 22t46.5 17q-30 59 -30 176v18l-184 -18q-55 -5 -80 -32t-25 -81q0 -55 24 -84.5t67 -29.5zM418 268h318q0 113 -36.5 161t-116.5 48q-165 0 -165 -209z" />
<glyph d="M262 509q50 0 88 -12t70 -40t49 -82t17 -132q0 -70 -18.5 -121t-51 -78.5t-70.5 -40t-83 -12.5q-43 0 -80.5 12.5t-71 40t-53 79t-19.5 121.5q0 74 18 127t50.5 82.5t70.5 42.5t84 13zM263 429q-132 0 -132 -184q0 -93 34 -134t99 -41q66 0 98.5 40.5t32.5 133.5 q0 99 -32.5 142t-99.5 43z" />
<glyph d="M94 381l185 119h81v-500h-86v400l-140 -88z" />
<glyph d="M467 0h-383v77l145 124q59 51 91 88t32 67q0 39 -23 55t-82 16q-28 0 -67 -4t-64.5 -8t-25.5 -5l-6 75q99 24 181 24q183 0 183 -148q0 -52 -24 -88t-73 -77l-139 -116h255v-80z" />
<glyph d="M103 488q102 22 180 22q188 0 188 -134q0 -46 -30 -74t-56 -34q99 -28 99 -120q0 -76 -48 -116.5t-143 -40.5q-39 0 -88.5 5t-78.5 10l-30 5l9 75q107 -15 181 -15q58 1 85.5 18t27.5 57t-28.5 56t-78.5 18h-125v76h125q94 2 94 69q0 37 -24 50.5t-78 13.5 q-34 0 -77 -3.5t-69 -7.5l-27 -4z" />
<glyph d="M314 -48v126h-272v70l165 352h93l-159 -342h173v139h86v-139h61v-80h-61v-126h-86z" />
<glyph d="M109 502h346v-82h-268l-15 -131q55 29 113 29q90 0 141.5 -38.5t51.5 -116.5q0 -81 -53 -126.5t-141 -45.5q-35 0 -85.5 6.5t-83.5 12.5l-33 6l10 78q121 -26 189 -26q50 0 80 22.5t30 68.5q0 84 -111 84q-27 0 -58.5 -8.5t-49.5 -16.5l-17 -9l-65 14z" />
<glyph d="M454 493l-7 -76q-86 14 -158 14q-73 0 -109 -34t-37 -117q0 1 20.5 9.5t56 17t65.5 8.5q194 0 194 -158q0 -79 -54.5 -123t-154.5 -44q-101 0 -157 67t-56 184q0 270 232 270q31 0 72 -4.5t67 -8.5zM278 244q-29 0 -62.5 -8.5t-53.5 -16.5l-19 -8q1 -72 33.5 -110 t93.5 -38q123 0 123 94q0 46 -28.5 66.5t-86.5 20.5z" />
<glyph d="M46 420v81h360v-105l-214 -413l-78 30l204 384v23h-272z" />
<glyph d="M259 509q92 0 149 -35.5t57 -99.5q0 -70 -89 -110q97 -45 97 -127q0 -147 -214 -147q-94 0 -153 36t-59 108q0 46 23.5 75.5t70.5 54.5q-84 41 -84 111q0 65 54.5 99.5t147.5 34.5zM259 69q62 0 92.5 17t30.5 60q0 34 -19 51t-61 26h-89q-74 -15 -74 -81q0 -73 120 -73z M259 434q-57 0 -84 -14.5t-27 -50.5q0 -28 14.5 -44t50.5 -28h89q39 11 55 27t16 44q0 36 -28.5 51t-85.5 15z" />
<glyph d="M75 9l7 77q81 -16 158 -16q73 0 106.5 33.5t33.5 118.5q0 -1 -18.5 -9.5t-52 -17.5t-63.5 -9q-93 0 -141 41.5t-48 117.5q0 78 52 121.5t148 43.5q102 0 156.5 -64.5t54.5 -182.5q0 -144 -57.5 -208.5t-170.5 -64.5q-33 0 -74 4.5t-66 9.5zM252 257q29 0 61 8.5t50 16.5 l18 9q-2 146 -124 146q-114 0 -114 -92q0 -88 109 -88z" />
<glyph d="M242 -59v759h35v-759h-35z" />
<glyph horiz-adv-x="437" d="M186 -86v127q-92 5 -133 49t-41 157q0 195 174 212v132h35v-130l116 -11l-2 -35q-75 9 -114 10v-348l116 8l2 -35q-79 -9 -118 -9v-127h-35zM52 247q0 -95 29 -130t105 -39v345q-67 -7 -100.5 -49t-33.5 -127z" />
<glyph d="M61 340v34h247l72 163l35 -14l-66 -149h137v-34h-152l-66 -151h219v-34h-234l-72 -165l-35 14l66 151h-150v34h165l66 151h-232z" />
<glyph horiz-adv-x="540" d="M47 331v34h171l-193 295h41l205 -309l202 309h42l-191 -295h168v-34h-190l-13 -20v-95h204v-34h-204v-182h-36v182h-205v34h205v95l-13 20h-193z" />
<glyph d="M90 -250v750h35v-258q0 -132 24 -175.5t105 -43.5q40 0 81 12.5t62 24.5l21 13v427h35v-500h-35v40q-9 -5 -24 -13.5t-58.5 -22t-81.5 -13.5q-94 0 -129 51v-292h-35z" />
<glyph d="M289 352v-418q0 -97 -31.5 -138t-95.5 -41l-92 3l2 33q62 -3 90 -3q46 0 69 33.5t23 112.5v418h-69v32h69v111q0 178 127 178l93 -3l-2 -32q-61 2 -91 2q-92 0 -92 -146v-110h162v-32h-162z" />
<glyph horiz-adv-x="170" d="M-6 -123l42 210h40l-51 -210h-31z" />
<glyph horiz-adv-x="248" d="M98 0v80h40v-80h-40z" />
<glyph horiz-adv-x="170" d="M4 527l40 200h38l-48 -200h-30z" />
<glyph horiz-adv-x="833" d="M518 0v667h-172v-667h-36v350h-7q-79 0 -132.5 48.5t-53.5 125.5t53.5 126.5t132.5 49.5h348v-33h-97v-667h-36z" />
<glyph horiz-adv-x="285" d="M135 454l7 116q0 72 -30.5 106.5t-112.5 38.5l2 32q95 -4 135.5 -45.5t40.5 -131.5q0 -21 -3.5 -66.5t-3.5 -56.5q0 -49 23.5 -75.5t80.5 -42.5v-32q-57 -14 -80.5 -42t-23.5 -78q0 -13 3.5 -60.5t3.5 -67.5q0 -90 -40.5 -131.5t-135.5 -45.5l-2 32q82 4 112.5 38.5 t30.5 106.5q0 17 -3.5 61t-3.5 58q0 65 22 95.5t78 48.5q-56 18 -78 49t-22 93z" />
<glyph horiz-adv-x="170" d="M56 727l-40 -200h-38l48 200h30z" />
<glyph d="M61 414v83h159v187h83v-187h160v-83h-160v-489h-83v489h-159z" />
<glyph d="M406 313l-138 263l-136 -263h-90l181 347h88l186 -347h-91z" />
<glyph horiz-adv-x="520" d="M149 938l225 -94l-28 -70l-227 85z" />
<glyph horiz-adv-x="536" d="M119 850l225 94l30 -79l-227 -85z" />
<glyph horiz-adv-x="466" d="M49 797l132 137h77l132 -137h-97l-73 69l-72 -69h-99z" />
<glyph horiz-adv-x="466" d="M390 932l-132 -137h-76l-133 137h99l72 -71l72 71h98z" />
<glyph horiz-adv-x="460" d="M393 927l20 -65q-6 -7 -15.5 -16.5t-35 -26t-44.5 -16.5q-25 0 -87 27t-77 27q-11 0 -31 -12t-35 -24l-14 -12l-19 65q6 7 16.5 17t36.5 27t45 17q29 0 90 -26.5t73 -26.5q10 0 29 11t33 23z" />
<glyph horiz-adv-x="412" d="M86 816v97h82v-97h-82zM295 816v97h82v-97h-82z" />
<glyph horiz-adv-x="466" d="M71 817v74h317v-74h-317z" />
<glyph horiz-adv-x="466" d="M60 927h87q1 -29 22.5 -46t52.5 -17q32 0 53 17t22 46h87q-4 -61 -47 -98t-115 -37t-115 37t-47 98z" />
<glyph horiz-adv-x="336" d="M282 771q0 -50 -35 -79.5t-88 -29.5q-54 0 -89 29.5t-35 79.5q0 51 35 80t89 29t88.5 -29t34.5 -80zM103 771q0 -47 56 -47q26 0 40.5 12.5t14.5 34.5t-14.5 35t-40.5 13t-41 -12.5t-15 -35.5z" />
<glyph horiz-adv-x="705" d="M342 788l129 142l70 -37l-135 -140zM137 788l130 143l70 -38l-135 -139z" />
<glyph horiz-adv-x="241" d="M78 780v95h85v-95h-85z" />
<glyph d="M264 671q50 0 92 -14l57 141l63 -22l-62 -152q90 -79 90 -304q0 -183 -61.5 -257t-177.5 -74q-58 0 -100 16l-50 -124l-60 20l55 137q-85 76 -85 283q0 194 61 272t178 78zM411 321q0 148 -34 209l-181 -447q26 -13 69 -13q76 0 111 54t35 197zM265 590q-77 0 -112 -59 t-35 -211q0 -129 30 -186l177 445q-27 11 -60 11z" />
<glyph d="M264 671q58 0 100 -17t74.5 -56t49 -108.5t16.5 -169.5q0 -183 -61.5 -257t-177.5 -74q-56 0 -98 16t-75 52.5t-50 102.5t-17 161q0 194 61 272t178 78zM265 590q-77 0 -112 -59t-35 -211q0 -128 30 -187l-33 -83l60 -21l22 54q27 -13 68 -13q76 0 111 54t35 197 q0 146 -34 208l31 75l-63 22l-19 -47q-28 11 -61 11zM377 529q-19 35 -51 50l-178 -446q19 -35 49 -50z" />
<glyph horiz-adv-x="155" d="M115 695v-239h-82v239h82z" />
<glyph horiz-adv-x="170" d="M18 -289l42 211h83l-50 -211h-75z" />
<glyph horiz-adv-x="170" d="M143 799l-42 -211h-83l51 211h74z" />
<glyph horiz-adv-x="170" d="M18 -289l42 211h83l-50 -211h-75z" />
<glyph horiz-adv-x="170" d="M143 799l-42 -211h-83l51 211h74z" />
<glyph horiz-adv-x="312" d="M201 200q0 -17 -3.5 -57.5t-3.5 -58.5q0 -51 22 -74t85 -27l-1 -82q-104 4 -150 44.5t-46 129.5q0 21 3.5 66t3.5 56q0 43 -22 68t-77 40v72q56 14 77.5 38t21.5 67q0 13 -3.5 60.5t-3.5 67.5q0 92 45.5 132t150.5 44l1 -82q-63 -4 -85 -26t-22 -73q0 -17 3.5 -63.5 t3.5 -60.5q0 -62 -22 -91.5t-78 -47.5q55 -18 77.5 -49.5t22.5 -92.5z" />
<glyph horiz-adv-x="386" d="M18 167q0 38 18 74.5t43 64.5t50.5 54t43.5 52.5t18 49.5v38h85q4 -41 4 -51q0 -30 -17.5 -61.5t-43 -58t-50.5 -51.5t-42.5 -51.5t-17.5 -50.5q0 -55 26 -77.5t93 -22.5q22 0 59.5 5t64.5 11l26 5l10 -77q-109 -31 -168 -31q-105 0 -153.5 40.5t-48.5 137.5zM281 700 v-118h-92v118h92z" />
<glyph horiz-adv-x="312" d="M105 483q0 17 3.5 57.5t3.5 58.5q0 51 -22 74t-85 27l1 82q104 -4 150 -44.5t46 -129.5q0 -21 -3.5 -66t-3.5 -56q0 -43 22 -68t77 -40v-72q-56 -14 -77.5 -38t-21.5 -67q0 -13 3.5 -60.5t3.5 -67.5q0 -92 -45.5 -132t-150.5 -44l-1 82q63 4 85 26t22 73q0 17 -3.5 63.5 t-3.5 60.5q0 62 22 91.5t78 47.5q-55 18 -77.5 49.5t-22.5 92.5z" />
<glyph horiz-adv-x="300" d="M36 697v82h218v-872h-218v82h131v708h-131z" />
<glyph horiz-adv-x="260" d="M117 -90h-91q11 29 26.5 77.5t42 168t26.5 203.5q0 83 -23.5 189.5t-47.5 171.5l-24 65h91q11 -25 27 -68t43 -156t27 -202t-24 -201t-48 -180z" />
<glyph horiz-adv-x="260" d="M127 780h91q-11 -29 -26.5 -77.5t-42 -168t-26.5 -203.5q0 -83 23.5 -189.5t47.5 -171.5l24 -65h-91q-11 25 -27 68t-43 156t-27 202t24 201t48 180z" />
<glyph horiz-adv-x="300" d="M256 779v-82h-131v-708h131v-82h-218v872h218z" />
<glyph horiz-adv-x="500" d="M0 340h500v-78h-500v78z" />
<glyph horiz-adv-x="1000" d="M0 340h1000v-78h-1000v78z" />
<glyph horiz-adv-x="985" d="M935 395v-17q0 -93 -11.5 -153.5t-36.5 -91.5t-55 -42t-75 -11q-48 0 -75 10.5t-44 42.5q-99 -52 -171 -52q-30 0 -54 5.5t-48 21.5t-40 43t-26 73t-10 108q0 134 44 200.5t157 66.5q19 0 47 -6.5t47 -12.5l18 -6v16h85v-200q0 -110 6.5 -157.5t19 -60t44.5 -12.5 q33 0 50.5 12t29.5 61t12 145v18q0 180 -80 258t-265 78q-188 0 -278 -91t-90 -290q0 -212 85 -298t283 -86l143 10l4 -82q-99 -9 -147 -9q-116 0 -197 22t-140.5 74.5t-88 143.5t-28.5 225q0 463 454 463q223 0 327 -103.5t104 -315.5zM473 163q57 0 138 37q-9 57 -9 160 v141q-58 18 -97 18q-77 0 -103.5 -42t-26.5 -146q0 -98 26.5 -133t71.5 -35z" />
<glyph horiz-adv-x="248" d="M71 273v123h92v-123h-92z" />
<glyph horiz-adv-x="265" d="M134 322q61 0 91 -38t30 -129q0 -90 -30.5 -127.5t-90.5 -37.5t-90.5 37.5t-30.5 128.5q0 90 30.5 128t90.5 38zM134 257q-25 0 -36 -22.5t-11 -79.5q0 -58 11.5 -79.5t35.5 -21.5q25 0 36 21.5t11 80.5q0 57 -11 79t-36 22z" />
<glyph horiz-adv-x="265" d="M27 241l103 71h66v-312h-71v234l-65 -44z" />
<glyph horiz-adv-x="265" d="M234 0h-213v62l85 81q50 45 50 78t-47 33l-83 -9l-3 66q62 11 106 11q53 0 77 -22.5t24 -70.5q0 -33 -14.5 -57.5t-45.5 -52.5l-57 -55h121v-64z" />
<glyph horiz-adv-x="265" d="M28 312q61 10 103 10q109 0 109 -85q0 -51 -39 -74q24 -8 35 -24t11 -52q0 -97 -109 -97q-22 0 -50.5 2t-45.5 4l-18 3l5 63q57 -8 99 -8q46 0 46 37q0 38 -43 38h-66v59h65q13 0 24 11t11 28q0 30 -42 30l-90 -7z" />
<glyph horiz-adv-x="265" d="M153 0v46h-139v60l64 206h78l-70 -202h67l7 89h63v-89h24v-64h-24v-46h-70z" />
<glyph horiz-adv-x="265" d="M43 312h191v-63h-132l-5 -63q25 14 54 14q95 0 95 -99q0 -54 -29 -81.5t-81 -27.5q-21 0 -48 3t-44 7l-16 3l5 60q55 -11 95 -11q43 0 43 44q0 40 -35 40q-11 0 -23 -3t-19 -7l-6 -3l-55 6z" />
<glyph horiz-adv-x="265" d="M237 311l-4 -59q-53 6 -86 6q-55 0 -56 -65l9 3l22 5.5t25 3.5q103 0 103 -103q0 -52 -31 -82t-81 -30q-120 0 -120 160q0 89 30 130.5t97 41.5q16 0 39 -3t38 -5zM137 145q-11 0 -22.5 -3.5t-17.5 -7t-6 -4.5q0 -77 44 -77q42 0 42 48q0 24 -9.5 34t-30.5 10z" />
<glyph horiz-adv-x="265" d="M25 242v70h211v-81l-104 -240l-78 13l100 219v19h-129z" />
<glyph horiz-adv-x="265" d="M132 322q116 0 116 -86q0 -62 -41 -73q46 -14 46 -74q0 -54 -31 -76.5t-90 -22.5q-58 0 -89 22t-31 74q0 58 46 77q-41 15 -41 73q0 86 115 86zM132 49q47 0 47 41q0 31 -34 43h-25q-35 -13 -35 -45q0 -39 47 -39zM132 262q-44 0 -44 -33q0 -28 32 -41h25q31 11 31 40 q0 34 -44 34z" />
<glyph horiz-adv-x="265" d="M28 2l5 59q45 -7 83 -7q58 0 58 63l-8 -2q-8 -2 -22.5 -5t-26.5 -3q-49 0 -75 27t-26 77q0 52 31 81.5t82 29.5q62 0 91 -41t29 -126q0 -88 -30 -126.5t-96 -38.5q-19 0 -42.5 3t-38.5 6zM128 165q9 0 21.5 3.5t20.5 6.5l7 3q-2 80 -46 80q-43 0 -43 -46q0 -21 10.5 -34 t29.5 -13z" />
<glyph horiz-adv-x="265" d="M134 700q61 0 91 -38t30 -129q0 -90 -30.5 -127.5t-90.5 -37.5t-90.5 37.5t-30.5 128.5q0 90 30.5 128t90.5 38zM134 635q-25 0 -36 -22.5t-11 -79.5q0 -58 11.5 -79.5t35.5 -21.5q25 0 36 21.5t11 80.5q0 57 -11 79t-36 22z" />
<glyph horiz-adv-x="265" d="M22 619l103 71h66v-312h-71v234l-65 -44z" />
<glyph horiz-adv-x="265" d="M234 378h-213v62l85 81q50 45 50 78t-47 33l-83 -9l-3 66q62 11 106 11q53 0 77 -22.5t24 -70.5q0 -33 -14.5 -57.5t-45.5 -52.5l-57 -55h121v-64z" />
<glyph horiz-adv-x="265" d="M28 690q61 10 103 10q109 0 109 -85q0 -51 -39 -74q24 -8 35 -24t11 -52q0 -97 -109 -97q-22 0 -50.5 2t-45.5 4l-18 3l5 63q57 -8 99 -8q46 0 46 37q0 38 -43 38h-66v59h65q13 0 24 11t11 28q0 30 -42 30l-90 -7z" />
<glyph horiz-adv-x="265" d="M153 378v46h-139v60l64 206h78l-70 -202h67l7 89h63v-89h24v-64h-24v-46h-70z" />
<glyph horiz-adv-x="265" d="M43 690h191v-63h-132l-5 -63q25 14 54 14q95 0 95 -99q0 -54 -29 -81.5t-81 -27.5q-21 0 -48 3t-44 7l-16 3l5 60q55 -11 95 -11q43 0 43 44q0 40 -35 40q-11 0 -23 -3t-19 -7l-6 -3l-55 6z" />
<glyph horiz-adv-x="265" d="M237 689l-4 -59q-53 6 -86 6q-55 0 -56 -65l9 3l22 5.5t25 3.5q103 0 103 -103q0 -52 -31 -82t-81 -30q-120 0 -120 160q0 89 30 130.5t97 41.5q16 0 39 -3t38 -5zM137 523q-11 0 -22.5 -3.5t-17.5 -7t-6 -4.5q0 -77 44 -77q42 0 42 48q0 24 -9.5 34t-30.5 10z" />
<glyph horiz-adv-x="265" d="M25 620v70h211v-81l-104 -240l-78 13l100 219v19h-129z" />
<glyph horiz-adv-x="265" d="M132 700q116 0 116 -86q0 -62 -41 -73q46 -14 46 -74q0 -54 -31 -76.5t-90 -22.5q-58 0 -89 22t-31 74q0 58 46 77q-41 15 -41 73q0 86 115 86zM132 427q47 0 47 41q0 31 -34 43h-25q-35 -13 -35 -45q0 -39 47 -39zM132 640q-44 0 -44 -33q0 -28 32 -41h25q31 11 31 40 q0 34 -44 34z" />
<glyph horiz-adv-x="265" d="M28 380l5 59q45 -7 83 -7q58 0 58 63l-8 -2q-8 -2 -22.5 -5t-26.5 -3q-49 0 -75 27t-26 77q0 52 31 81.5t82 29.5q62 0 91 -41t29 -126q0 -88 -30 -126.5t-96 -38.5q-19 0 -42.5 3t-38.5 6zM128 543q9 0 21.5 3.5t20.5 6.5l7 3q-2 80 -46 80q-43 0 -43 -46 q0 -21 10.5 -34t29.5 -13z" />
<glyph horiz-adv-x="396" d="M248 599v-123h-92v123h92zM245 363l3 -463h-92l3 463h86z" />
<glyph horiz-adv-x="440" d="M70 245v80h300v-80h-300z" />
<glyph horiz-adv-x="520" d="M149 938l225 -94l-28 -70l-227 85z" />
<glyph horiz-adv-x="536" d="M119 850l225 94l30 -79l-227 -85z" />
<glyph horiz-adv-x="466" d="M49 797l132 137h77l132 -137h-97l-73 69l-72 -69h-99z" />
<glyph horiz-adv-x="466" d="M390 932l-132 -137h-76l-133 137h99l72 -71l72 71h98z" />
<glyph horiz-adv-x="460" d="M393 927l20 -65q-6 -7 -15.5 -16.5t-35 -26t-44.5 -16.5q-25 0 -87 27t-77 27q-11 0 -31 -12t-35 -24l-14 -12l-19 65q6 7 16.5 17t36.5 27t45 17q29 0 90 -26.5t73 -26.5q10 0 29 11t33 23z" />
<glyph horiz-adv-x="412" d="M86 816v97h82v-97h-82zM295 816v97h82v-97h-82z" />
<glyph horiz-adv-x="466" d="M71 817v74h317v-74h-317z" />
<glyph horiz-adv-x="466" d="M60 927h87q1 -29 22.5 -46t52.5 -17q32 0 53 17t22 46h87q-4 -61 -47 -98t-115 -37t-115 37t-47 98z" />
<glyph horiz-adv-x="336" d="M282 771q0 -50 -35 -79.5t-88 -29.5q-54 0 -89 29.5t-35 79.5q0 51 35 80t89 29t88.5 -29t34.5 -80zM103 771q0 -47 56 -47q26 0 40.5 12.5t14.5 34.5t-14.5 35t-40.5 13t-41 -12.5t-15 -35.5z" />
<glyph horiz-adv-x="705" d="M342 788l129 142l70 -37l-135 -140zM137 788l130 143l70 -38l-135 -139z" />
<glyph horiz-adv-x="241" d="M78 780v95h85v-95h-85z" />
</font>
</defs>
</svg>
