<?xml version="1.0" standalone="no"?>
<!DOCTYPE svg PUBLIC "-//W3C//DTD SVG 1.1//EN" "http://www.w3.org/Graphics/SVG/1.1/DTD/svg11.dtd" >
<svg xmlns="http://www.w3.org/2000/svg">
<metadata></metadata>
<defs>
<font id="titilliummaps26l750_wt" horiz-adv-x="530" >
<font-face units-per-em="1000" ascent="750" descent="-250" />
<missing-glyph horiz-adv-x="235" />
<glyph unicode=" "  horiz-adv-x="235" />
<glyph unicode="&#x09;" horiz-adv-x="235" />
<glyph unicode="&#xa0;" horiz-adv-x="235" />
<glyph unicode="!" horiz-adv-x="463" d="M178 0v144h118v-144h-118zM180 248l-3 452h119l-3 -452h-113z" />
<glyph unicode="&#x22;" horiz-adv-x="336" d="M309 447h-100l-2 245h106zM139 447h-100l-2 245h106z" />
<glyph unicode="#" d="M525 171h-102v-171h-96v171h-125v-171h-96v171h-102v92h102v136h-102v92h102v171h96v-171h125v171h96v-171h102v-92h-102v-136h102v-92zM327 263v136h-125v-136h125z" />
<glyph unicode="$" d="M158 -113l21 109l-117 14l8 99q65 -9 129 -14l39 199q-52 15 -81.5 27.5t-56 34t-37 53.5t-10.5 81q0 181 225 181q22 0 34 -1l24 120h50l-24 -123l112 -12l-3 -101q-69 7 -129 11l-35 -180q111 -32 148.5 -68.5t37.5 -126.5q0 -105 -53.5 -153t-159.5 -48q-13 0 -51 2 l-21 -111zM380 190q0 38 -20 56.5t-74 34.5l-37 -189h30q52 0 76.5 22.5t24.5 75.5zM166 490q0 -38 19 -55.5t74 -35.5l33 169h-14q-56 0 -84 -16.5t-28 -61.5z" />
<glyph unicode="%" d="M128 633q-19 0 -26 -17t-7 -57t7 -58t26 -18t26.5 18t7.5 58q0 39 -7.5 56.5t-26.5 17.5zM120 6l220 709l73 -24l-220 -709zM12 559q0 142 116 142t116 -142q0 -72 -30 -108t-86 -36t-86 36t-30 108zM294 144q0 142 116 142t116 -142q0 -72 -30 -108t-86 -36t-86 36 t-30 108zM376 144q0 -40 7.5 -58t26.5 -18t26 17.5t7 58.5q0 40 -7 57t-26 17t-26.5 -17.5t-7.5 -56.5z" />
<glyph unicode="&#x26;" horiz-adv-x="700" d="M323 706q90 0 140.5 -42.5t50.5 -122.5q0 -67 -32 -109t-110 -90l108 -108q16 44 28 124l105 -2q-14 -97 -49 -190l111 -105l-66 -74l-102 92q-50 -50 -101.5 -70t-130.5 -20q-116 0 -176.5 56.5t-60.5 162.5q0 68 40 117.5t107 76.5q-30 39 -41.5 69.5t-11.5 78.5 q0 72 54 114t137 42zM279 89q82 0 146 57l-174 182q-45 -15 -72.5 -46.5t-27.5 -72.5q0 -57 32.5 -88.5t95.5 -31.5zM242 535q0 -61 45 -105l21 -21q53 30 74 55.5t21 65.5q0 77 -80 77q-37 0 -59 -19t-22 -53z" />
<glyph unicode="'" horiz-adv-x="100" d="M-6 452l-1 240h106l-4 -240h-101z" />
<glyph unicode="(" horiz-adv-x="260" d="M115 750h118q-11 -29 -26.5 -77.5t-42 -168t-26.5 -203.5q0 -83 24 -189.5t48 -171.5l23 -65h-118q-11 25 -27 68t-43 156t-27 202t24 201t48 180z" />
<glyph unicode=")" horiz-adv-x="260" d="M129 -120h-118q11 29 26.5 77.5t42 168t26.5 203.5q0 83 -23.5 189.5t-47.5 171.5l-24 65h118q11 -25 27 -68t43 -156t27 -202t-24 -201t-48 -180z" />
<glyph unicode="*" d="M442 489h-123l39 -117l-77 -24l-39 119l-102 -77l-47 62l103 75l-101 74l47 65l99 -71l41 118l77 -27l-40 -116h123v-81z" />
<glyph unicode="+" d="M41 228v108h169v174h112v-174h172v-108h-172v-173h-112v173h-169z" />
<glyph unicode="," horiz-adv-x="170" d="M7 -123l50 247h118l-59 -247h-109z" />
<glyph unicode="-" horiz-adv-x="440" d="M70 219v103h300v-103h-300z" />
<glyph unicode="." horiz-adv-x="248" d="M58 0v144h118v-144h-118z" />
<glyph unicode="/" d="M69 18l282 697l104 -36l-282 -697z" />
<glyph unicode="0" d="M265 671q120 0 183 -79t63 -269q0 -184 -63 -259t-183 -75q-59 0 -102 16t-76.5 53.5t-50.5 103.5t-17 161q0 190 63 269t183 79zM265 568q-67 0 -96.5 -54.5t-29.5 -190.5q0 -131 30 -181t97 -50q66 0 95 50t29 181q0 137 -29 191t-96 54z" />
<glyph unicode="1" d="M48 518l208 142h105v-660h-112v531l-149 -101z" />
<glyph unicode="2" d="M474 0h-424v101l164 163q72 74 101.5 117t29.5 91q0 92 -119 92q-30 0 -71 -4.5t-67 -9.5l-26 -4l-8 99q108 26 199 26q208 0 208 -184q0 -74 -29.5 -127.5t-102.5 -126.5l-132 -128h277v-105z" />
<glyph unicode="3" d="M60 646q109 25 192 25q115 0 166.5 -43t51.5 -134q0 -39 -15.5 -70.5t-30.5 -45t-39 -29.5q51 -23 75 -55t24 -99q0 -206 -217 -206q-44 0 -97.5 6t-85.5 11l-32 6l11 96q115 -14 189 -14q116 0 116 98q0 90 -108 93h-129v98h128q36 0 65.5 29t29.5 65q0 89 -110 89 q-36 0 -79.5 -4t-68.5 -8l-25 -3z" />
<glyph unicode="4" d="M317 -8v121h-290v90l179 457h122l-174 -442h163v188h112v-188h69v-105h-69v-121h-112z" />
<glyph unicode="5" d="M79 661h386v-106h-285l-16 -164q67 26 112 26q212 0 212 -201q0 -112 -59 -169.5t-161 -57.5q-44 0 -99.5 7.5t-89.5 15.5l-34 8l13 97q123 -24 206 -24q49 0 78.5 30t29.5 87q0 105 -107 105q-29 0 -59 -6.5t-45 -12.5l-15 -6l-88 18z" />
<glyph unicode="6" d="M481 650l-10 -99q-98 16 -177 16q-146 0 -147 -185l21 8q21 9 55.5 18t61.5 9q220 0 220 -207q0 -108 -61 -164.5t-172 -56.5q-120 0 -180.5 87.5t-60.5 252.5q0 184 69 263t194 79q33 0 79.5 -5.5t76.5 -10.5zM276 319q-28 0 -60.5 -6.5t-51.5 -12.5l-18 -7 q1 -89 31.5 -145.5t94.5 -56.5q55 0 86 30.5t31 88.5q0 54 -30 81.5t-83 27.5z" />
<glyph unicode="7" d="M55 555v106h406v-137l-240 -540l-105 31l229 511v29h-290z" />
<glyph unicode="8" d="M269 672q104 0 170 -47t66 -131q0 -59 -18.5 -89.5t-69.5 -62.5q48 -26 73 -62t25 -94q0 -101 -68 -150t-179 -49t-177.5 45t-66.5 143q0 61 25 99t71 68q-47 31 -66 64.5t-19 88.5q0 84 64.5 130.5t169.5 46.5zM268 89q127 0 127 105q0 68 -80 95h-94q-77 -27 -77 -97 q0 -103 124 -103zM269 570q-114 0 -114 -91q0 -62 66 -94h94q69 32 69 93q0 92 -115 92z" />
<glyph unicode="9" d="M51 10l10 98q98 -16 177 -16q146 0 148 181l-23 -7q-23 -7 -58 -15t-60 -8q-101 0 -159.5 53t-58.5 156t65 161t167 58q119 0 181 -86t62 -254q0 -184 -69 -263t-195 -79q-33 0 -79.5 5t-76.5 10zM255 343q26 0 59 5.5t53 11.5l20 5q-1 95 -33 149.5t-95 54.5 q-52 0 -84 -31t-32 -86q0 -54 29.5 -81.5t82.5 -27.5z" />
<glyph unicode=":" horiz-adv-x="208" d="M45 303v144h118v-144h-118zM45 0v144h118v-144h-118z" />
<glyph unicode=";" horiz-adv-x="223" d="M12 -116l57 255h118l-73 -255h-102zM61 303v144h118v-144h-118z" />
<glyph unicode="&#x3c;" d="M427 424l-235 -131l235 -137v-115l-342 193v114l342 191v-115z" />
<glyph unicode="=" d="M54 319v106h421v-106h-421zM54 117v107h421v-107h-421z" />
<glyph unicode="&#x3e;" d="M333 293l-235 131v115l342 -191v-114l-342 -193v115z" />
<glyph unicode="?" horiz-adv-x="386" d="M392 525q0 -47 -26 -92.5t-56.5 -74t-56.5 -60t-26 -55.5v-38h-111q-6 41 -6 56q0 35 25.5 72.5t55.5 64t55.5 58t25.5 55.5q0 48 -20 67.5t-81 19.5q-22 0 -59.5 -4.5t-63.5 -9.5l-26 -4l-13 98q113 35 174 35q109 0 159 -43t50 -145zM110 0v137h118v-137h-118z" />
<glyph unicode="@" horiz-adv-x="985" d="M940 305v-17q0 -169 -45.5 -233.5t-140.5 -64.5q-90 0 -124 48q-94 -47 -161 -47q-88 0 -135 55.5t-47 195.5q0 134 42 200.5t153 66.5q16 0 42 -6t44 -11l17 -6v14h109v-200q0 -95 6 -138.5t17 -55t37 -11.5q28 0 42.5 12.5t23.5 55.5t9 125v18q0 169 -76 241.5 t-249 72.5q-175 0 -262 -88.5t-87 -270.5q0 -198 80 -279.5t269 -81.5l143 9l4 -106q-99 -10 -147 -10q-115 0 -197 22.5t-142.5 75.5t-90 144.5t-29.5 225.5q0 235 120.5 350t338.5 115q436 0 436 -421zM477 98q45 0 116 26q-8 45 -8 131v136q-51 15 -80 15 q-65 0 -86.5 -35t-21.5 -130q0 -81 21 -112t59 -31z" />
<glyph unicode="A" horiz-adv-x="605" d="M29 0l168 692h213l166 -692h-112l-41 143h-246l-36 -143h-112zM284 594l-83 -347h201l-81 347h-37z" />
<glyph unicode="B" horiz-adv-x="610" d="M83 692h249q95 0 152 -43.5t57 -129.5q0 -66 -19 -103t-61 -61q49 -20 73 -57t24 -103q0 -99 -59 -147t-159 -48h-257v692zM332 300h-138v-199h140q48 0 78 25.5t30 76.5t-33.5 74t-76.5 23zM327 592h-133v-195h136q45 0 70.5 27.5t25.5 75.5q0 45 -27 68.5t-72 23.5z " />
<glyph unicode="C" horiz-adv-x="531" d="M488 109l3 -100q-118 -20 -189 -20q-145 0 -199 85.5t-54 270.5q0 190 57 274.5t196 84.5q36 0 83.5 -6t76.5 -12l30 -5l-4 -99q-118 14 -171 14q-88 0 -120 -55.5t-32 -195.5q0 -137 31.5 -193t123.5 -56q21 0 63 3t73 7z" />
<glyph unicode="D" horiz-adv-x="633" d="M312 0h-229v692h229q153 0 212.5 -82t59.5 -252q0 -87 -12 -148.5t-41.5 -111t-84 -74t-134.5 -24.5zM468 358q0 57 -6 96t-22.5 71.5t-48 48t-79.5 15.5h-118v-485h118q47 0 79 19t48.5 56t22.5 79t6 100z" />
<glyph unicode="E" horiz-adv-x="558" d="M83 0v692h421v-103h-310v-194h250v-101h-250v-190h310v-104h-421z" />
<glyph unicode="F" horiz-adv-x="544" d="M83 0v692h421v-104h-310v-234h250v-102h-250v-252h-111z" />
<glyph unicode="G" horiz-adv-x="600" d="M349 271v98h194v-361q-145 -19 -224 -19q-148 0 -208.5 89t-60.5 269q0 184 61 270.5t204 86.5q44 0 101 -6t92 -12l35 -7l-4 -98q-124 17 -207 17q-94 0 -130 -56.5t-36 -194.5q0 -139 33.5 -196t129.5 -57q11 0 26 1t27.5 2t24 2t18.5 2l7 1v169h-83z" />
<glyph unicode="H" horiz-adv-x="671" d="M477 0v299h-283v-299h-111v692h111v-289h283v289h111v-692h-111z" />
<glyph unicode="I" horiz-adv-x="265" d="M76 0v692h113v-692h-113z" />
<glyph unicode="J" horiz-adv-x="311" d="M233 693l1 -581q0 -108 -41 -145t-157 -37v99q50 2 68 19.5t18 67.5v577h111z" />
<glyph unicode="K" horiz-adv-x="592" d="M429 0l-143 288l-92 -7v-281h-111v692h111v-309l90 8l139 301h130l-169 -345l176 -347h-131z" />
<glyph unicode="L" horiz-adv-x="496" d="M456 0h-373v692h111v-587h262v-105z" />
<glyph unicode="M" horiz-adv-x="849" d="M83 0v692h185l157 -541l158 541h182v-692h-111v561h-14l-157 -533h-116l-158 533h-15v-561h-111z" />
<glyph unicode="N" horiz-adv-x="697" d="M83 0v692h191l213 -576h15v576h112v-692h-186l-218 576h-14v-576h-113z" />
<glyph unicode="O" horiz-adv-x="647" d="M323 92q88 0 123 57.5t35 192.5q0 134 -35.5 196t-122.5 62t-122 -61.5t-35 -196.5q0 -134 35 -192t122 -58zM323 -11q-148 0 -210.5 86t-62.5 267t63.5 271.5t209.5 90.5q147 0 210.5 -90t63.5 -272t-63 -267.5t-211 -85.5z" />
<glyph unicode="P" horiz-adv-x="598" d="M324 212h-128v-212h-113v692h241q113 0 173.5 -59.5t60.5 -173.5q0 -116 -61.5 -181.5t-172.5 -65.5zM196 315h128q59 0 89 39t30 105q0 130 -119 130h-128v-274z" />
<glyph unicode="Q" horiz-adv-x="647" d="M464 -152l-80 146q-30 -5 -61 -5q-150 0 -211.5 86.5t-61.5 266.5t62.5 271t210.5 91q149 0 211.5 -90.5t62.5 -271.5q0 -119 -24.5 -196t-82.5 -115l73 -134zM323 92q91 0 124.5 58t33.5 192q0 133 -34.5 195.5t-123.5 62.5t-123 -62t-34 -196q0 -132 34 -191t123 -59z " />
<glyph unicode="R" horiz-adv-x="616" d="M344 244l-22 -1h-128v-243h-111v692h249q232 0 232 -221q0 -149 -110 -200l111 -271h-123zM449 469q0 57 -31.5 88.5t-85.5 31.5h-138v-246h140q56 0 85.5 35t29.5 91z" />
<glyph unicode="S" horiz-adv-x="531" d="M484 681l-4 -95q-137 14 -195 14q-122 0 -122 -89q0 -45 30.5 -68t117.5 -50q111 -37 151.5 -74t40.5 -120q0 -109 -55.5 -159.5t-175.5 -50.5q-40 0 -92.5 5t-85.5 10l-32 6l6 98q132 -15 195 -15q64 0 96 23.5t32 78.5q0 39 -29.5 59.5t-110.5 45.5q-113 37 -156 80.5 t-43 129.5q0 96 58.5 145t168.5 49q41 0 92 -6t82 -12z" />
<glyph unicode="T" horiz-adv-x="485" d="M8 584v108h468v-108h-176v-584h-111v584h-181z" />
<glyph unicode="U" horiz-adv-x="645" d="M187 221q0 -66 32.5 -94.5t101.5 -28.5q70 0 103.5 28.5t33.5 94.5v471h112v-471q0 -121 -59.5 -175.5t-189.5 -54.5q-128 0 -187 54.5t-59 175.5v471h112v-471z" />
<glyph unicode="V" horiz-adv-x="604" d="M458 692h118l-168 -692h-212l-167 692h117l136 -591h40z" />
<glyph unicode="W" horiz-adv-x="924" d="M34 692h118l110 -591h20l116 581h128l116 -581h21l109 591h117l-140 -692h-185l-103 533l-100 -533h-185z" />
<glyph unicode="X" horiz-adv-x="581" d="M152 692l139 -268l138 268h126l-192 -349l192 -343h-126l-138 263l-139 -263h-126l195 343l-195 349h126z" />
<glyph unicode="Y" horiz-adv-x="563" d="M338 296v-296h-111v296l-208 396h125l138 -277l137 277h125z" />
<glyph unicode="Z" horiz-adv-x="570" d="M65 587v105h440v-114l-302 -456v-17h302v-105h-440v114l302 456v17h-302z" />
<glyph unicode="[" horiz-adv-x="300" d="M268 749v-107h-123v-658h123v-107h-234l-1 872h235z" />
<glyph unicode="\" horiz-adv-x="528" d="M469 3l-113 -3l-307 698l114 4z" />
<glyph unicode="]" horiz-adv-x="300" d="M30 642v107h235l-1 -872h-234v107h123v658h-123z" />
<glyph unicode="^" d="M386 318l-121 234l-122 -234h-115l178 342h115l181 -342h-116z" />
<glyph unicode="_" d="M27 -85h476v-100h-476v100z" />
<glyph unicode="`" horiz-adv-x="545" d="M141 764l241 -93l-34 -91l-244 81z" />
<glyph unicode="a" horiz-adv-x="525" d="M443 342v-210q2 -25 12.5 -35t34.5 -16l-7 -92q-85 0 -132 36q-72 -36 -150 -36q-66 0 -108.5 43.5t-42.5 115.5q0 139 162 152l121 10v34q0 66 -61 66q-40 0 -88 -2.5t-76 -5.5l-29 -2l-4 90q128 20 203 20q82 0 123.5 -39.5t41.5 -128.5zM333 229l-108 -7 q-32 -2 -48.5 -21t-16.5 -50q0 -32 15.5 -51t41.5 -19q24 0 53 5.5t46 10.5l17 5v127z" />
<glyph unicode="b" horiz-adv-x="544" d="M309 510q190 0 190 -254q0 -139 -56.5 -203t-183.5 -64q-24 0 -68 3t-77 6l-32 3v706h109v-223q62 26 118 26zM259 84q74 0 101.5 44.5t27.5 127.5q0 156 -93 156q-24 0 -50 -4t-40 -8l-14 -5v-306q48 -5 68 -5z" />
<glyph unicode="c" horiz-adv-x="436" d="M253 510q30 0 66 -4t57 -8l21 -3l-4 -93q-73 8 -111 8q-68 0 -95.5 -35.5t-27.5 -118.5q0 -88 27 -127.5t97 -39.5l111 7l3 -93q-80 -14 -146 -14q-108 0 -156 65t-48 202q0 128 50.5 191t155.5 63z" />
<glyph unicode="d" horiz-adv-x="544" d="M465 707v-707h-110v24q-64 -35 -123 -35q-98 0 -141.5 67.5t-43.5 195.5t52 193t152 65q32 0 104 -12v209h110zM249 87q21 0 47.5 6.5t42.5 12.5l16 7v291q-66 11 -96 11q-101 0 -101 -164t91 -164z" />
<glyph unicode="e" horiz-adv-x="507" d="M265 85q32 0 77 2.5t74 4.5l29 2l2 -82q-95 -23 -190 -23q-112 0 -161.5 63.5t-49.5 192.5q0 128 54 196.5t157 68.5t154.5 -58.5t51.5 -169.5l-7 -78h-300q2 -119 109 -119zM156 287h199q0 67 -23 99t-75 32q-101 0 -101 -131z" />
<glyph unicode="f" horiz-adv-x="339" d="M188 404v-404h-109v404h-54v95h54v33q0 99 33.5 142t107.5 43l103 -10l-2 -91q-43 5 -74 5q-33 0 -46 -21.5t-13 -68.5v-32h128v-95h-128z" />
<glyph unicode="g" horiz-adv-x="529" d="M270 -240q-225 0 -225 152q0 66 74 123q-32 22 -32 71q0 10 9.5 30.5t18.5 35.5l9 16q-73 46 -73 147q0 86 55.5 130.5t139.5 44.5q17 0 40.5 -3t38.5 -7l15 -3l154 3v-88h-76q25 -31 25 -77q0 -173 -199 -173q-20 0 -40 4q-13 -33 -13 -46q0 -25 16.5 -32t84.5 -7 q111 0 158 -32t47 -114q0 -88 -63.5 -131.5t-163.5 -43.5zM284 -11l-92 6q-39 -36 -39 -73q0 -66 118 -66q116 0 116 73q0 36 -23.5 48t-79.5 12zM244 251q90 0 90 84t-89 84q-85 0 -85 -84t84 -84z" />
<glyph unicode="h" horiz-adv-x="562" d="M188 0h-109v707h109v-225q76 28 131 28q94 0 131.5 -61t37.5 -188v-261h-109v262q0 75 -16.5 112.5t-64.5 37.5q-20 0 -47.5 -5.5t-44.5 -10.5l-18 -6v-390z" />
<glyph unicode="i" horiz-adv-x="255" d="M73 0v499h109v-499h-109zM73 578v115h109v-115h-109z" />
<glyph unicode="j" horiz-adv-x="261" d="M79 6v493h110v-494q0 -100 -32.5 -146.5t-138.5 -99.5l-49 91q73 40 91.5 67t18.5 89zM79 577v115h110v-115h-110z" />
<glyph unicode="k" horiz-adv-x="509" d="M191 0h-109v707h109v-403l53 7l118 188h123l-144 -233l149 -266h-123l-121 206l-55 -8v-198z" />
<glyph unicode="l" horiz-adv-x="257" d="M74 0v707h109v-707h-109z" />
<glyph unicode="m" horiz-adv-x="854" d="M193 0h-109v499h109v-28q74 39 123 39q77 0 123 -44q113 44 174 44q93 0 131 -60t38 -189v-261h-109v256q0 81 -15.5 118t-65.5 37q-22 0 -50 -7.5t-44 -14.5l-17 -7q9 -30 9 -123v-259h-110v257q0 80 -18 117t-67 37q-20 0 -45.5 -7t-41.5 -14l-15 -7v-383z" />
<glyph unicode="n" horiz-adv-x="564" d="M191 0h-109v499h109v-26q74 37 130 37q95 0 132.5 -61t37.5 -188v-261h-110v260q0 76 -16.5 113.5t-64.5 37.5q-21 0 -48 -6.5t-44 -12.5l-17 -7v-385z" />
<glyph unicode="o" horiz-adv-x="529" d="M265 510q218 0 218 -258q0 -125 -49.5 -194t-168.5 -69q-120 0 -169.5 68.5t-49.5 195.5q0 123 50 190t169 67zM265 84q63 0 84.5 42t21.5 126q0 80 -23.5 121.5t-82.5 41.5q-61 0 -84.5 -40t-23.5 -122q0 -85 22.5 -127t85.5 -42z" />
<glyph unicode="p" horiz-adv-x="544" d="M82 -215v714h109v-27q62 38 122 38q186 0 186 -255q0 -145 -53 -205.5t-166 -60.5q-62 0 -89 9v-213h-109zM293 412q-21 0 -46.5 -7t-40.5 -15l-15 -7v-290q45 -9 81 -9q64 0 90 42t26 129q0 157 -95 157z" />
<glyph unicode="q" horiz-adv-x="542" d="M249 -11q-108 0 -155 64t-47 193q0 130 52.5 197t169.5 67l194 -11v-715h-109v223q-58 -18 -105 -18zM269 415q-62 0 -87 -42.5t-25 -126.5q0 -159 100 -159q20 0 44.5 4t38.5 8l14 4v306q-58 6 -85 6z" />
<glyph unicode="r" horiz-adv-x="358" d="M75 0v499h110v-55q63 50 147 67v-117q-40 -8 -77 -20.5t-53 -21.5l-17 -8v-344h-110z" />
<glyph unicode="s" horiz-adv-x="493" d="M422 488l-2 -89q-121 16 -174 16q-81 0 -81 -58q0 -23 20 -34t81 -22q97 -17 134.5 -49t37.5 -104q0 -159 -194 -159q-31 0 -77 5.5t-77 11.5l-30 5l4 90q118 -17 169 -17t73 14.5t22 46.5q0 25 -17.5 36t-77.5 23q-94 18 -136 49t-42 102q0 78 53.5 116.5t129.5 38.5 q33 0 79 -5.5t75 -10.5z" />
<glyph unicode="t" horiz-adv-x="355" d="M325 403h-132v-213q0 -55 12.5 -79t42.5 -24l75 3l5 -89q-60 -13 -95 -13q-80 0 -114.5 43.5t-34.5 143.5v228h-60v95h60v147h109v-147h132v-95z" />
<glyph unicode="u" horiz-adv-x="560" d="M371 499h110v-499h-110v26q-74 -37 -127 -37q-95 0 -132.5 57.5t-37.5 191.5v261h110v-260q0 -85 16.5 -119.5t64.5 -34.5q20 0 46.5 7t42.5 14l17 7v386z" />
<glyph unicode="v" horiz-adv-x="483" d="M20 499h113l97 -409h23l99 409h111l-128 -499h-188z" />
<glyph unicode="w" horiz-adv-x="753" d="M19 499h109l76 -400h24l91 391h115l91 -391h23l77 400h108l-103 -499h-181l-74 341l-75 -341h-178z" />
<glyph unicode="x" horiz-adv-x="464" d="M22 499h117l93 -172l93 172h117l-144 -250l144 -249h-117l-93 171l-93 -171h-117l143 249z" />
<glyph unicode="y" horiz-adv-x="484" d="M19 499h109l103 -394h21l104 394h108l-187 -713h-109l57 215h-76z" />
<glyph unicode="z" horiz-adv-x="478" d="M58 403v97h361l1 -97l-234 -306h234v-97h-361l-1 97l234 306h-234z" />
<glyph unicode="{" horiz-adv-x="325" d="M232 171q0 -15 -3.5 -57t-3.5 -60q0 -41 18 -58t71 -21l-1 -107q-108 4 -157 44.5t-49 129.5q0 21 3.5 65.5t3.5 55.5q0 40 -20.5 64t-75.5 39v92q55 14 75.5 36t20.5 62q0 13 -3.5 60t-3.5 67q0 93 48 132t158 43l1 -107q-54 -4 -71.5 -19.5t-17.5 -56.5q0 -17 3.5 -64 t3.5 -61q0 -60 -22 -89.5t-78 -47.5q55 -18 77.5 -50t22.5 -92z" />
<glyph unicode="|" d="M204 -250v1000h112v-1000h-112z" />
<glyph unicode="}" horiz-adv-x="325" d="M91 452q0 15 3.5 57t3.5 60q0 41 -18 58t-71 21l1 107q108 -4 157 -44.5t49 -129.5q0 -21 -3.5 -65.5t-3.5 -55.5q0 -40 20.5 -64t75.5 -39v-92q-55 -14 -75.5 -36t-20.5 -62q0 -13 3.5 -60t3.5 -67q0 -93 -48 -132t-158 -43l-1 107q54 4 71.5 19.5t17.5 56.5 q0 17 -3.5 64t-3.5 61q0 60 22 89.5t78 47.5q-55 18 -77.5 50t-22.5 92z" />
<glyph unicode="~" d="M462 383l7 -103q-6 -6 -15.5 -14.5t-39 -23t-57.5 -14.5q-29 0 -96 23t-86 23q-20 0 -46.5 -11t-42.5 -21l-16 -11l-10 103q6 6 17 15t43 23.5t61 14.5q28 0 93 -23t88 -23q17 0 42 10.5t42 20.5z" />
<glyph unicode="&#xa1;" horiz-adv-x="463" d="M295 499v-144h-118v144h118zM293 251l3 -452h-119l3 452h113z" />
<glyph unicode="&#xa2;" horiz-adv-x="437" d="M204 -78v110q-90 5 -135 56t-45 161q0 206 180 219v108h92v-112l87 -10l-3 -95q-85 4 -123 4q-68 0 -94.5 -24.5t-26.5 -89.5q0 -66 26 -89.5t99 -23.5l119 5l4 -95q-47 -6 -87 -10v-114h-93z" />
<glyph unicode="&#xa3;" d="M463 658l-5 -93q-103 9 -128 9q-40 0 -56 -20.5t-16 -76.5v-41h195v-100h-196v-235h132l72 16l18 -99l-81 -17q-52 0 -172 -0.5t-172 -0.5v101h96v235h-81v100h81v42q0 110 38.5 156t113.5 46q24 0 64 -5.5t68 -10.5z" />
<glyph unicode="&#xa4;" d="M428 14l-73 71q-42 -23 -90.5 -22.5t-90.5 23.5l-72 -72l-75 75l72 72q-23 42 -23.5 90.5t22.5 90.5l-71 73l75 75l72 -72q42 23 90.5 23t90.5 -23l73 72l75 -75l-72 -73q23 -42 23 -90.5t-23 -90.5l72 -72zM201 188q26 -26 63.5 -26t63.5 26t26 64t-26 63 q-26 26 -63.5 26t-63.5 -26q-25 -25 -25 -63t25 -64z" />
<glyph unicode="&#xa5;" horiz-adv-x="540" d="M48 293v93h115l-161 274h125l144 -258l142 258h125l-159 -274h113v-93h-159l-5 -11v-47h164v-93h-164v-142h-113v142h-167v93h167v47l-5 11h-162z" />
<glyph unicode="&#xa6;" d="M207 751h112v-411h-112v411zM207 173h112v-423h-112v423z" />
<glyph unicode="&#xa7;" d="M452 622l-5 -89q-111 15 -159 15q-60 0 -83.5 -17t-23.5 -59q0 -32 29 -47t110 -32q89 -20 122.5 -49t33.5 -100q0 -67 -48 -136q20 -17 29 -39.5t9 -65.5q0 -92 -50 -134t-156 -42q-30 0 -75.5 5t-76.5 10l-30 5l11 89q108 -15 163 -15q109 0 109 75q0 35 -26.5 48 t-116.5 33q-88 20 -124.5 51.5t-36.5 101.5q0 36 20.5 75t41.5 56q-44 32 -44 109q0 173 206 173q31 0 73.5 -5.5t69.5 -10.5zM270 304q-77 19 -79 20q-24 -36 -24 -74q0 -35 17 -49.5t65 -25.5q60 -14 95 -27q6 8 13.5 33.5t7.5 47.5q0 33 -20 47.5t-75 27.5z" />
<glyph unicode="&#xa8;" horiz-adv-x="614" d="M78 614v114h105v-114h-105zM288 614v114h104v-114h-104z" />
<glyph unicode="&#xa9;" d="M10 434q0 111 73 188.5t182 77.5t182.5 -77.5t73.5 -188.5t-73.5 -188t-182.5 -77t-182 77t-73 188zM42 434q0 -98 63.5 -165.5t159.5 -67.5t160 67.5t64 165.5t-64 166t-160 68t-159.5 -68t-63.5 -166zM338 321l1 -32q-43 -8 -74 -8q-62 0 -85.5 38.5t-23.5 113.5 q0 76 23 115t86 39q17 0 35.5 -1.5t28.5 -3.5l10 -2l-1 -32q-41 7 -73 7q-49 0 -63 -28t-14 -94q0 -62 16 -91t61 -29z" />
<glyph unicode="&#xaa;" d="M369 567v-111q1 -13 6 -19.5t20 -9.5l-5 -61q-56 2 -74 19q-55 -19 -101 -19q-45 0 -69.5 25t-24.5 73q0 85 98 91l78 4v9q0 34 -31 34l-125 -5l-2 61q100 11 137 11q43 0 68 -27.5t25 -74.5zM297 503l-71 -3q-17 -2 -24.5 -10t-7.5 -27q0 -35 31 -35q12 0 30 3l30 5 l12 3v64z" />
<glyph unicode="&#xab;" horiz-adv-x="576" d="M269 329l-116 -83l116 -93v-112l-209 163v81l209 155v-111zM516 329l-116 -83l116 -93v-112l-209 163v81l209 155v-111z" />
<glyph unicode="&#xac;" d="M53 359h422v-257h-106v151h-316v106z" />
<glyph unicode="&#xae;" d="M10 434q0 111 73 188.5t182 77.5t182.5 -77.5t73.5 -188.5t-73.5 -188t-182.5 -77t-182 77t-73 188zM42 434q0 -98 63.5 -165.5t159.5 -67.5t160 67.5t64 165.5t-64 166t-160 68t-159.5 -68t-63.5 -166zM340 276l-66 131h-79v-131h-32v315h91q64 0 89.5 -20t25.5 -70 q0 -76 -59 -91l65 -134h-35zM275 439q34 0 48 13.5t14 48.5q0 33 -19 45.5t-61 12.5h-62v-120h80z" />
<glyph unicode="&#xaf;" horiz-adv-x="476" d="M77 627v95h312v-95h-312z" />
<glyph unicode="&#xb0;" d="M97 564q0 65 41 105.5t106 40.5t105.5 -40.5t40.5 -105.5t-40.5 -105.5t-105.5 -40.5t-106 40.5t-41 105.5zM162 564q0 -37 22.5 -60t59.5 -23t60.5 23t23.5 60t-23.5 60.5t-60.5 23.5t-59.5 -23.5t-22.5 -60.5z" />
<glyph unicode="&#xb1;" d="M37 286v108h172v115h112v-115h172v-108h-172v-108h-112v108h-172zM37 138h456v-108h-456v108z" />
<glyph unicode="&#xb2;" horiz-adv-x="265" d="M239 478h-222v76l80 70q48 42 48 68q0 23 -42 23l-80 -7l-3 82q67 10 111 10q58 0 82.5 -22.5t24.5 -73.5q0 -58 -59 -105l-47 -41h107v-80z" />
<glyph unicode="&#xb3;" horiz-adv-x="265" d="M26 791q64 9 106 9q114 0 114 -86q0 -53 -33 -72q40 -15 40 -75q0 -100 -113 -100q-22 0 -51.5 2.5t-48.5 4.5l-18 2l5 78q60 -7 97 -7t37 27q0 25 -34 25h-66v73h64q12 0 20 7t8 19q0 23 -35 23l-87 -6z" />
<glyph unicode="&#xb4;" horiz-adv-x="582" d="M104 672l241 93l37 -103l-244 -82z" />
<glyph unicode="&#xb6;" d="M369 0v614h-74v-614h-94v317h-7q-83 0 -134.5 53t-51.5 137q0 85 51.5 139t134.5 54h332v-86h-64v-614h-93z" />
<glyph unicode="&#xb7;" horiz-adv-x="248" d="M58 223v144h118v-144h-118z" />
<glyph unicode="&#xb8;" horiz-adv-x="833" d="M566 -127q0 -47 -28 -72t-76 -25q-19 0 -41.5 2.5t-35.5 5.5l-13 2l3 65q35 -2 56 -2q40 0 40 31q0 27 -40 27h-32v94h48v-43q64 -1 91.5 -18t27.5 -67z" />
<glyph unicode="&#xb9;" horiz-adv-x="265" d="M22 717l104 73h81v-312h-89v214l-55 -38z" />
<glyph unicode="&#xba;" d="M256 669q136 0 136 -150q0 -153 -136 -153q-133 0 -133 153q0 150 133 150zM256 434q33 0 47 18.5t14 66.5q0 45 -14.5 63.5t-46.5 18.5q-31 0 -44.5 -18.5t-13.5 -63.5q0 -48 13.5 -66.5t44.5 -18.5z" />
<glyph unicode="&#xbb;" horiz-adv-x="576" d="M422 254l-115 83v111l209 -156v-81l-209 -162v111zM175 254l-115 83v111l209 -156v-81l-209 -162v111z" />
<glyph unicode="&#xbf;" horiz-adv-x="386" d="M9 -26q0 47 26 92.5t56.5 74t56.5 60t26 55.5v38h111q6 -41 6 -56q0 -35 -25.5 -72.5t-55.5 -64t-55.5 -58t-25.5 -55.5q0 -48 20 -67.5t81 -19.5q22 0 59.5 4.5t63.5 8.5l26 5l13 -98q-113 -35 -174 -35q-109 0 -159 43t-50 145zM291 499v-137h-118v137h118z" />
<glyph unicode="&#xc0;" horiz-adv-x="605" d="M29 0l168 692h213l166 -692h-112l-41 143h-246l-36 -143h-112zM284 594l-83 -347h201l-81 347h-37zM186 947l241 -93l-34 -92l-244 82z" />
<glyph unicode="&#xc1;" horiz-adv-x="605" d="M29 0l168 692h213l166 -692h-112l-41 143h-246l-36 -143h-112zM284 594l-83 -347h201l-81 347h-37zM154 862l241 93l37 -103l-244 -82z" />
<glyph unicode="&#xc2;" horiz-adv-x="605" d="M29 0l168 692h213l166 -692h-112l-41 143h-246l-36 -143h-112zM284 594l-83 -347h201l-81 347h-37zM117 790l132 143h100l132 -143h-124l-57 56l-56 -56h-127z" />
<glyph unicode="&#xc3;" horiz-adv-x="605" d="M29 0l168 692h213l166 -692h-112l-41 143h-246l-36 -143h-112zM284 594l-83 -347h201l-81 347h-37zM464 931l24 -83q-6 -7 -16 -17t-37 -27t-48 -17q-27 0 -89.5 24.5t-76.5 24.5q-12 0 -32 -11t-34 -22l-14 -11l-25 83q6 7 16.5 17.5t38 27.5t48.5 17q32 0 93 -24 t72 -24t31 10.5t35 20.5z" />
<glyph unicode="&#xc4;" horiz-adv-x="605" d="M29 0l168 692h213l166 -692h-112l-41 143h-246l-36 -143h-112zM284 594l-83 -347h201l-81 347h-37zM144 805v114h105v-114h-105zM360 805v114h104v-114h-104z" />
<glyph unicode="&#xc5;" horiz-adv-x="605" d="M441 730q0 -41 -24 -70l159 -660h-112l-41 143h-246l-36 -143h-112l160 662q-21 29 -21 68q0 55 38.5 86.5t97.5 31.5t98 -31.5t39 -86.5zM284 594l-83 -347h201l-81 347h-37zM253 730q0 -30 32 -38h38q33 8 33 38q0 19 -14 29.5t-38 10.5q-23 0 -37 -10.5t-14 -29.5z " />
<glyph unicode="&#xc6;" horiz-adv-x="819" d="M345 0v143h-179l-36 -143h-113l169 692h579v-104h-310v-194h250v-99h-250v-191h310v-104h-420zM272 589l-82 -342h155v342h-73z" />
<glyph unicode="&#xc7;" horiz-adv-x="537" d="M436 -127q0 -47 -28 -72t-76 -25q-19 0 -41.5 2.5t-35.5 5.5l-13 2l3 65q35 -2 56 -2q40 0 40 31q0 27 -40 27h-32v84q-125 9 -172.5 94t-47.5 260q0 190 57 274.5t196 84.5q36 0 83.5 -6t76.5 -12l30 -5l-4 -99q-118 14 -171 14q-88 0 -120 -55.5t-32 -195.5 q0 -137 31.5 -193t123.5 -56q21 0 63 3t73 7l32 3l3 -100q-103 -17 -174 -20v-31q64 -1 91.5 -18t27.5 -67z" />
<glyph unicode="&#xc8;" horiz-adv-x="558" d="M83 0v692h421v-103h-310v-194h250v-101h-250v-190h310v-104h-421zM196 947l241 -93l-34 -92l-244 82z" />
<glyph unicode="&#xc9;" horiz-adv-x="558" d="M83 0v692h421v-103h-310v-194h250v-101h-250v-190h310v-104h-421zM169 862l241 93l37 -103l-244 -82z" />
<glyph unicode="&#xca;" horiz-adv-x="558" d="M83 0v692h421v-103h-310v-194h250v-101h-250v-190h310v-104h-421zM116 792l132 143h100l132 -143h-124l-57 56l-56 -56h-127z" />
<glyph unicode="&#xcb;" horiz-adv-x="558" d="M83 0v692h421v-103h-310v-194h250v-101h-250v-190h310v-104h-421zM145 805v114h105v-114h-105zM361 805v114h104v-114h-104z" />
<glyph unicode="&#xcc;" horiz-adv-x="265" d="M76 0v692h113v-692h-113zM0 947l241 -93l-34 -92l-244 82z" />
<glyph unicode="&#xcd;" horiz-adv-x="265" d="M76 0v692h113v-692h-113zM15 862l241 93l37 -103l-244 -82z" />
<glyph unicode="&#xce;" horiz-adv-x="265" d="M76 0v692h113v-692h-113zM-51 792l132 143h100l132 -143h-124l-57 56l-56 -56h-127z" />
<glyph unicode="&#xcf;" horiz-adv-x="265" d="M76 0v692h113v-692h-113zM-26 814v114h105v-114h-105zM190 814v114h104v-114h-104z" />
<glyph unicode="&#xd0;" horiz-adv-x="633" d="M18 291v108h65v293h229q153 0 212.5 -82t59.5 -252q0 -87 -12 -148.5t-41.5 -111t-84 -74t-134.5 -24.5h-229v291h-65zM468 358q0 57 -6 96t-22.5 71.5t-48 48t-79.5 15.5h-118v-190h137v-108h-137v-187h118q47 0 79 19t48.5 56t22.5 79t6 100z" />
<glyph unicode="&#xd1;" horiz-adv-x="697" d="M83 0v692h191l213 -576h15v576h112v-692h-186l-218 576h-14v-576h-113zM513 929l24 -83q-6 -7 -16 -17t-37 -27t-48 -17q-27 0 -89.5 24.5t-76.5 24.5q-12 0 -32 -11t-34 -22l-14 -11l-25 83q6 7 16.5 17.5t38 27.5t48.5 17q32 0 93 -24t72 -24t31 10.5t34 20.5z" />
<glyph unicode="&#xd2;" horiz-adv-x="647" d="M323 92q88 0 123 57.5t35 192.5q0 134 -35.5 196t-122.5 62t-122 -61.5t-35 -196.5q0 -134 35 -192t122 -58zM323 -11q-148 0 -210.5 86t-62.5 267t63.5 271.5t209.5 90.5q147 0 210.5 -90t63.5 -272t-63 -267.5t-211 -85.5zM218 947l241 -93l-34 -92l-244 82z" />
<glyph unicode="&#xd3;" horiz-adv-x="647" d="M323 92q88 0 123 57.5t35 192.5q0 134 -35.5 196t-122.5 62t-122 -61.5t-35 -196.5q0 -134 35 -192t122 -58zM323 -11q-148 0 -210.5 86t-62.5 267t63.5 271.5t209.5 90.5q147 0 210.5 -90t63.5 -272t-63 -267.5t-211 -85.5zM173 862l241 93l37 -103l-244 -82z" />
<glyph unicode="&#xd4;" horiz-adv-x="647" d="M323 92q88 0 123 57.5t35 192.5q0 134 -35.5 196t-122.5 62t-122 -61.5t-35 -196.5q0 -134 35 -192t122 -58zM323 -11q-148 0 -210.5 86t-62.5 267t63.5 271.5t209.5 90.5q147 0 210.5 -90t63.5 -272t-63 -267.5t-211 -85.5zM146 791l132 143h100l132 -143h-124l-57 56 l-56 -56h-127z" />
<glyph unicode="&#xd5;" horiz-adv-x="647" d="M323 92q88 0 123 57.5t35 192.5q0 134 -35.5 196t-122.5 62t-122 -61.5t-35 -196.5q0 -134 35 -192t122 -58zM323 -11q-148 0 -210.5 86t-62.5 267t63.5 271.5t209.5 90.5q147 0 210.5 -90t63.5 -272t-63 -267.5t-211 -85.5zM486 929l24 -83q-6 -7 -16 -17t-37 -27 t-48 -17q-27 0 -89.5 24.5t-76.5 24.5q-12 0 -32 -11t-34 -22l-14 -11l-25 83q6 7 16.5 17.5t38 27.5t48.5 17q32 0 93 -24t72 -24t31 10.5t35 20.5z" />
<glyph unicode="&#xd6;" horiz-adv-x="647" d="M323 92q88 0 123 57.5t35 192.5q0 134 -35.5 196t-122.5 62t-122 -61.5t-35 -196.5q0 -134 35 -192t122 -58zM323 -11q-148 0 -210.5 86t-62.5 267t63.5 271.5t209.5 90.5q147 0 210.5 -90t63.5 -272t-63 -267.5t-211 -85.5zM166 805v114h105v-114h-105zM382 805v114h104 v-114h-104z" />
<glyph unicode="&#xd7;" d="M127 487l136 -137l140 139l76 -76l-139 -140l137 -136l-77 -77l-137 137l-139 -140l-77 77l140 139l-137 137z" />
<glyph unicode="&#xd8;" horiz-adv-x="656" d="M323 -11q-65 0 -114 17l-58 -125l-68 33l60 128q-93 78 -93 300q0 181 63.5 271.5t209.5 90.5q68 0 120 -20l55 118l71 -26l-62 -133q90 -83 90 -301q0 -182 -63 -267.5t-211 -85.5zM166 342q0 -129 30 -185l200 428q-30 15 -73 15q-87 0 -122 -61.5t-35 -196.5zM323 92 q88 0 123 57.5t35 192.5q0 122 -29 183l-197 -422q26 -11 68 -11z" />
<glyph unicode="&#xd9;" horiz-adv-x="645" d="M187 221q0 -66 32.5 -94.5t101.5 -28.5q70 0 103.5 28.5t33.5 94.5v471h112v-471q0 -121 -59.5 -175.5t-189.5 -54.5q-128 0 -187 54.5t-59 175.5v471h112v-471zM211 947l241 -93l-34 -92l-244 82z" />
<glyph unicode="&#xda;" horiz-adv-x="645" d="M187 221q0 -66 32.5 -94.5t101.5 -28.5q70 0 103.5 28.5t33.5 94.5v471h112v-471q0 -121 -59.5 -175.5t-189.5 -54.5q-128 0 -187 54.5t-59 175.5v471h112v-471zM174 862l241 93l37 -103l-244 -82z" />
<glyph unicode="&#xdb;" horiz-adv-x="645" d="M187 221q0 -66 32.5 -94.5t101.5 -28.5q70 0 103.5 28.5t33.5 94.5v471h112v-471q0 -121 -59.5 -175.5t-189.5 -54.5q-128 0 -187 54.5t-59 175.5v471h112v-471zM140 790l132 143h100l132 -143h-124l-57 56l-56 -56h-127z" />
<glyph unicode="&#xdc;" horiz-adv-x="645" d="M187 221q0 -66 32.5 -94.5t101.5 -28.5q70 0 103.5 28.5t33.5 94.5v471h112v-471q0 -121 -59.5 -175.5t-189.5 -54.5q-128 0 -187 54.5t-59 175.5v471h112v-471zM163 814v114h105v-114h-105zM379 814v114h104v-114h-104z" />
<glyph unicode="&#xdd;" horiz-adv-x="563" d="M338 296v-296h-111v296l-208 396h125l138 -277l137 277h125zM165 862l241 93l37 -103l-244 -82z" />
<glyph unicode="&#xde;" horiz-adv-x="598" d="M324 217q119 0 119 136q0 128 -119 128h-128v-264h128zM324 109h-128v-109h-113v692h113v-104h128q117 0 175.5 -60t58.5 -175q0 -118 -59 -181t-175 -63z" />
<glyph unicode="&#xdf;" horiz-adv-x="618" d="M185 0h-110v532q0 100 52.5 142.5t164.5 42.5q114 0 164.5 -34.5t50.5 -115.5q0 -53 -19 -77.5t-69 -48.5q-35 -17 -47.5 -29t-12.5 -29q0 -14 16 -26t75 -38q70 -32 94.5 -61t24.5 -87q0 -103 -45 -141.5t-157 -38.5q-13 0 -46 4t-59 9l-26 4l4 88q102 -4 119 -4 q57 0 77 15.5t20 55.5q0 24 -18.5 40.5t-72.5 38.5q-70 28 -94.5 56.5t-24.5 81.5q0 43 18 66.5t60 44.5q42 20 56 33.5t14 35.5q0 33 -24 45.5t-78 12.5t-80.5 -20.5t-26.5 -71.5v-526z" />
<glyph unicode="&#xe0;" d="M443 342v-210q2 -25 12.5 -35t34.5 -16l-7 -92q-85 0 -132 36q-72 -36 -150 -36q-66 0 -108.5 43.5t-42.5 115.5q0 139 162 152l121 10v34q0 66 -61 66q-40 0 -88 -2.5t-76 -5.5l-29 -2l-4 90q128 20 203 20q82 0 123.5 -39.5t41.5 -128.5zM333 229l-108 -7 q-32 -2 -48.5 -21t-16.5 -50q0 -32 15.5 -51t41.5 -19q24 0 53 5.5t46 10.5l17 5v127zM153 764l241 -93l-34 -91l-244 81z" />
<glyph unicode="&#xe1;" d="M443 342v-210q2 -25 12.5 -35t34.5 -16l-7 -92q-85 0 -132 36q-72 -36 -150 -36q-66 0 -108.5 43.5t-42.5 115.5q0 139 162 152l121 10v34q0 66 -61 66q-40 0 -88 -2.5t-76 -5.5l-29 -2l-4 90q128 20 203 20q82 0 123.5 -39.5t41.5 -128.5zM333 229l-108 -7 q-32 -2 -48.5 -21t-16.5 -50q0 -32 15.5 -51t41.5 -19q24 0 53 5.5t46 10.5l17 5v127zM157 672l241 93l37 -103l-244 -82z" />
<glyph unicode="&#xe2;" d="M443 342v-210q2 -25 12.5 -35t34.5 -16l-7 -92q-85 0 -132 36q-72 -36 -150 -36q-66 0 -108.5 43.5t-42.5 115.5q0 139 162 152l121 10v34q0 66 -61 66q-40 0 -88 -2.5t-76 -5.5l-29 -2l-4 90q128 20 203 20q82 0 123.5 -39.5t41.5 -128.5zM333 229l-108 -7 q-32 -2 -48.5 -21t-16.5 -50q0 -32 15.5 -51t41.5 -19q24 0 53 5.5t46 10.5l17 5v127zM78 585l128 162h88l130 -162h-118l-55 71l-55 -71h-118z" />
<glyph unicode="&#xe3;" d="M443 342v-210q2 -25 12.5 -35t34.5 -16l-7 -92q-85 0 -132 36q-72 -36 -150 -36q-66 0 -108.5 43.5t-42.5 115.5q0 139 162 152l121 10v34q0 66 -61 66q-40 0 -88 -2.5t-76 -5.5l-29 -2l-4 90q128 20 203 20q82 0 123.5 -39.5t41.5 -128.5zM333 229l-108 -7 q-32 -2 -48.5 -21t-16.5 -50q0 -32 15.5 -51t41.5 -19q24 0 53 5.5t46 10.5l17 5v127zM402 737l24 -83q-6 -6 -15.5 -16t-36 -26t-47.5 -16q-27 0 -80.5 23.5t-67.5 23.5q-12 0 -31.5 -10.5t-33.5 -20.5l-13 -11l-24 83q6 7 16 16.5t37 26t48 16.5q31 0 83.5 -22.5 t63.5 -22.5t30 10t33 20z" />
<glyph unicode="&#xe4;" d="M443 342v-210q2 -25 12.5 -35t34.5 -16l-7 -92q-85 0 -132 36q-72 -36 -150 -36q-66 0 -108.5 43.5t-42.5 115.5q0 139 162 152l121 10v34q0 66 -61 66q-40 0 -88 -2.5t-76 -5.5l-29 -2l-4 90q128 20 203 20q82 0 123.5 -39.5t41.5 -128.5zM333 229l-108 -7 q-32 -2 -48.5 -21t-16.5 -50q0 -32 15.5 -51t41.5 -19q24 0 53 5.5t46 10.5l17 5v127zM121 614v114h105v-114h-105zM331 614v114h104v-114h-104z" />
<glyph unicode="&#xe5;" d="M443 342v-210q2 -25 12.5 -35t34.5 -16l-7 -92q-85 0 -132 36q-72 -36 -150 -36q-66 0 -108.5 43.5t-42.5 115.5q0 139 162 152l121 10v34q0 66 -61 66q-40 0 -88 -2.5t-76 -5.5l-29 -2l-4 90q128 20 203 20q82 0 123.5 -39.5t41.5 -128.5zM333 229l-108 -7 q-32 -2 -48.5 -21t-16.5 -50q0 -32 15.5 -51t41.5 -19q24 0 53 5.5t46 10.5l17 5v127zM149 661q0 47 32 79t80 32q47 0 79 -32t32 -79q0 -48 -32 -80t-79 -32q-48 0 -80 32t-32 80zM223 661q0 -17 11.5 -28t27.5 -11t27 11.5t11 27.5t-11 27t-27 11t-27.5 -11t-11.5 -27z " />
<glyph unicode="&#xe6;" horiz-adv-x="828" d="M566 85q32 0 77 2.5t75 4.5l29 2l2 -82q-97 -23 -191 -23q-106 0 -155 50l-27 -12q-90 -38 -166 -38q-66 0 -108 43t-42 116q0 77 42.5 111t126.5 42l117 9v34q0 32 -16 49t-45 17q-33 0 -81 -3t-80 -6l-32 -3l-3 93q123 19 198 19q96 0 133 -54q48 54 141 54 q204 0 204 -228l-7 -78h-302q1 -58 26.5 -88.5t83.5 -30.5zM227 81q24 0 55 6t49 11t22 7q-7 41 -7 122l-111 -7q-64 -5 -64 -69q0 -33 16 -51.5t40 -18.5zM455 287h202q0 68 -22.5 99.5t-76.5 31.5q-53 0 -77.5 -32.5t-25.5 -98.5z" />
<glyph unicode="&#xe7;" horiz-adv-x="436" d="M388 -127q0 -47 -28 -72t-76 -25q-19 0 -41.5 2.5t-35.5 5.5l-13 2l3 65q35 -2 56 -2q40 0 40 31q0 27 -40 27h-32v84q-92 8 -133 73t-41 192q0 128 50.5 191t155.5 63q30 0 66 -4t57 -8l21 -3l-4 -93q-73 8 -111 8q-68 0 -95.5 -35.5t-27.5 -118.5q0 -88 27 -127.5 t97 -39.5l111 7l3 -93q-67 -12 -128 -14v-31q64 -1 91.5 -18t27.5 -67z" />
<glyph unicode="&#xe8;" horiz-adv-x="507" d="M265 85q32 0 77 2.5t74 4.5l29 2l2 -82q-95 -23 -190 -23q-112 0 -161.5 63.5t-49.5 192.5q0 128 54 196.5t157 68.5t154.5 -58.5t51.5 -169.5l-7 -78h-300q2 -119 109 -119zM156 287h199q0 67 -23 99t-75 32q-101 0 -101 -131zM129 764l241 -93l-34 -91l-244 81z" />
<glyph unicode="&#xe9;" horiz-adv-x="507" d="M265 85q32 0 77 2.5t74 4.5l29 2l2 -82q-95 -23 -190 -23q-112 0 -161.5 63.5t-49.5 192.5q0 128 54 196.5t157 68.5t154.5 -58.5t51.5 -169.5l-7 -78h-300q2 -119 109 -119zM156 287h199q0 67 -23 99t-75 32q-101 0 -101 -131zM123 672l241 93l37 -103l-244 -82z" />
<glyph unicode="&#xea;" horiz-adv-x="507" d="M265 85q32 0 77 2.5t74 4.5l29 2l2 -82q-95 -23 -190 -23q-112 0 -161.5 63.5t-49.5 192.5q0 128 54 196.5t157 68.5t154.5 -58.5t51.5 -169.5l-7 -78h-300q2 -119 109 -119zM156 287h199q0 67 -23 99t-75 32q-101 0 -101 -131zM90 585l128 162h88l130 -162h-118l-55 71 l-55 -71h-118z" />
<glyph unicode="&#xeb;" horiz-adv-x="507" d="M265 85q32 0 77 2.5t74 4.5l29 2l2 -82q-95 -23 -190 -23q-112 0 -161.5 63.5t-49.5 192.5q0 128 54 196.5t157 68.5t154.5 -58.5t51.5 -169.5l-7 -78h-300q2 -119 109 -119zM156 287h199q0 67 -23 99t-75 32q-101 0 -101 -131zM128 614v114h105v-114h-105zM338 614v114 h104v-114h-104z" />
<glyph unicode="&#xec;" horiz-adv-x="266" d="M78 0v499h110v-499h-110zM-14 764l241 -93l-34 -91l-244 81z" />
<glyph unicode="&#xed;" horiz-adv-x="261" d="M11 672l241 93l37 -103l-244 -82zM78 0v499h110v-499h-110z" />
<glyph unicode="&#xee;" horiz-adv-x="266" d="M78 0v499h110v-499h-110zM-44 585l128 162h88l130 -162h-118l-55 71l-55 -71h-118z" />
<glyph unicode="&#xef;" horiz-adv-x="266" d="M-6 614v114h105v-114h-105zM204 614v114h104v-114h-104zM78 0v499h110v-499h-110z" />
<glyph unicode="&#xf0;" d="M154 489l-46 64l60 45q-32 8 -91 19l17 93q108 -15 174 -37l96 73l45 -63l-60 -45q155 -87 155 -289q0 -188 -57.5 -273t-187.5 -85q-112 0 -171 61t-59 177q0 94 59 150t156 56q32 0 67.5 -7.5t55.5 -14.5l20 -7q-5 58 -33.5 97t-94.5 66zM250 338q-47 0 -75.5 -31.5 t-28.5 -77.5q0 -137 113 -137q66 0 97 51t31 167q-65 28 -137 28z" />
<glyph unicode="&#xf1;" horiz-adv-x="574" d="M198 0h-109v499h109v-26q74 37 130 37q95 0 132.5 -61t37.5 -188v-261h-110v260q0 76 -16.5 113.5t-64.5 37.5q-21 0 -48 -6.5t-44 -12.5l-17 -7v-385zM441 737l24 -83q-6 -6 -15.5 -16t-36 -26t-47.5 -16q-27 0 -80.5 23.5t-67.5 23.5q-12 0 -31.5 -10.5t-32.5 -20.5 l-14 -11l-24 83q6 7 16 16.5t37 26t48 16.5q31 0 83.5 -22.5t63.5 -22.5t30 10t33 20z" />
<glyph unicode="&#xf2;" horiz-adv-x="531" d="M265 510q218 0 218 -258q0 -125 -49.5 -194t-168.5 -69q-120 0 -169.5 68.5t-49.5 195.5q0 123 50 190t169 67zM265 84q63 0 84.5 42t21.5 126q0 80 -23.5 121.5t-82.5 41.5q-61 0 -84.5 -40t-23.5 -122q0 -85 22.5 -127t85.5 -42zM113 764l241 -93l-34 -91l-244 81z" />
<glyph unicode="&#xf3;" horiz-adv-x="531" d="M265 510q218 0 218 -258q0 -125 -49.5 -194t-168.5 -69q-120 0 -169.5 68.5t-49.5 195.5q0 123 50 190t169 67zM265 84q63 0 84.5 42t21.5 126q0 80 -23.5 121.5t-82.5 41.5q-61 0 -84.5 -40t-23.5 -122q0 -85 22.5 -127t85.5 -42zM116 672l241 93l37 -103l-244 -82z" />
<glyph unicode="&#xf4;" horiz-adv-x="531" d="M265 510q218 0 218 -258q0 -125 -49.5 -194t-168.5 -69q-120 0 -169.5 68.5t-49.5 195.5q0 123 50 190t169 67zM265 84q63 0 84.5 42t21.5 126q0 80 -23.5 121.5t-82.5 41.5q-61 0 -84.5 -40t-23.5 -122q0 -85 22.5 -127t85.5 -42zM72 585l128 162h88l130 -162h-118 l-55 71l-55 -71h-118z" />
<glyph unicode="&#xf5;" horiz-adv-x="531" d="M265 510q218 0 218 -258q0 -125 -49.5 -194t-168.5 -69q-120 0 -169.5 68.5t-49.5 195.5q0 123 50 190t169 67zM265 84q63 0 84.5 42t21.5 126q0 80 -23.5 121.5t-82.5 41.5q-61 0 -84.5 -40t-23.5 -122q0 -85 22.5 -127t85.5 -42zM389 737l24 -83q-6 -6 -15.5 -16 t-36 -26t-47.5 -16q-27 0 -80.5 23.5t-67.5 23.5q-12 0 -31.5 -10.5t-32.5 -20.5l-14 -11l-24 83q6 7 16 16.5t37 26t48 16.5q31 0 83.5 -22.5t63.5 -22.5t30 10t33 20z" />
<glyph unicode="&#xf6;" horiz-adv-x="531" d="M265 510q218 0 218 -258q0 -125 -49.5 -194t-168.5 -69q-120 0 -169.5 68.5t-49.5 195.5q0 123 50 190t169 67zM265 84q63 0 84.5 42t21.5 126q0 80 -23.5 121.5t-82.5 41.5q-61 0 -84.5 -40t-23.5 -122q0 -85 22.5 -127t85.5 -42zM110 614v114h105v-114h-105zM320 614 v114h104v-114h-104z" />
<glyph unicode="&#xf7;" d="M209 403v119h109v-119h-109zM47 228v109h433v-109h-433zM209 42v119h109v-119h-109z" />
<glyph unicode="&#xf8;" horiz-adv-x="529" d="M265 84q63 0 84.5 42t21.5 126q0 82 -23 120l34 85l9 13l3 7q89 -59 89 -225q0 -125 -49.5 -194t-168.5 -69q-33 0 -68 7l7 17l4 13l25 61q13 -3 32 -3zM265 510q33 0 62 -6l-3 -9l-4 -14l-28 -69q-12 3 -27 3q-61 0 -84.5 -40t-23.5 -122q0 -87 22 -126l-32 -79l-11 -13 l-5 -12q-85 58 -85 230q0 123 50 190t169 67zM179 127l113 285q38 -9 56 -40l-115 -285q-37 9 -54 40zM154 -110l-68 25l45 108q27 -18 66 -27zM327 504l42 102l68 -25l-43 -104q-29 18 -67 27z" />
<glyph unicode="&#xf9;" horiz-adv-x="560" d="M371 499h110v-499h-110v26q-74 -37 -127 -37q-95 0 -132.5 57.5t-37.5 191.5v261h110v-260q0 -85 16.5 -119.5t64.5 -34.5q20 0 46.5 7t42.5 14l17 7v386zM127 764l241 -93l-34 -91l-244 81z" />
<glyph unicode="&#xfa;" horiz-adv-x="560" d="M371 499h110v-499h-110v26q-74 -37 -127 -37q-95 0 -132.5 57.5t-37.5 191.5v261h110v-260q0 -85 16.5 -119.5t64.5 -34.5q20 0 46.5 7t42.5 14l17 7v386zM130 672l241 93l37 -103l-244 -82z" />
<glyph unicode="&#xfb;" horiz-adv-x="560" d="M371 499h110v-499h-110v26q-74 -37 -127 -37q-95 0 -132.5 57.5t-37.5 191.5v261h110v-260q0 -85 16.5 -119.5t64.5 -34.5q20 0 46.5 7t42.5 14l17 7v386zM86 585l128 162h88l130 -162h-118l-55 71l-55 -71h-118z" />
<glyph unicode="&#xfc;" horiz-adv-x="560" d="M371 499h110v-499h-110v26q-74 -37 -127 -37q-95 0 -132.5 57.5t-37.5 191.5v261h110v-260q0 -85 16.5 -119.5t64.5 -34.5q20 0 46.5 7t42.5 14l17 7v386zM124 614v114h105v-114h-105zM334 614v114h104v-114h-104z" />
<glyph unicode="&#xfd;" horiz-adv-x="480" d="M11 499h109l103 -394h21l104 394h108l-187 -713h-109l57 215h-76zM116 672l241 93l37 -103l-244 -82z" />
<glyph unicode="&#xfe;" horiz-adv-x="546" d="M276 84q61 0 86.5 42.5t25.5 129.5q0 73 -24 114.5t-71 41.5q-21 0 -46.5 -4.5t-40.5 -9.5l-15 -4v-303q38 -7 85 -7zM306 510q98 0 145.5 -62t47.5 -192q0 -146 -52.5 -206.5t-168.5 -60.5l-87 4v-208h-109v922h109v-226q60 29 115 29z" />
<glyph unicode="&#xff;" horiz-adv-x="484" d="M19 499h109l103 -394h21l104 394h108l-187 -713h-109l57 215h-76zM85 614v114h105v-114h-105zM295 614v114h104v-114h-104z" />
<glyph unicode="&#x100;" horiz-adv-x="605" d="M29 0l168 692h213l166 -692h-112l-41 143h-246l-36 -143h-112zM284 594l-83 -347h201l-81 347h-37zM136 811v95h332v-95h-332z" />
<glyph unicode="&#x101;" horiz-adv-x="525" d="M443 342v-210q2 -25 12.5 -35t34.5 -16l-7 -92q-85 0 -132 36q-72 -36 -150 -36q-66 0 -108.5 43.5t-42.5 115.5q0 139 162 152l121 10v34q0 66 -61 66q-40 0 -88 -2.5t-76 -5.5l-29 -2l-4 90q128 20 203 20q82 0 123.5 -39.5t41.5 -128.5zM333 229l-108 -7 q-32 -2 -48.5 -21t-16.5 -50q0 -32 15.5 -51t41.5 -19q24 0 53 5.5t46 10.5l17 5v127zM106 627v95h312v-95h-312z" />
<glyph unicode="&#x102;" horiz-adv-x="605" d="M29 0l168 692h213l166 -692h-112l-41 143h-246l-36 -143h-112zM284 594l-83 -347h201l-81 347h-37zM127 928h113q3 -23 19.5 -37t41.5 -14q27 0 43.5 14t18.5 37h113q-5 -64 -50 -103.5t-125 -39.5q-79 0 -123.5 39.5t-50.5 103.5z" />
<glyph unicode="&#x103;" horiz-adv-x="525" d="M443 342v-210q2 -25 12.5 -35t34.5 -16l-7 -92q-85 0 -132 36q-72 -36 -150 -36q-66 0 -108.5 43.5t-42.5 115.5q0 139 162 152l121 10v34q0 66 -61 66q-40 0 -88 -2.5t-76 -5.5l-29 -2l-4 90q128 20 203 20q82 0 123.5 -39.5t41.5 -128.5zM333 229l-108 -7 q-32 -2 -48.5 -21t-16.5 -50q0 -32 15.5 -51t41.5 -19q24 0 53 5.5t46 10.5l17 5v127zM82 742h113q6 -57 67 -57q62 0 67 57h113q-5 -70 -51 -112.5t-129 -42.5q-82 0 -128 42.5t-52 112.5z" />
<glyph unicode="&#x104;" horiz-adv-x="605" d="M587 -113l10 -89q-53 -10 -92 -10q-44 0 -73 25t-29 67q0 63 69 120h-8l-41 143h-246l-36 -143h-112l168 692h213l165 -691h2q-60 -53 -60 -87q0 -13 7.5 -22t19.5 -9zM284 594l-83 -347h201l-81 347h-37z" />
<glyph unicode="&#x105;" horiz-adv-x="525" d="M479 -113l10 -89q-53 -10 -92 -10q-44 0 -73 25t-29 67q0 67 80 129q-7 3 -24 16q-72 -36 -150 -36q-66 0 -108.5 43.5t-42.5 115.5q0 139 162 152l121 10v34q0 66 -61 66q-40 0 -88 -2.5t-76 -5.5l-29 -2l-4 90q128 20 203 20q82 0 123.5 -39.5t41.5 -128.5v-210 q2 -25 12.5 -35t34.5 -16l-7 -92q-18 0 -26 1q-48 -48 -48 -76q0 -13 7.5 -22t19.5 -9zM333 229l-108 -7q-32 -2 -48.5 -21t-16.5 -50q0 -32 15.5 -51t41.5 -19q24 0 53 5.5t46 10.5l17 5v127z" />
<glyph unicode="&#x106;" horiz-adv-x="531" d="M488 109l3 -100q-118 -20 -189 -20q-145 0 -199 85.5t-54 270.5q0 190 57 274.5t196 84.5q36 0 83.5 -6t76.5 -12l30 -5l-4 -99q-118 14 -171 14q-88 0 -120 -55.5t-32 -195.5q0 -137 31.5 -193t123.5 -56q21 0 63 3t73 7zM154 862l241 93l37 -103l-244 -82z" />
<glyph unicode="&#x107;" horiz-adv-x="436" d="M253 510q30 0 66 -4t57 -8l21 -3l-4 -93q-73 8 -111 8q-68 0 -95.5 -35.5t-27.5 -118.5q0 -88 27 -127.5t97 -39.5l111 7l3 -93q-80 -14 -146 -14q-108 0 -156 65t-48 202q0 128 50.5 191t155.5 63zM84 672l241 93l37 -103l-244 -82z" />
<glyph unicode="&#x108;" horiz-adv-x="531" d="M488 109l3 -100q-118 -20 -189 -20q-145 0 -199 85.5t-54 270.5q0 190 57 274.5t196 84.5q36 0 83.5 -6t76.5 -12l30 -5l-4 -99q-118 14 -171 14q-88 0 -120 -55.5t-32 -195.5q0 -137 31.5 -193t123.5 -56q21 0 63 3t73 7zM115 790l132 143h100l132 -143h-124l-57 56 l-56 -56h-127z" />
<glyph unicode="&#x109;" horiz-adv-x="436" d="M253 510q30 0 66 -4t57 -8l21 -3l-4 -93q-73 8 -111 8q-68 0 -95.5 -35.5t-27.5 -118.5q0 -88 27 -127.5t97 -39.5l111 7l3 -93q-80 -14 -146 -14q-108 0 -156 65t-48 202q0 128 50.5 191t155.5 63zM50 585l128 162h88l130 -162h-118l-55 71l-55 -71h-118z" />
<glyph unicode="&#x10a;" horiz-adv-x="531" d="M488 109l3 -100q-118 -20 -189 -20q-145 0 -199 85.5t-54 270.5q0 190 57 274.5t196 84.5q36 0 83.5 -6t76.5 -12l30 -5l-4 -99q-118 14 -171 14q-88 0 -120 -55.5t-32 -195.5q0 -137 31.5 -193t123.5 -56q21 0 63 3t73 7zM238 793v115h109v-115h-109z" />
<glyph unicode="&#x10b;" horiz-adv-x="436" d="M253 510q30 0 66 -4t57 -8l21 -3l-4 -93q-73 8 -111 8q-68 0 -95.5 -35.5t-27.5 -118.5q0 -88 27 -127.5t97 -39.5l111 7l3 -93q-80 -14 -146 -14q-108 0 -156 65t-48 202q0 128 50.5 191t155.5 63zM184 578v115h109v-115h-109z" />
<glyph unicode="&#x10c;" horiz-adv-x="531" d="M488 109l3 -100q-118 -20 -189 -20q-145 0 -199 85.5t-54 270.5q0 190 57 274.5t196 84.5q36 0 83.5 -6t76.5 -12l30 -5l-4 -99q-118 14 -171 14q-88 0 -120 -55.5t-32 -195.5q0 -137 31.5 -193t123.5 -56q21 0 63 3t73 7zM482 931l-132 -142h-98l-134 142h126l57 -59 l57 59h124z" />
<glyph unicode="&#x10d;" horiz-adv-x="436" d="M253 510q30 0 66 -4t57 -8l21 -3l-4 -93q-73 8 -111 8q-68 0 -95.5 -35.5t-27.5 -118.5q0 -88 27 -127.5t97 -39.5l111 7l3 -93q-80 -14 -146 -14q-108 0 -156 65t-48 202q0 128 50.5 191t155.5 63zM177 585l-127 162h118l55 -70l54 70h119l-128 -162h-91z" />
<glyph unicode="&#x10e;" horiz-adv-x="633" d="M312 0h-229v692h229q153 0 212.5 -82t59.5 -252q0 -87 -12 -148.5t-41.5 -111t-84 -74t-134.5 -24.5zM468 358q0 57 -6 96t-22.5 71.5t-48 48t-79.5 15.5h-118v-485h118q47 0 79 19t48.5 56t22.5 79t6 100zM483 931l-132 -142h-98l-134 142h126l57 -59l57 59h124z" />
<glyph unicode="&#x10f;" horiz-adv-x="754" d="M465 707v-707h-110v24q-64 -35 -123 -35q-98 0 -141.5 67.5t-43.5 195.5t52 193t152 65q32 0 104 -12v209h110zM249 87q21 0 47.5 6.5t42.5 12.5l16 7v291q-66 11 -96 11q-101 0 -101 -164t91 -164zM675 692v-249h-106v249h106z" />
<glyph unicode="&#x110;" horiz-adv-x="633" d="M18 291v108h65v293h229q153 0 212.5 -82t59.5 -252q0 -87 -12 -148.5t-41.5 -111t-84 -74t-134.5 -24.5h-229v291h-65zM468 358q0 57 -6 96t-22.5 71.5t-48 48t-79.5 15.5h-118v-190h137v-108h-137v-187h118q47 0 79 19t48.5 56t22.5 79t6 100z" />
<glyph unicode="&#x111;" horiz-adv-x="544" d="M151 622v95h312v-10h2v-707h-110v24q-64 -35 -123 -35q-98 0 -141.5 67.5t-43.5 195.5t52 193t152 65q32 0 104 -12v124h-204zM249 87q21 0 47.5 6.5t42.5 12.5l16 7v291q-66 11 -96 11q-101 0 -101 -164t91 -164z" />
<glyph unicode="&#x112;" horiz-adv-x="558" d="M83 0v692h421v-103h-310v-194h250v-101h-250v-190h310v-104h-421zM115 809v95h332v-95h-332z" />
<glyph unicode="&#x113;" horiz-adv-x="507" d="M265 85q32 0 77 2.5t74 4.5l29 2l2 -82q-95 -23 -190 -23q-112 0 -161.5 63.5t-49.5 192.5q0 128 54 196.5t157 68.5t154.5 -58.5t51.5 -169.5l-7 -78h-300q2 -119 109 -119zM156 287h199q0 67 -23 99t-75 32q-101 0 -101 -131zM100 627v95h312v-95h-312z" />
<glyph unicode="&#x114;" horiz-adv-x="558" d="M83 0v692h421v-103h-310v-194h250v-101h-250v-190h310v-104h-421zM126 928h113q3 -23 19.5 -37t41.5 -14q27 0 43.5 14t18.5 37h113q-5 -64 -50 -103.5t-125 -39.5q-79 0 -123.5 39.5t-50.5 103.5z" />
<glyph unicode="&#x115;" horiz-adv-x="507" d="M265 85q32 0 77 2.5t74 4.5l29 2l2 -82q-95 -23 -190 -23q-112 0 -161.5 63.5t-49.5 192.5q0 128 54 196.5t157 68.5t154.5 -58.5t51.5 -169.5l-7 -78h-300q2 -119 109 -119zM156 287h199q0 67 -23 99t-75 32q-101 0 -101 -131zM75 742h113q6 -57 67 -57q62 0 67 57h113 q-5 -70 -51 -112.5t-129 -42.5q-82 0 -128 42.5t-52 112.5z" />
<glyph unicode="&#x116;" horiz-adv-x="558" d="M83 0v692h421v-103h-310v-194h250v-101h-250v-190h310v-104h-421zM244 793v115h109v-115h-109z" />
<glyph unicode="&#x117;" horiz-adv-x="507" d="M265 85q32 0 77 2.5t74 4.5l29 2l2 -82q-95 -23 -190 -23q-112 0 -161.5 63.5t-49.5 192.5q0 128 54 196.5t157 68.5t154.5 -58.5t51.5 -169.5l-7 -78h-300q2 -119 109 -119zM156 287h199q0 67 -23 99t-75 32q-101 0 -101 -131zM199 578v115h109v-115h-109z" />
<glyph unicode="&#x118;" horiz-adv-x="558" d="M83 0v692h421v-103h-310v-194h250v-101h-250v-190h310v-104h-15q-12 -9 -35.5 -37t-23.5 -49q0 -13 7.5 -22t19.5 -9l43 4l10 -89q-53 -10 -92 -10q-44 0 -73 25t-29 67q0 63 69 120h-302z" />
<glyph unicode="&#x119;" horiz-adv-x="507" d="M426 -109l10 -89q-53 -10 -92 -10q-44 0 -73 25t-29 67q0 53 54 107q-26 -2 -39 -2q-112 0 -161.5 63.5t-49.5 192.5q0 128 54 196.5t157 68.5t154.5 -58.5t51.5 -169.5l-7 -78h-300q2 -119 109 -119q32 0 77 2.5t74 4.5l29 2l2 -82q-14 -4 -32 -7h1q-60 -53 -60 -87 q0 -13 7.5 -22t19.5 -9zM156 287h199q0 67 -23 99t-75 32q-101 0 -101 -131z" />
<glyph unicode="&#x11a;" horiz-adv-x="558" d="M83 0v692h421v-103h-310v-194h250v-101h-250v-190h310v-104h-421zM500 944l-132 -142h-98l-134 142h126l57 -59l57 59h124z" />
<glyph unicode="&#x11b;" horiz-adv-x="507" d="M265 85q32 0 77 2.5t74 4.5l29 2l2 -82q-95 -23 -190 -23q-112 0 -161.5 63.5t-49.5 192.5q0 128 54 196.5t157 68.5t154.5 -58.5t51.5 -169.5l-7 -78h-300q2 -119 109 -119zM156 287h199q0 67 -23 99t-75 32q-101 0 -101 -131zM207 585l-127 162h118l55 -70l54 70h119 l-128 -162h-91z" />
<glyph unicode="&#x11c;" horiz-adv-x="600" d="M349 271v98h194v-361q-145 -19 -224 -19q-148 0 -208.5 89t-60.5 269q0 184 61 270.5t204 86.5q44 0 101 -6t92 -12l35 -7l-4 -98q-124 17 -207 17q-94 0 -130 -56.5t-36 -194.5q0 -139 33.5 -196t129.5 -57q11 0 26 1t27.5 2t24 2t18.5 2l7 1v169h-83zM135 790l132 143 h100l132 -143h-124l-57 56l-56 -56h-127z" />
<glyph unicode="&#x11d;" horiz-adv-x="529" d="M270 -240q-225 0 -225 152q0 66 74 123q-32 22 -32 71q0 10 9.5 30.5t18.5 35.5l9 16q-73 46 -73 147q0 86 55.5 130.5t139.5 44.5q17 0 40.5 -3t38.5 -7l15 -3l154 3v-88h-76q25 -31 25 -77q0 -173 -199 -173q-20 0 -40 4q-13 -33 -13 -46q0 -25 16.5 -32t84.5 -7 q111 0 158 -32t47 -114q0 -88 -63.5 -131.5t-163.5 -43.5zM284 -11l-92 6q-39 -36 -39 -73q0 -66 118 -66q116 0 116 73q0 36 -23.5 48t-79.5 12zM244 251q90 0 90 84t-89 84q-85 0 -85 -84t84 -84zM92 585l128 162h88l130 -162h-118l-55 71l-55 -71h-118z" />
<glyph unicode="&#x11e;" horiz-adv-x="600" d="M349 271v98h194v-361q-145 -19 -224 -19q-148 0 -208.5 89t-60.5 269q0 184 61 270.5t204 86.5q44 0 101 -6t92 -12l35 -7l-4 -98q-124 17 -207 17q-94 0 -130 -56.5t-36 -194.5q0 -139 33.5 -196t129.5 -57q11 0 26 1t27.5 2t24 2t18.5 2l7 1v169h-83zM145 928h113 q3 -23 19.5 -37t41.5 -14q27 0 43.5 14t18.5 37h113q-5 -64 -50 -103.5t-125 -39.5q-79 0 -123.5 39.5t-50.5 103.5z" />
<glyph unicode="&#x11f;" horiz-adv-x="529" d="M270 -240q-225 0 -225 152q0 66 74 123q-32 22 -32 71q0 10 9.5 30.5t18.5 35.5l9 16q-73 46 -73 147q0 86 55.5 130.5t139.5 44.5q17 0 40.5 -3t38.5 -7l15 -3l154 3v-88h-76q25 -31 25 -77q0 -173 -199 -173q-20 0 -40 4q-13 -33 -13 -46q0 -25 16.5 -32t84.5 -7 q111 0 158 -32t47 -114q0 -88 -63.5 -131.5t-163.5 -43.5zM284 -11l-92 6q-39 -36 -39 -73q0 -66 118 -66q116 0 116 73q0 36 -23.5 48t-79.5 12zM244 251q90 0 90 84t-89 84q-85 0 -85 -84t84 -84zM84 742h113q6 -57 67 -57q62 0 67 57h113q-5 -70 -51 -112.5t-129 -42.5 q-82 0 -128 42.5t-52 112.5z" />
<glyph unicode="&#x120;" horiz-adv-x="600" d="M349 271v98h194v-361q-145 -19 -224 -19q-148 0 -208.5 89t-60.5 269q0 184 61 270.5t204 86.5q44 0 101 -6t92 -12l35 -7l-4 -98q-124 17 -207 17q-94 0 -130 -56.5t-36 -194.5q0 -139 33.5 -196t129.5 -57q11 0 26 1t27.5 2t24 2t18.5 2l7 1v169h-83zM253 801v115h109 v-115h-109z" />
<glyph unicode="&#x121;" horiz-adv-x="529" d="M270 -240q-225 0 -225 152q0 66 74 123q-32 22 -32 71q0 10 9.5 30.5t18.5 35.5l9 16q-73 46 -73 147q0 86 55.5 130.5t139.5 44.5q17 0 40.5 -3t38.5 -7l15 -3l154 3v-88h-76q25 -31 25 -77q0 -173 -199 -173q-20 0 -40 4q-13 -33 -13 -46q0 -25 16.5 -32t84.5 -7 q111 0 158 -32t47 -114q0 -88 -63.5 -131.5t-163.5 -43.5zM284 -11l-92 6q-39 -36 -39 -73q0 -66 118 -66q116 0 116 73q0 36 -23.5 48t-79.5 12zM244 251q90 0 90 84t-89 84q-85 0 -85 -84t84 -84zM210 578v115h109v-115h-109z" />
<glyph unicode="&#x122;" horiz-adv-x="600" d="M349 271v98h194v-361q-145 -19 -224 -19q-148 0 -208.5 89t-60.5 269q0 184 61 270.5t204 86.5q44 0 101 -6t92 -12l35 -7l-4 -98q-124 17 -207 17q-94 0 -130 -56.5t-36 -194.5q0 -139 33.5 -196t129.5 -57q11 0 26 1t27.5 2t24 2t18.5 2l7 1v169h-83zM225 -300l44 223 h106l-53 -223h-97z" />
<glyph unicode="&#x123;" horiz-adv-x="529" d="M270 -240q-225 0 -225 152q0 66 74 123q-32 22 -32 71q0 10 9.5 30.5t18.5 35.5l9 16q-73 46 -73 147q0 86 55.5 130.5t139.5 44.5q17 0 40.5 -3t38.5 -7l15 -3l154 3v-88h-76q25 -31 25 -77q0 -173 -199 -173q-20 0 -40 4q-13 -33 -13 -46q0 -25 16.5 -32t84.5 -7 q111 0 158 -32t47 -114q0 -88 -63.5 -131.5t-163.5 -43.5zM284 -11l-92 6q-39 -36 -39 -73q0 -66 118 -66q116 0 116 73q0 36 -23.5 48t-79.5 12zM244 251q90 0 90 84t-89 84q-85 0 -85 -84t84 -84zM326 808l-44 -223h-106l52 223h98z" />
<glyph unicode="&#x124;" horiz-adv-x="671" d="M477 0v299h-283v-299h-111v692h111v-289h283v289h111v-692h-111zM153 785l132 143h100l132 -143h-124l-57 56l-56 -56h-127z" />
<glyph unicode="&#x125;" horiz-adv-x="562" d="M188 0h-109v707h88l69 87h88l130 -162h-118l-55 71l-55 -71h-38v-150q76 28 131 28q94 0 131.5 -61t37.5 -188v-261h-109v262q0 75 -16.5 112.5t-64.5 37.5q-20 0 -47.5 -5.5t-44.5 -10.5l-18 -6v-390z" />
<glyph unicode="&#x126;" horiz-adv-x="671" d="M11 495v95h72v102h111v-102h283v102h111v-102h86v-95h-86v-495h-111v299h-283v-299h-111v495h-72zM194 403h283v92h-283v-92z" />
<glyph unicode="&#x127;" horiz-adv-x="562" d="M20 552v95h59v60h109v-60h144v-95h-144v-70q76 28 131 28q94 0 131.5 -61t37.5 -188v-261h-109v262q0 75 -16.5 112.5t-64.5 37.5q-20 0 -47.5 -5.5t-44.5 -10.5l-18 -6v-390h-109v552h-59z" />
<glyph unicode="&#x128;" horiz-adv-x="265" d="M76 0v692h113v-692h-113zM296 923l24 -83q-6 -7 -16 -17t-37 -27t-48 -17q-27 0 -89.5 24.5t-76.5 24.5q-12 0 -32 -11t-34 -22l-14 -11l-25 83q6 7 16.5 17.5t38 27.5t48.5 17q32 0 93 -24t72 -24t31 10.5t35 20.5z" />
<glyph unicode="&#x129;" horiz-adv-x="266" d="M78 0v499h110v-499h-110zM278 737l24 -83q-6 -6 -15.5 -16t-36 -26t-47.5 -16q-27 0 -80.5 23.5t-67.5 23.5q-12 0 -31.5 -10.5t-33.5 -20.5l-13 -11l-24 83q6 7 16 16.5t37 26t48 16.5q31 0 83.5 -22.5t63.5 -22.5t30 10t33 20z" />
<glyph unicode="&#x12a;" horiz-adv-x="265" d="M76 0v692h113v-692h-113zM-33 820v95h332v-95h-332z" />
<glyph unicode="&#x12b;" horiz-adv-x="266" d="M78 0v499h110v-499h-110zM-23 627v95h312v-95h-312z" />
<glyph unicode="&#x12c;" horiz-adv-x="265" d="M76 0v692h113v-692h-113zM-42 928h113q3 -23 19.5 -37t41.5 -14q27 0 43.5 14t18.5 37h113q-5 -64 -50 -103.5t-125 -39.5q-79 0 -123.5 39.5t-50.5 103.5z" />
<glyph unicode="&#x12d;" horiz-adv-x="266" d="M78 0v499h110v-499h-110zM-47 742h113q6 -57 67 -57q62 0 67 57h113q-5 -70 -51 -112.5t-129 -42.5q-82 0 -128 42.5t-52 112.5z" />
<glyph unicode="&#x12e;" horiz-adv-x="265" d="M76 0v692h113v-692h-1q-12 -9 -35.5 -37t-23.5 -49q0 -13 7.5 -22t19.5 -9l43 4l10 -89q-53 -10 -92 -10q-44 0 -73 25t-29 67q0 63 69 120h-8z" />
<glyph unicode="&#x12f;" horiz-adv-x="255" d="M73 0v499h109v-499h-1q-12 -9 -35.5 -37t-23.5 -49q0 -13 7.5 -22t19.5 -9l43 4l10 -89q-53 -10 -92 -10q-44 0 -73 25t-29 67q0 63 69 120h-4zM73 578v115h109v-115h-109z" />
<glyph unicode="&#x130;" horiz-adv-x="265" d="M76 0v692h113v-692h-113zM78 793v115h109v-115h-109z" />
<glyph unicode="&#x131;" horiz-adv-x="266" d="M78 0v499h110v-499h-110z" />
<glyph unicode="&#x134;" horiz-adv-x="311" d="M233 693l1 -581q0 -108 -41 -145t-157 -37v99q50 2 68 19.5t18 67.5v577h111zM-27 785l132 143h100l132 -143h-124l-57 56l-56 -56h-127z" />
<glyph unicode="&#x135;" horiz-adv-x="261" d="M79 6v493h110v-494q0 -100 -32.5 -146.5t-138.5 -99.5l-49 91q73 40 91.5 67t18.5 89zM-42 585l128 162h88l130 -162h-118l-55 71l-55 -71h-118z" />
<glyph unicode="&#x136;" horiz-adv-x="592" d="M429 0l-143 288l-92 -7v-281h-111v692h111v-309l90 8l139 301h130l-169 -345l176 -347h-131zM221 -300l44 223h106l-53 -223h-97z" />
<glyph unicode="&#x137;" horiz-adv-x="509" d="M191 0h-109v707h109v-403l53 7l118 188h123l-144 -233l149 -266h-123l-121 206l-55 -8v-198zM179 -300l44 223h106l-53 -223h-97z" />
<glyph unicode="&#x139;" horiz-adv-x="496" d="M456 0h-373v692h111v-587h262v-105zM112 862l241 93l37 -103l-244 -82z" />
<glyph unicode="&#x13a;" horiz-adv-x="257" d="M-10 722l241 93l37 -103l-85 -29v-683h-109v647l-50 -17z" />
<glyph unicode="&#x13b;" horiz-adv-x="496" d="M456 0h-373v692h111v-587h262v-105zM173 -300l44 223h106l-53 -223h-97z" />
<glyph unicode="&#x13c;" horiz-adv-x="257" d="M74 0v707h109v-707h-109zM53 -300l44 223h106l-53 -223h-97z" />
<glyph unicode="&#x13d;" horiz-adv-x="496" d="M456 0h-373v692h111v-587h262v-105zM452 692v-249h-106v249h106z" />
<glyph unicode="&#x13e;" horiz-adv-x="417" d="M74 0v707h109v-707h-109zM388 692v-249h-106v249h106z" />
<glyph unicode="&#x141;" d="M34 211l-53 81l107 76v324h112v-246l140 98l54 -80l-194 -137v-219h280v-108h-392v248z" />
<glyph unicode="&#x142;" horiz-adv-x="257" d="M74 0v243l-47 -32l-53 74l100 69v353h109v-277l52 36l53 -74l-105 -73v-319h-109z" />
<glyph unicode="&#x143;" horiz-adv-x="697" d="M83 0v692h191l213 -576h15v576h112v-692h-186l-218 576h-14v-576h-113zM209 862l241 93l37 -103l-244 -82z" />
<glyph unicode="&#x144;" horiz-adv-x="564" d="M191 0h-109v499h109v-26q74 37 130 37q95 0 132.5 -61t37.5 -188v-261h-110v260q0 76 -16.5 113.5t-64.5 37.5q-21 0 -48 -6.5t-44 -12.5l-17 -7v-385zM143 672l241 93l37 -103l-244 -82z" />
<glyph unicode="&#x145;" horiz-adv-x="697" d="M83 0v692h191l213 -576h15v576h112v-692h-186l-218 576h-14v-576h-113zM273 -300l44 223h106l-53 -223h-97z" />
<glyph unicode="&#x146;" horiz-adv-x="564" d="M191 0h-109v499h109v-26q74 37 130 37q95 0 132.5 -61t37.5 -188v-261h-110v260q0 76 -16.5 113.5t-64.5 37.5q-21 0 -48 -6.5t-44 -12.5l-17 -7v-385zM206 -300l44 223h106l-53 -223h-97z" />
<glyph unicode="&#x147;" horiz-adv-x="697" d="M83 0v692h191l213 -576h15v576h112v-692h-186l-218 576h-14v-576h-113zM530 929l-132 -142h-98l-134 142h126l57 -59l57 59h124z" />
<glyph unicode="&#x148;" horiz-adv-x="564" d="M191 0h-109v499h109v-26q74 37 130 37q95 0 132.5 -61t37.5 -188v-261h-110v260q0 76 -16.5 113.5t-64.5 37.5q-21 0 -48 -6.5t-44 -12.5l-17 -7v-385zM236 585l-127 162h118l55 -70l54 70h119l-128 -162h-91z" />
<glyph unicode="&#x14a;" horiz-adv-x="697" d="M83 0v692h191l213 -576h14v445h1v131h112v-692h-1v-20q0 -108 -41 -145t-157 -37v99q50 2 68 19.5t18 67.5v16h-73l-218 576h-14v-576h-113z" />
<glyph unicode="&#x14b;" horiz-adv-x="564" d="M194 0h-109v499h109v-26q74 37 131 37q94 0 131.5 -61t37.5 -188v-259q0 -100 -32.5 -147t-138.5 -99l-48 91q71 40 90.5 66.5t19.5 84.5v262q0 76 -16.5 113.5t-64.5 37.5q-21 0 -48.5 -6.5t-44.5 -12.5l-17 -7v-385z" />
<glyph unicode="&#x14c;" horiz-adv-x="647" d="M323 92q88 0 123 57.5t35 192.5q0 134 -35.5 196t-122.5 62t-122 -61.5t-35 -196.5q0 -134 35 -192t122 -58zM323 -11q-148 0 -210.5 86t-62.5 267t63.5 271.5t209.5 90.5q147 0 210.5 -90t63.5 -272t-63 -267.5t-211 -85.5zM157 811v95h332v-95h-332z" />
<glyph unicode="&#x14d;" horiz-adv-x="529" d="M265 510q218 0 218 -258q0 -125 -49.5 -194t-168.5 -69q-120 0 -169.5 68.5t-49.5 195.5q0 123 50 190t169 67zM265 84q63 0 84.5 42t21.5 126q0 80 -23.5 121.5t-82.5 41.5q-61 0 -84.5 -40t-23.5 -122q0 -85 22.5 -127t85.5 -42zM108 627v95h312v-95h-312z" />
<glyph unicode="&#x14e;" horiz-adv-x="647" d="M323 92q88 0 123 57.5t35 192.5q0 134 -35.5 196t-122.5 62t-122 -61.5t-35 -196.5q0 -134 35 -192t122 -58zM323 -11q-148 0 -210.5 86t-62.5 267t63.5 271.5t209.5 90.5q147 0 210.5 -90t63.5 -272t-63 -267.5t-211 -85.5zM149 928h113q3 -23 19.5 -37t41.5 -14 q27 0 43.5 14t18.5 37h113q-5 -64 -50 -103.5t-125 -39.5q-79 0 -123.5 39.5t-50.5 103.5z" />
<glyph unicode="&#x14f;" horiz-adv-x="529" d="M265 510q218 0 218 -258q0 -125 -49.5 -194t-168.5 -69q-120 0 -169.5 68.5t-49.5 195.5q0 123 50 190t169 67zM265 84q63 0 84.5 42t21.5 126q0 80 -23.5 121.5t-82.5 41.5q-61 0 -84.5 -40t-23.5 -122q0 -85 22.5 -127t85.5 -42zM84 742h113q6 -57 67 -57q62 0 67 57 h113q-5 -70 -51 -112.5t-129 -42.5q-82 0 -128 42.5t-52 112.5z" />
<glyph unicode="&#x150;" horiz-adv-x="647" d="M323 92q88 0 123 57.5t35 192.5q0 134 -35.5 196t-122.5 62t-122 -61.5t-35 -196.5q0 -134 35 -192t122 -58zM323 -11q-148 0 -210.5 86t-62.5 267t63.5 271.5t209.5 90.5q147 0 210.5 -90t63.5 -272t-63 -267.5t-211 -85.5zM351 793l98 170l99 -41l-107 -165zM140 794 l98 170l98 -41l-106 -165z" />
<glyph unicode="&#x151;" horiz-adv-x="529" d="M265 510q218 0 218 -258q0 -125 -49.5 -194t-168.5 -69q-120 0 -169.5 68.5t-49.5 195.5q0 123 50 190t169 67zM265 84q63 0 84.5 42t21.5 126q0 80 -23.5 121.5t-82.5 41.5q-61 0 -84.5 -40t-23.5 -122q0 -85 22.5 -127t85.5 -42zM267 626l128 169l87 -57l-135 -167z M68 626l128 168l86 -56l-134 -167z" />
<glyph unicode="&#x152;" horiz-adv-x="900" d="M846 0h-418q-75 -11 -129 -11q-141 0 -200.5 88t-59.5 268q0 184 62.5 271.5t197.5 87.5q49 0 127 -12h420v-104h-309v-194h249v-99h-249v-191h309v-104zM314 94q28 0 112 7v490q-86 7 -114 7q-85 0 -121 -58.5t-36 -194.5q0 -135 34 -193t125 -58z" />
<glyph unicode="&#x153;" horiz-adv-x="876" d="M614 85q32 0 77 2.5t75 4.5l29 2l2 -82q-97 -23 -191 -23q-110 0 -160 63q-50 -63 -160 -63q-122 0 -171 67.5t-49 196.5q0 124 50 190.5t170 66.5q115 0 164 -70q51 70 156 70q207 0 207 -228l-7 -78h-302q1 -58 26.5 -88.5t83.5 -30.5zM286 84q64 0 86 41.5t22 126.5 t-24 124t-84 39q-63 0 -86 -39.5t-23 -122.5q0 -87 22 -128t87 -41zM503 287h202q0 70 -20.5 98t-74.5 28q-106 0 -107 -126z" />
<glyph unicode="&#x154;" horiz-adv-x="616" d="M344 244l-22 -1h-128v-243h-111v692h249q232 0 232 -221q0 -149 -110 -200l111 -271h-123zM449 469q0 57 -31.5 88.5t-85.5 31.5h-138v-246h140q56 0 85.5 35t29.5 91zM169 862l241 93l37 -103l-244 -82z" />
<glyph unicode="&#x155;" horiz-adv-x="358" d="M75 0v499h110v-55q63 50 147 67v-117q-40 -8 -77 -20.5t-53 -21.5l-17 -8v-344h-110zM45 672l241 93l37 -103l-244 -82z" />
<glyph unicode="&#x156;" horiz-adv-x="616" d="M344 244l-22 -1h-128v-243h-111v692h249q232 0 232 -221q0 -149 -110 -200l111 -271h-123zM449 469q0 57 -31.5 88.5t-85.5 31.5h-138v-246h140q56 0 85.5 35t29.5 91zM233 -300l44 223h106l-53 -223h-97z" />
<glyph unicode="&#x157;" horiz-adv-x="358" d="M75 0v499h110v-55q63 50 147 67v-117q-40 -8 -77 -20.5t-53 -21.5l-17 -8v-344h-110zM104 -300l44 223h106l-53 -223h-97z" />
<glyph unicode="&#x158;" horiz-adv-x="616" d="M344 244l-22 -1h-128v-243h-111v692h249q232 0 232 -221q0 -149 -110 -200l111 -271h-123zM449 469q0 57 -31.5 88.5t-85.5 31.5h-138v-246h140q56 0 85.5 35t29.5 91zM490 930l-132 -142h-98l-134 142h126l57 -59l57 59h124z" />
<glyph unicode="&#x159;" horiz-adv-x="358" d="M75 0v499h110v-55q63 50 147 67v-117q-40 -8 -77 -20.5t-53 -21.5l-17 -8v-344h-110zM139 585l-127 162h118l55 -70l54 70h119l-128 -162h-91z" />
<glyph unicode="&#x15a;" horiz-adv-x="531" d="M484 681l-4 -95q-137 14 -195 14q-122 0 -122 -89q0 -45 30.5 -68t117.5 -50q111 -37 151.5 -74t40.5 -120q0 -109 -55.5 -159.5t-175.5 -50.5q-40 0 -92.5 5t-85.5 10l-32 6l6 98q132 -15 195 -15q64 0 96 23.5t32 78.5q0 39 -29.5 59.5t-110.5 45.5q-113 37 -156 80.5 t-43 129.5q0 96 58.5 145t168.5 49q41 0 92 -6t82 -12zM126 862l241 93l37 -103l-244 -82z" />
<glyph unicode="&#x15b;" horiz-adv-x="493" d="M422 488l-2 -89q-121 16 -174 16q-81 0 -81 -58q0 -23 20 -34t81 -22q97 -17 134.5 -49t37.5 -104q0 -159 -194 -159q-31 0 -77 5.5t-77 11.5l-30 5l4 90q118 -17 169 -17t73 14.5t22 46.5q0 25 -17.5 36t-77.5 23q-94 18 -136 49t-42 102q0 78 53.5 116.5t129.5 38.5 q33 0 79 -5.5t75 -10.5zM108 672l241 93l37 -103l-244 -82z" />
<glyph unicode="&#x15c;" horiz-adv-x="531" d="M484 681l-4 -95q-137 14 -195 14q-122 0 -122 -89q0 -45 30.5 -68t117.5 -50q111 -37 151.5 -74t40.5 -120q0 -109 -55.5 -159.5t-175.5 -50.5q-40 0 -92.5 5t-85.5 10l-32 6l6 98q132 -15 195 -15q64 0 96 23.5t32 78.5q0 39 -29.5 59.5t-110.5 45.5q-113 37 -156 80.5 t-43 129.5q0 96 58.5 145t168.5 49q41 0 92 -6t82 -12zM91 790l132 143h100l132 -143h-124l-57 56l-56 -56h-127z" />
<glyph unicode="&#x15d;" horiz-adv-x="493" d="M422 488l-2 -89q-121 16 -174 16q-81 0 -81 -58q0 -23 20 -34t81 -22q97 -17 134.5 -49t37.5 -104q0 -159 -194 -159q-31 0 -77 5.5t-77 11.5l-30 5l4 90q118 -17 169 -17t73 14.5t22 46.5q0 25 -17.5 36t-77.5 23q-94 18 -136 49t-42 102q0 78 53.5 116.5t129.5 38.5 q33 0 79 -5.5t75 -10.5zM74 585l128 162h88l130 -162h-118l-55 71l-55 -71h-118z" />
<glyph unicode="&#x15e;" horiz-adv-x="531" d="M418 -127q0 -47 -28 -72t-76 -25q-19 0 -41.5 2.5t-35.5 5.5l-13 2l3 65q35 -2 56 -2q40 0 40 31q0 27 -40 27h-32v83q-39 1 -86 6t-75 10l-28 4l6 98q132 -15 195 -15q64 0 96 23.5t32 78.5q0 39 -29.5 59.5t-110.5 45.5q-113 37 -156 80.5t-43 129.5q0 96 58.5 145 t168.5 49q41 0 92 -6t82 -12l31 -5l-4 -95q-137 14 -195 14q-122 0 -122 -89q0 -45 30.5 -68t117.5 -50q111 -37 151.5 -74t40.5 -120q0 -103 -49 -153.5t-155 -55.5v-32q64 -1 91.5 -18t27.5 -67z" />
<glyph unicode="&#x15f;" horiz-adv-x="493" d="M381 -127q0 -47 -28 -72t-76 -25q-19 0 -41.5 2.5t-35.5 5.5l-13 2l3 65q35 -2 56 -2q40 0 40 31q0 27 -40 27h-32v83q-31 2 -69.5 7.5t-61.5 9.5l-23 4l4 90q118 -17 169 -17t73 14.5t22 46.5q0 25 -17.5 36t-77.5 23q-94 18 -136 49t-42 102q0 78 53.5 116.5 t129.5 38.5q33 0 79 -5.5t75 -10.5l30 -6l-2 -89q-121 16 -174 16q-81 0 -81 -58q0 -23 20 -34t81 -22q97 -17 134.5 -49t37.5 -104q0 -151 -176 -158v-32q64 -1 91.5 -18t27.5 -67z" />
<glyph unicode="&#x160;" horiz-adv-x="531" d="M484 681l-4 -95q-137 14 -195 14q-122 0 -122 -89q0 -45 30.5 -68t117.5 -50q111 -37 151.5 -74t40.5 -120q0 -109 -55.5 -159.5t-175.5 -50.5q-40 0 -92.5 5t-85.5 10l-32 6l6 98q132 -15 195 -15q64 0 96 23.5t32 78.5q0 39 -29.5 59.5t-110.5 45.5q-113 37 -156 80.5 t-43 129.5q0 96 58.5 145t168.5 49q41 0 92 -6t82 -12zM464 931l-132 -142h-98l-134 142h126l57 -59l57 59h124z" />
<glyph unicode="&#x161;" horiz-adv-x="493" d="M422 488l-2 -89q-121 16 -174 16q-81 0 -81 -58q0 -23 20 -34t81 -22q97 -17 134.5 -49t37.5 -104q0 -159 -194 -159q-31 0 -77 5.5t-77 11.5l-30 5l4 90q118 -17 169 -17t73 14.5t22 46.5q0 25 -17.5 36t-77.5 23q-94 18 -136 49t-42 102q0 78 53.5 116.5t129.5 38.5 q33 0 79 -5.5t75 -10.5zM199 585l-127 162h118l55 -70l54 70h119l-128 -162h-91z" />
<glyph unicode="&#x162;" horiz-adv-x="485" d="M8 584v108h468v-108h-176v-584h-111v584h-181zM167 -300l44 223h106l-53 -223h-97z" />
<glyph unicode="&#x163;" horiz-adv-x="355" d="M325 403h-132v-213q0 -55 12.5 -79t42.5 -24l75 3l5 -89q-60 -13 -95 -13q-80 0 -114.5 43.5t-34.5 143.5v228h-60v95h60v147h109v-147h132v-95zM103 -300l44 223h106l-53 -223h-97z" />
<glyph unicode="&#x164;" horiz-adv-x="485" d="M8 584v108h468v-108h-176v-584h-111v584h-181zM424 930l-132 -142h-98l-134 142h126l57 -59l57 59h124z" />
<glyph unicode="&#x165;" horiz-adv-x="516" d="M325 403h-132v-213q0 -55 12.5 -79t42.5 -24l75 3l5 -89q-60 -13 -95 -13q-80 0 -114.5 43.5t-34.5 143.5v228h-60v95h60v147h109v-147h132v-95zM486 692v-249h-106v249h106z" />
<glyph unicode="&#x166;" horiz-adv-x="485" d="M43 273v95h146v216h-181v108h468v-108h-176v-216h153v-95h-153v-273h-111v273h-146z" />
<glyph unicode="&#x167;" horiz-adv-x="355" d="M31 224v95h53v84h-60v95h60v147h109v-147h132v-95h-132v-84h127v-95h-127v-34q0 -55 12.5 -79t42.5 -24l75 3l5 -89q-60 -13 -95 -13q-80 0 -114.5 43.5t-34.5 143.5v49h-53z" />
<glyph unicode="&#x168;" horiz-adv-x="645" d="M187 221q0 -66 32.5 -94.5t101.5 -28.5q70 0 103.5 28.5t33.5 94.5v471h112v-471q0 -121 -59.5 -175.5t-189.5 -54.5q-128 0 -187 54.5t-59 175.5v471h112v-471zM478 930l24 -83q-6 -7 -16 -17t-37 -27t-48 -17q-27 0 -89.5 24.5t-76.5 24.5q-12 0 -32 -11t-34 -22 l-14 -11l-25 83q6 7 16.5 17.5t38 27.5t48.5 17q32 0 93 -24t72 -24t31 10.5t35 21.5z" />
<glyph unicode="&#x169;" horiz-adv-x="560" d="M371 499h110v-499h-110v26q-74 -37 -127 -37q-95 0 -132.5 57.5t-37.5 191.5v261h110v-260q0 -85 16.5 -119.5t64.5 -34.5q20 0 46.5 7t42.5 14l17 7v386zM425 737l24 -83q-6 -6 -15.5 -16t-36 -26t-47.5 -16q-27 0 -80.5 23.5t-67.5 23.5q-12 0 -31.5 -10.5t-32.5 -20.5 l-14 -11l-24 83q6 7 16 16.5t37 26t48 16.5q31 0 83.5 -22.5t63.5 -22.5t30 10t33 20z" />
<glyph unicode="&#x16a;" horiz-adv-x="645" d="M187 221q0 -66 32.5 -94.5t101.5 -28.5q70 0 103.5 28.5t33.5 94.5v471h112v-471q0 -121 -59.5 -175.5t-189.5 -54.5q-128 0 -187 54.5t-59 175.5v471h112v-471zM156 811v95h332v-95h-332z" />
<glyph unicode="&#x16b;" horiz-adv-x="560" d="M371 499h110v-499h-110v26q-74 -37 -127 -37q-95 0 -132.5 57.5t-37.5 191.5v261h110v-260q0 -85 16.5 -119.5t64.5 -34.5q20 0 46.5 7t42.5 14l17 7v386zM124 627v95h312v-95h-312z" />
<glyph unicode="&#x16c;" horiz-adv-x="645" d="M187 221q0 -66 32.5 -94.5t101.5 -28.5q70 0 103.5 28.5t33.5 94.5v471h112v-471q0 -121 -59.5 -175.5t-189.5 -54.5q-128 0 -187 54.5t-59 175.5v471h112v-471zM148 928h113q3 -23 19.5 -37t41.5 -14q27 0 43.5 14t18.5 37h113q-5 -64 -50 -103.5t-125 -39.5 q-79 0 -123.5 39.5t-50.5 103.5z" />
<glyph unicode="&#x16d;" horiz-adv-x="560" d="M371 499h110v-499h-110v26q-74 -37 -127 -37q-95 0 -132.5 57.5t-37.5 191.5v261h110v-260q0 -85 16.5 -119.5t64.5 -34.5q20 0 46.5 7t42.5 14l17 7v386zM99 742h113q6 -57 67 -57q62 0 67 57h113q-5 -70 -51 -112.5t-129 -42.5q-82 0 -128 42.5t-52 112.5z" />
<glyph unicode="&#x16e;" horiz-adv-x="645" d="M187 221q0 -66 32.5 -94.5t101.5 -28.5q70 0 103.5 28.5t33.5 94.5v471h112v-471q0 -121 -59.5 -175.5t-189.5 -54.5q-128 0 -187 54.5t-59 175.5v471h112v-471zM459 841q0 -55 -39 -86t-98 -31t-97.5 31t-38.5 86t38.5 86.5t97.5 31.5t98 -31.5t39 -86.5zM271 841 q0 -19 14 -29.5t37 -10.5q24 0 38 10.5t14 29.5t-14 29.5t-38 10.5q-23 0 -37 -10.5t-14 -29.5z" />
<glyph unicode="&#x16f;" horiz-adv-x="560" d="M371 499h110v-499h-110v26q-74 -37 -127 -37q-95 0 -132.5 57.5t-37.5 191.5v261h110v-260q0 -85 16.5 -119.5t64.5 -34.5q20 0 46.5 7t42.5 14l17 7v386zM169 641q0 47 32 79t80 32q47 0 79 -32t32 -79q0 -48 -32 -80t-79 -32q-48 0 -80 32t-32 80zM243 641 q0 -17 11.5 -28t27.5 -11t27 11.5t11 27.5t-11 27t-27 11t-27.5 -11t-11.5 -27z" />
<glyph unicode="&#x170;" horiz-adv-x="645" d="M187 221q0 -66 32.5 -94.5t101.5 -28.5q70 0 103.5 28.5t33.5 94.5v471h112v-471q0 -121 -59.5 -175.5t-189.5 -54.5q-128 0 -187 54.5t-59 175.5v471h112v-471zM351 786l98 170l99 -41l-107 -165zM140 787l98 170l98 -41l-106 -165z" />
<glyph unicode="&#x171;" horiz-adv-x="560" d="M371 499h110v-499h-110v26q-74 -37 -127 -37q-95 0 -132.5 57.5t-37.5 191.5v261h110v-260q0 -85 16.5 -119.5t64.5 -34.5q20 0 46.5 7t42.5 14l17 7v386zM307 626l128 169l87 -57l-135 -167zM108 626l128 168l86 -56l-134 -167z" />
<glyph unicode="&#x172;" horiz-adv-x="645" d="M430 -113l10 -89q-53 -10 -92 -10q-44 0 -73 25t-29 67q0 54 59 111q-120 3 -175 58t-55 172v471h112v-471q0 -66 32.5 -94.5t101.5 -28.5q70 0 103.5 28.5t33.5 94.5v471h112v-471q0 -95 -36.5 -149t-114.5 -72q-3 -1 -16 -14.5t-28 -35t-15 -36.5q0 -13 7.5 -22 t19.5 -9z" />
<glyph unicode="&#x173;" horiz-adv-x="560" d="M477 -113l10 -89q-53 -10 -92 -10q-44 0 -73 25t-29 67q0 28 17.5 58t32 44.5t28.5 24.5v19q-74 -37 -127 -37q-95 0 -132.5 57.5t-37.5 191.5v261h110v-260q0 -85 16.5 -119.5t64.5 -34.5q20 0 46.5 7t42.5 14l17 7v386h110v-499h-15q-12 -9 -35.5 -37t-23.5 -49 q0 -13 7.5 -22t19.5 -9z" />
<glyph unicode="&#x174;" horiz-adv-x="924" d="M34 692h118l110 -591h20l116 581h128l116 -581h21l109 591h117l-140 -692h-185l-103 533l-100 -533h-185zM279 790l132 143h100l132 -143h-124l-57 56l-56 -56h-127z" />
<glyph unicode="&#x175;" horiz-adv-x="753" d="M19 499h109l76 -400h24l91 391h115l91 -391h23l77 400h108l-103 -499h-181l-74 341l-75 -341h-178zM204 585l128 162h88l130 -162h-118l-55 71l-55 -71h-118z" />
<glyph unicode="&#x176;" horiz-adv-x="563" d="M338 296v-296h-111v296l-208 396h125l138 -277l137 277h125zM99 790l132 143h100l132 -143h-124l-57 56l-56 -56h-127z" />
<glyph unicode="&#x177;" horiz-adv-x="484" d="M19 499h109l103 -394h21l104 394h108l-187 -713h-109l57 215h-76zM69 585l128 162h88l130 -162h-118l-55 71l-55 -71h-118z" />
<glyph unicode="&#x178;" horiz-adv-x="563" d="M338 296v-296h-111v296l-208 396h125l138 -277l137 277h125zM130 805v114h105v-114h-105zM346 805v114h104v-114h-104z" />
<glyph unicode="&#x179;" horiz-adv-x="570" d="M65 587v105h440v-114l-302 -456v-17h302v-105h-440v114l302 456v17h-302zM145 862l241 93l37 -103l-244 -82z" />
<glyph unicode="&#x17a;" horiz-adv-x="478" d="M58 403v97h361l1 -97l-234 -306h234v-97h-361l-1 97l234 306h-234zM102 672l241 93l37 -103l-244 -82z" />
<glyph unicode="&#x17b;" horiz-adv-x="570" d="M65 587v105h440v-114l-302 -456v-17h302v-105h-440v114l302 456v17h-302zM230 793v115h109v-115h-109z" />
<glyph unicode="&#x17c;" horiz-adv-x="478" d="M58 403v97h361l1 -97l-234 -306h234v-97h-361l-1 97l234 306h-234zM184 578v115h109v-115h-109z" />
<glyph unicode="&#x17d;" horiz-adv-x="570" d="M65 587v105h440v-114l-302 -456v-17h302v-105h-440v114l302 456v17h-302zM468 929l-132 -142h-98l-134 142h126l57 -59l57 59h124z" />
<glyph unicode="&#x17e;" horiz-adv-x="478" d="M58 403v97h361l1 -97l-234 -306h234v-97h-361l-1 97l234 306h-234zM187 585l-127 162h118l55 -70l54 70h119l-128 -162h-91z" />
<glyph unicode="&#x192;" d="M312 -66q0 -100 -43 -139.5t-127 -39.5q-16 0 -35 2.5t-31 5.5l-11 3v85q49 -3 77 -3q61 0 61 86v437h-100v99h100v36q0 111 31 153t110 42q66 0 128 -11l-1 -90q-68 2 -100 2t-45.5 -20.5t-13.5 -67.5v-44h152v-99h-152v-437z" />
<glyph unicode="&#x1fa;" horiz-adv-x="605" d="M439 730q0 -40 -22 -68l159 -662h-112l-41 143h-246l-36 -143h-112l160 660q-23 28 -23 70q0 55 38.5 86.5t97.5 31.5t98 -31.5t39 -86.5zM284 594l-83 -347h201l-81 347h-37zM156 959l241 93l37 -103l-244 -82zM251 730q0 -30 32 -38h38q33 8 33 38q0 19 -14 29.5 t-38 10.5q-23 0 -37 -10.5t-14 -29.5z" />
<glyph unicode="&#x1fb;" horiz-adv-x="525" d="M443 342v-210q2 -25 12.5 -35t34.5 -16l-7 -92q-85 0 -132 36q-72 -36 -150 -36q-66 0 -108.5 43.5t-42.5 115.5q0 139 162 152l121 10v34q0 66 -61 66q-40 0 -88 -2.5t-76 -5.5l-29 -2l-4 90q128 20 203 20q82 0 123.5 -39.5t41.5 -128.5zM123 714l241 93l37 -103 l-39 -13q12 -26 12 -50q0 -48 -32 -80t-79 -32t-79 31t-33 78zM333 229l-108 -7q-32 -2 -48.5 -21t-16.5 -50q0 -32 15.5 -51t41.5 -19q24 0 53 5.5t46 10.5l17 5v127zM225 641q0 -17 11.5 -28t27.5 -11t27 11.5t11 27.5q0 15 -11 26l-66 -22v-4z" />
<glyph unicode="&#x1fc;" horiz-adv-x="819" d="M345 0v143h-179l-36 -143h-113l169 692h579v-104h-310v-194h250v-99h-250v-191h310v-104h-420zM272 589l-82 -342h155v342h-73zM270 862l241 93l37 -103l-244 -82z" />
<glyph unicode="&#x1fd;" horiz-adv-x="828" d="M566 85q32 0 77 2.5t75 4.5l29 2l2 -82q-97 -23 -191 -23q-106 0 -155 50l-27 -12q-90 -38 -166 -38q-66 0 -108 43t-42 116q0 77 42.5 111t126.5 42l117 9v34q0 32 -16 49t-45 17q-33 0 -81 -3t-80 -6l-32 -3l-3 93q123 19 198 19q96 0 133 -54q48 54 141 54 q204 0 204 -228l-7 -78h-302q1 -58 26.5 -88.5t83.5 -30.5zM227 81q24 0 55 6t49 11t22 7q-7 41 -7 122l-111 -7q-64 -5 -64 -69q0 -33 16 -51.5t40 -18.5zM455 287h202q0 68 -22.5 99.5t-76.5 31.5q-53 0 -77.5 -32.5t-25.5 -98.5zM284 672l241 93l37 -103l-244 -82z" />
<glyph unicode="&#x1fe;" horiz-adv-x="656" d="M174 862l241 93l37 -103l-244 -82zM323 92q88 0 123 57.5t35 192.5q0 134 -35.5 196t-122.5 62t-122 -61.5t-35 -196.5q0 -134 35 -192t122 -58zM323 -11q-148 0 -210.5 86t-62.5 267t63.5 271.5t209.5 90.5q147 0 210.5 -90t63.5 -272t-63 -267.5t-211 -85.5z" />
<glyph unicode="&#x1ff;" horiz-adv-x="529" d="M265 84q63 0 84.5 42t21.5 126q0 82 -23 120l34 85l9 13l3 7q89 -59 89 -225q0 -125 -49.5 -194t-168.5 -69q-33 0 -68 7l7 17l4 13l25 61q13 -3 32 -3zM265 510q33 0 62 -6l-3 -9l-4 -14l-28 -69q-12 3 -27 3q-61 0 -84.5 -40t-23.5 -122q0 -87 22 -126l-32 -79l-11 -13 l-5 -12q-85 58 -85 230q0 123 50 190t169 67zM125 672l241 93l37 -103l-244 -82zM179 127q17 -31 54 -40l115 285q-18 31 -56 40zM86 -85l68 -25l43 106q-39 9 -66 27zM369 606l-42 -102q38 -9 67 -27l43 104z" />
<glyph unicode="&#x218;" horiz-adv-x="531" d="M484 681l-4 -95q-137 14 -195 14q-122 0 -122 -89q0 -45 30.5 -68t117.5 -50q111 -37 151.5 -74t40.5 -120q0 -109 -55.5 -159.5t-175.5 -50.5q-40 0 -92.5 5t-85.5 10l-32 6l6 98q132 -15 195 -15q64 0 96 23.5t32 78.5q0 39 -29.5 59.5t-110.5 45.5q-113 37 -156 80.5 t-43 129.5q0 96 58.5 145t168.5 49q41 0 92 -6t82 -12zM191 -300l44 223h106l-53 -223h-97z" />
<glyph unicode="&#x219;" horiz-adv-x="493" d="M422 488l-2 -89q-121 16 -174 16q-81 0 -81 -58q0 -23 20 -34t81 -22q97 -17 134.5 -49t37.5 -104q0 -159 -194 -159q-31 0 -77 5.5t-77 11.5l-30 5l4 90q118 -17 169 -17t73 14.5t22 46.5q0 25 -17.5 36t-77.5 23q-94 18 -136 49t-42 102q0 78 53.5 116.5t129.5 38.5 q33 0 79 -5.5t75 -10.5zM171 -300l44 223h106l-53 -223h-97z" />
<glyph unicode="&#x237;" horiz-adv-x="261" d="M79 6v493h110v-494q0 -100 -32.5 -146.5t-138.5 -99.5l-49 91q73 40 91.5 67t18.5 89z" />
<glyph unicode="&#x2c6;" horiz-adv-x="833" d="M236 585l128 162h88l130 -162h-118l-55 71l-55 -71h-118z" />
<glyph unicode="&#x2c7;" horiz-adv-x="833" d="M363 585l-127 162h118l55 -70l54 70h119l-128 -162h-91z" />
<glyph unicode="&#x2d8;" horiz-adv-x="476" d="M41 742h113q6 -57 67 -57q62 0 67 57h113q-5 -70 -51 -112.5t-129 -42.5q-82 0 -128 42.5t-52 112.5z" />
<glyph unicode="&#x2d9;" horiz-adv-x="255" d="M73 578v115h109v-115h-109z" />
<glyph unicode="&#x2da;" horiz-adv-x="833" d="M156 641q0 47 32 79t80 32q46 0 78.5 -32t32.5 -79q0 -48 -32 -80t-79 -32q-48 0 -80 32t-32 80zM230 641q0 -17 11 -28t28 -11q16 0 27 11.5t11 27.5t-11 27t-27 11t-27.5 -11t-11.5 -27z" />
<glyph unicode="&#x2db;" horiz-adv-x="464" d="M390 -113l10 -89q-53 -10 -92 -10q-44 0 -73 25t-29 67q0 32 20.5 64.5t41.5 49.5l20 16l92 -9q-60 -53 -60 -87q0 -13 7.5 -22t19.5 -9z" />
<glyph unicode="&#x2dc;" horiz-adv-x="461" d="M374 737l24 -83q-6 -6 -15.5 -16t-36 -26t-47.5 -16q-27 0 -80.5 23.5t-67.5 23.5q-12 0 -31.5 -10.5t-33.5 -20.5l-13 -11l-24 83q6 7 16 16.5t37 26t48 16.5q31 0 83.5 -22.5t63.5 -22.5t30 10t33 20z" />
<glyph unicode="&#x2dd;" horiz-adv-x="715" d="M334 626l128 169l87 -57l-135 -167zM135 626l128 168l86 -56l-134 -167z" />
<glyph unicode="&#x300;" horiz-adv-x="545" d="M141 764l241 -93l-34 -91l-244 81z" />
<glyph unicode="&#x301;" horiz-adv-x="833" d="M104 672l241 93l37 -103l-244 -82z" />
<glyph unicode="&#x302;" horiz-adv-x="833" d="M236 585l128 162h88l130 -162h-118l-55 71l-55 -71h-118z" />
<glyph unicode="&#x303;" horiz-adv-x="743" d="M374 737l24 -83q-6 -6 -15.5 -16t-36 -26t-47.5 -16q-27 0 -80.5 23.5t-67.5 23.5q-12 0 -31.5 -10.5t-33.5 -20.5l-13 -11l-24 83q6 7 16 16.5t37 26t48 16.5q31 0 83.5 -22.5t63.5 -22.5t30 10t33 20z" />
<glyph unicode="&#x304;" horiz-adv-x="476" d="M77 627v95h312v-95h-312z" />
<glyph unicode="&#x306;" horiz-adv-x="476" d="M41 742h113q6 -57 67 -57q62 0 67 57h113q-5 -70 -51 -112.5t-129 -42.5q-82 0 -128 42.5t-52 112.5z" />
<glyph unicode="&#x307;" horiz-adv-x="255" d="M73 578v115h109v-115h-109z" />
<glyph unicode="&#x308;" horiz-adv-x="833" d="M78 614v114h105v-114h-105zM288 614v114h104v-114h-104z" />
<glyph unicode="&#x30a;" horiz-adv-x="833" d="M156 641q0 47 32 79t80 32q46 0 78.5 -32t32.5 -79q0 -48 -32 -80t-79 -32q-48 0 -80 32t-32 80zM230 641q0 -17 11 -28t28 -11q16 0 27 11.5t11 27.5t-11 27t-27 11t-27.5 -11t-11.5 -27z" />
<glyph unicode="&#x30b;" horiz-adv-x="715" d="M334 626l128 169l87 -57l-135 -167zM135 626l128 168l86 -56l-134 -167z" />
<glyph unicode="&#x30c;" horiz-adv-x="833" d="M363 585l-127 162h118l55 -70l54 70h119l-128 -162h-91z" />
<glyph unicode="&#x312;" horiz-adv-x="170" d="M157 808l-44 -223h-106l52 223h98z" />
<glyph unicode="&#x315;" horiz-adv-x="165" d="M131 692v-249h-106v249h106z" />
<glyph unicode="&#x326;" horiz-adv-x="170" d="M7 -300l44 223h106l-53 -223h-97z" />
<glyph unicode="&#x327;" horiz-adv-x="723" d="M510 -127q0 -47 -28 -72t-76 -25q-19 0 -41.5 2.5t-35.5 5.5l-13 2l3 65q35 -2 56 -2q40 0 40 31q0 27 -40 27h-32v94h48v-43q64 -1 91.5 -18t27.5 -67z" />
<glyph unicode="&#x328;" horiz-adv-x="464" d="M390 -113l10 -89q-53 -10 -92 -10q-44 0 -73 25t-29 67q0 32 20.5 64.5t41.5 49.5l20 16l92 -9q-60 -53 -60 -87q0 -13 7.5 -22t19.5 -9z" />
<glyph unicode="&#x394;" d="M34 92l139 590h187l138 -592v-90h-464v92zM277 581h-20l-109 -480h237z" />
<glyph unicode="&#x3a9;" d="M34 88h90q-10 15 -25 41t-39.5 100t-24.5 141q0 160 51.5 230t178.5 70t178.5 -70t51.5 -230q0 -67 -22.5 -137.5t-44.5 -107.5l-23 -37h91v-97h-204v87q10 16 25 44t40 100.5t25 129.5q0 114 -23.5 164.5t-93.5 50.5q-31 0 -52.5 -9.5t-34.5 -25t-19.5 -44.5t-8.5 -59 t-2 -77q0 -57 22 -125.5t44 -108.5l23 -40v-87h-203v97z" />
<glyph unicode="&#x3bc;" d="M65 -223v722h110v-272q0 -76 17 -109t67 -33q20 0 45.5 6.5t41.5 12.5l16 6v389h110v-499h-110v26q-70 -37 -116 -37q-24 0 -42 8t-24 16l-5 8v-244h-110z" />
<glyph unicode="&#x3c0;" d="M375 154v311h-204l-29 -465h-35l29 465q-42 -1 -75 -4t-45 -6l-12 -3v35q25 5 62.5 8t62.5 4l25 1h216q95 0 144 16v-35q-34 -12 -104 -15v-312q0 -75 20 -97.5t79 -22.5v-34q-77 0 -105.5 31.5t-28.5 122.5z" />
<glyph unicode="&#x1e80;" horiz-adv-x="924" d="M34 692h118l110 -591h20l116 581h128l116 -581h21l109 591h117l-140 -692h-185l-103 533l-100 -533h-185zM357 947l241 -93l-34 -92l-244 82z" />
<glyph unicode="&#x1e81;" horiz-adv-x="753" d="M19 499h109l76 -400h24l91 391h115l91 -391h23l77 400h108l-103 -499h-181l-74 341l-75 -341h-178zM274 764l241 -93l-34 -91l-244 81z" />
<glyph unicode="&#x1e82;" horiz-adv-x="924" d="M34 692h118l110 -591h20l116 581h128l116 -581h21l109 591h117l-140 -692h-185l-103 533l-100 -533h-185zM325 862l241 93l37 -103l-244 -82z" />
<glyph unicode="&#x1e83;" horiz-adv-x="753" d="M19 499h109l76 -400h24l91 391h115l91 -391h23l77 400h108l-103 -499h-181l-74 341l-75 -341h-178zM237 672l241 93l37 -103l-244 -82z" />
<glyph unicode="&#x1e84;" horiz-adv-x="924" d="M34 692h118l110 -591h20l116 581h128l116 -581h21l109 591h117l-140 -692h-185l-103 533l-100 -533h-185zM301 805v114h105v-114h-105zM517 805v114h104v-114h-104z" />
<glyph unicode="&#x1e85;" horiz-adv-x="753" d="M19 499h109l76 -400h24l91 391h115l91 -391h23l77 400h108l-103 -499h-181l-74 341l-75 -341h-178zM219 614v114h105v-114h-105zM429 614v114h104v-114h-104z" />
<glyph unicode="&#x1eab;" d="M443 342v-210q2 -25 12.5 -35t34.5 -16l-7 -92q-85 0 -132 36q-72 -36 -150 -36q-66 0 -108.5 43.5t-42.5 115.5q0 139 162 152l121 10v34q0 66 -61 66q-40 0 -88 -2.5t-76 -5.5l-29 -2l-4 90q128 20 203 20q82 0 123.5 -39.5t41.5 -128.5zM333 229l-108 -7 q-32 -2 -48.5 -21t-16.5 -50q0 -32 15.5 -51t41.5 -19q24 0 53 5.5t46 10.5l17 5v127zM87 555l128 162h88l130 -162h-118l-55 71l-55 -71h-118zM408 882l24 -83q-6 -6 -15.5 -16t-36 -26t-47.5 -16q-27 0 -80.5 23.5t-67.5 23.5q-12 0 -31.5 -10.5t-33.5 -21.5l-13 -10 l-24 83q6 7 16 16.5t37 26t48 16.5q31 0 83.5 -22.5t63.5 -22.5t30 9.5t33 19.5z" />
<glyph unicode="&#x1eb0;" horiz-adv-x="605" d="M29 0l168 692h213l166 -692h-112l-41 143h-246l-36 -143h-112zM284 594l-83 -347h201l-81 347h-37zM127 890h113q3 -23 19.5 -37t41.5 -14q27 0 43.5 14t18.5 37h113q-5 -64 -50 -103.5t-125 -39.5q-79 0 -123.5 39.5t-50.5 103.5zM200 1117l241 -93l-34 -91l-244 81z " />
<glyph unicode="&#x1ec5;" horiz-adv-x="507" d="M265 85q32 0 77 2.5t74 4.5l29 2l2 -82q-95 -23 -190 -23q-112 0 -161.5 63.5t-49.5 192.5q0 128 54 196.5t157 68.5t154.5 -58.5t51.5 -169.5l-7 -78h-300q2 -119 109 -119zM156 287h199q0 67 -23 99t-75 32q-101 0 -101 -131zM82 555l128 162h88l130 -162h-118l-55 71 l-55 -71h-118zM403 882l24 -83q-6 -6 -15.5 -16t-36 -26t-47.5 -16q-27 0 -80.5 23.5t-67.5 23.5q-12 0 -31.5 -10.5t-32.5 -21.5l-14 -10l-24 83q6 7 16 16.5t37 26t48 16.5q31 0 83.5 -22.5t63.5 -22.5t30 9.5t33 19.5z" />
<glyph unicode="&#x1ed7;" horiz-adv-x="531" d="M265 510q218 0 218 -258q0 -125 -49.5 -194t-168.5 -69q-120 0 -169.5 68.5t-49.5 195.5q0 123 50 190t169 67zM265 84q63 0 84.5 42t21.5 126q0 80 -23.5 121.5t-82.5 41.5q-61 0 -84.5 -40t-23.5 -122q0 -85 22.5 -127t85.5 -42zM87 555l128 162h88l130 -162h-118 l-55 71l-55 -71h-118zM408 882l24 -83q-6 -6 -15.5 -16t-36 -26t-47.5 -16q-27 0 -80.5 23.5t-67.5 23.5q-12 0 -31.5 -10.5t-33.5 -21.5l-13 -10l-24 83q6 7 16 16.5t37 26t48 16.5q31 0 83.5 -22.5t63.5 -22.5t30 9.5t33 19.5z" />
<glyph unicode="&#x1ef2;" horiz-adv-x="563" d="M338 296v-296h-111v296l-208 396h125l138 -277l137 277h125zM179 947l241 -93l-34 -92l-244 82z" />
<glyph unicode="&#x1ef3;" horiz-adv-x="484" d="M19 499h109l103 -394h21l104 394h108l-187 -713h-109l57 215h-76zM139 764l241 -93l-34 -91l-244 81z" />
<glyph unicode="&#x1ef8;" horiz-adv-x="563" d="M338 296v-296h-111v296l-208 396h125l138 -277l137 277h125zM432 930l24 -83q-6 -6 -15.5 -16t-36 -26t-47.5 -16q-27 0 -80.5 23.5t-67.5 23.5q-12 0 -31.5 -10.5t-33.5 -21.5l-13 -10l-24 83q6 7 16 16.5t37 26t48 16.5q31 0 83.5 -22.5t63.5 -22.5t30 9.5t33 19.5z " />
<glyph unicode="&#x1ef9;" horiz-adv-x="484" d="M19 499h109l103 -394h21l104 394h108l-187 -713h-109l57 215h-76zM392 737l24 -83q-6 -6 -15.5 -16t-36 -26t-47.5 -16q-27 0 -80.5 23.5t-67.5 23.5q-12 0 -31.5 -10.5t-33.5 -20.5l-13 -11l-24 83q6 7 16 16.5t37 26t48 16.5q31 0 83.5 -22.5t63.5 -22.5t30 10t33 20z " />
<glyph unicode="&#x2013;" horiz-adv-x="500" d="M0 323h500v-100h-500v100z" />
<glyph unicode="&#x2014;" horiz-adv-x="1000" d="M0 323h1000v-100h-1000v100z" />
<glyph unicode="&#x2018;" horiz-adv-x="210" d="M183 744l-48 -235h-111l55 235h104z" />
<glyph unicode="&#x2019;" horiz-adv-x="210" d="M27 509l48 235h111l-55 -235h-104z" />
<glyph unicode="&#x201a;" horiz-adv-x="210" d="M27 -87l48 235h111l-55 -235h-104z" />
<glyph unicode="&#x201c;" horiz-adv-x="437" d="M204 642l-48 -235h-111l55 235h104zM390 642l-48 -235h-111l55 235h104z" />
<glyph unicode="&#x201d;" horiz-adv-x="424" d="M43 508l48 235h111l-55 -235h-104zM229 508l48 235h111l-55 -235h-104z" />
<glyph unicode="&#x201e;" horiz-adv-x="424" d="M43 -87l48 235h111l-55 -235h-104zM229 -87l48 235h111l-55 -235h-104z" />
<glyph unicode="&#x2020;" d="M56 390v107h155v180h108v-180h155v-107h-155v-463h-108v463h-155z" />
<glyph unicode="&#x2021;" d="M211 -73v179h-155v107h155v177h-155v107h155v180h108v-180h154v-107h-154v-177h155v-107h-155v-179h-108z" />
<glyph unicode="&#x2022;" d="M144 102v283h242v-283h-242z" />
<glyph unicode="&#x2026;" horiz-adv-x="744" d="M67 0v144h118v-144h-118zM322 0v144h118v-144h-118zM577 0v144h118v-144h-118z" />
<glyph unicode="&#x2030;" horiz-adv-x="833" d="M127 633q-19 0 -26 -17t-7 -57q0 -41 7 -58.5t26 -17.5t26.5 18t7.5 58q0 39 -7.5 56.5t-26.5 17.5zM142 0l190 715l72 -19l-190 -714zM11 559q0 142 116 142t116 -142q0 -72 -30 -108t-86 -36t-86 36t-30 108zM300 144q0 142 116 142t116 -142q0 -72 -30 -108t-86 -36 t-86 36t-30 108zM382 144q0 -40 7.5 -58t26.5 -18t26 17.5t7 58.5q0 40 -7 57t-26 17t-26.5 -17.5t-7.5 -56.5zM557 144q0 142 116 142t116 -142q0 -72 -30 -108t-86 -36t-86 36t-30 108zM640 144q0 -41 7 -58.5t26 -17.5t26.5 18t7.5 58q0 39 -7.5 56.5t-26.5 17.5t-26 -17 t-7 -57z" />
<glyph unicode="&#x2039;" horiz-adv-x="524" d="M269 329l-116 -83l116 -93v-112l-209 163v81l209 155v-111z" />
<glyph unicode="&#x203a;" horiz-adv-x="524" d="M175 254l-115 83v111l209 -156v-81l-209 -162v111z" />
<glyph unicode="&#x2070;" horiz-adv-x="265" d="M134 800q63 0 94 -38t31 -129q0 -92 -31 -129t-94 -37t-94 37t-31 129t30.5 129.5t94.5 37.5zM134 721q-18 0 -25.5 -18t-7.5 -70t7.5 -69t25.5 -17t25.5 16.5t7.5 69.5q0 52 -7 70t-26 18z" />
<glyph unicode="&#x2074;" horiz-adv-x="265" d="M147 478v40h-135v74l51 198h98l-60 -192h46l11 89h77v-89h18v-80h-18v-40h-88z" />
<glyph unicode="&#x2075;" horiz-adv-x="265" d="M40 790h199v-76h-128l-4 -45q26 10 49 10q94 0 94 -99q0 -110 -114 -110q-22 0 -50.5 3.5t-45.5 6.5l-17 4l7 72q55 -9 93 -9q35 0 35 29q0 28 -25 28q-8 0 -17 -2t-14 -4l-6 -3l-66 9z" />
<glyph unicode="&#x2076;" horiz-adv-x="265" d="M244 789l-5 -73q-60 6 -90 6q-45 0 -45 -45l8 1q7 2 18.5 4.5t20.5 2.5q103 0 103 -104q0 -53 -32 -83.5t-83 -30.5q-126 0 -126 158q0 89 30.5 132t102.5 43q16 0 40.5 -3t41.5 -5zM136 612q-8 0 -16 -3t-12 -5l-4 -3q0 -56 31 -56q30 0 30 35q0 32 -29 32z" />
<glyph unicode="&#x2077;" horiz-adv-x="265" d="M23 703v87h219v-91l-99 -231l-100 17l96 202v16h-116z" />
<glyph unicode="&#x2078;" horiz-adv-x="265" d="M133 800q120 0 120 -88q0 -29 -11.5 -48.5t-22.5 -23.5q12 -4 25 -21t13 -49q0 -56 -31 -79.5t-93 -23.5t-93.5 23t-31.5 78q0 31 14 49.5t26 23.5q-7 3 -14 9.5t-14 23.5t-7 39q0 87 120 87zM133 540q33 0 33 31q0 23 -24 34h-19q-23 -11 -23 -35q0 -30 33 -30zM133 728 q-31 0 -31 -26q0 -22 21 -33h19q22 11 22 33q0 26 -31 26z" />
<glyph unicode="&#x2079;" horiz-adv-x="265" d="M24 480l5 73q48 -6 85 -6q46 0 46 43l-6 -2q-7 -1 -18.5 -3t-21.5 -2q-49 0 -75.5 27t-26.5 77q0 54 31.5 83.5t84.5 29.5q126 0 126 -165q0 -87 -30 -127.5t-98 -40.5q-20 0 -45.5 3.5t-40.5 6.5zM130 653q6 0 14.5 2.5t13.5 4.5l6 3q-2 59 -33 59q-29 0 -29 -35 q0 -15 8 -24.5t20 -9.5z" />
<glyph unicode="&#x2080;" horiz-adv-x="265" d="M134 422q63 0 94 -38t31 -129q0 -92 -31 -129t-94 -37t-94 37t-31 129t30.5 129.5t94.5 37.5zM134 343q-18 0 -25.5 -18t-7.5 -70t7.5 -69t25.5 -17t25.5 16.5t7.5 69.5q0 52 -7 70t-26 18z" />
<glyph unicode="&#x2081;" horiz-adv-x="265" d="M22 339l104 73h81v-312h-89v214l-55 -38z" />
<glyph unicode="&#x2082;" horiz-adv-x="265" d="M239 100h-222v76l80 70q48 42 48 68q0 23 -42 23l-80 -7l-3 82q67 10 111 10q58 0 82.5 -22.5t24.5 -73.5q0 -58 -59 -105l-47 -41h107v-80z" />
<glyph unicode="&#x2083;" horiz-adv-x="265" d="M26 413q64 9 106 9q114 0 114 -86q0 -53 -33 -72q40 -15 40 -75q0 -100 -113 -100q-22 0 -51.5 2.5t-48.5 4.5l-18 2l5 78q60 -7 97 -7t37 27q0 25 -34 25h-66v73h64q12 0 20 7t8 19q0 23 -35 23l-87 -6z" />
<glyph unicode="&#x2084;" horiz-adv-x="265" d="M147 100v40h-135v74l51 198h98l-60 -192h46l11 89h77v-89h18v-80h-18v-40h-88z" />
<glyph unicode="&#x2085;" horiz-adv-x="265" d="M40 412h199v-76h-128l-4 -45q26 10 49 10q94 0 94 -99q0 -110 -114 -110q-22 0 -50.5 3.5t-45.5 6.5l-17 4l7 72q55 -9 93 -9q35 0 35 29q0 28 -25 28q-8 0 -17 -2t-14 -4l-6 -3l-66 9z" />
<glyph unicode="&#x2086;" horiz-adv-x="265" d="M244 411l-5 -73q-60 6 -90 6q-45 0 -45 -45l8 1q7 2 18.5 4.5t20.5 2.5q103 0 103 -104q0 -53 -32 -83.5t-83 -30.5q-126 0 -126 158q0 89 30.5 132t102.5 43q16 0 40.5 -3t41.5 -5zM136 234q-8 0 -16 -3t-12 -5l-4 -3q0 -56 31 -56q30 0 30 35q0 32 -29 32z" />
<glyph unicode="&#x2087;" horiz-adv-x="265" d="M23 325v87h219v-91l-99 -231l-100 17l96 202v16h-116z" />
<glyph unicode="&#x2088;" horiz-adv-x="265" d="M133 422q120 0 120 -88q0 -29 -11.5 -48.5t-22.5 -23.5q12 -4 25 -21t13 -49q0 -56 -31 -79.5t-93 -23.5t-93.5 23t-31.5 78q0 31 14 49.5t26 23.5q-7 3 -14 9.5t-14 23.5t-7 39q0 87 120 87zM133 162q33 0 33 31q0 23 -24 34h-19q-23 -11 -23 -35q0 -30 33 -30zM133 350 q-31 0 -31 -26q0 -22 21 -33h19q22 11 22 33q0 26 -31 26z" />
<glyph unicode="&#x2089;" horiz-adv-x="265" d="M24 102l5 73q48 -6 85 -6q46 0 46 43l-6 -2q-7 -1 -18.5 -3t-21.5 -2q-49 0 -75.5 27t-26.5 77q0 54 31.5 83.5t84.5 29.5q126 0 126 -165q0 -87 -30 -127.5t-98 -40.5q-20 0 -45.5 3.5t-40.5 6.5zM130 275q6 0 14.5 2.5t13.5 4.5l6 3q-2 59 -33 59q-29 0 -29 -35 q0 -15 8 -24.5t20 -9.5z" />
<glyph unicode="&#x20ac;" horiz-adv-x="577" d="M52 451h61q14 119 69.5 170.5t174.5 51.5q39 0 83.5 -4.5t69.5 -9.5l25 -5l-7 -93q-95 11 -156 11q-73 0 -104.5 -29t-36.5 -93h234v-86h-242q0 -2 -0.5 -15t-0.5 -20q0 -8 0.5 -23t0.5 -16h242v-86h-234q6 -59 38 -86.5t106 -27.5q24 0 63 2.5t66 5.5l26 2l4 -94 q-98 -17 -177 -17q-119 0 -175 51t-69 164h-61v86h55q0 1 -0.5 16t-0.5 23q0 7 0.5 20t0.5 15h-55v87z" />
<glyph unicode="&#x2122;" d="M7 590v31h200v-31h-83v-258h-33v258h-84zM242 331v290h50l84 -242l87 242h50v-290h-32v258l-88 -247h-35l-84 247v-258h-32z" />
<glyph unicode="&#x2202;" d="M115 555l-11 99q77 17 159 17q122 0 180.5 -77t58.5 -255q0 -170 -68 -259t-193 -89q-103 0 -157.5 57.5t-54.5 154.5q0 101 61 155.5t159 54.5q22 0 45 -5t39 -12.5t29.5 -15t19.5 -12.5l7 -4q0 103 -30 153t-96 50q-31 0 -68 -3t-59 -6zM257 318q-55 0 -85 -30t-30 -85 q0 -110 105 -110q61 0 94.5 48.5t39.5 128.5q-6 5 -17 13t-43.5 21.5t-63.5 13.5z" />
<glyph unicode="&#x220f;" d="M26 660h478v-111h-49v-639h-113v639h-155v-639h-112v639h-49v111z" />
<glyph unicode="&#x2211;" d="M474 -90h-416v136l164 239l-164 238v136h416v-111h-284v-23l172 -240l-172 -241v-23h284v-111z" />
<glyph unicode="&#x2212;" d="M39 228v110h450v-110h-450z" />
<glyph unicode="&#x221a;" d="M8 332l157 45l94 -361h17l136 769h117l-167 -870h-181l-96 343l-50 -15z" />
<glyph unicode="&#x221e;" horiz-adv-x="534" d="M157 463q39 0 63.5 -16.5t45.5 -53.5q20 38 45 54t65 16q64 0 97.5 -43.5t33.5 -127.5q0 -171 -133 -171q-39 0 -63 16t-44 52q-20 -39 -44 -53.5t-64 -14.5q-133 0 -133 170q0 84 33.5 128t97.5 44zM308 292q3 -6 8.5 -18.5t8 -17.5t7.5 -13t9.5 -11.5t11 -6t14.5 -2.5 q39 0 39 68q0 69 -39 69q-7 0 -12.5 -1.5t-10.5 -5.5t-8 -7t-7.5 -10.5t-6.5 -12t-7 -15.5t-7 -16zM225 292q-2 5 -6 13t-5.5 12t-5 10.5t-5.5 9.5t-5.5 8t-6.5 7t-7 4t-8.5 3t-9.5 1q-39 0 -39 -69q0 -68 39 -68q7 0 12.5 1.5t10 5.5t8 7.5t7.5 11t6.5 12t7 15t7.5 16.5z " />
<glyph unicode="&#x222b;" d="M446 762q-54 5 -74 5q-40 0 -54 -19t-14 -66l30 -730q0 -103 -33 -144t-127 -41l-95 10l1 96q54 -4 75 -4q39 0 54 19.5t15 63.5l-30 730q0 108 31.5 147t127.5 39l96 -10z" />
<glyph unicode="&#x2248;" d="M462 459l7 -103q-6 -6 -15.5 -14.5t-39 -23t-57.5 -14.5q-29 0 -96 23t-86 23q-20 0 -46.5 -11t-42.5 -21l-16 -11l-10 103q6 6 17 15t43 23.5t61 14.5q28 0 93 -23t88 -23q17 0 42 10.5t42 20.5zM462 252l7 -103q-6 -6 -15.5 -14.5t-39 -23t-57.5 -14.5q-29 0 -96 23 t-86 23q-20 0 -46.5 -10.5t-42.5 -21.5l-16 -11l-10 103q6 6 17 15t43 23.5t61 14.5q28 0 93 -23t88 -23q17 0 42 10.5t42 21.5z" />
<glyph unicode="&#x2260;" d="M55 319v107h225l66 149l85 -36l-51 -113h99v-107h-144l-43 -95h187v-106h-233l-66 -149l-85 36l50 113h-90v106h136l42 95h-178z" />
<glyph unicode="&#x2264;" d="M449 429l-272 -74l272 -79v-115l-379 120v144l379 119v-115zM70 16v108h379v-108h-379z" />
<glyph unicode="&#x2265;" d="M360 355l-280 74v115l387 -119v-144l-387 -120v115zM80 16v108h387v-108h-387z" />
<glyph unicode="&#x25ca;" d="M491 333l-162 -333h-114l-167 333l166 327h114zM375 333l-103 221l-108 -221l108 -226z" />
<glyph unicode="&#x25fc;" horiz-adv-x="500" d="M0 500h500v-500h-500v500z" />
<glyph horiz-adv-x="235" />
<glyph d="M452 651l-4 -33q-72 18 -156 18q-102 0 -155 -66t-53 -218q0 2 28 15.5t76 28t87 14.5q209 0 209 -202q0 -217 -214 -217q-115 0 -169.5 87t-54.5 259q0 180 63.5 256.5t182.5 76.5q37 0 77 -5t61 -9zM273 376q-41 -1 -88.5 -16t-74.5 -29l-27 -14q2 -146 46 -219 t141 -73q95 0 135.5 45t40.5 138q0 81 -39 124.5t-134 43.5z" />
<glyph d="M74 12l6 32q82 -19 166 -19q101 0 151 67.5t50 221.5q0 -2 -28 -15.5t-76 -28t-87 -14.5q-106 0 -157.5 53t-51.5 144q0 103 55 160t163 57q113 0 166 -86.5t53 -259.5q0 -181 -60 -257t-178 -76q-37 0 -80 5t-68 10zM258 290q41 1 88.5 16t74.5 29l27 14 q-5 287 -183 287q-180 0 -180 -183q0 -74 42 -118.5t131 -44.5z" />
<glyph horiz-adv-x="0" />
<glyph horiz-adv-x="944" d="M328 -9q-80 0 -133 22t-82.5 69.5t-41 110t-11.5 154.5q0 184 58 273t210 89q108 0 147 -9h409v-36h-373v-286h313v-36h-313v-306h373v-36h-407v-1q-35 -8 -149 -8zM328 25q106 0 147 9v629q-39 12 -147 12q-70 0 -116 -21t-70.5 -65.5t-34 -101t-9.5 -140.5 q0 -85 9 -140t33.5 -98.5t70.5 -63.5t117 -20zM476 663h-1l1 -332v332z" />
<glyph horiz-adv-x="700" d="M303 694q78 0 115.5 -39t37.5 -106q0 -72 -38 -112.5t-127 -69.5l187 -185q20 58 31 146h35q-14 -109 -39 -172l140 -137l-24 -26l-131 130q-66 -132 -222 -132q-126 0 -178 55t-52 162q0 89 38 132.5t125 68.5q-32 35 -41.5 65t-9.5 76q0 65 39 104.5t114 39.5zM270 24 q137 0 194 124l-237 235q-86 -23 -120 -60t-34 -114q0 -93 46 -139t151 -46zM185 550q0 -78 45 -123l36 -36q87 30 121 63t34 96q0 112 -118 112t-118 -112z" />
<glyph horiz-adv-x="570" d="M463 668v-32q-87 12 -120 12q-54 0 -78 -30.5t-24 -116.5v-95h182v-32h-182v-340h174l82 16l7 -32l-81 -17l-309 -1v34h92v340h-69v32h69v95q0 104 32.5 141.5t104.5 37.5q17 0 47 -3t52 -6z" />
<glyph horiz-adv-x="593" d="M68 427h64q10 128 64 189t182 61q42 0 86 -4.5t66 -9.5l23 -5l-3 -35q-91 20 -172 20q-111 0 -155.5 -52t-52.5 -164l311 -1v-33h-313q-1 -20 -1 -62q0 -36 1 -52l313 -1v-33h-312q8 -115 52.5 -167.5t156.5 -52.5q32 0 75 5t70 10l27 5l3 -34q-96 -20 -175 -20 q-128 0 -182.5 61t-63.5 193h-64v34h62q-1 16 -1 52q0 42 1 62h-62v34z" />
<glyph horiz-adv-x="833" d="M582 14l-35 -14l-301 687l35 14z" />
<glyph horiz-adv-x="520" d="M27 -34h428v-34h-428v34z" />
<glyph horiz-adv-x="615" d="M358 257h-219v-257h-36v700h255q106 0 156.5 -50t50.5 -161q0 -112 -47 -172t-160 -60zM139 291h219q169 0 169 198q0 92 -41.5 134.5t-127.5 42.5h-219v-375z" />
<glyph d="M3 334v36h336v-36h-336zM151 483v80h40v-80h-40zM151 139v80h40v-80h-40z" />
<glyph horiz-adv-x="410" d="M-49 234v34h232v232h36v-232h234v-34h-234v-234h-36v234h-232z" />
<glyph horiz-adv-x="440" d="M60 264v34h320v-34h-320z" />
<glyph d="M410 520l-315 -206l315 -217v-41q-313 213 -347 238v36l347 229v-39z" />
<glyph d="M1 343v34h505v-34h-505zM2 174v34h505v-34h-505z" />
<glyph d="M378 314l-315 206v39l347 -229v-36l-347 -238v41z" />
<glyph d="M46 12l277 690l33 -14l-277 -689z" />
<glyph horiz-adv-x="876" d="M618 23q31 0 76.5 2t75.5 5l30 2l2 -32q-112 -9 -185 -9q-131 1 -169 107q-18 -56 -61 -81.5t-122 -25.5q-122 0 -163.5 58t-41.5 212q0 138 46.5 193t158.5 55q146 0 184 -120q44 120 182 120q95 0 142.5 -57t47.5 -183v-33h-355q0 -108 34 -160.5t118 -52.5zM265 23 q54 0 87.5 13.5t50 46t21.5 71.5t5 105q0 118 -39.5 168t-124.5 50q-97 0 -132.5 -45.5t-35.5 -170.5q0 -70 5.5 -110.5t23.5 -72t51 -43.5t88 -12zM466 268h318q0 113 -36.5 161t-116.5 48q-165 0 -165 -209z" />
<glyph horiz-adv-x="898" d="M429 0v215h-276l-78 -215h-40l251 700h552v-34h-373v-288h313v-34h-313v-310h373v-34h-409zM314 666l-149 -417h264v417h-115z" />
<glyph horiz-adv-x="656" d="M89 -98l60 129q-57 38 -80 115t-23 201q0 184 58 273t210 89q82 0 140 -28l52 111l33 -14l-55 -116q54 -42 76 -119t22 -196q0 -191 -56.5 -273.5t-211.5 -82.5q-79 0 -134 23l-58 -125zM84 347q0 -112 17.5 -180t63.5 -103l273 584q-48 27 -124 27q-70 0 -116 -21 t-70.5 -65.5t-34 -101t-9.5 -140.5zM314 25q72 0 117.5 18.5t70 61t33.5 98.5t9 144q0 210 -76 280l-273 -581q47 -21 119 -21z" />
<glyph horiz-adv-x="833" d="M249 0h-36v532q0 104 31.5 141t121.5 37q103 0 146.5 -32t43.5 -103q0 -43 -15 -65t-49 -35q-8 -3 -17 -6.5t-14 -5.5t-11.5 -4.5t-9.5 -4t-6.5 -4t-5 -4t-3 -4.5t-2 -5.5t-0.5 -6.5q0 -10 11 -18.5t73 -45.5q14 -8 33 -19.5t28.5 -17.5t22.5 -14t19 -13t13.5 -12 t10.5 -12.5t5 -12t2 -14.5q0 -71 -9 -116t-34.5 -79.5t-72.5 -49.5t-122 -15l-78 4l4 34q57 -4 74 -4q67 0 108 13t61 45t25.5 68t5.5 100q0 12 -26.5 31t-94.5 58q-67 38 -82 52t-15 38q0 15 3 24.5t12 16.5t15.5 10.5t25.5 10.5t31 12q32 14 39 25t7 46q0 56 -34.5 78.5 t-117.5 22.5q-72 0 -94.5 -29.5t-22.5 -127.5v-519z" />
<glyph horiz-adv-x="828" d="M570 23q31 0 76.5 2t75.5 5l30 2l2 -32q-112 -9 -185 -9q-99 1 -143 58l-38 -16q-93 -42 -206 -42q-127 0 -127 146q0 70 31 101t107 43l190 20v52q0 122 -111 122q-33 0 -80 -2.5t-78 -4.5l-30 -2l-2 33q110 10 190 10q115 0 139 -96q49 96 172 96q95 0 142.5 -57 t47.5 -183v-33h-355q0 -108 34 -160.5t118 -52.5zM183 23q42 0 97 12t84.5 22t46.5 17q-30 59 -30 176v18l-184 -18q-55 -5 -80 -32t-25 -81q0 -55 24 -84.5t67 -29.5zM418 268h318q0 113 -36.5 161t-116.5 48q-165 0 -165 -209z" />
<glyph d="M262 509q52 0 91.5 -11.5t73.5 -39.5t52.5 -81.5t18.5 -131.5q0 -70 -20 -121t-54.5 -79t-74.5 -41t-86 -13q-44 0 -83.5 12.5t-75 40.5t-56 79.5t-20.5 121.5q0 141 66.5 202.5t167.5 61.5zM264 406q-117 0 -117 -161q0 -151 117 -151q60 0 87 36.5t27 114.5 q0 81 -27.5 121t-86.5 40z" />
<glyph d="M86 377l193 123h105v-500h-113v370l-132 -83z" />
<glyph d="M474 0h-398v100l116 99q135 112 135 151q0 30 -18.5 41.5t-71.5 11.5q-30 0 -68 -4t-62 -8t-24 -5l-7 98q100 25 187 25q191 0 191 -152q0 -50 -23.5 -85.5t-72.5 -75.5l-111 -91h227v-105z" />
<glyph d="M97 487q105 23 184 23q200 0 200 -138q0 -40 -26 -68.5t-54 -35.5q41 -10 67 -40t26 -74q0 -77 -50.5 -120t-151.5 -43q-40 0 -91 5.5t-81 11.5l-31 5l11 95q111 -12 181 -12q52 0 77.5 12.5t25.5 42.5q0 52 -96 54h-127v98h126q40 1 62 12t22 41q0 28 -21.5 38.5 t-68.5 10.5q-34 0 -77.5 -3.5t-69.5 -6.5l-27 -3z" />
<glyph d="M301 -55v121h-268v91l160 343h121l-152 -330h139v136h112v-136h61v-104h-61v-121h-112z" />
<glyph d="M98 503h370v-107h-270l-15 -98q41 23 99 23q98 0 152.5 -40.5t54.5 -117.5q0 -80 -55.5 -126t-152.5 -46q-37 0 -90.5 7.5t-88.5 14.5l-36 7l12 100q128 -30 200 -30q99 0 99 67t-101 67q-28 0 -56 -7.5t-42 -14.5l-15 -8l-86 19z" />
<glyph d="M468 492l-10 -98q-92 15 -167 15q-69 0 -102.5 -28t-34.5 -95q0 1 18 8.5t51 15t62 7.5q207 0 207 -160q0 -76 -59 -121.5t-162 -45.5q-108 0 -168.5 68t-60.5 177q0 278 249 278q32 0 76.5 -5.5t72.5 -10.5zM276 226q-28 0 -58.5 -7t-47.5 -14l-17 -7q1 -53 32 -83.5 t86 -30.5q108 0 108 73q0 69 -103 69z" />
<glyph d="M37 395v106h382v-131l-213 -391l-102 41l200 351v24h-267z" />
<glyph d="M259 509q96 0 156.5 -37.5t60.5 -101.5q0 -63 -81 -106q90 -48 90 -124q0 -78 -62 -114t-164 -36q-98 0 -161 38t-63 110q0 76 89 126q-79 44 -79 107q0 64 58.5 101t155.5 37zM259 93q106 0 106 59q0 48 -62 59h-88q-60 -10 -60 -60q0 -58 104 -58zM259 413 q-94 0 -94 -51q0 -20 10.5 -32.5t39.5 -22.5h88q53 16 53 55q0 51 -97 51z" />
<glyph d="M64 11l10 99q82 -16 165 -16q69 0 100 27t31 95q-55 -32 -125 -32q-98 0 -148.5 42t-50.5 120t55 121.5t157 43.5q108 0 166.5 -65t58.5 -177q0 -146 -61 -212.5t-183 -66.5q-35 0 -79 5t-70 11zM255 274q27 0 56 7.5t45 14.5l15 8q-2 112 -113 112q-99 0 -99 -70 q0 -72 96 -72z" />
<glyph d="M242 -59v759h35v-759h-35z" />
<glyph horiz-adv-x="437" d="M186 -86v127q-92 5 -133 49t-41 157q0 195 174 212v132h35v-130l116 -11l-2 -35q-75 9 -114 10v-348l116 8l2 -35q-79 -9 -118 -9v-127h-35zM52 247q0 -95 29 -130t105 -39v345q-67 -7 -100.5 -49t-33.5 -127z" />
<glyph d="M61 340v34h247l72 163l35 -14l-66 -149h137v-34h-152l-66 -151h219v-34h-234l-72 -165l-35 14l66 151h-150v34h165l66 151h-232z" />
<glyph horiz-adv-x="540" d="M47 331v34h171l-193 295h41l205 -309l202 309h42l-191 -295h168v-34h-190l-13 -20v-95h204v-34h-204v-182h-36v182h-205v34h205v95l-13 20h-193z" />
<glyph d="M90 -250v750h35v-258q0 -132 24 -175.5t105 -43.5q40 0 81 12.5t62 24.5l21 13v427h35v-500h-35v40q-9 -5 -24 -13.5t-58.5 -22t-81.5 -13.5q-94 0 -129 51v-292h-35z" />
<glyph d="M289 352v-418q0 -97 -31.5 -138t-95.5 -41l-92 3l2 33q62 -3 90 -3q46 0 69 33.5t23 112.5v418h-69v32h69v111q0 178 127 178l93 -3l-2 -32q-61 2 -91 2q-92 0 -92 -146v-110h162v-32h-162z" />
<glyph horiz-adv-x="170" d="M-6 -123l42 210h40l-51 -210h-31z" />
<glyph horiz-adv-x="248" d="M98 0v80h40v-80h-40z" />
<glyph horiz-adv-x="170" d="M4 527l40 200h38l-48 -200h-30z" />
<glyph horiz-adv-x="833" d="M518 0v667h-172v-667h-36v350h-7q-79 0 -132.5 48.5t-53.5 125.5t53.5 126.5t132.5 49.5h348v-33h-97v-667h-36z" />
<glyph horiz-adv-x="285" d="M135 454l7 116q0 72 -30.5 106.5t-112.5 38.5l2 32q95 -4 135.5 -45.5t40.5 -131.5q0 -21 -3.5 -66.5t-3.5 -56.5q0 -49 23.5 -75.5t80.5 -42.5v-32q-57 -14 -80.5 -42t-23.5 -78q0 -13 3.5 -60.5t3.5 -67.5q0 -90 -40.5 -131.5t-135.5 -45.5l-2 32q82 4 112.5 38.5 t30.5 106.5q0 17 -3.5 61t-3.5 58q0 65 22 95.5t78 48.5q-56 18 -78 49t-22 93z" />
<glyph horiz-adv-x="170" d="M56 727l-40 -200h-38l48 200h30z" />
<glyph d="M59 390v107h147v180h108v-180h148v-107h-148v-463h-108v463h-147z" />
<glyph d="M391 313l-124 239l-124 -239h-115l181 347h114l184 -347h-116z" />
<glyph d="M141 947l241 -93l-34 -92l-244 82z" />
<glyph horiz-adv-x="546" d="M104 862l241 93l37 -103l-244 -82z" />
<glyph horiz-adv-x="476" d="M36 791l132 143h100l132 -143h-124l-57 56l-56 -56h-127z" />
<glyph horiz-adv-x="476" d="M400 931l-132 -142h-98l-134 142h126l57 -59l57 59h124z" />
<glyph horiz-adv-x="470" d="M394 933l24 -83q-6 -7 -16 -17t-37 -27t-48 -17q-27 0 -89.5 24.5t-76.5 24.5q-12 0 -32 -11t-34 -22l-14 -11l-25 83q6 7 16.5 17.5t38 27.5t48.5 17q32 0 93 -24t72 -24t31 10.5t35 20.5z" />
<glyph horiz-adv-x="422" d="M75 805v114h105v-114h-105zM291 805v114h104v-114h-104z" />
<glyph horiz-adv-x="476" d="M67 809v95h332v-95h-332z" />
<glyph horiz-adv-x="476" d="M47 928h113q3 -23 19.5 -37t41.5 -14q27 0 43.5 14t18.5 37h113q-5 -64 -50 -103.5t-125 -39.5q-79 0 -123.5 39.5t-50.5 103.5z" />
<glyph horiz-adv-x="346" d="M296 746q0 -55 -39 -86t-98 -31t-97.5 31t-38.5 86t38.5 86.5t97.5 31.5t98 -31.5t39 -86.5zM108 746q0 -19 14 -29.5t37 -10.5q24 0 38 10.5t14 29.5t-14 29.5t-38 10.5q-23 0 -37 -10.5t-14 -29.5z" />
<glyph horiz-adv-x="715" d="M348 786l98 170l99 -41l-107 -165zM137 787l98 170l98 -41l-106 -165z" />
<glyph horiz-adv-x="255" d="M73 778v115h109v-115h-109z" />
<glyph d="M265 671q47 0 87 -12l56 140l77 -27l-62 -153q88 -80 88 -296q0 -184 -63 -259t-183 -75q-50 0 -92 12l-49 -122l-74 25l54 136q-85 76 -85 283q0 190 63 269t183 79zM390 323q0 111 -19 167l-158 -389q19 -9 53 -9q66 0 95 50t29 181zM265 568q-67 0 -96.5 -54.5 t-29.5 -190.5q0 -102 17 -153l156 390q-17 8 -47 8z" />
<glyph d="M265 671q120 0 183 -79t63 -269q0 -184 -63 -259t-183 -75q-59 0 -102 16t-76.5 53.5t-50.5 103.5t-17 161q0 190 63 269t183 79zM265 568q-67 0 -96.5 -54.5t-29.5 -190.5q0 -100 18 -154l-46 -115l74 -25l29 72q19 -9 52 -9q66 0 95 50t29 181q0 109 -19 165l44 107 l-77 27l-25 -62q-22 8 -48 8zM371 488q-18 56 -58 72l-156 -391q18 -53 57 -68z" />
<glyph horiz-adv-x="165" d="M131 692v-249h-106v249h106z" />
<glyph horiz-adv-x="170" d="M7 -300l44 223h106l-53 -223h-97z" />
<glyph horiz-adv-x="170" d="M157 808l-44 -223h-106l52 223h98z" />
<glyph horiz-adv-x="170" d="M7 -300l44 223h106l-53 -223h-97z" />
<glyph horiz-adv-x="170" d="M157 808l-44 -223h-106l52 223h98z" />
<glyph horiz-adv-x="325" d="M232 201q0 -15 -3.5 -57t-3.5 -60q0 -41 18 -58t71 -21l-1 -107q-108 4 -157 44.5t-49 129.5q0 21 3.5 65.5t3.5 55.5q0 40 -20.5 64t-75.5 39v92q55 14 75.5 36t20.5 62q0 13 -3.5 60t-3.5 67q0 93 48 132t158 43l1 -107q-54 -4 -71.5 -19.5t-17.5 -56.5q0 -17 3.5 -64 t3.5 -61q0 -60 -22 -89.5t-78 -47.5q55 -18 77.5 -50t22.5 -92z" />
<glyph horiz-adv-x="386" d="M11 176q0 47 26 92.5t56.5 74t56.5 60t26 55.5v38h111q6 -41 6 -56q0 -35 -25.5 -72.5t-55.5 -64t-55.5 -58t-25.5 -55.5q0 -48 20 -67.5t81 -19.5q22 0 59.5 4.5t63.5 8.5l26 5l13 -98q-113 -35 -174 -35q-109 0 -159 43t-50 145zM293 701v-137h-118v137h118z" />
<glyph horiz-adv-x="325" d="M91 482q0 15 3.5 57t3.5 60q0 41 -18 58t-71 21l1 107q108 -4 157 -44.5t49 -129.5q0 -21 -3.5 -65.5t-3.5 -55.5q0 -40 20.5 -64t75.5 -39v-92q-55 -14 -75.5 -36t-20.5 -62q0 -13 3.5 -60t3.5 -67q0 -93 -48 -132t-158 -43l-1 107q54 4 71.5 19.5t17.5 56.5 q0 17 -3.5 64t-3.5 61q0 60 22 89.5t78 47.5q-55 18 -77.5 50t-22.5 92z" />
<glyph horiz-adv-x="300" d="M30 672v107h235l-1 -872h-234v107h123v658h-123z" />
<glyph horiz-adv-x="260" d="M129 -90h-118q11 29 26.5 77.5t42 168t26.5 203.5q0 83 -23.5 189.5t-47.5 171.5l-24 65h118q11 -25 27 -68t43 -156t27 -202t-24 -201t-48 -180z" />
<glyph horiz-adv-x="260" d="M115 780h118q-11 -29 -26.5 -77.5t-42 -168t-26.5 -203.5q0 -83 24 -189.5t48 -171.5l23 -65h-118q-11 25 -27 68t-43 156t-27 202t24 201t48 180z" />
<glyph horiz-adv-x="300" d="M268 779v-107h-123v-658h123v-107h-234l-1 872h235z" />
<glyph horiz-adv-x="500" d="M0 353h500v-100h-500v100z" />
<glyph horiz-adv-x="1000" d="M0 353h1000v-100h-1000v100z" />
<glyph horiz-adv-x="985" d="M940 390v-17q0 -169 -45.5 -233.5t-140.5 -64.5q-90 0 -124 48q-94 -47 -161 -47q-88 0 -135 55.5t-47 195.5q0 134 42 200.5t153 66.5q16 0 42 -6t44 -12l17 -5v14h109v-200q0 -95 6 -138.5t17 -55t37 -11.5q28 0 42.5 12.5t23.5 55.5t9 125v18q0 169 -76 241.5 t-249 72.5q-175 0 -262 -88.5t-87 -270.5q0 -198 80 -279.5t269 -81.5l143 9l4 -106q-99 -10 -147 -10q-115 0 -197 22.5t-142.5 75.5t-90 144.5t-29.5 225.5q0 235 120.5 350t338.5 115q436 0 436 -421zM477 183q45 0 116 26q-8 45 -8 131v136q-51 15 -80 15 q-65 0 -86.5 -35t-21.5 -130q0 -81 21 -112t59 -31z" />
<glyph horiz-adv-x="248" d="M58 260v144h118v-144h-118z" />
<glyph horiz-adv-x="265" d="M134 322q63 0 94 -38t31 -129q0 -92 -31 -129t-94 -37t-94 37t-31 129t30.5 129.5t94.5 37.5zM134 243q-18 0 -25.5 -18t-7.5 -70t7.5 -69t25.5 -17t25.5 16.5t7.5 69.5q0 52 -7 70t-26 18z" />
<glyph horiz-adv-x="265" d="M22 239l104 73h81v-312h-89v214l-55 -38z" />
<glyph horiz-adv-x="265" d="M239 0h-222v76l80 70q48 42 48 68q0 23 -42 23l-80 -7l-3 82q67 10 111 10q58 0 82.5 -22.5t24.5 -73.5q0 -58 -59 -105l-47 -41h107v-80z" />
<glyph horiz-adv-x="265" d="M26 313q64 9 106 9q114 0 114 -86q0 -53 -33 -72q40 -15 40 -75q0 -100 -113 -100q-22 0 -51.5 2t-48.5 5l-18 2l5 78q60 -7 97 -7t37 27q0 25 -34 25h-66v73h64q12 0 20 7t8 19q0 23 -35 23l-87 -6z" />
<glyph horiz-adv-x="265" d="M147 0v40h-135v74l51 198h98l-60 -192h46l11 89h77v-89h18v-80h-18v-40h-88z" />
<glyph horiz-adv-x="265" d="M40 312h199v-76h-128l-4 -45q26 10 49 10q94 0 94 -99q0 -110 -114 -110q-22 0 -50.5 3.5t-45.5 6.5l-17 4l7 72q55 -9 93 -9q35 0 35 29q0 28 -25 28q-8 0 -17 -2t-14 -4l-6 -3l-66 9z" />
<glyph horiz-adv-x="265" d="M244 311l-5 -73q-60 6 -90 6q-45 0 -45 -45l8 1q7 2 18.5 4.5t20.5 2.5q103 0 103 -104q0 -53 -32 -83.5t-83 -30.5q-126 0 -126 158q0 89 30.5 132t102.5 43q16 0 40.5 -3t41.5 -5zM136 134q-8 0 -16 -3t-12 -5l-4 -3q0 -56 31 -56q30 0 30 35q0 32 -29 32z" />
<glyph horiz-adv-x="265" d="M23 225v87h219v-91l-99 -231l-100 17l96 202v16h-116z" />
<glyph horiz-adv-x="265" d="M133 322q120 0 120 -88q0 -29 -11.5 -48.5t-22.5 -23.5q12 -4 25 -21t13 -49q0 -56 -31 -79.5t-93 -23.5t-93.5 23t-31.5 78q0 31 14 49.5t26 23.5q-7 3 -14 9.5t-14 23.5t-7 39q0 87 120 87zM133 62q33 0 33 31q0 23 -24 34h-19q-23 -11 -23 -35q0 -30 33 -30zM133 250 q-31 0 -31 -26q0 -22 21 -33h19q22 11 22 33q0 26 -31 26z" />
<glyph horiz-adv-x="265" d="M24 2l5 73q48 -6 85 -6q46 0 46 43l-6 -2q-7 -1 -18.5 -3t-21.5 -2q-49 0 -75.5 27t-26.5 77q0 54 31.5 83.5t84.5 29.5q126 0 126 -165q0 -87 -30 -127.5t-98 -40.5q-20 0 -45.5 3.5t-40.5 6.5zM130 175q6 0 14.5 2.5t13.5 4.5l6 3q-2 59 -33 59q-29 0 -29 -35 q0 -15 8 -24.5t20 -9.5z" />
<glyph horiz-adv-x="265" d="M134 700q63 0 94 -38t31 -129q0 -92 -31 -129t-94 -37t-94 37t-31 129t30.5 129.5t94.5 37.5zM134 621q-18 0 -25.5 -18t-7.5 -70t7.5 -69t25.5 -17t25.5 16.5t7.5 69.5q0 52 -7 70t-26 18z" />
<glyph horiz-adv-x="265" d="M14 617l104 73h81v-312h-89v214l-55 -38z" />
<glyph horiz-adv-x="265" d="M239 378h-222v76l80 70q48 42 48 68q0 23 -42 23l-80 -7l-3 82q67 10 111 10q58 0 82.5 -22.5t24.5 -73.5q0 -58 -59 -105l-47 -41h107v-80z" />
<glyph horiz-adv-x="265" d="M26 691q64 9 106 9q114 0 114 -86q0 -53 -33 -72q40 -15 40 -75q0 -100 -113 -100q-22 0 -51.5 2.5t-48.5 4.5l-18 2l5 78q60 -7 97 -7t37 27q0 25 -34 25h-66v73h64q12 0 20 7t8 19q0 23 -35 23l-87 -6z" />
<glyph horiz-adv-x="265" d="M147 378v40h-135v74l51 198h98l-60 -192h46l11 89h77v-89h18v-80h-18v-40h-88z" />
<glyph horiz-adv-x="265" d="M40 690h199v-76h-128l-4 -45q26 10 49 10q94 0 94 -99q0 -110 -114 -110q-22 0 -50.5 3.5t-45.5 6.5l-17 4l7 72q55 -9 93 -9q35 0 35 29q0 28 -25 28q-8 0 -17 -2t-14 -4l-6 -3l-66 9z" />
<glyph horiz-adv-x="265" d="M244 689l-5 -73q-60 6 -90 6q-45 0 -45 -45l8 1q7 2 18.5 4.5t20.5 2.5q103 0 103 -104q0 -53 -32 -83.5t-83 -30.5q-126 0 -126 158q0 89 30.5 132t102.5 43q16 0 40.5 -3t41.5 -5zM136 512q-8 0 -16 -3t-12 -5l-4 -3q0 -56 31 -56q30 0 30 35q0 32 -29 32z" />
<glyph horiz-adv-x="265" d="M23 603v87h219v-91l-99 -231l-100 17l96 202v16h-116z" />
<glyph horiz-adv-x="265" d="M133 700q120 0 120 -88q0 -29 -11.5 -48.5t-22.5 -23.5q12 -4 25 -21t13 -49q0 -56 -31 -79.5t-93 -23.5t-93.5 23t-31.5 78q0 31 14 49.5t26 23.5q-7 3 -14 9.5t-14 23.5t-7 39q0 87 120 87zM133 440q33 0 33 31q0 23 -24 34h-19q-23 -11 -23 -35q0 -30 33 -30zM133 628 q-31 0 -31 -26q0 -22 21 -33h19q22 11 22 33q0 26 -31 26z" />
<glyph horiz-adv-x="265" d="M24 380l5 73q48 -6 85 -6q46 0 46 43l-6 -2q-7 -1 -18.5 -3t-21.5 -2q-49 0 -75.5 27t-26.5 77q0 54 31.5 83.5t84.5 29.5q126 0 126 -165q0 -87 -30 -127.5t-98 -40.5q-20 0 -45.5 3.5t-40.5 6.5zM130 553q6 0 14.5 2.5t13.5 4.5l6 3q-2 59 -33 59q-29 0 -29 -35 q0 -15 8 -24.5t20 -9.5z" />
<glyph horiz-adv-x="463" d="M295 549v-144h-118v144h118zM293 301l3 -452h-119l3 452h113z" />
<glyph horiz-adv-x="440" d="M70 226v103h300v-103h-300z" />
<glyph d="M141 947l241 -93l-34 -92l-244 82z" />
<glyph horiz-adv-x="546" d="M104 862l241 93l37 -103l-244 -82z" />
<glyph horiz-adv-x="476" d="M36 791l132 143h100l132 -143h-124l-57 56l-56 -56h-127z" />
<glyph horiz-adv-x="476" d="M400 931l-132 -142h-98l-134 142h126l57 -59l57 59h124z" />
<glyph horiz-adv-x="470" d="M394 933l24 -83q-6 -7 -16 -17t-37 -27t-48 -17q-27 0 -89.5 24.5t-76.5 24.5q-12 0 -32 -11t-34 -22l-14 -11l-25 83q6 7 16.5 17.5t38 27.5t48.5 17q32 0 93 -24t72 -24t31 10.5t35 20.5z" />
<glyph horiz-adv-x="422" d="M75 805v114h105v-114h-105zM291 805v114h104v-114h-104z" />
<glyph horiz-adv-x="476" d="M67 809v95h332v-95h-332z" />
<glyph horiz-adv-x="476" d="M47 928h113q3 -23 19.5 -37t41.5 -14q27 0 43.5 14t18.5 37h113q-5 -64 -50 -103.5t-125 -39.5q-79 0 -123.5 39.5t-50.5 103.5z" />
<glyph horiz-adv-x="346" d="M296 746q0 -55 -39 -86t-98 -31t-97.5 31t-38.5 86t38.5 86.5t97.5 31.5t98 -31.5t39 -86.5zM108 746q0 -19 14 -29.5t37 -10.5q24 0 38 10.5t14 29.5t-14 29.5t-38 10.5q-23 0 -37 -10.5t-14 -29.5z" />
<glyph horiz-adv-x="715" d="M348 786l98 170l99 -41l-107 -165zM137 787l98 170l98 -41l-106 -165z" />
<glyph horiz-adv-x="255" d="M73 778v115h109v-115h-109z" />
</font>
</defs>
</svg>
