<?xml version="1.0" encoding="utf-8"?>
<!-- Generator: Adobe Illustrator 17.1.0, SVG Export Plug-In . SVG Version: 6.00 Build 0)  -->
<!DOCTYPE svg PUBLIC "-//W3C//DTD SVG 1.1//EN" "http://www.w3.org/Graphics/SVG/1.1/DTD/svg11.dtd">
<svg version="1.1" id="Layer_1" xmlns="http://www.w3.org/2000/svg" xmlns:xlink="http://www.w3.org/1999/xlink" x="0px" y="0px"
	 viewBox="0 0 26 26" enable-background="new 0 0 26 26" xml:space="preserve">
<g>
	<circle fill="#029795" cx="12.6" cy="12.9" r="11.9"/>
	<g>
		<g>
			<g>
				<g>
					<path fill="#22A4A2" d="M0,12.9c0.1,0,0.3,0,0.3-0.1l-0.4-0.1L0,12.9z"/>
					<path fill="#22A4A2" d="M0.7,12.2c-0.2-0.1-0.5-0.3-0.8-0.3c0.4,0.2,0.2,0.2,0.6,0.3c0,0.1-0.1,0.2-0.3,0.2
						c0.1,0-0.1,0.2,0.1,0.2c0.3-0.1,0.3-0.3,0.1-0.5C0.5,12.1,0.6,12.2,0.7,12.2z"/>
					<path fill="#22A4A2" d="M6,3.7L6,3.7C6,3.7,6,3.7,6,3.7z"/>
					<path fill="#22A4A2" d="M11.9,1.8C11.9,1.8,11.8,1.8,11.9,1.8C11.9,1.9,11.9,1.8,11.9,1.8z"/>
					<path fill="#22A4A2" d="M12.9,2.2C12.9,2.2,12.9,2.2,12.9,2.2C12.9,2.2,12.9,2.2,12.9,2.2z"/>
					<path fill="#22A4A2" d="M6,3.7l0.2,0C6.2,3.6,6.1,3.6,6,3.7z"/>
					<path fill="#22A4A2" d="M0,10.6c0,0,0,0.1,0.1,0.1C0.1,10.7,0.1,10.6,0,10.6L0,10.6z"/>
					<path fill="#22A4A2" d="M4.2,5.7L4.2,5.7c0,0.1,0,0.1,0.1,0.2L4.2,5.7z"/>
					<path fill="#22A4A2" d="M3.1,7.4c0,0-0.2-0.2-0.3-0.3c0.1,0.1,0.1,0.2,0.1,0.2C2.9,7.4,3,7.4,3.1,7.4z"/>
					<path fill="#22A4A2" d="M1.4,10.3L1.4,10.3C1.4,10.4,1.4,10.4,1.4,10.3z"/>
					<path fill="#22A4A2" d="M5.3,4.7C5.4,4.8,5.4,4.8,5.3,4.7C5.4,4.8,5.4,4.7,5.3,4.7z"/>
					<path fill="#22A4A2" d="M-0.5,15.8C-0.4,15.8-0.4,15.8-0.5,15.8C-0.4,15.8-0.5,15.8-0.5,15.8z"/>
					<polygon fill="#22A4A2" points="0.8,12.9 0.8,13 1,13 					"/>
					<path fill="#22A4A2" d="M14.7,2.8L14.7,2.8C14.6,2.8,14.7,2.8,14.7,2.8z"/>
					<path fill="#22A4A2" d="M23,15.2c0.3-0.1,0.3,0.4,0.7,0.2C23.5,15.3,23.2,15,23,15.2z"/>
					<path fill="#22A4A2" d="M0,10.5C0,10.5,0,10.5,0,10.5C0,10.5,0,10.5,0,10.5z"/>
					<path fill="#22A4A2" d="M23.6,15.3L23.6,15.3L23.6,15.3C23.7,15.3,23.7,15.3,23.6,15.3z"/>
					<path fill="#22A4A2" d="M18.6,4.2c0-0.1,0-0.1,0-0.1C18.6,4.1,18.6,4.1,18.6,4.2z"/>
					<path fill="#22A4A2" d="M15.9,2.4L15.9,2.4C15.9,2.5,15.9,2.4,15.9,2.4z"/>
					<path fill="#22A4A2" d="M20.1,4.9C20.2,5,20.1,5,20.1,4.9C20.2,5,20.2,5,20.1,4.9C20.2,5,20.1,5,20.1,4.9z"/>
					<polygon fill="#22A4A2" points="21.3,6.2 21.4,6.1 21.3,6.1 					"/>
					<path fill="#22A4A2" d="M2.5,21.5c0-0.1,0.1-0.2,0.2-0.3C2.5,21.4,2.3,21.2,2.5,21.5z"/>
					<path fill="#22A4A2" d="M0.2,10.6c-0.1,0-0.1-0.1-0.1-0.1c0,0,0,0,0,0.1C0.1,10.6,0.1,10.6,0.2,10.6z"/>
					<path fill="#22A4A2" d="M21.9,3.1l0.2,0.3C22.1,3.3,22,3.2,21.9,3.1z"/>
					<path fill="#22A4A2" d="M16.3,25.6L16.3,25.6C16.3,25.7,16.3,25.7,16.3,25.6z"/>
					<path fill="#22A4A2" d="M22.9,4.1c0,0.1-0.1,0.2,0,0.3c0,0,0.1,0,0.1,0L22.9,4.1z"/>
					<path fill="#22A4A2" d="M2.7,21.2L2.7,21.2L2.7,21.2z"/>
					<path fill="#22A4A2" d="M0.8,19.8c0.2,0.3,0.4-0.1,0.7-0.1C1.8,20,1.3,20,1.2,20.2c0.2,0.2,0.6,0.1,0.7,0.2
						c0,0.1,0,0.1-0.1,0.1c0.4,0,0.5,0.6,1,0.6c0,0,0,0.1-0.1,0.1c0.1-0.2,0.3-0.3,0.4-0.4c0.1,0.1,0.4,0,0.2,0.2c0-0.1-0.1,0-0.2,0
						l0.2,0C3,21.5,3,21.1,2.8,21.3c0.3,0.1,0.7,0.1,0.8,0.4c-0.2,0.3-0.4-0.3-0.5,0.2L3,21.4c-0.3,0.6-0.1-0.2-0.4,0.4
						c0.2,0.4,0.5,0.3,0.7,0.7c0.2-0.1,0.2-0.2,0.4-0.3c0.7,0.1-0.3,1.1,0.4,1c0.3-0.1,0.6-0.5,0.7-0.1l-0.4,0.3
						c0.3,0.3,0.6-0.4,0.8,0.2c-0.2,0.1-0.4-0.1-0.3,0c0,0.5,0.3-0.1,0.5,0.1L5.2,24c0.4,0.2,1,0.2,1.5,0.4
						c-0.1,0.1-0.2,0.2-0.2,0.3c0.3,0.1,0.6,0.2,0.9,0.4c0.3,0.2,0.6,0.4,0.9,0.6l0.3-0.2c0.1,0,0.1,0.2,0,0.2
						c0.2,0.2,0.1-0.2,0.2-0.3c0.1,0,0.1,0.2,0,0.3c0.5-0.2,1.3-0.3,1.7,0.1l-0.1,0.1c0.3,0.2,0.5-0.6,0.8-0.3l-0.1,0
						c0.8,0.2,1.6-0.1,2.2,0.4c0.1-0.5,0.8,0.2,0.8-0.5c0.5,0.3,0.4,0.4,1,0.5c0.2,0,0.2-0.5,0.3-0.6l0.1,0.3l0.2-0.4l0.2,0.4
						l0.2-0.1c-0.1,0-0.2-0.1-0.2-0.2c0.2-0.2,0.8,0,0.8,0.2l0.6-0.5c0,0.1-0.1,0.2-0.1,0.3c0.2-0.5,0.2,0.3,0.4-0.1
						c-0.1-0.1-0.1-0.2-0.1-0.3c0.2,0.1,0.6,0,0.8-0.3l0.1,0.2c0.5-0.2,1-0.6,1.5-1c-0.2,0-0.4-0.4-0.3-0.5l0.3,0.3
						c0-0.2-0.2,0-0.2-0.4c0.2-0.1,0.4,0.3,0.3,0.4l0.1-0.3c0.1,0.1,0.1,0.2,0.1,0.3c0-0.3,0.6,0,0.5-0.4l0.1,0.1
						c0.5-0.4,0.6-0.7,1-1c-0.2-0.2,0-0.3-0.1-0.6c0.3-0.2,0.8-0.3,1-0.6c0.1-0.3-0.2-0.2-0.2-0.5c0.2,0.2,0.5-0.2,0.5,0.1
						c0.3-0.5,0.4-0.5,0.5-1.2c-0.1,0-0.2,0-0.3-0.1c0-0.1,0.2-0.2,0.3-0.1l0,0c0-0.4,0.4-0.7,0.7-0.9c0.3-0.3,0.7-0.6,0.5-1l0,0
						l-0.1-0.7c0.1-0.2,0.1,0.2,0.4,0.1c-0.2-0.8,0.4-1,0.2-1.6c0.5-0.1,0.5-0.5,0.5-0.9c0-0.4,0-0.8,0.2-1.1l-0.2,0
						c-0.2-0.2,0.1-0.2,0.2-0.3c-0.2,0-0.2,0.2-0.3,0.1c-0.2-1.2,0.2-2.5,0.1-3.9c-0.1-0.5-1.1,0-0.8-0.7l0.4,0.1
						c-0.3-0.4-0.5-0.8-0.7-1.3c-0.2-0.4-0.4-0.9-0.8-1.2c0.1,0,0.2,0,0.2,0c0.2-0.3-0.4-0.6-0.5-0.5C23.8,6,24,6,24.1,5.8
						c0-0.3-0.5-0.2-0.4-0.5c0,0,0.1,0,0.1,0c-0.2,0-0.3-0.5-0.5-0.2c-0.1-0.4-0.5-0.4-0.5-0.8c-0.4,0.1-0.3-0.5-0.7-0.3
						c0.4-0.3-0.1-0.7-0.4-0.7c0.2-0.1,0-0.2,0.2-0.3c-0.2-0.2-0.4-0.2-0.6,0c0.1-0.8-1-0.2-0.7-1c-0.4-0.1-0.7-0.2-1.1-0.3
						c-0.3-0.1-0.6-0.2-1-0.3c0.3-0.5,0.6,0.3,0.9-0.2c-0.6-0.2-1.2,0.1-1.7-0.3C17.7,1,17.9,0.9,18,0.9c-0.6-0.1-1.1-0.5-1.7-0.4
						c0,0,0.1-0.1,0.2-0.1c-0.1,0-0.2-0.1-0.3,0.1l0.1,0c0.1,0.4-0.6,0.6-0.7,0.7c0.3-0.6-0.5-0.3,0-1c-0.1,0-0.2,0.1-0.2,0.3
						c-0.1-0.1-0.1-0.2,0-0.3c-0.4,0-0.3,0.3-0.7,0.3c0-0.1,0.1-0.1,0.2-0.3c-0.2,0.2-0.4,0.4-0.7,0.2c0-0.1,0-0.2,0.1-0.1
						c-0.5-0.1-0.9,0.5-1.4,0.3c0.2-0.5-0.2-0.2-0.2-0.6c0,0-0.3,0.1-0.3,0.1l0.1,0.2c-0.3,0-0.5,0.3-0.7,0.2l0.2-0.2l-0.5,0.1
						l0.3,0.1c-0.2,0.2,0.1,0.5-0.3,0.4c0.1,0-0.2,0-0.4-0.2l0,0c-0.1,0.2-0.2,0.3-0.4,0.2c-0.1-0.1,0-0.5-0.1-0.6
						c-0.1,0.4-0.6,0.2-0.7,0.6c0-0.1,0-0.3,0-0.4l0,0.3C9.9,0.8,9.8,0.8,9.8,0.6C9.5,0.6,10,1.1,9.6,1c0,0,0-0.1,0.1-0.1
						c-0.4,0-0.7,0.4-1.1,0.4C8.3,0.8,8.8,1,8.6,0.7C8,1,7.7,1.6,7.1,1.7l0.1,0C7.5,2.3,6.8,1.6,6.6,2c0-0.1-0.1-0.3-0.1-0.3
						C6.2,1.8,6,2.3,5.6,2.7l0-0.2c-0.3,0-0.5,0.3-0.7,0.4c0,0.2-0.1,0.2,0.1,0.4C4.4,3.1,4.2,3.5,4.1,3.8C3.9,4.1,3.8,4.5,3.3,4.4
						c0.1-0.1,0-0.2,0-0.2L3.1,4.8c0.2,0.1,0.2,0,0.4,0.1c0.1,0.2,0.1,0.3,0,0.4C3.5,5,3.1,5,2.9,5C3,5.1,3,5.1,3.1,5.2
						C2.6,5.1,3.5,5.6,3,5.7L2.9,5.6c0,0.2,0,0.4-0.1,0.5c-0.3-0.1,0-0.2-0.2-0.4C2.5,5.9,2.8,6.3,2.5,6.3c0-0.1,0-0.2,0-0.4
						C2.1,5.9,2.2,6,2,6.1l0,0L1.7,6.4l0.1,0C2.4,7,1.7,6.9,2,7.5C1.7,6.9,1.8,7.3,1.5,7.1c-0.1,0-0.3,0.1-0.4,0
						C1.3,7.4,0.8,7.3,1,7.7c-0.1,0-0.1,0.2-0.3,0c0,0.2,0.2,0,0.3,0.1c0.2,0.5-0.7,0.6-0.4,1.3C0.7,9.6,1,9.8,1.1,10.2
						C0.9,10.3,0.7,10,0.7,10c-0.2,0.2-0.2,0.3-0.1,0.6c-0.1-0.1-0.2,0-0.3,0c0,0.2,0.4,0.2,0.2,0.4c-0.1-0.1-0.3-0.1-0.4-0.2
						c0.1,0.2,0.2,0.4,0.3,0.7c-0.2,0-0.3-0.2-0.4-0.3c0.1,0.2,0.1,0.6,0.4,0.7l0.1-0.1c0,0.1-0.3,0-0.3-0.1
						c-0.2-0.2,0.1-0.3,0.3-0.3l0,0.1c0.7-0.1,0-0.6,0.1-0.9L1,10.9l-0.3-0.4c0.1,0,0.4,0,0.4,0.1c0.3-0.1-0.1-0.2,0.2-0.3
						c0,0,0.1,0,0.1,0l-0.1-0.2c0.1,0.1,0.3,0,0.2,0.1C1.9,10,1.3,9.6,1.7,9.6l0,0c0-0.5-0.3-0.1-0.6-0.6L2,9.1L1.7,8.9
						c0,0,0.1-0.1,0.2-0.1c-0.2-0.3-0.2,0-0.3-0.2C1.9,8.6,1.7,8,2.2,8.2C2,8,1.9,8.3,1.9,8c0.6,0.2,0-0.3,0.4-0.4
						c0.2,0.2,0,0.3,0.3,0.2C2.2,7.5,2.9,7.5,2.9,7.3C2.5,7.1,2.9,6.9,3,6.6c0.1,0.1,0.5-0.3,0.8-0.5l0.1,0c-0.3-0.3-0.1-0.5,0-0.7
						C4,5.7,4.1,5.8,4.1,5.9l0.1-0.1c-0.1-0.1-0.1-0.2,0-0.3l0.2,0.2C4.5,5.5,4.4,5,4.8,5C4.6,4.7,4.1,4.6,4.2,4.2
						c0.1,0.1,0.3,0.3,0.3,0.4c0,0,0-0.2,0.1-0.2l0.1,0.3c0.2,0-0.1-0.2,0-0.3c0.2,0.2,0.2,0.1,0.3,0.2c0,0-0.1,0-0.1,0.1
						c0.1-0.1,0.3-0.1,0.5,0C5.2,4.6,5.1,4.5,5.2,4.4c0.2-0.2,0.2,0.1,0.4,0.1c-0.1-0.2,0.2-0.1,0-0.4c0.1,0,0.2,0.1,0.2,0.1
						c0-0.2,0.5-0.4,0.1-0.6l0,0l0,0l0,0l0,0C6.1,3.1,6.8,3.3,7.1,3l0.1,0.1c0.2-0.2,0.5-0.3,0.5-0.6c0.1,0,0.3,0.1,0.3,0.2
						c0.1-0.2,0.1-0.3,0.5-0.2C8.3,2.7,8.6,2.6,8.3,2.6c0.3,0,0.4,0.2,0.5-0.2c0,0.3,0.3,0.3,0.4,0.2L9,2.4c0.1-0.1,0.2-0.1,0.4-0.1
						l0.1,0.4c0.6,0.3,0.7-1,1.2-0.3c0.1-0.3-0.3-0.1-0.3-0.5c0.3,0,0.6,0.5,0.7,0.5c0.3,0.2,0.2-0.6,0.6-0.5
						c-0.1-0.1-0.1-0.5,0.1-0.6c0.3,0,0.3,0.5,0.2,0.7c-0.1,0-0.1,0-0.1-0.1c-0.1,0.1-0.2,0.1-0.1,0.3l0-0.1
						c0.1,0.1,0.4,0.1,0.4,0.3c0.2-0.1,0.1-0.2-0.1-0.3c0.3,0.2,0.5,0,0.8,0.1c0-0.1-0.1-0.2,0-0.2c0.5,0.2,0.2-0.2,0.5-0.3
						c0.2,0.2-0.1,0.5,0.2,0.3c0.2,0.1,0,0.4-0.1,0.5c0.3-0.3,0.5,0.2,0.6,0.3L14,2.8c0.1-0.1,0.2,0,0.2,0l0-0.3
						c0.1,0.1,0.1,0.1,0.1,0.2c0.1-0.2,0-0.5,0.2-0.7c0.1,0.2,0.4-0.1,0.4,0.3c-0.3-0.2,0,0.4-0.3,0.4c0.1,0,0.1,0,0.2,0
						c0,0,0,0.1-0.1,0.1c0.3,0.4,0.2-0.4,0.6-0.3c-0.1,0.2,0,0.4,0,0.4c-0.1,0,0-0.3,0.2-0.5c0.2,0.2,0.3-0.1,0.4,0l-0.1-0.1
						c0.1-0.2,0.2-0.1,0.4-0.1c0,0.2-0.2,0.1-0.1,0.1c0.3-0.3,0.3,0.5,0.6,0.4c0.1,0.2-0.1,0.4-0.1,0.5c0.4-0.2,0.2,0.4,0.5,0.3
						c0-0.3,0-0.2,0.3-0.4l-0.5,0l0.4-0.2c-0.1-0.1-0.3,0-0.4-0.1c0.2-0.2,0.2-0.1,0.2-0.3c0,0.5,0.5,0,0.6,0.3l-0.3,0.6
						c0.2,0.4,0.7,0,1,0.4l-0.1-0.2c0.2-0.2,0.3,0.1,0.4,0.1c-0.1,0.2-0.1,0.3-0.1,0.4c0.1-0.1,0.2,0.2,0.5-0.1l0,0.4
						c0.2,0.3,0.7-0.3,1,0.1c-0.2,0.1-0.2,0.3-0.5,0.3c0.1,0.1,0.1,0.2,0.2,0.1c0,0.1,0.4,0,0.4,0.2c0.1,0,0.3-0.2,0.4-0.1
						c0,0-0.1,0.1-0.1,0.1c0.1-0.1,0.3,0,0.4-0.2c-0.3,0.8,0.8,0.7,0.5,1.4c0.2,0.2,0.5,0.4,0.6,0.6c-0.1,0-0.1,0.1-0.1,0
						c0,0.4,0.6-0.2,0.6,0.3c-0.2,0.4-0.3-0.1-0.3,0.1c-0.6,0.4,0.3,0.3,0.1,0.8l-0.1,0c-0.1,0.3,0.4,0.3,0.5,0.6c0,0-0.1,0-0.1,0
						c0.5,0,0.7,0.4,0.9,0.6c-0.3,0-0.2-0.1-0.4,0.1c0.1,0.1,0.4-0.2,0.6,0c-0.1,0.1-0.2,0.4-0.5,0.5c0,0-0.1-0.2-0.1-0.2
						c-0.3,0.2,0.1,0.3,0.1,0.5l-0.2,0c0.1,0.3,0.6,0.2,0.7,0.7l0.1-0.1c0.5,0.1-0.2,0.2,0.2,0.4l-0.4,0.1c0.1,0.1,0.5,0.5,0.6,0.7
						c-0.3-0.1-0.6-0.4-0.8-0.6c0,0.1,0.1,0.5,0.3,0.5c-0.1-0.1-0.2-0.1-0.1-0.2c0.4,0.1,0.6,0.4,0.6,0.7c-0.9,0-0.2,0.8-0.9,1
						c0.1,0.3,0.1,0.5,0,0.8c-0.1,0.3-0.3,0.5-0.3,0.8c0.7-0.1,0,0.2,0.7,0.3c0,0.2,0,0.2-0.1,0.2l-0.5,0.3c-0.2,0-0.1-0.2-0.3-0.2
						c-0.1,0.3-0.3,0-0.5,0.2c0.2,0,0.3,0.2,0.2,0.3l0.4-0.1c0.3,0.5-0.7,0.2-0.4,0.7l-0.2-0.2c0.1,0.2-0.3,0.7,0.1,1.1
						c-0.1,0-0.3,0-0.3-0.1c-0.3,0.4,0,1.3-0.5,1.5l-0.1-0.1c0,0.1,0.2,0.3,0,0.3c-0.1,0-0.1-0.1-0.2-0.1c0,0.1,0.1,0.4-0.1,0.4
						l-0.1-0.2c-0.5,0.3-0.1,0.9-0.3,1.3c-0.4-0.3-0.7-0.1-0.9-0.1l0-0.1c-0.5,0.3-0.4,1-0.8,1.4c-0.6-0.2-1.1,0.5-1.7,0.4
						c0.1,0,0.2,0.4,0.1,0.4c-0.2,0-0.2,0.5-0.3,0l0,0c-0.3-0.4-0.4-0.1-0.6-0.1l0.2,0.6c-0.4-0.3-0.7-0.1-1,0.1
						c-0.3,0.2-0.6,0.3-0.8,0c-0.1,0.2-0.2,0.2-0.3,0.4l-0.1-0.3c-0.4,0-0.5,0-1,0.1l0.1-0.2c-0.2,0-0.2,0.9-0.5,1L13,23.6
						c-0.4,0.1-0.9-0.4-1.3,0c0-0.1,0-0.2,0.1-0.2c-0.2,0-0.7-0.4-0.7,0.3c0.1-0.4-0.4-0.1-0.7,0l0.1-0.3c-0.3,0.3-0.3,0.5-0.6,0.5
						c-0.1-0.1,0-0.3,0.1-0.2c-0.2-0.2-0.2,0.2-0.5,0l0.2-0.2c-0.2-0.1-0.2,0-0.4,0.2c-0.2,0.1-0.4-0.2-0.3-0.5
						c-0.1,0.2-0.3,0.3-0.4,0.2c0-0.1,0.1-0.2,0.1-0.2c-0.3-0.3-0.7,0.1-0.8-0.3c0-0.1,0-0.2,0-0.2C8.1,22.9,8.3,23,8.3,23
						c0.1-0.3-0.1-0.4,0.3-0.7c-0.3,0.1-0.8,0.4-0.9,0.2c0,0,0-0.1,0-0.1l0,0c0,0-0.1,0-0.2,0c0-0.1-0.1-0.1-0.1-0.2
						c0.1-0.2-0.2-0.3-0.3-0.3C7,22.1,6.9,22,6.9,22.3c0,0,0,0,0.1,0c0,0,0,0,0.1,0l0,0c0.1,0,0.2,0.1,0.3,0.1
						c-0.2,0.1-0.3,0.2-0.4-0.1c-0.2,0.1-0.3,0.3-0.4,0.3c0.1-0.5-0.1-0.8,0.1-1.1c-0.4-0.1-0.8-0.4-1.3-0.1c-0.1,0,0-0.2,0.1-0.3
						c0.1,0,0.1,0.1,0.2,0c-0.3,0-0.5-0.4-0.8-0.1c-0.1-0.3,0.4-0.2,0.1-0.4l0.1-0.1c0-0.5-0.4-0.5-0.8-0.6
						c-0.4-0.1-0.8-0.2-0.7-0.8c0,0.1,0,0.1-0.1,0.2c-0.1-0.5-0.4-0.9-0.7-1.3c-0.3-0.4-0.5-0.8-0.4-1.4c0-0.3-0.2-0.2-0.5-0.3
						l0.3-0.2l-0.5-0.2c-0.4-0.3,0.6-0.9,0-1.2L1.4,15c0-0.2-0.2-0.6,0-0.6c0,0-0.2,0-0.1-0.1l0.2,0c0,0-0.1-0.1-0.2-0.2
						c-0.1-0.1-0.2-0.2-0.2-0.2c0.1-0.4,0.7,0,0.7-0.5c-0.1-0.2-0.5-0.5-0.7-0.4c0,0.1-0.1,0.2-0.3,0.2L0.8,13
						c-0.5,0-1.1-0.2-1.4,0.3l0.3,0.3l-0.3,0.1l0-0.3c-0.2,0.2,0,0.3,0.1,0.4c-0.1,0-0.2,0.1-0.3,0.2l0.5,0.3
						c-0.2,0.1-0.4-0.1-0.5,0.1c0.3,0.1,0.4-0.2,0.6,0c-0.2,0.2-0.4,0.2-0.2,0.3c-0.1,0-0.2,0-0.3,0c0.2,0.1,0.1,0.4,0.4,0.5
						c-0.3,0.2,0.2,0.5-0.3,0.6c0.1,0,0.5,0.2,0.5,0.3c-0.7-0.1,0.1,0.6-0.5,0.7c0.6,0.1,0.5,0.7,0.9,0.9c0,0-0.1,0-0.1-0.1
						c0,0.2-0.1,0.3-0.1,0.5c0.4-0.1,0.7,0.1,1,0.1c-0.3,0.4-0.5,0.1-0.9,0.3c0.3-0.2,0.5,0.3,0.8,0c-0.2,0.3,0,0.2-0.3,0.5
						c0.5-0.2,0.2,0.1,0.5,0.1c-0.1,0.4-0.4,0.3-0.1,0.5C1.1,20,0.8,19.8,0.8,19.8z M6.8,24.3L6.8,24.3c-0.1,0-0.1,0-0.1,0
						C6.7,24.2,6.7,24.2,6.8,24.3z M7.3,24.5c-0.1,0-0.1-0.1-0.2-0.1c0-0.1,0.1-0.2,0.2-0.2C7.2,24.3,7.3,24.4,7.3,24.5z M7.3,22
						c0.1,0,0.1,0.1,0.1,0.1C7.3,22.1,7.3,22.1,7.3,22l-0.1,0.1C7.2,22.1,7.3,22,7.3,22z"/>
					<path fill="#22A4A2" d="M7,22.3C7,22.3,7,22.3,7,22.3C6.9,22.3,6.9,22.4,7,22.3L7,22.3L7,22.3z"/>
					<path fill="#22A4A2" d="M6,3.7L6,3.7C6,3.7,5.9,3.7,6,3.7C5.9,3.7,5.9,3.7,6,3.7z"/>
					<polygon fill="#22A4A2" points="15.6,25.9 15.6,25.9 15.6,26 					"/>
					<path fill="#22A4A2" d="M2.9,5C2.9,5,2.9,5,2.9,5C2.9,5,2.9,5,2.9,5z"/>
					<path fill="#22A4A2" d="M2,6.1L1.8,6.2C1.9,6.2,2,6.2,2,6.1z"/>
					<path fill="#22A4A2" d="M1.3,7c0,0,0.1,0.1,0.1,0.1l0,0L1.3,7z"/>
					<path fill="#22A4A2" d="M16.5,0.4C16.5,0.4,16.5,0.4,16.5,0.4C16.6,0.3,16.6,0.3,16.5,0.4z"/>
					<path fill="#22A4A2" d="M11.2,0.6c0-0.1,0.1-0.1,0.1-0.2C11.3,0.5,11.2,0.5,11.2,0.6z"/>
					<polygon fill="#22A4A2" points="21.9,3.1 21.9,3.1 21.9,3.1 					"/>
					<path fill="#22A4A2" d="M11.6,0.5c-0.1-0.1-0.2,0-0.2,0C11.4,0.5,11.5,0.5,11.6,0.5z"/>
					<path fill="#22A4A2" d="M-0.2,11.6L-0.2,11.6C-0.2,11.6-0.2,11.6-0.2,11.6L-0.2,11.6z"/>
					<path fill="#22A4A2" d="M-0.2,11.6L-0.2,11.6C-0.1,11.7-0.1,11.6-0.2,11.6z"/>
					<path fill="#22A4A2" d="M-0.1,11.8l-0.1-0.1C-0.1,11.7-0.1,11.8-0.1,11.8z"/>
					<path fill="#22A4A2" d="M0.2,10.1l-0.1,0C0.1,10.1,0.1,10.1,0.2,10.1z"/>
					<path fill="#22A4A2" d="M0.3,9.7C0.2,9.8,0,9.9,0,10.1l0.1,0C-0.1,10,0.4,9.8,0.3,9.7z"/>
					<path fill="#22A4A2" d="M2.2,8.5c0,0-0.2,0.3-0.2,0.3c0.1,0,0.3,0,0.3,0.1C2.8,8.6,2,8.9,2.2,8.5z"/>
					<path fill="#22A4A2" d="M2.8,7.6C2.8,7.8,3,7.7,3,7.8C3,7.6,3,7.6,2.8,7.6z"/>
					<path fill="#22A4A2" d="M8.1,2.7L8.2,3C8.3,2.9,8.1,2.9,8.1,2.7z"/>
					<polygon fill="#22A4A2" points="9,0.8 8.8,0.7 8.8,1 					"/>
					<polygon fill="#22A4A2" points="10.3,2.6 10.3,2.6 10.5,2.5 					"/>
					<path fill="#22A4A2" d="M20.9,6.1l0.3-0.3C21.1,5.9,20.7,6.1,20.9,6.1z"/>
					<path fill="#22A4A2" d="M23.5,10.6c-0.2,0.1-0.2,0.3-0.1,0.3C23.4,10.8,23.5,10.7,23.5,10.6z"/>
					<polygon fill="#22A4A2" points="16.3,22.8 16.3,22.6 16.2,22.8 					"/>
				</g>
			</g>
		</g>
	</g>
</g>
<g>
	<polygon fill="#FFFFFF" points="14.9,17.9 14.9,7.6 5.9,12.7 	"/>
	<g>
		<g>
			<g>
				<g>
					<path fill="#FFFFFF" d="M14.5,18.6c0.1-0.1,0.2-0.3,0.1-0.3l-0.2,0.3L14.5,18.6z"/>
					<path fill="#FFFFFF" d="M14.6,17.8c-0.1,0.1-0.4,0.4-0.5,0.7c0.2-0.3,0.2-0.1,0.4-0.5c0.1,0,0,0.1-0.1,0.3
						c0.1-0.1,0,0.1,0.2-0.1c0.1-0.3,0-0.3-0.1-0.2C14.5,17.9,14.5,17.9,14.6,17.8z"/>
					<path fill="#FFFFFF" d="M11.1,15.1L11.1,15.1C11.1,15.1,11.1,15.1,11.1,15.1z"/>
					<path fill="#FFFFFF" d="M8.9,13.6C8.9,13.6,9,13.5,8.9,13.6C9,13.5,8.9,13.5,8.9,13.6z"/>
					<path fill="#FFFFFF" d="M9,13.1C9,13.2,9,13.2,9,13.1C9,13.1,9.1,13.1,9,13.1z"/>
					<path fill="#FFFFFF" d="M11.1,15.1l0-0.1C11,15,11.1,15,11.1,15.1z"/>
					<path fill="#FFFFFF" d="M13.6,18.3C13.6,18.3,13.6,18.2,13.6,18.3C13.6,18.2,13.6,18.2,13.6,18.3L13.6,18.3z"/>
					<path fill="#FFFFFF" d="M12.3,15.4L12.3,15.4c0,0,0.1-0.1,0.1-0.1L12.3,15.4z"/>
					<path fill="#FFFFFF" d="M13.1,15.8c0,0-0.2,0.2-0.3,0.4c0.1-0.1,0.1-0.2,0.2-0.2C13,16,13,15.9,13.1,15.8z"/>
					<path fill="#FFFFFF" d="M14.1,17.1L14.1,17.1C14.1,17,14.1,17,14.1,17.1z"/>
					<path fill="#FFFFFF" d="M11.7,15c0,0,0-0.1,0.1-0.1C11.8,14.9,11.7,15,11.7,15z"/>
					<path fill="#FFFFFF" d="M16.4,16.8C16.3,16.8,16.3,16.8,16.4,16.8C16.3,16.8,16.4,16.9,16.4,16.8z"/>
					<polygon fill="#FFFFFF" points="14.8,17.9 14.8,17.9 14.6,17.9 					"/>
					<path fill="#FFFFFF" d="M9.3,12.8L9.3,12.8C9.3,12.8,9.3,12.8,9.3,12.8z"/>
					<path fill="#FFFFFF" d="M12,10.7c-0.2-0.2-0.1-0.4-0.3-0.6C11.8,10.2,11.8,10.6,12,10.7z"/>
					<path fill="#FFFFFF" d="M13.6,18.2C13.6,18.2,13.6,18.2,13.6,18.2C13.6,18.2,13.6,18.2,13.6,18.2z"/>
					<path fill="#FFFFFF" d="M11.7,10.1L11.7,10.1L11.7,10.1C11.7,10.1,11.7,10.1,11.7,10.1z"/>
					<path fill="#FFFFFF" d="M8.8,12.6c-0.1,0-0.2,0-0.3,0C8.6,12.6,8.6,12.6,8.8,12.6z"/>
					<path fill="#FFFFFF" d="M8.2,13L8.2,13C8.3,12.9,8.2,13,8.2,13z"/>
					<path fill="#FFFFFF" d="M8.3,12.4C8.3,12.4,8.4,12.4,8.3,12.4C8.3,12.4,8.3,12.4,8.3,12.4C8.3,12.4,8.3,12.4,8.3,12.4z"/>
					<path fill="#FFFFFF" d="M8.6,12.2C8.6,12.2,8.6,12.2,8.6,12.2L8.6,12.2L8.6,12.2z"/>
					<path fill="#FFFFFF" d="M16.2,14.4c-0.1,0-0.2,0-0.3,0C16.2,14.5,16.2,14.6,16.2,14.4z"/>
					<path fill="#FFFFFF" d="M13.7,18.1c0,0.1-0.1,0.1-0.1,0.1c0,0,0,0,0,0C13.6,18.2,13.7,18.1,13.7,18.1z"/>
					<path fill="#FFFFFF" d="M4.6,11.6l0.3-0.1C4.8,11.5,4.7,11.5,4.6,11.6z"/>
					<path fill="#FFFFFF" d="M16.2,7.4L16.2,7.4C16.3,7.4,16.3,7.3,16.2,7.4z"/>
					<path fill="#FFFFFF" d="M5.4,11.1c0.2,0,0.3,0,0.4,0c0,0,0,0-0.1-0.1L5.4,11.1z"/>
					<path fill="#FFFFFF" d="M15.9,14.5L15.9,14.5L15.9,14.5z"/>
					<path fill="#FFFFFF" d="M16.7,15.3c0-0.1-0.4-0.1-0.7-0.1c-0.1-0.1,0.3-0.1,0.5-0.1c-0.1-0.1-0.5-0.2-0.5-0.2
						c0.1,0,0.1,0,0.2,0c-0.3-0.1,0-0.3-0.4-0.4c0,0,0.1,0,0.1,0c-0.2,0-0.4,0-0.6,0c0-0.1-0.3-0.1,0-0.1c0,0,0.1,0,0.2,0.1
						l-0.1-0.1c0.4,0,0.1,0.1,0.4,0.1c-0.1-0.1-0.5-0.2-0.3-0.3c0.4,0,0.1,0.2,0.5,0.1l-0.1,0.1c0.6-0.1,0,0.1,0.6,0
						c0.1-0.2-0.2-0.2-0.1-0.4c-0.2,0-0.3,0-0.5,0c-0.4-0.2,1-0.2,0.5-0.4c-0.3,0-0.7-0.1-0.5-0.2l0.4,0c0-0.2-0.6-0.1-0.3-0.3
						c0.2,0,0.1,0.1,0.2,0.1c0.3-0.1-0.2-0.1-0.2-0.2l0.4,0c-0.1-0.2-0.3-0.4-0.4-0.6c0.1,0,0.2,0,0.4,0c-0.2-0.2,0.1-0.5,0.3-0.8
						l-0.3-0.1c0,0,0.2,0,0.2,0c0.1-0.1-0.2,0-0.3-0.1c0-0.1,0.2-0.1,0.3,0c-0.3-0.2-0.6-0.5-0.2-0.6l0.1,0c0.1-0.1-0.7-0.1-0.4-0.3
						l0.1,0c0.1-0.5-0.2-0.8,0.4-1.4c-0.5,0.2,0.2-0.6-0.5-0.2c0.3-0.5,0.5-0.5,0.7-1.1c0-0.1-0.4,0.2-0.5,0.1l0.4-0.3
						c0,0-0.1,0-0.2,0.1c-0.1,0-0.2,0.1-0.2,0.1l0.4-0.5l-0.1,0c0,0.1-0.2,0.3-0.3,0.4c-0.2,0,0.2-0.7,0.4-0.9c0,0-0.3-0.1-0.3-0.1
						c0.1-0.2,0.2-0.2,0.3-0.2c-0.4,0.2,0.4-0.5,0-0.3c-0.1,0.1-0.2,0.3-0.3,0.4c0.2-0.4,0.2-0.7,0.1-0.7l0.2-0.3c0-0.3,0-0.4,0-0.6
						C16.3,5,16.2,5.1,16,5.2c0,0.1-0.4,0.8-0.5,0.9l0.3-0.6c-0.3,0.4,0,0.2-0.4,0.7c-0.1,0,0.3-0.6,0.5-0.9l-0.3,0.3
						c0.1-0.2,0.2-0.3,0.3-0.5c-0.2,0.4,0-0.4-0.4,0.3l0.1-0.2c-0.4,0.2-0.6,0.5-0.9,0.7c-0.2,0.5-0.2,0.4-0.4,0.8
						c-0.1,0-0.3-0.2-0.5-0.1c-0.2,0.3-0.1,0.4-0.2,0.6c0-0.4-0.2-0.2-0.1-0.5c-0.3,0.2-0.4,0.3-0.7,0.7c0.1,0.1,0.1,0.1,0.1,0.3
						c0,0.1-0.1-0.1-0.2-0.2l0,0c-0.2,0.3-0.4,0.2-0.7,0.2c-0.3-0.1-0.7,0-0.6,0.3l0,0l0,0.4c-0.1,0-0.1-0.2-0.2-0.3
						c0,0.5-0.4,0.1-0.4,0.5c-0.6-0.7-0.4,0.3-0.9,0L10,8.7C10,8.9,9.9,8.6,9.8,8.6C9.9,8.7,10,8.7,10,8.8C9.7,9.2,9,9,8.5,9.1
						c-0.2,0,0.4,1,0,0.6L8.4,9.4c0,0.3-0.2,0.4-0.4,0.4c-0.2,0.1-0.6,0.3-0.7,0.6c0-0.1-0.1-0.2-0.1-0.2C7,10.1,6.9,10.4,7,10.6
						c-0.1,0-0.2-0.1-0.3-0.2c-0.3,0,0,0.4-0.3,0.2c-0.1,0-0.1-0.1,0-0.1c0,0.1-0.4,0.2,0,0.3c-0.4,0-0.2,0.3-0.6,0.3
						c0.3,0.2-0.5,0.1,0.1,0.3c-0.6-0.2-0.9,0-0.7,0.2c-0.2-0.1-0.3,0-0.6-0.1c-0.1,0.1-0.1,0.2,0.3,0.3c-0.6,0-0.6,0.1-0.5,0.2
						c0.1,0.1,0.1,0.1-0.7,0.1c0,0.2,0.1,0.4,0,0.5c0.2,0.1,0.4,0.1,0.5,0.2c-0.7,0-0.6-0.1-1-0.2c0,0-0.2,0-0.4,0c0,0,0,0,0,0
						c0.8,0.2,1.7,0.3,1.7,0.5c0,0.1-0.4,0-0.6,0c0.7,0.2,0.6,0.4,1.3,0.5c-0.1,0-0.2,0-0.3,0c0.1,0,0,0.1,0.4,0l-0.1,0
						c0.4-0.1,1.2-0.1,1.4-0.2c-1,0.2,0,0.2-1.2,0.4c0.1,0,0.3,0,0.5-0.1c0,0-0.1,0.1-0.4,0.1C6,14,6.2,13.8,6.4,14
						C6.2,14,6.2,14,6,14.1c0.4,0,0.7-0.1,0.7,0c-0.1,0-0.2,0.1-0.2,0.1c0.3,0.1,1-0.1,1,0.2c-0.5,0.3-0.1,0.2-0.4,0.5l0.3,0
						l0.1-0.2C7.6,14.7,8,14.5,8,14.7l-0.2,0.1L8,14.8l0-0.2c0.3-0.1,0.3-0.4,0.4-0.3c-0.1,0,0.1,0.1,0,0.3l0,0
						c0.1-0.1,0.2-0.2,0.2-0.1c-0.1,0.1-0.3,0.4-0.3,0.5c0.2-0.3,0.3,0,0.5-0.3c-0.1,0.1-0.2,0.3-0.2,0.3l0.2-0.2
						c0,0.1,0,0.1-0.1,0.3C8.8,15.3,9,14.7,9,15c0,0,0,0.1-0.1,0.1c0.1,0.2,0.4,0,0.4,0.2c-0.2,0.4-0.2,0-0.3,0.4
						c0.2,0,0.7-0.2,0.8,0l0-0.1c0.3-0.5,0,0.3,0.2,0.1c0,0-0.2,0.3-0.2,0.2c0.1,0.2,0.3,0,0.6,0L10.4,16c0,0.2,0.2,0.2,0.2,0.3
						c0.1-0.1,0.1-0.1,0.2-0.3c-0.2,0.9,0.7-0.1,0.6,0.6c0,0-0.1,0.1-0.1,0.1l0.3,0c0.1-0.2,0.1-0.2,0.1-0.4
						c0.1-0.1,0.2-0.2,0.3-0.2c-0.2,0.1-0.2,0.4-0.3,0.5c0-0.1,0.1-0.1,0.1-0.2C11.6,17,12,16.1,12,16.4l-0.1,0.1
						c0.1,0,0.2-0.2,0.3-0.1c-0.1,0.3-0.1,0.1-0.3,0.3c0.1,0,0.4-0.4,0.4-0.1c-0.1,0.1-0.1,0-0.2,0.1c-0.1,0.4-0.1,0.3,0,0.4l0,0
						l0,0.2l0-0.1c0.5-0.6,0.3,0,0.7-0.4c-0.4,0.4-0.2,0.2-0.3,0.5c0,0.1,0,0.2-0.1,0.3c0.2-0.2,0,0.2,0.3-0.1
						c-0.1,0.1,0.1,0-0.1,0.3c0.1,0,0.1-0.2,0.2-0.3c0.3-0.3,0,0.6,0.5,0.2c0.3-0.1,0.5-0.4,0.7-0.5c0,0.2-0.2,0.3-0.2,0.3
						c0,0.2,0.1,0.2,0.2,0.1c-0.1,0.1-0.1,0.2-0.1,0.3c0.1,0,0.2-0.3,0.2-0.1c-0.1,0.1-0.2,0.3-0.3,0.4c0.1,0,0.3-0.2,0.4-0.2
						c-0.1,0.2-0.2,0.2-0.3,0.3c0.1,0,0.3,0,0.5-0.3l0-0.1c0,0-0.1,0.2-0.2,0.3c-0.2,0.2,0-0.1,0-0.2l0.1,0c0.3-0.6-0.3,0-0.3-0.1
						l0.3-0.4l-0.3,0.3c0-0.1,0.2-0.4,0.2-0.4c0-0.2-0.1,0.1-0.1-0.2c0,0,0-0.1,0-0.1l-0.1,0.1c0.1-0.1,0.2-0.3,0.2-0.2
						c0-0.3-0.4,0.2-0.2-0.1l0,0c-0.3,0-0.2,0.3-0.5,0.6l0.3-0.8l-0.2,0.3c0,0,0-0.1,0-0.2c-0.2,0.2-0.1,0.1-0.2,0.3
						c0.1-0.3-0.3,0-0.1-0.5c-0.2,0.2,0,0.2-0.2,0.3c0.3-0.5-0.2,0-0.1-0.3c0.2-0.3,0.2-0.1,0.2-0.3C12.9,16.6,13.1,16,13,16
						c-0.2,0.4-0.2,0.1-0.4,0.1c0.1-0.1-0.1-0.3-0.1-0.5l0-0.1c-0.2,0.3-0.3,0.2-0.4,0.2c0.1-0.2,0.2-0.3,0.3-0.4l-0.1,0
						c-0.1,0.1-0.1,0.2-0.2,0.2l0.2-0.3c-0.1,0-0.4,0.2-0.4-0.1c-0.2,0.2-0.3,0.8-0.5,0.8c0.1-0.1,0.2-0.4,0.3-0.4
						c0,0-0.1,0.1-0.1,0l0.2-0.2c0-0.1-0.1,0.2-0.2,0.1c0.1-0.2,0-0.2,0.1-0.3c0,0,0,0.1,0.1,0c0-0.1,0-0.2,0-0.4
						c-0.1,0.1-0.2,0.3-0.2,0.3c-0.1,0,0.1-0.3,0.1-0.4c-0.1,0.1-0.1-0.1-0.3,0.2c0,0,0-0.2,0.1-0.2c-0.1,0.1-0.3-0.1-0.4,0.2l0,0
						c0,0,0,0,0,0l0,0l0,0c-0.3,0.2-0.2-0.4-0.5-0.3l0.1-0.1c-0.2,0.1-0.3-0.1-0.4,0.1c0,0,0-0.2,0.1-0.3c-0.1,0-0.2,0.1-0.2-0.1
						c0.2-0.1,0.1-0.2,0.1-0.1c0-0.1,0-0.3-0.2-0.1c0.2-0.2,0.1-0.4,0-0.3l0,0.2c-0.1,0-0.1,0-0.1-0.1l0.2-0.3
						c0-0.5-0.8,0.5-0.5-0.3c-0.2,0.2,0,0.2-0.2,0.5c-0.1-0.1,0.1-0.6,0.1-0.6C9.4,13,9,13.7,9,13.5C9,13.6,8.8,13.9,8.6,14
						c-0.1-0.1,0.3-0.5,0.4-0.6c0,0,0,0,0,0.1c0,0,0.1-0.1,0.2-0.2l-0.1,0.1c0.1-0.1,0-0.1,0.2-0.3c-0.1,0.1-0.2,0.2-0.2,0.2
						c0.1-0.2-0.1-0.1,0-0.2c-0.1,0.1-0.2,0.2-0.2,0.2c0.1-0.2-0.3,0.1-0.4,0.1c0.2-0.1,0.5-0.3,0.2-0.2C8.8,13.1,9,13,9.2,13
						c-0.3,0.1,0.1-0.1,0.2-0.1l0.1-0.1c-0.1,0-0.1,0-0.1,0l-0.3,0.1c0,0,0,0,0.2-0.1c-0.2,0.1-0.5,0.2-0.8,0.3
						c0.1-0.1-0.3,0,0.2-0.1c-0.1,0.1,0.4-0.2,0.6-0.2c-0.1,0-0.1,0,0,0c0.1,0,0.1,0,0.1,0c0.4-0.1-0.5,0.2-0.6,0.1
						c0.3-0.1,0.5-0.1,0.5-0.1c0,0-0.5,0.1-0.7,0.2c0.2-0.1-0.2,0-0.2,0l-0.1,0c-0.3,0.1-0.3,0-0.4,0C8,13,7.9,13,8,13
						c-0.6,0.1,0.5-0.1,0.1-0.1c0.2,0,0.6-0.1,0.8-0.1c-0.5,0,0.4-0.1,0,0c-0.5,0-0.3,0-0.9,0l0.4,0l-0.7,0c0,0,0.4,0,0.3,0
						c-0.4,0-0.3,0-0.7,0.1c0.7-0.1-0.5,0-0.1-0.1l1.2,0c0.4,0-0.2,0-0.4-0.1c-0.1,0-0.1,0,0,0l-0.3,0c-0.5,0,0,0-0.2-0.1
						c0.4,0,0.6,0,0.8,0c-0.3,0,0.1,0-0.7-0.1l0.6,0c0.2,0-1-0.2-0.7-0.2c0.4,0.1,0.6,0.1,0.9,0.2c0,0,0.1,0-0.1-0.1
						c0.2,0-0.4-0.1-0.1-0.1c-0.1,0-0.5-0.1-0.4-0.1c0.1,0,0.2,0,0.2,0c-0.2,0-0.2-0.1-0.5-0.2c0.5,0.1,0.6,0.1,0.6,0
						c0,0,0.1-0.1,0.4,0c0-0.1,0-0.2,0-0.2C8.6,12,8.7,12,8.6,12c0.3,0.1-0.5-0.4-0.2-0.4c0.3,0.2,0.1,0.2,0.3,0.2
						c0.6,0.5,0-0.1,0.4,0.2l0,0c0.2,0.2-0.1-0.3,0-0.3c0,0,0,0.1,0.1,0.1c-0.2-0.3,0-0.6,0-0.7c0.1,0.3,0,0.2,0.2,0.4
						c0-0.1-0.2-0.4-0.2-0.5c0.1,0.1,0.3,0.2,0.4,0.5l-0.1,0.1c0.3,0.3,0.1-0.1,0.2-0.1l0.1,0.2c0.1-0.1-0.1-0.5,0.1-0.6l-0.1-0.1
						c-0.1-0.4,0.2,0.2,0.1-0.2l0.2,0.4c0-0.1,0-0.5,0.1-0.6c0.1,0.3,0.1,0.5,0.1,0.8c0.1,0,0.2-0.1,0.1-0.3c0,0.1,0,0.2,0,0.1
						c-0.1-0.3-0.1-0.6,0-0.6c0.4,0.8,0.4,0,0.8,0.6c0-0.4,0.5-0.1,0.7-0.3c-0.4-0.5,0.1-0.1-0.3-0.7c0-0.1,0.1-0.1,0.1,0l0.4,0.3
						c0.1,0.2,0,0.2,0.1,0.3c0.1,0,0.2,0.2,0.4,0.3c-0.1-0.2-0.1-0.3,0-0.3l-0.3-0.2c0-0.4,0.4,0.4,0.4,0l0.1,0.2
						c0-0.1,0.1-0.1,0.1-0.2c0.1-0.1,0-0.2-0.1-0.4c0,0.1,0.1,0.2,0.1,0.3c0,0,0-0.1,0-0.3C12.9,10,13,9.9,13,10l0,0.2
						c0-0.1,0-0.4,0-0.2c0,0.1,0,0.2,0,0.2c0-0.1,0-0.4,0-0.3l0,0.2c0,0.2,0.1-0.6,0.3-0.8c-0.1,0.6-0.2,0.8-0.2,1l0,0.1
						c0,0.1,0.3-0.6,0.5-1c-0.2,0.6-0.2,0.5-0.2,0.5c0,0.1-0.1,0.1-0.2,0.3c0.1-0.2,0.4-0.6,0.4-0.7c-0.1,0.2,0.4-0.4-0.1,0.2l0,0
						c-0.5,0.7-0.3,0.5-0.3,0.5L14,9.6c-0.4,0.6-0.4,0.5-0.3,0.5c0.1-0.1,0.2-0.1-0.2,0.3c0.2-0.1,0.1-0.1,0.3-0.2l-0.3,0.3
						c-0.1,0.1-0.1,0.1,0,0.1l-0.2,0.1c0,0,0.9-0.5,0.9-0.4l-0.5,0.2c0,0.1-0.4,0.2,0,0.2c-0.1,0-0.2,0-0.2,0c0,0-0.1,0-0.1,0
						c0,0.1,0.1,0.1,0.4,0.1c-0.4,0,0,0.2,0.1,0.3l-0.3,0c0.4,0.1,0.5,0.1,0.6,0.2c0,0-0.3,0-0.2,0c-0.2,0.1,0.3,0.1,0.1,0.2l-0.2,0
						c0,0.1,0.1,0.1,0.3,0.2c0.1,0.1-0.1,0.2-0.4,0.2c0.2,0,0.4,0.1,0.3,0.1c-0.1,0-0.2,0-0.2,0c-0.2,0.2,0.4,0.3,0.1,0.4
						c-0.1,0-0.2,0-0.2,0c0-0.1,0-0.3,0-0.2c-0.3,0-0.3,0.1-0.7,0c0.2,0.1,0.7,0.2,0.6,0.4c0,0-0.1,0-0.1,0l0,0c0,0,0,0,0,0.1
						c0,0-0.1,0.1-0.1,0.1c-0.2,0-0.1,0.1-0.1,0.2c0.3,0,0.3,0.1,0.5,0c0,0,0,0-0.1,0c0,0,0,0,0,0l0,0c0,0,0-0.1,0-0.1
						c0.2,0,0.3,0.1,0.1,0.2c0.2,0,0.4,0.1,0.5,0.1c-0.4,0.1-0.7,0.2-1,0.2c0.2,0.2,0.1,0.4,0.7,0.5c0.1,0-0.2,0.1-0.3,0.1
						c-0.1,0-0.1-0.1-0.1-0.1c0.2,0.1,0.1,0.3,0.5,0.3c-0.2,0.1-0.4-0.1-0.3,0.1l-0.1,0c-0.7,0.3,1.1,0.5,0.2,0.9c0.1,0,0.1,0,0.1,0
						c-0.4,0.4,0.3,0.9-0.3,1.3c-0.1,0.1,0.1,0.1,0.3,0.2l-0.3,0l0.4,0.1c0.3,0.2-0.8,0.3-0.3,0.5l0.2,0c0,0.1,0.1,0.3-0.1,0.2
						c0,0,0.2,0,0.1,0.1l-0.2,0l0.3,0.2c-0.1,0.1-0.7,0-0.7,0.2c0.1,0.1,0.5,0.2,0.6,0.2c0,0,0.1-0.1,0.3-0.1l0.1,0.1
						c0.5,0,1.1,0.1,1.4-0.1l-0.3-0.1l0.3,0l0,0.1c0.2-0.1,0-0.1-0.1-0.1c0.1,0,0.2,0,0.3-0.1l-0.5-0.1c0.2,0,0.4,0.1,0.5,0
						c-0.2-0.1-0.5,0.1-0.6,0c0.2-0.1,0.4,0,0.2-0.1c0.1,0,0.2,0,0.3,0c-0.2-0.1-0.1-0.2-0.3-0.2c0.3-0.1-0.1-0.2,0.4-0.2
						c-0.1,0-0.4-0.1-0.4-0.2c0.6,0.1,0-0.2,0.7-0.2c-0.5-0.1-0.2-0.3-0.5-0.4c0,0,0.1,0,0.1,0c0-0.1,0.2-0.1,0.3-0.1
						c-0.4,0-0.5-0.1-0.8-0.2c0.4-0.1,0.5,0.1,0.9,0c-0.4,0-0.4-0.2-0.7-0.1c0.3-0.1,0.1-0.1,0.5-0.1c-0.6,0-0.1-0.1-0.4-0.1
						c0.3-0.1,0.5,0,0.4-0.1C16.5,15.2,16.7,15.3,16.7,15.3z M15.7,12.5L15.7,12.5C15.8,12.5,15.8,12.6,15.7,12.5
						C15.8,12.6,15.8,12.5,15.7,12.5z M15.7,12.3c0,0,0,0.1,0,0.1c-0.1,0-0.2,0-0.2,0C15.6,12.4,15.7,12.3,15.7,12.3z M13.5,12.8
						C13.5,12.7,13.5,12.7,13.5,12.8c0.1,0,0.1,0,0.1,0l0,0C13.6,12.8,13.6,12.8,13.5,12.8z"/>
					<path fill="#FFFFFF" d="M13.9,12.8C14,12.8,14,12.8,13.9,12.8C14,12.8,14,12.8,13.9,12.8L13.9,12.8L13.9,12.8z"/>
					<path fill="#FFFFFF" d="M11.1,15.1L11.1,15.1C11.1,15.1,11.1,15.1,11.1,15.1C11.1,15.1,11.1,15.1,11.1,15.1z"/>
					<polygon fill="#FFFFFF" points="16.4,7.7 16.3,7.7 16.4,7.7 					"/>
					<path fill="#FFFFFF" d="M11.6,16.7C11.6,16.8,11.6,16.8,11.6,16.7C11.6,16.8,11.6,16.8,11.6,16.7z"/>
					<path fill="#FFFFFF" d="M12.1,17.1l0,0.1C12.1,17.1,12.1,17.1,12.1,17.1z"/>
					<path fill="#FFFFFF" d="M12.4,17.4c0,0,0.1-0.1,0.1-0.1l0,0L12.4,17.4z"/>
					<path fill="#FFFFFF" d="M5.1,13.6C5.1,13.6,5.1,13.6,5.1,13.6C4.9,13.6,5,13.6,5.1,13.6z"/>
					<path fill="#FFFFFF" d="M8.4,14.7c-0.1,0-0.1,0.1-0.2,0.1C8.3,14.8,8.3,14.8,8.4,14.7z"/>
					<polygon fill="#FFFFFF" points="4.6,11.6 4.6,11.6 4.6,11.6 					"/>
					<path fill="#FFFFFF" d="M8.2,14.7c0,0.1,0,0.1,0.1,0.1C8.2,14.7,8.2,14.7,8.2,14.7z"/>
					<path fill="#FFFFFF" d="M13.9,18.5L13.9,18.5C13.9,18.5,13.9,18.5,13.9,18.5L13.9,18.5z"/>
					<path fill="#FFFFFF" d="M13.9,18.5L13.9,18.5C14,18.4,14,18.4,13.9,18.5z"/>
					<path fill="#FFFFFF" d="M14.1,18.4L14.1,18.4C14,18.5,14,18.5,14.1,18.4z"/>
					<path fill="#FFFFFF" d="M13.5,18.1L13.5,18.1C13.4,18.2,13.5,18.1,13.5,18.1z"/>
					<path fill="#FFFFFF" d="M13.3,18c0,0,0,0.3,0.1,0.2l0.1-0.1C13.3,18.3,13.4,17.9,13.3,18z"/>
					<path fill="#FFFFFF" d="M13.4,16.4l0.1,0.2c0-0.1,0.1-0.3,0.2-0.3C13.7,15.9,13.6,16.6,13.4,16.4z"/>
					<path fill="#FFFFFF" d="M13.1,16c0.1,0,0.1-0.2,0.1-0.2C13.2,15.9,13.1,15.9,13.1,16z"/>
					<path fill="#FFFFFF" d="M10.3,14.4l0.2-0.2C10.4,14.2,10.4,14.2,10.3,14.4z"/>
					<polygon fill="#FFFFFF" points="9,15.4 9,15.6 9.1,15.3 					"/>
					<polygon fill="#FFFFFF" points="9.8,13.4 9.8,13.4 9.7,13.4 					"/>
					<path fill="#FFFFFF" d="M8.9,12.4l-0.4-0.2C8.5,12.2,9,12.4,8.9,12.4z"/>
					<path fill="#FFFFFF" d="M9.9,11.3c0.1,0.1,0.2,0.2,0.2,0C10.1,11.4,9.9,11.3,9.9,11.3z"/>
					<polygon fill="#FFFFFF" points="13.5,10.2 13.4,10.3 13.5,10.2 					"/>
				</g>
			</g>
		</g>
	</g>
</g>
</svg>
