<?xml version="1.0" encoding="utf-8"?>
<!-- Generator: Adobe Illustrator 17.1.0, SVG Export Plug-In . SVG Version: 6.00 Build 0)  -->
<!DOCTYPE svg PUBLIC "-//W3C//DTD SVG 1.1//EN" "http://www.w3.org/Graphics/SVG/1.1/DTD/svg11.dtd">
<svg version="1.1" id="Layer_1" xmlns="http://www.w3.org/2000/svg" xmlns:xlink="http://www.w3.org/1999/xlink" x="0px" y="0px"
	 viewBox="0 0 26 26" enable-background="new 0 0 26 26" xml:space="preserve">
<g>
	<circle fill="#029795" cx="13.6" cy="12.9" r="11.9"/>
	<g>
		<g>
			<g>
				<g>
					<path fill="#22A4A2" d="M26.3,12.9c-0.1,0-0.3,0-0.3,0.1l0.4,0.1L26.3,12.9z"/>
					<path fill="#22A4A2" d="M25.6,13.7c0.2,0.1,0.5,0.3,0.8,0.3c-0.4-0.2-0.2-0.2-0.6-0.3c0-0.1,0.1-0.2,0.3-0.2
						c-0.1,0,0.1-0.2-0.1-0.2c-0.3,0.1-0.3,0.3-0.1,0.5C25.7,13.7,25.6,13.7,25.6,13.7z"/>
					<path fill="#22A4A2" d="M20.2,22.2L20.2,22.2C20.3,22.2,20.3,22.2,20.2,22.2z"/>
					<path fill="#22A4A2" d="M14.4,24.1C14.4,24.1,14.4,24,14.4,24.1C14.4,24,14.4,24,14.4,24.1z"/>
					<path fill="#22A4A2" d="M13.3,23.7C13.4,23.7,13.4,23.7,13.3,23.7C13.4,23.7,13.4,23.6,13.3,23.7z"/>
					<path fill="#22A4A2" d="M20.2,22.2l-0.2,0C20.1,22.3,20.1,22.2,20.2,22.2z"/>
					<path fill="#22A4A2" d="M26.3,15.3c0,0,0-0.1-0.1-0.1C26.2,15.2,26.2,15.2,26.3,15.3L26.3,15.3z"/>
					<path fill="#22A4A2" d="M22,20.1L22,20.1c0-0.1,0-0.1-0.1-0.2L22,20.1z"/>
					<path fill="#22A4A2" d="M23.2,18.4c0,0,0.2,0.2,0.3,0.3c-0.1-0.1-0.1-0.2-0.1-0.2C23.3,18.5,23.3,18.5,23.2,18.4z"/>
					<path fill="#22A4A2" d="M24.9,15.5L24.9,15.5C24.9,15.5,24.9,15.5,24.9,15.5z"/>
					<path fill="#22A4A2" d="M21,21.1C20.9,21.1,20.9,21.1,21,21.1C20.9,21.1,20.9,21.1,21,21.1z"/>
					<path fill="#22A4A2" d="M26.7,10.1C26.7,10.1,26.7,10.1,26.7,10.1C26.7,10.1,26.7,10.1,26.7,10.1z"/>
					<polygon fill="#22A4A2" points="25.5,12.9 25.4,12.9 25.3,12.9 					"/>
					<path fill="#22A4A2" d="M11.6,23.1L11.6,23.1C11.6,23.1,11.6,23.1,11.6,23.1z"/>
					<path fill="#22A4A2" d="M3.3,10.7C3,10.8,3,10.3,2.6,10.5C2.8,10.5,3.1,10.9,3.3,10.7z"/>
					<path fill="#22A4A2" d="M26.2,15.3C26.2,15.4,26.2,15.4,26.2,15.3C26.2,15.4,26.2,15.4,26.2,15.3z"/>
					<path fill="#22A4A2" d="M2.6,10.5L2.6,10.5L2.6,10.5C2.6,10.5,2.6,10.5,2.6,10.5z"/>
					<path fill="#22A4A2" d="M7.7,21.6c0,0.1,0,0.1,0,0.1C7.7,21.8,7.7,21.7,7.7,21.6z"/>
					<path fill="#22A4A2" d="M10.4,23.4L10.4,23.4C10.3,23.4,10.3,23.4,10.4,23.4z"/>
					<path fill="#22A4A2" d="M6.1,21C6.1,20.9,6.1,20.9,6.1,21C6.1,20.9,6.1,20.9,6.1,21C6.1,20.9,6.1,20.9,6.1,21z"/>
					<polygon fill="#22A4A2" points="5,19.7 4.9,19.7 5,19.8 					"/>
					<path fill="#22A4A2" d="M23.7,4.4c0,0.1-0.1,0.2-0.2,0.3C23.7,4.5,24,4.6,23.7,4.4z"/>
					<path fill="#22A4A2" d="M26.1,15.3c0.1,0,0.1,0.1,0.1,0.1c0,0,0,0,0-0.1C26.2,15.3,26.1,15.3,26.1,15.3z"/>
					<path fill="#22A4A2" d="M4.4,22.7l-0.2-0.3C4.2,22.6,4.3,22.7,4.4,22.7z"/>
					<path fill="#22A4A2" d="M10,0.2L10,0.2C10,0.2,10,0.2,10,0.2z"/>
					<path fill="#22A4A2" d="M3.4,21.8c0-0.1,0.1-0.2,0-0.3c0,0-0.1,0-0.1,0L3.4,21.8z"/>
					<path fill="#22A4A2" d="M23.6,4.6L23.6,4.6L23.6,4.6z"/>
					<path fill="#22A4A2" d="M25.5,6c-0.2-0.3-0.4,0.1-0.7,0.1c-0.3-0.3,0.2-0.3,0.3-0.5c-0.2-0.2-0.6-0.1-0.7-0.2
						c0-0.1,0-0.1,0.1-0.1c-0.4,0-0.5-0.6-1-0.6c0,0,0-0.1,0.1-0.1c-0.1,0.2-0.3,0.3-0.4,0.4c-0.1-0.1-0.4,0-0.2-0.2
						c0,0.1,0.1,0,0.2,0l-0.2,0c0.2-0.4,0.2,0.1,0.5-0.1c-0.3-0.1-0.7-0.1-0.8-0.4c0.2-0.3,0.4,0.3,0.5-0.2l0.1,0.4
						c0.3-0.6,0.1,0.2,0.4-0.4c-0.2-0.4-0.5-0.3-0.7-0.7c-0.2,0.1-0.2,0.2-0.4,0.3c-0.7-0.1,0.3-1.1-0.4-1c-0.3,0.1-0.6,0.5-0.7,0.1
						l0.4-0.3c-0.3-0.3-0.6,0.4-0.8-0.2c0.2-0.1,0.4,0.1,0.3,0c0-0.5-0.3,0.1-0.5-0.1L21,1.9c-0.4-0.2-1-0.2-1.5-0.4
						c0.1-0.1,0.2-0.2,0.2-0.3c-0.3-0.1-0.6-0.2-0.9-0.4c-0.3-0.2-0.6-0.4-0.9-0.6l-0.3,0.2c-0.1,0-0.1-0.2,0-0.2
						c-0.2-0.2-0.1,0.2-0.2,0.3c-0.1,0-0.1-0.2,0-0.3C16.8,0.3,16,0.4,15.6,0l0.1-0.1c-0.3-0.2-0.5,0.6-0.8,0.3l0.1,0
						c-0.8-0.2-1.6,0.1-2.2-0.4c-0.1,0.5-0.8-0.2-0.8,0.5c-0.5-0.3-0.4-0.4-1-0.5c-0.2,0-0.2,0.5-0.3,0.6L10.7,0l-0.2,0.4l-0.2-0.4
						l-0.2,0.1c0.1,0,0.2,0.1,0.2,0.2c-0.2,0.2-0.8,0-0.8-0.2L8.9,0.7c0-0.1,0.1-0.2,0.1-0.3C8.7,0.9,8.8,0.1,8.6,0.5
						c0.1,0.1,0.1,0.2,0.1,0.3C8.4,0.6,8,0.8,7.8,1L7.7,0.8c-0.5,0.2-1,0.6-1.5,1c0.2,0,0.4,0.4,0.3,0.5L6.3,1.9
						c0,0.2,0.2,0,0.2,0.4C6.3,2.4,6.2,2.1,6.2,1.9L6,2.1C6,2.1,6,2,5.9,1.9c0,0.3-0.6,0-0.5,0.4L5.3,2.2c-0.5,0.4-0.6,0.7-1,1
						c0.2,0.2,0,0.3,0.1,0.6C4.2,4,3.7,4.1,3.5,4.4C3.4,4.8,3.6,4.7,3.7,4.9C3.4,4.7,3.2,5.1,3.2,4.8C2.9,5.2,2.8,5.3,2.7,6
						c0.1,0,0.2,0,0.3,0.1c0,0.1-0.2,0.2-0.3,0.1l0,0c0,0.4-0.4,0.7-0.7,0.9C1.5,7.3,1.2,7.6,1.3,8l0,0l0.1,0.7
						C1.3,8.9,1.3,8.4,1,8.5c0.2,0.8-0.4,1-0.2,1.6c-0.5,0.1-0.5,0.5-0.5,0.9c0,0.4,0,0.8-0.2,1.1l0.2,0c0.2,0.2-0.1,0.2-0.2,0.3
						c0.2,0,0.2-0.2,0.3-0.1c0.2,1.2-0.2,2.5-0.1,3.9c0.1,0.5,1.1,0,0.8,0.7l-0.4-0.1c0.3,0.4,0.5,0.8,0.7,1.3
						c0.2,0.4,0.4,0.9,0.8,1.2c-0.1,0-0.2,0-0.2,0c-0.2,0.3,0.4,0.6,0.5,0.5c0.1,0.1-0.2,0.1-0.2,0.3c0,0.3,0.5,0.2,0.4,0.5
						c0,0-0.1,0-0.1,0c0.2,0,0.3,0.5,0.5,0.2c0.1,0.4,0.5,0.4,0.5,0.8c0.4-0.1,0.3,0.5,0.7,0.3c-0.4,0.3,0.1,0.7,0.4,0.7
						c-0.2,0.1,0,0.2-0.2,0.3c0.2,0.2,0.4,0.2,0.6,0c-0.1,0.8,1,0.2,0.7,1c0.4,0.1,0.7,0.2,1.1,0.3c0.3,0.1,0.6,0.2,1,0.3
						c-0.3,0.5-0.6-0.3-0.9,0.2c0.6,0.2,1.2-0.1,1.7,0.3c0.1,0.1-0.2,0.2-0.3,0.2c0.6,0.1,1.1,0.5,1.7,0.4c0,0-0.1,0.1-0.2,0.1
						c0.1,0,0.2,0.1,0.3-0.1l-0.1,0c-0.1-0.4,0.6-0.6,0.7-0.7c-0.3,0.6,0.5,0.3,0,1c0.1,0,0.2-0.1,0.2-0.3c0.1,0.1,0.1,0.2,0,0.3
						c0.4,0,0.3-0.3,0.7-0.3c0,0.1-0.1,0.1-0.2,0.3c0.2-0.2,0.4-0.4,0.7-0.2c0,0.1,0,0.2-0.1,0.1c0.5,0.1,0.9-0.5,1.4-0.3
						c-0.2,0.5,0.2,0.2,0.2,0.6c0,0,0.3-0.1,0.3-0.1l-0.1-0.2c0.3,0,0.5-0.3,0.7-0.2l-0.2,0.2l0.5-0.1l-0.3-0.1
						c0.2-0.2-0.1-0.5,0.3-0.4c-0.1,0,0.2,0,0.4,0.2l0,0c0.1-0.2,0.2-0.3,0.4-0.2c0.1,0.1,0,0.5,0.1,0.6c0.1-0.4,0.6-0.2,0.7-0.6
						c0,0.1,0,0.3,0,0.4l0-0.3c0.1,0.1,0.2,0.1,0.2,0.3c0.4,0-0.2-0.5,0.2-0.4c0,0,0,0.1-0.1,0.1c0.4,0,0.7-0.4,1.1-0.4
						c0.2,0.4-0.3,0.2,0,0.5c0.5-0.3,0.9-0.9,1.4-1l-0.1,0c-0.2-0.6,0.5,0.1,0.6-0.3c0,0.1,0.1,0.3,0.1,0.3c0.4-0.1,0.6-0.5,0.9-1
						l0,0.2c0.3,0,0.5-0.3,0.7-0.4c0-0.2,0.1-0.2-0.1-0.4c0.6,0.1,0.7-0.2,0.9-0.5c0.2-0.3,0.3-0.7,0.7-0.6c-0.1,0.1,0,0.2,0,0.2
						l0.3-0.5C23,21,23,21.1,22.8,21c-0.1-0.2-0.1-0.3,0-0.4c0,0.3,0.3,0.3,0.5,0.3c-0.1,0-0.1-0.1-0.2-0.2c0.5,0.1-0.4-0.4,0.1-0.5
						l0.1,0.1c0-0.2,0-0.4,0.1-0.5c0.3,0.1,0,0.2,0.2,0.4c0.1-0.2-0.2-0.7,0.1-0.7c0,0.1,0,0.2,0,0.4c0.4,0,0.4-0.1,0.5-0.2l0,0
						l0.3-0.2l-0.1,0c-0.5-0.6,0.2-0.5-0.1-1.1c0.3,0.5,0.2,0.2,0.5,0.4c0.1,0,0.3-0.1,0.4,0c-0.2-0.3,0.3-0.2,0.1-0.6
						c0.1,0,0.1-0.2,0.3,0c0-0.2-0.2,0-0.3-0.1c-0.2-0.5,0.7-0.6,0.4-1.3c-0.1-0.5-0.4-0.7-0.5-1.1c0.2-0.1,0.4,0.2,0.4,0.2
						c0.2-0.2,0.2-0.3,0.1-0.6c0.1,0.1,0.2,0,0.3,0c0-0.2-0.4-0.2-0.2-0.4c0.1,0.1,0.3,0.1,0.4,0.2c-0.1-0.2-0.2-0.4-0.3-0.7
						c0.2,0,0.3,0.2,0.4,0.3c-0.1-0.2-0.1-0.6-0.4-0.7l-0.1,0.1c0-0.1,0.3,0,0.3,0.1c0.2,0.2-0.1,0.3-0.3,0.3l0-0.1
						c-0.7,0.1,0,0.6-0.1,0.9L25.3,15l0.3,0.4c-0.1,0-0.4,0-0.4-0.1c-0.3,0.1,0.1,0.2-0.2,0.3c0,0-0.1,0-0.1,0l0.1,0.2
						c-0.1-0.1-0.3,0-0.2-0.1c-0.3,0.3,0.2,0.6-0.2,0.6l0,0c0,0.5,0.3,0.1,0.6,0.6l-0.9-0.1l0.3,0.2c0,0-0.1,0.1-0.2,0.1
						c0.2,0.3,0.2,0,0.3,0.2c-0.4,0.1-0.1,0.7-0.6,0.5c0.2,0.2,0.3-0.1,0.3,0.2c-0.6-0.2,0,0.3-0.4,0.4c-0.2-0.2,0-0.3-0.3-0.2
						c0.4,0.4-0.3,0.3-0.3,0.5c0.4,0.2-0.1,0.4-0.1,0.7c-0.1-0.1-0.5,0.3-0.8,0.5l-0.1,0c0.3,0.3,0.1,0.5,0,0.7
						c-0.2-0.2-0.2-0.3-0.2-0.4l-0.1,0.1c0.1,0.1,0.1,0.2,0,0.3l-0.2-0.2c-0.2,0.2-0.1,0.6-0.5,0.7c0.2,0.2,0.8,0.4,0.6,0.8
						c-0.1-0.1-0.3-0.3-0.3-0.4c0,0,0,0.2-0.1,0.2l-0.1-0.3c-0.2,0,0.1,0.2,0,0.3c-0.2-0.2-0.2-0.1-0.3-0.2c0,0,0.1,0,0.1-0.1
						c-0.1,0.1-0.3,0.1-0.5,0c0.1,0.1,0.2,0.2,0.1,0.3c-0.2,0.2-0.2-0.1-0.4-0.1c0.1,0.2-0.2,0.1,0,0.4c-0.1,0-0.2-0.1-0.2-0.1
						c0,0.2-0.5,0.4-0.1,0.6l0,0l0,0l0,0l0,0c-0.2,0.6-0.9,0.3-1.2,0.7l-0.1-0.1c-0.2,0.2-0.5,0.3-0.5,0.6c-0.1,0-0.3-0.1-0.3-0.2
						c-0.1,0.2-0.1,0.3-0.5,0.2c0.1-0.2-0.1-0.1,0.1-0.2c-0.3,0-0.4-0.2-0.5,0.2c0-0.3-0.3-0.3-0.4-0.2l0.2,0.1
						c-0.1,0.1-0.2,0.1-0.4,0.1l-0.1-0.4c-0.6-0.3-0.7,1-1.2,0.3c-0.1,0.3,0.3,0.1,0.3,0.5c-0.3,0-0.6-0.5-0.7-0.5
						c-0.3-0.2-0.2,0.6-0.6,0.5c0.1,0.1,0.1,0.5-0.1,0.6c-0.3,0-0.3-0.5-0.2-0.7c0.1,0,0.1,0,0.1,0.1c0.1-0.1,0.2-0.1,0.1-0.3l0,0.1
						c-0.1-0.1-0.4-0.1-0.4-0.3c-0.2,0.1-0.1,0.2,0.1,0.3c-0.3-0.2-0.5,0-0.8-0.1c0,0.1,0.1,0.2,0,0.2c-0.5-0.2-0.2,0.2-0.5,0.3
						c-0.2-0.2,0.1-0.5-0.2-0.3c-0.2-0.1,0-0.4,0.1-0.5c-0.3,0.3-0.5-0.2-0.6-0.3l0.2-0.1c-0.1,0.1-0.2,0-0.2,0l0,0.3
						c-0.1-0.1-0.1-0.1-0.1-0.2c-0.1,0.2,0,0.5-0.2,0.7c-0.1-0.2-0.4,0.1-0.4-0.3c0.3,0.2,0-0.4,0.3-0.4c-0.1,0-0.1,0-0.2,0
						c0,0,0-0.1,0.1-0.1c-0.3-0.4-0.2,0.4-0.6,0.3c0.1-0.2,0-0.4,0-0.4c0.1,0,0,0.3-0.2,0.5c-0.2-0.2-0.3,0.1-0.4,0l0.1,0.1
						c-0.1,0.2-0.2,0.1-0.4,0.1c0-0.2,0.2-0.1,0.1-0.1C9.9,23.8,10,23,9.7,23.2c-0.1-0.2,0.1-0.4,0.1-0.5c-0.4,0.2-0.2-0.4-0.5-0.3
						c0,0.3,0,0.2-0.3,0.4l0.5,0L9,23.1c0.1,0.1,0.3,0,0.4,0.1c-0.2,0.2-0.2,0.1-0.2,0.3c0-0.5-0.5,0-0.6-0.3l0.3-0.6
						c-0.2-0.4-0.7,0-1-0.4L8,22.3c-0.2,0.2-0.3-0.1-0.4-0.1c0.1-0.2,0.1-0.3,0.1-0.4c-0.1,0.1-0.2-0.2-0.5,0.1l0-0.4
						c-0.2-0.3-0.7,0.3-1-0.1c0.2-0.1,0.2-0.3,0.5-0.3c-0.1-0.1-0.1-0.2-0.2-0.1c0-0.1-0.4,0-0.4-0.2c-0.1,0-0.3,0.2-0.4,0.1
						c0,0,0.1-0.1,0.1-0.1c-0.1,0.1-0.3,0-0.4,0.2c0.3-0.8-0.8-0.7-0.5-1.4c-0.2-0.2-0.5-0.4-0.6-0.6c0.1,0,0.1-0.1,0.1,0
						c0-0.4-0.6,0.2-0.6-0.3C4,18.5,4,18.9,4.1,18.8C4.7,18.3,3.7,18.4,4,18l0.1,0c0.1-0.3-0.4-0.3-0.5-0.6c0,0,0.1,0,0.1,0
						c-0.5,0-0.7-0.4-0.9-0.6c0.3,0,0.2,0.1,0.4-0.1c-0.1-0.1-0.4,0.2-0.6,0c0.1-0.1,0.2-0.4,0.5-0.5c0,0,0.1,0.2,0.1,0.2
						C3.5,16.2,3,16.1,3.1,16l0.2,0c-0.1-0.3-0.6-0.2-0.7-0.7l-0.1,0.1c-0.5-0.1,0.2-0.2-0.2-0.4l0.4-0.1c-0.1-0.1-0.5-0.5-0.6-0.7
						c0.3,0.1,0.6,0.4,0.8,0.6c0-0.1-0.1-0.5-0.3-0.5c0.1,0.1,0.2,0.1,0.1,0.2c-0.4-0.1-0.6-0.4-0.6-0.7c0.9,0,0.2-0.8,0.9-1
						c-0.1-0.3-0.1-0.5,0-0.8c0.1-0.3,0.3-0.5,0.3-0.8c-0.7,0.1,0-0.2-0.7-0.3c0-0.2,0-0.2,0.1-0.2l0.5-0.3c0.2,0,0.1,0.2,0.3,0.2
						c0.1-0.3,0.3,0,0.5-0.2c-0.2,0-0.3-0.2-0.2-0.3L3.4,10C3.1,9.5,4.1,9.9,3.9,9.4L4,9.5C4,9.3,4.3,8.8,3.9,8.4
						c0.1,0,0.3,0,0.3,0.1c0.3-0.4,0-1.3,0.5-1.5l0.1,0.1c0-0.1-0.2-0.3,0-0.3C4.9,6.9,5,7,5,7c0-0.1-0.1-0.4,0.1-0.4l0.1,0.2
						c0.5-0.3,0.1-0.9,0.3-1.3c0.4,0.3,0.7,0.1,0.9,0.1l0,0.1c0.5-0.3,0.4-1,0.8-1.4C7.8,4.4,8.3,3.7,9,3.7c-0.1,0-0.2-0.4-0.1-0.4
						c0.2,0,0.2-0.5,0.3,0l0,0c0.3,0.4,0.4,0.1,0.6,0.1L9.6,2.8c0.4,0.3,0.7,0.1,1-0.1c0.3-0.2,0.6-0.3,0.8,0
						c0.1-0.2,0.2-0.2,0.3-0.4l0.1,0.3c0.4,0,0.5,0,1-0.1l-0.1,0.2c0.2,0,0.2-0.9,0.5-1l0.1,0.5c0.4-0.1,0.9,0.4,1.3,0
						c0,0.1,0,0.2-0.1,0.2c0.2,0,0.7,0.4,0.7-0.3c-0.1,0.4,0.4,0.1,0.7,0l-0.1,0.3c0.3-0.3,0.3-0.5,0.6-0.5c0.1,0.1,0,0.3-0.1,0.2
						c0.2,0.2,0.2-0.2,0.5,0l-0.2,0.2c0.2,0.1,0.2,0,0.4-0.2c0.2-0.1,0.4,0.2,0.3,0.5c0.1-0.2,0.3-0.3,0.4-0.2
						c0,0.1-0.1,0.2-0.1,0.2C18,3,18.4,2.5,18.5,2.9c0,0.1,0,0.2,0,0.2C18.2,3,18,2.9,18,2.9c-0.1,0.3,0.1,0.4-0.3,0.7
						c0.3-0.1,0.8-0.4,0.9-0.2c0,0,0,0.1,0,0.1l0,0c0,0,0.1,0,0.2,0c0,0.1,0.1,0.1,0.1,0.2C18.8,3.9,19,4,19.1,4
						c0.2-0.3,0.3-0.1,0.3-0.5c0,0,0,0-0.1,0c0,0,0,0-0.1,0l0,0c-0.1,0-0.2-0.1-0.3-0.1c0.2-0.1,0.3-0.2,0.4,0.1
						c0.2-0.1,0.3-0.3,0.4-0.3c-0.1,0.5,0.1,0.8-0.1,1.1c0.4,0.1,0.8,0.4,1.3,0.1c0.1,0,0,0.2-0.1,0.3c-0.1,0-0.1-0.1-0.2,0
						c0.3,0,0.5,0.4,0.8,0.1c0.1,0.3-0.4,0.2-0.1,0.4l-0.1,0.1c0,0.5,0.4,0.5,0.8,0.6c0.4,0.1,0.8,0.2,0.7,0.8c0-0.1,0-0.1,0.1-0.2
						C23,7,23.4,7.3,23.6,7.7c0.3,0.4,0.5,0.8,0.4,1.4c0,0.3,0.2,0.2,0.5,0.3l-0.3,0.2l0.5,0.2c0.4,0.3-0.6,0.9,0,1.2l0.2-0.1
						c0,0.2,0.2,0.6,0,0.6c0,0,0.2,0,0.1,0.1l-0.2,0c0,0,0.1,0.1,0.2,0.2c0.1,0.1,0.2,0.2,0.2,0.2c-0.1,0.4-0.7,0-0.7,0.5
						c0.1,0.2,0.5,0.5,0.7,0.4c0-0.1,0.1-0.2,0.3-0.2l0.1,0.2c0.5,0,1.1,0.2,1.4-0.3l-0.3-0.3l0.3-0.1l0,0.3c0.2-0.2,0-0.3-0.1-0.4
						c0.1,0,0.2-0.1,0.3-0.2l-0.5-0.3c0.2-0.1,0.4,0.1,0.5-0.1c-0.3-0.1-0.4,0.2-0.6,0c0.2-0.2,0.4-0.2,0.2-0.3c0.1,0,0.2,0,0.3,0
						c-0.2-0.1-0.1-0.4-0.4-0.5c0.3-0.2-0.2-0.5,0.3-0.6c-0.1,0-0.5-0.2-0.5-0.3C26.8,9.9,26,9.2,26.7,9c-0.6-0.1-0.5-0.7-0.9-0.9
						c0,0,0.1,0,0.1,0.1c0-0.2,0.1-0.3,0.1-0.5c-0.4,0.1-0.7-0.1-1-0.1c0.3-0.4,0.5-0.1,0.9-0.3c-0.3,0.2-0.5-0.3-0.8,0
						c0.2-0.3,0-0.2,0.3-0.5C25,6.9,25.4,6.6,25,6.6c0.1-0.4,0.4-0.3,0.1-0.5C25.2,5.9,25.5,6,25.5,6z M19.5,1.6L19.5,1.6
						c0.1,0,0.1,0,0.1,0C19.6,1.6,19.6,1.6,19.5,1.6z M18.9,1.3c0.1,0,0.1,0.1,0.2,0.1c0,0.1-0.1,0.2-0.2,0.2
						C19.1,1.6,19,1.5,18.9,1.3z M19,3.9c-0.1,0-0.1-0.1-0.1-0.1C18.9,3.7,19,3.7,19,3.9l0.1-0.1C19,3.8,19,3.8,19,3.9z"/>
					<path fill="#22A4A2" d="M19.3,3.6C19.3,3.6,19.3,3.6,19.3,3.6C19.3,3.5,19.3,3.5,19.3,3.6L19.3,3.6L19.3,3.6z"/>
					<path fill="#22A4A2" d="M20.3,22.2L20.3,22.2C20.3,22.2,20.3,22.2,20.3,22.2C20.3,22.2,20.3,22.2,20.3,22.2z"/>
					<polygon fill="#22A4A2" points="10.6,-0.1 10.7,0 10.7,-0.1 					"/>
					<path fill="#22A4A2" d="M23.3,20.8C23.4,20.9,23.4,20.9,23.3,20.8C23.4,20.9,23.4,20.8,23.3,20.8z"/>
					<path fill="#22A4A2" d="M24.2,19.7l0.2-0.1C24.3,19.7,24.3,19.7,24.2,19.7z"/>
					<path fill="#22A4A2" d="M24.9,18.9c0,0-0.1-0.1-0.1-0.1l0,0L24.9,18.9z"/>
					<path fill="#22A4A2" d="M9.8,25.5C9.8,25.5,9.8,25.5,9.8,25.5C9.6,25.5,9.7,25.5,9.8,25.5z"/>
					<path fill="#22A4A2" d="M15.1,25.2c0,0.1-0.1,0.1-0.1,0.2C15,25.4,15.1,25.4,15.1,25.2z"/>
					<polygon fill="#22A4A2" points="4.4,22.8 4.4,22.8 4.4,22.7 					"/>
					<path fill="#22A4A2" d="M14.7,25.4c0.1,0.1,0.2,0,0.2,0C14.8,25.4,14.8,25.4,14.7,25.4z"/>
					<path fill="#22A4A2" d="M26.5,14.3L26.5,14.3C26.5,14.3,26.4,14.2,26.5,14.3L26.5,14.3z"/>
					<path fill="#22A4A2" d="M26.4,14.2L26.4,14.2C26.4,14.2,26.4,14.2,26.4,14.2z"/>
					<path fill="#22A4A2" d="M26.3,14l0.1,0.1C26.4,14.1,26.4,14.1,26.3,14z"/>
					<path fill="#22A4A2" d="M26.1,15.7l0.1,0C26.2,15.8,26.1,15.8,26.1,15.7z"/>
					<path fill="#22A4A2" d="M26,16.2c0.1-0.1,0.3-0.2,0.3-0.4l-0.1,0C26.3,15.9,25.8,16,26,16.2z"/>
					<path fill="#22A4A2" d="M24.1,17.4c0,0,0.2-0.3,0.2-0.3c-0.1,0-0.3,0-0.3-0.1C23.5,17.2,24.3,17,24.1,17.4z"/>
					<path fill="#22A4A2" d="M23.5,18.2c0-0.2-0.2-0.1-0.2-0.1C23.3,18.3,23.3,18.3,23.5,18.2z"/>
					<path fill="#22A4A2" d="M18.2,23.1l-0.1-0.3C18,23,18.1,23,18.2,23.1z"/>
					<polygon fill="#22A4A2" points="17.3,25.1 17.5,25.2 17.5,24.9 					"/>
					<polygon fill="#22A4A2" points="16,23.3 16,23.2 15.8,23.4 					"/>
					<path fill="#22A4A2" d="M5.4,19.7L5.1,20C5.2,20,5.5,19.8,5.4,19.7z"/>
					<path fill="#22A4A2" d="M2.8,15.3C3,15.2,3.1,15,2.9,14.9C2.9,15.1,2.7,15.2,2.8,15.3z"/>
					<polygon fill="#22A4A2" points="10,3.1 10,3.2 10.1,3.1 					"/>
				</g>
			</g>
		</g>
	</g>
</g>
<g>
	<polygon fill="#FFFFFF" points="11.4,8 11.3,18.3 20.3,13.2 	"/>
	<g>
		<g>
			<g>
				<g>
					<path fill="#FFFFFF" d="M11.8,7.3c-0.1,0.1-0.2,0.3-0.1,0.3l0.2-0.3L11.8,7.3z"/>
					<path fill="#FFFFFF" d="M11.7,8.1c0.1-0.1,0.4-0.4,0.5-0.7C12,7.7,12,7.5,11.8,7.9c-0.1,0,0-0.1,0.1-0.3
						c-0.1,0.1,0-0.1-0.2,0.1c-0.1,0.3,0,0.3,0.1,0.2C11.8,7.9,11.8,8,11.7,8.1z"/>
					<path fill="#FFFFFF" d="M15.2,10.8L15.2,10.8C15.2,10.8,15.2,10.8,15.2,10.8z"/>
					<path fill="#FFFFFF" d="M17.4,12.3C17.3,12.3,17.3,12.3,17.4,12.3C17.3,12.4,17.3,12.3,17.4,12.3z"/>
					<path fill="#FFFFFF" d="M17.2,12.7C17.3,12.7,17.3,12.7,17.2,12.7C17.2,12.7,17.2,12.7,17.2,12.7z"/>
					<path fill="#FFFFFF" d="M15.2,10.8l0,0.1C15.3,10.8,15.2,10.8,15.2,10.8z"/>
					<path fill="#FFFFFF" d="M12.7,7.6C12.7,7.6,12.6,7.6,12.7,7.6C12.6,7.7,12.6,7.6,12.7,7.6L12.7,7.6z"/>
					<path fill="#FFFFFF" d="M14,10.5L14,10.5c0,0-0.1,0.1-0.1,0.1L14,10.5z"/>
					<path fill="#FFFFFF" d="M13.2,10c0,0,0.2-0.2,0.3-0.4c-0.1,0.1-0.1,0.2-0.2,0.2C13.3,9.9,13.2,10,13.2,10z"/>
					<path fill="#FFFFFF" d="M12.2,8.8L12.2,8.8C12.2,8.8,12.2,8.8,12.2,8.8z"/>
					<path fill="#FFFFFF" d="M14.6,10.9c0,0,0,0.1-0.1,0.1C14.5,10.9,14.5,10.9,14.6,10.9z"/>
					<path fill="#FFFFFF" d="M9.9,9C9.9,9,10,9,9.9,9C9.9,9,9.9,9,9.9,9z"/>
					<polygon fill="#FFFFFF" points="11.5,8 11.5,8 11.7,8 					"/>
					<path fill="#FFFFFF" d="M17,13.1L17,13.1C17,13.1,17,13.1,17,13.1z"/>
					<path fill="#FFFFFF" d="M14.3,15.1c0.2,0.2,0.1,0.4,0.3,0.6C14.5,15.6,14.5,15.2,14.3,15.1z"/>
					<path fill="#FFFFFF" d="M12.7,7.6C12.7,7.6,12.7,7.7,12.7,7.6C12.7,7.6,12.7,7.6,12.7,7.6z"/>
					<path fill="#FFFFFF" d="M14.6,15.7L14.6,15.7L14.6,15.7C14.6,15.7,14.6,15.7,14.6,15.7z"/>
					<path fill="#FFFFFF" d="M17.5,13.2c0.1,0,0.2,0,0.3,0C17.7,13.2,17.6,13.2,17.5,13.2z"/>
					<path fill="#FFFFFF" d="M18,12.9L18,12.9C18,12.9,18,12.9,18,12.9z"/>
					<path fill="#FFFFFF" d="M18,13.5C18,13.5,17.9,13.5,18,13.5C18,13.5,18,13.5,18,13.5C18,13.5,17.9,13.5,18,13.5z"/>
					<path fill="#FFFFFF" d="M17.7,13.7C17.7,13.7,17.7,13.7,17.7,13.7L17.7,13.7L17.7,13.7z"/>
					<path fill="#FFFFFF" d="M10,11.4c0.1,0,0.2,0,0.3,0C10.1,11.4,10,11.3,10,11.4z"/>
					<path fill="#FFFFFF" d="M12.6,7.8c0-0.1,0.1-0.1,0.1-0.1c0,0,0,0,0,0C12.6,7.7,12.6,7.7,12.6,7.8z"/>
					<path fill="#FFFFFF" d="M21.7,14.3l-0.3,0.1C21.5,14.4,21.6,14.3,21.7,14.3z"/>
					<path fill="#FFFFFF" d="M10,18.5L10,18.5C10,18.5,10,18.5,10,18.5z"/>
					<path fill="#FFFFFF" d="M20.8,14.8c-0.2,0-0.3,0-0.4,0c0,0,0,0,0.1,0.1L20.8,14.8z"/>
					<path fill="#FFFFFF" d="M10.3,11.4L10.3,11.4L10.3,11.4z"/>
					<path fill="#FFFFFF" d="M9.6,10.6c0,0.1,0.4,0.1,0.7,0.1c0.1,0.1-0.3,0.1-0.5,0.1c0.1,0.1,0.5,0.2,0.5,0.2c-0.1,0-0.1,0-0.2,0
						c0.3,0.1,0,0.3,0.4,0.4c0,0-0.1,0-0.1,0c0.2,0,0.4,0,0.6,0c0,0.1,0.3,0.1,0,0.1c0,0-0.1,0-0.2-0.1l0.1,0.1
						c-0.4,0-0.1-0.1-0.4-0.1c0.1,0.1,0.5,0.2,0.3,0.3c-0.4,0-0.1-0.2-0.5-0.1l0.1-0.1c-0.6,0.1,0-0.1-0.6,0
						c-0.1,0.2,0.2,0.2,0.1,0.4c0.2,0,0.3,0,0.5,0c0.4,0.2-1,0.2-0.5,0.4c0.3,0,0.7,0.1,0.5,0.2l-0.4,0c0,0.2,0.6,0.1,0.3,0.3
						c-0.2,0-0.1-0.1-0.2-0.1c-0.3,0.1,0.2,0.1,0.2,0.2l-0.4,0c0.1,0.2,0.3,0.4,0.4,0.6c-0.1,0-0.2,0-0.4,0c0.2,0.2-0.1,0.5-0.3,0.8
						l0.3,0.1c0,0-0.2,0-0.2,0c-0.1,0.1,0.2,0,0.3,0.1c0,0.1-0.2,0.1-0.3,0c0.3,0.2,0.6,0.5,0.2,0.6l-0.1,0
						c-0.1,0.1,0.7,0.1,0.4,0.3l-0.1,0c-0.1,0.5,0.2,0.8-0.4,1.4c0.5-0.2-0.2,0.6,0.5,0.2c-0.3,0.5-0.5,0.5-0.7,1.1
						c0,0.1,0.4-0.2,0.5-0.1L10,18.1c0,0,0.1,0,0.2-0.1c0.1,0,0.2-0.1,0.2-0.1l-0.4,0.5l0.1,0c0-0.1,0.2-0.3,0.3-0.4
						c0.2,0-0.2,0.7-0.4,0.9c0,0,0.3,0.1,0.3,0.1c-0.1,0.2-0.2,0.2-0.3,0.2c0.4-0.2-0.4,0.5,0,0.3c0.1-0.1,0.2-0.3,0.3-0.4
						C9.9,19.7,9.9,20,10,20.1l-0.2,0.3c0,0.3,0,0.4,0,0.6c0.2-0.1,0.4-0.3,0.5-0.4c0-0.1,0.4-0.8,0.5-0.9l-0.3,0.6
						c0.3-0.4,0-0.2,0.4-0.7c0.1,0-0.3,0.6-0.5,0.9l0.3-0.3c-0.1,0.2-0.2,0.3-0.3,0.5c0.2-0.4,0,0.4,0.4-0.3l-0.1,0.2
						c0.4-0.2,0.6-0.5,0.9-0.7c0.2-0.5,0.2-0.4,0.4-0.8c0.1,0,0.3,0.2,0.5,0.1c0.2-0.3,0.1-0.4,0.2-0.6c0,0.4,0.2,0.2,0.1,0.5
						c0.3-0.2,0.4-0.3,0.7-0.7c-0.1-0.1-0.1-0.1-0.1-0.3c0-0.1,0.1,0.1,0.2,0.2l0,0c0.2-0.3,0.4-0.2,0.7-0.2c0.3,0.1,0.7,0,0.6-0.3
						l0,0l0-0.4c0.1,0,0.1,0.2,0.2,0.3c0-0.5,0.4-0.1,0.4-0.5c0.6,0.7,0.4-0.3,0.9,0l-0.1-0.2c-0.1-0.2,0.1,0.1,0.2,0.1
						c-0.1-0.1-0.1-0.1-0.2-0.2c0.3-0.4,1-0.2,1.5-0.3c0.2,0-0.4-1,0-0.6l0.1,0.4c0-0.3,0.2-0.4,0.4-0.4c0.2-0.1,0.6-0.3,0.7-0.6
						c0,0.1,0.1,0.2,0.1,0.2c0.3,0.1,0.4-0.2,0.2-0.4c0.1,0,0.2,0.1,0.3,0.2c0.3,0,0-0.4,0.3-0.2c0.1,0,0.1,0.1,0,0.1
						c0-0.1,0.4-0.2,0-0.3c0.4,0,0.2-0.3,0.6-0.3c-0.3-0.2,0.5-0.1-0.1-0.3c0.6,0.2,0.9,0,0.7-0.2c0.2,0.1,0.3,0,0.6,0.1
						c0.1-0.1,0.1-0.2-0.3-0.3c0.6,0,0.6-0.1,0.5-0.2c-0.1-0.1-0.1-0.1,0.7-0.1c0-0.2-0.1-0.4,0-0.5c-0.2-0.1-0.4-0.1-0.5-0.2
						c0.7,0,0.6,0.1,1,0.2c0,0,0.2,0,0.4,0c0,0,0,0,0,0c-0.8-0.2-1.7-0.3-1.7-0.5c0-0.1,0.4,0,0.6,0c-0.7-0.2-0.6-0.4-1.3-0.5
						c0.1,0,0.2,0,0.3,0c-0.1,0,0-0.1-0.4,0l0.1,0c-0.4,0.1-1.2,0.1-1.4,0.2c1-0.2,0-0.2,1.2-0.4c-0.1,0-0.3,0-0.5,0.1
						c0,0,0.1-0.1,0.4-0.1c-0.4-0.1-0.6,0.1-0.8,0c0.1-0.1,0.2-0.1,0.4-0.1c-0.4,0-0.7,0.1-0.7,0c0.1,0,0.2-0.1,0.2-0.1
						c-0.3-0.1-1,0.1-1-0.2c0.5-0.3,0.1-0.2,0.4-0.5l-0.3,0l-0.1,0.2c-0.1-0.1-0.4,0.1-0.5-0.1l0.2-0.1L18.2,11l0,0.2
						c-0.3,0.1-0.3,0.4-0.4,0.3c0.1,0-0.1-0.1,0-0.3l0,0c-0.1,0.1-0.2,0.2-0.2,0.1c0.1-0.1,0.3-0.4,0.3-0.5c-0.2,0.3-0.3,0-0.5,0.3
						c0.1-0.1,0.2-0.3,0.2-0.3L17.4,11c0-0.1,0-0.1,0.1-0.3c-0.1-0.1-0.2,0.5-0.3,0.2c0,0,0-0.1,0.1-0.1c-0.1-0.2-0.4,0-0.4-0.2
						c0.2-0.4,0.2,0,0.3-0.4c-0.2,0-0.7,0.2-0.8,0l0,0.1c-0.3,0.5,0-0.3-0.2-0.1c0,0,0.2-0.3,0.2-0.2c-0.1-0.2-0.3,0-0.6,0l0.1-0.1
						c0-0.2-0.2-0.2-0.2-0.3c-0.1,0.1-0.1,0.1-0.2,0.3c0.2-0.9-0.7,0.1-0.6-0.6c0,0,0.1-0.1,0.1-0.1l-0.3,0
						c-0.1,0.2-0.1,0.2-0.1,0.4c-0.1,0.1-0.2,0.2-0.3,0.2c0.2-0.1,0.2-0.4,0.3-0.5c0,0.1-0.1,0.1-0.1,0.2c0.1-0.5-0.3,0.4-0.3,0.1
						l0.1-0.1c-0.1,0-0.2,0.2-0.3,0.1c0.1-0.3,0.1-0.1,0.3-0.3c-0.1,0-0.4,0.4-0.4,0.1c0.1-0.1,0.1,0,0.2-0.1c0.1-0.4,0.1-0.3,0-0.4
						l0,0l0-0.2l0,0.1c-0.5,0.6-0.3,0-0.7,0.4c0.4-0.4,0.2-0.2,0.3-0.5c0-0.1,0-0.2,0.1-0.3c-0.2,0.2,0-0.2-0.3,0.1
						c0.1-0.1-0.1,0,0.1-0.3c-0.1,0-0.1,0.2-0.2,0.3c-0.3,0.3,0-0.6-0.5-0.2c-0.3,0.1-0.5,0.4-0.7,0.5c0-0.2,0.2-0.3,0.2-0.3
						c0-0.2-0.1-0.2-0.2-0.1c0.1-0.1,0.1-0.2,0.1-0.3c-0.1,0-0.2,0.3-0.2,0.1c0.1-0.1,0.2-0.3,0.3-0.4c-0.1,0-0.3,0.2-0.4,0.2
						c0.1-0.2,0.2-0.2,0.3-0.3c-0.1,0-0.3,0-0.5,0.3L12,8c0,0,0.1-0.2,0.2-0.3c0.2-0.2,0,0.1,0,0.2l-0.1,0c-0.3,0.6,0.3,0,0.3,0.1
						l-0.3,0.4l0.3-0.3c0,0.1-0.2,0.4-0.2,0.4c0,0.2,0.1-0.1,0.1,0.2c0,0,0,0.1,0,0.1l0.1-0.1c-0.1,0.1-0.2,0.3-0.2,0.2
						c0,0.3,0.4-0.2,0.2,0.1l0,0c0.3,0,0.2-0.3,0.5-0.6l-0.3,0.8l0.2-0.3c0,0,0,0.1,0,0.2c0.2-0.2,0.1-0.1,0.2-0.3
						c-0.1,0.3,0.3,0,0.1,0.5c0.2-0.2,0-0.2,0.2-0.3c-0.3,0.5,0.2,0,0.1,0.3c-0.2,0.3-0.2,0.1-0.2,0.3c0.3-0.4,0.1,0.2,0.2,0.1
						c0.2-0.4,0.2-0.1,0.4-0.1c-0.1,0.1,0.1,0.3,0.1,0.5l0,0.1c0.2-0.3,0.3-0.2,0.4-0.2c-0.1,0.2-0.2,0.3-0.3,0.4l0.1,0
						c0.1-0.1,0.1-0.2,0.2-0.2L14,10.5c0.1,0,0.4-0.2,0.4,0.1c0.2-0.2,0.3-0.8,0.5-0.8c-0.1,0.1-0.2,0.4-0.3,0.4c0,0,0.1-0.1,0.1,0
						l-0.2,0.2c0,0.1,0.1-0.2,0.2-0.1c-0.1,0.2,0,0.2-0.1,0.3c0,0,0-0.1-0.1,0c0,0.1,0,0.2,0,0.4c0.1-0.1,0.2-0.3,0.2-0.3
						c0.1,0-0.1,0.3-0.1,0.4c0.1-0.1,0.1,0.1,0.3-0.2c0,0,0,0.2-0.1,0.2c0.1-0.1,0.3,0.1,0.4-0.2l0,0c0,0,0,0,0,0l0,0l0,0
						c0.3-0.2,0.2,0.4,0.5,0.3l-0.1,0.1c0.2-0.1,0.3,0.1,0.4-0.1c0,0,0,0.2-0.1,0.3c0.1,0,0.2-0.1,0.2,0.1c-0.2,0.1-0.1,0.2-0.1,0.1
						c0,0.1,0,0.3,0.2,0.1c-0.2,0.2-0.1,0.4,0,0.3l0-0.2c0.1,0,0.1,0,0.1,0.1l-0.2,0.3c0,0.5,0.8-0.5,0.5,0.3c0.2-0.2,0-0.2,0.2-0.5
						c0.1,0.1-0.1,0.6-0.1,0.6c0,0.3,0.4-0.4,0.4-0.2c0.1-0.1,0.2-0.4,0.4-0.5c0.1,0.1-0.3,0.5-0.4,0.6c0,0,0,0,0-0.1
						c0,0-0.1,0.1-0.2,0.2l0.1-0.1c-0.1,0.1,0,0.1-0.2,0.3c0.1-0.1,0.2-0.2,0.2-0.2c-0.1,0.2,0.1,0.1,0,0.2c0.1-0.1,0.2-0.2,0.2-0.2
						c-0.1,0.2,0.3-0.1,0.4-0.1c-0.2,0.1-0.5,0.3-0.2,0.2c-0.1,0.1-0.4,0.2-0.5,0.3c0.3-0.1-0.1,0.1-0.2,0.1l-0.1,0.1
						c0.1,0,0.1,0,0.1,0l0.3-0.1c0,0,0,0-0.2,0.1c0.2-0.1,0.5-0.2,0.8-0.3c-0.1,0.1,0.3,0-0.2,0.1c0.1-0.1-0.4,0.2-0.6,0.2
						c0.1,0,0.1,0,0,0c-0.1,0-0.1,0-0.1,0c-0.4,0.1,0.5-0.2,0.6-0.1c-0.3,0.1-0.5,0.1-0.5,0.1c0,0,0.5-0.1,0.7-0.2
						c-0.2,0.1,0.2,0,0.2,0l0.1,0c0.3-0.1,0.3,0,0.4,0c-0.2,0-0.2,0-0.3,0c0.6-0.1-0.5,0.1-0.1,0.1c-0.2,0-0.6,0.1-0.8,0.1
						c0.5,0-0.4,0.1,0,0c0.5,0,0.3,0,0.9,0l-0.4,0l0.7,0c0,0-0.4,0-0.3,0c0.4,0,0.3,0,0.7-0.1c-0.7,0.1,0.5,0,0.1,0.1l-1.2,0
						c-0.4,0,0.2,0,0.4,0.1c0.1,0,0.1,0,0,0l0.3,0c0.5,0,0,0,0.2,0.1c-0.4,0-0.6,0-0.8,0c0.3,0-0.1,0,0.7,0.1l-0.6,0
						c-0.2,0,1,0.2,0.7,0.2c-0.4-0.1-0.6-0.1-0.9-0.2c0,0-0.1,0,0.1,0.1c-0.2,0,0.4,0.1,0.1,0.1c0.1,0,0.5,0.1,0.4,0.1
						c-0.1,0-0.2,0-0.2,0c0.2,0,0.2,0.1,0.5,0.2c-0.5-0.1-0.6-0.1-0.6,0c0,0-0.1,0.1-0.4,0c0,0.1,0,0.2,0,0.2
						c-0.1,0-0.1-0.1-0.1-0.1c-0.3-0.1,0.5,0.4,0.2,0.4C17.5,14,17.8,14,17.6,14c-0.6-0.5,0,0.1-0.4-0.2l0,0c-0.2-0.2,0.1,0.3,0,0.3
						c0,0,0-0.1-0.1-0.1c0.2,0.3,0,0.6,0,0.7c-0.1-0.3,0-0.2-0.2-0.4c0,0.1,0.2,0.4,0.2,0.5c-0.1-0.1-0.3-0.2-0.4-0.5l0.1-0.1
						c-0.3-0.3-0.1,0.1-0.2,0.1l-0.1-0.2c-0.1,0.1,0.1,0.5-0.1,0.6l0.1,0.1c0.1,0.4-0.2-0.2-0.1,0.2l-0.2-0.4c0,0.1,0,0.5-0.1,0.6
						C16,14.9,16,14.7,16,14.5c-0.1,0-0.2,0.1-0.1,0.3c0-0.1,0-0.2,0-0.1c0.1,0.3,0.1,0.6,0,0.6c-0.4-0.8-0.4,0-0.8-0.6
						c0,0.4-0.5,0.1-0.7,0.3c0.4,0.5-0.1,0.1,0.3,0.7c0,0.1-0.1,0.1-0.1,0l-0.4-0.3c-0.1-0.2,0-0.2-0.1-0.3c-0.1,0-0.2-0.2-0.4-0.3
						c0.1,0.2,0.1,0.3,0,0.3l0.3,0.2c0,0.4-0.4-0.4-0.4,0l-0.1-0.2c0,0.1-0.1,0.1-0.1,0.2c-0.1,0.1,0,0.2,0.1,0.4
						c0-0.1-0.1-0.2-0.1-0.3c0,0,0,0.1,0,0.3c0,0.1-0.1,0.3-0.1,0.1l0-0.2c0,0.1,0,0.4,0,0.2c0-0.1,0-0.2,0-0.2c0,0.1,0,0.4,0,0.3
						l0-0.2c0-0.2-0.1,0.6-0.3,0.8c0.1-0.6,0.2-0.8,0.2-1l0-0.1c0-0.1-0.3,0.6-0.5,1c0.2-0.6,0.2-0.5,0.2-0.5c0-0.1,0.1-0.1,0.2-0.3
						c-0.1,0.2-0.4,0.6-0.4,0.7c0.1-0.2-0.4,0.4,0.1-0.2l0,0c0.5-0.7,0.3-0.5,0.3-0.5l-0.6,0.8c0.4-0.6,0.4-0.5,0.3-0.5
						c-0.1,0.1-0.2,0.1,0.2-0.3c-0.2,0.1-0.1,0.1-0.3,0.2l0.3-0.3c0.1-0.1,0.1-0.1,0-0.1l0.2-0.1c0,0-0.9,0.5-0.9,0.4l0.5-0.2
						c0-0.1,0.4-0.2,0-0.2c0.1,0,0.2,0,0.2,0c0,0,0.1,0,0.1,0c0-0.1-0.1-0.1-0.4-0.1c0.4,0,0-0.2-0.1-0.3l0.3,0
						c-0.4-0.1-0.5-0.1-0.6-0.2c0,0,0.3,0,0.2,0c0.2-0.1-0.3-0.1-0.1-0.2l0.2,0c0-0.1-0.1-0.1-0.3-0.2C11.8,14.1,12,14,12.3,14
						c-0.2,0-0.4-0.1-0.3-0.1c0.1,0,0.2,0,0.2,0c0.2-0.2-0.4-0.3-0.1-0.4c0.1,0,0.2,0,0.2,0c0,0.1,0,0.3,0,0.2c0.3,0,0.3-0.1,0.7,0
						c-0.2-0.1-0.7-0.2-0.6-0.4c0,0,0.1,0,0.1,0l0,0c0,0,0,0,0-0.1c0,0,0.1-0.1,0.1-0.1c0.2,0,0.1-0.1,0.1-0.2c-0.3,0-0.3-0.1-0.5,0
						c0,0,0,0,0.1,0c0,0,0,0,0,0l0,0c0,0,0,0.1,0,0.1c-0.2,0-0.3-0.1-0.1-0.2C12,13,11.8,13,11.7,13c0.4-0.1,0.7-0.2,1-0.2
						c-0.2-0.2-0.1-0.4-0.7-0.5c-0.1,0,0.2-0.1,0.3-0.1c0.1,0,0.1,0.1,0.1,0.1c-0.2-0.1-0.1-0.3-0.5-0.3c0.2-0.1,0.4,0.1,0.3-0.1
						l0.1,0c0.7-0.3-1.1-0.5-0.2-0.9c-0.1,0-0.1,0-0.1,0c0.4-0.4-0.3-0.9,0.3-1.3c0.1-0.1-0.1-0.1-0.3-0.2l0.3,0l-0.4-0.1
						c-0.3-0.2,0.8-0.3,0.3-0.5l-0.2,0c0-0.1-0.1-0.3,0.1-0.2c0,0-0.2,0-0.1-0.1l0.2,0l-0.3-0.2c0.1-0.1,0.7,0,0.7-0.2
						C12.5,8.1,12,7.9,11.9,8c0,0-0.1,0.1-0.3,0.1L11.5,8c-0.5,0-1.1-0.1-1.4,0.1l0.3,0.1l-0.3,0l0-0.1c-0.2,0.1,0,0.1,0.1,0.1
						c-0.1,0-0.2,0-0.3,0.1l0.5,0.1c-0.2,0-0.4-0.1-0.5,0c0.2,0.1,0.5-0.1,0.6,0c-0.2,0.1-0.4,0-0.2,0.1c-0.1,0-0.2,0-0.3,0
						c0.2,0.1,0.1,0.2,0.3,0.2C10.1,8.9,10.5,9,10,9c0.1,0,0.4,0.1,0.4,0.2c-0.6-0.1,0,0.2-0.7,0.2c0.5,0.1,0.2,0.3,0.5,0.4
						c0,0-0.1,0-0.1,0c0,0.1-0.2,0.1-0.3,0.1c0.4,0,0.5,0.1,0.8,0.2c-0.4,0.1-0.5-0.1-0.9,0c0.4,0,0.4,0.2,0.7,0.1
						c-0.3,0.1-0.1,0.1-0.5,0.1c0.6,0,0.1,0.1,0.4,0.1c-0.3,0.1-0.5,0-0.4,0.1C9.8,10.7,9.6,10.6,9.6,10.6z M10.5,13.4L10.5,13.4
						C10.5,13.3,10.5,13.3,10.5,13.4C10.5,13.3,10.5,13.3,10.5,13.4z M10.5,13.6c0,0,0-0.1,0-0.1c0.1,0,0.2,0,0.2,0
						C10.7,13.5,10.6,13.6,10.5,13.6z M12.7,13.1C12.8,13.2,12.7,13.2,12.7,13.1c-0.1,0-0.1,0-0.1,0l0,0
						C12.6,13.1,12.7,13.1,12.7,13.1z"/>
					<path fill="#FFFFFF" d="M12.3,13C12.3,13,12.3,13,12.3,13C12.3,13,12.3,13,12.3,13L12.3,13L12.3,13z"/>
					<path fill="#FFFFFF" d="M15.2,10.7L15.2,10.7C15.2,10.7,15.2,10.7,15.2,10.7C15.2,10.7,15.2,10.7,15.2,10.7z"/>
					<polygon fill="#FFFFFF" points="9.9,18.2 10,18.1 9.9,18.1 					"/>
					<path fill="#FFFFFF" d="M14.6,9.1C14.7,9.1,14.7,9.1,14.6,9.1C14.7,9.1,14.7,9.1,14.6,9.1z"/>
					<path fill="#FFFFFF" d="M14.2,8.8l0-0.1C14.2,8.7,14.2,8.8,14.2,8.8z"/>
					<path fill="#FFFFFF" d="M13.9,8.4c0,0-0.1,0.1-0.1,0.1l0,0L13.9,8.4z"/>
					<path fill="#FFFFFF" d="M21.2,12.3C21.2,12.3,21.2,12.3,21.2,12.3C21.4,12.3,21.3,12.3,21.2,12.3z"/>
					<path fill="#FFFFFF" d="M17.9,11.2c0.1,0,0.1-0.1,0.2-0.1C18,11.1,18,11,17.9,11.2z"/>
					<polygon fill="#FFFFFF" points="21.7,14.3 21.7,14.3 21.7,14.3 					"/>
					<path fill="#FFFFFF" d="M18.1,11.2c0-0.1,0-0.1-0.1-0.1C18,11.2,18.1,11.2,18.1,11.2z"/>
					<path fill="#FFFFFF" d="M12.4,7.4L12.4,7.4C12.4,7.4,12.3,7.4,12.4,7.4L12.4,7.4z"/>
					<path fill="#FFFFFF" d="M12.3,7.4L12.3,7.4C12.3,7.4,12.3,7.4,12.3,7.4z"/>
					<path fill="#FFFFFF" d="M12.2,7.5L12.2,7.5C12.3,7.4,12.3,7.4,12.2,7.5z"/>
					<path fill="#FFFFFF" d="M12.8,7.8L12.8,7.8C12.8,7.7,12.8,7.7,12.8,7.8z"/>
					<path fill="#FFFFFF" d="M13,7.9c0,0,0-0.3-0.1-0.2l-0.1,0.1C13,7.6,12.8,8,13,7.9z"/>
					<path fill="#FFFFFF" d="M12.9,9.5l-0.1-0.2c0,0.1-0.1,0.3-0.2,0.3C12.6,10,12.7,9.3,12.9,9.5z"/>
					<path fill="#FFFFFF" d="M13.2,9.8c-0.1,0-0.1,0.2-0.1,0.2C13.1,10,13.1,10,13.2,9.8z"/>
					<path fill="#FFFFFF" d="M15.9,11.5l-0.2,0.2C15.9,11.7,15.9,11.6,15.9,11.5z"/>
					<polygon fill="#FFFFFF" points="17.2,10.5 17.3,10.3 17.1,10.5 					"/>
					<polygon fill="#FFFFFF" points="16.5,12.5 16.5,12.5 16.6,12.4 					"/>
					<path fill="#FFFFFF" d="M17.4,13.5l0.4,0.2C17.8,13.6,17.3,13.4,17.4,13.5z"/>
					<path fill="#FFFFFF" d="M16.3,14.5c-0.1-0.1-0.2-0.2-0.2,0C16.2,14.5,16.3,14.6,16.3,14.5z"/>
					<polygon fill="#FFFFFF" points="12.8,15.7 12.9,15.5 12.8,15.6 					"/>
				</g>
			</g>
		</g>
	</g>
</g>
</svg>
