<?xml version="1.0" encoding="utf-8"?>
<!-- Generator: Adobe Illustrator 17.1.0, SVG Export Plug-In . SVG Version: 6.00 Build 0)  -->
<!DOCTYPE svg PUBLIC "-//W3C//DTD SVG 1.1//EN" "http://www.w3.org/Graphics/SVG/1.1/DTD/svg11.dtd">
<svg version="1.1" id="Layer_1" xmlns="http://www.w3.org/2000/svg" xmlns:xlink="http://www.w3.org/1999/xlink" x="0px" y="0px"
	 viewBox="0 0 23 20" enable-background="new 0 0 23 20" xml:space="preserve">
<path fill="#F9DF1E" d="M21.6,13.2L6,13.2v-0.8l14.3-1.9c0.8-0.1,1.3-0.7,1.3-1.5V4.3c0-0.8-0.6-1.4-1.4-1.4H6V1.8
	c0-1-0.8-1.7-1.7-1.7H1.4C0.8,0,0.3,0.5,0.3,1.1c0,0.6,0.5,1.1,1.1,1.1h2.3v11.4c0,1,0.8,1.7,1.7,1.7h16.1c0.6,0,1.1-0.5,1.1-1.1
	C22.7,13.7,22.2,13.2,21.6,13.2z M12.2,10l-2.7,0.4V4.4h2.7V10z M13.5,4.4h2.7v5l-2.7,0.4V4.4z M20,8.9l-2.6,0.3V4.4H20V8.9z
	 M8.2,4.4v6.1L6,10.8V4.4H8.2z"/>
<circle fill="#F9DF1E" cx="8.8" cy="17.8" r="2.2"/>
<circle fill="#F9DF1E" cx="19.3" cy="17.8" r="2.2"/>
</svg>
